<svg width="240" height="240" viewBox="0 0 240 240" fill="none" xmlns="http://www.w3.org/2000/svg">
<path d="M112.476 228.92L111.51 238.869L105.601 238.296L105.708 237.195L110.362 237.647L110.664 234.539L109.187 234.396C108.193 234.3 107.434 234.099 106.91 233.795C106.386 233.5 106.037 233.129 105.865 232.681C105.692 232.242 105.632 231.749 105.685 231.201C105.774 230.29 106.117 229.602 106.716 229.135C107.314 228.677 108.263 228.511 109.563 228.637L112.476 228.92ZM109.585 229.723C108.693 229.636 108.051 229.724 107.66 229.986C107.268 230.257 107.042 230.704 106.981 231.327C106.919 231.968 107.075 232.437 107.449 232.736C107.823 233.035 108.489 233.231 109.446 233.324L110.77 233.453L111.117 229.871L109.585 229.723Z" fill="#B3B3BD"/>
<path d="M96.8156 236.923L95.6705 236.656L96.9193 231.312C96.9894 231.012 97.0725 230.677 97.1686 230.306C97.2648 229.936 97.3581 229.598 97.4485 229.293C97.5298 228.986 97.5965 228.762 97.6487 228.621L97.5941 228.608L90.3537 235.413L88.9904 235.095L91.265 225.361L92.4102 225.628L91.1741 230.918C91.0955 231.254 91.0071 231.612 90.9088 231.992C90.8014 232.369 90.7015 232.715 90.609 233.029C90.5165 233.343 90.4498 233.567 90.4088 233.701L90.4633 233.714L97.727 226.871L99.0902 227.19L96.8156 236.923Z" fill="#B3B3BD"/>
<path d="M81.2492 222.02L82.4294 222.461L79.3151 230.788L82.2393 231.881L81.8518 232.917L74.8364 230.293L75.2239 229.257L78.1349 230.346L81.2492 222.02Z" fill="#B3B3BD"/>
<path d="M65.6918 226.018C64.5313 225.417 63.8036 224.752 63.5089 224.022C63.2143 223.291 63.2813 222.511 63.7102 221.682C63.9632 221.193 64.3131 220.791 64.7599 220.476C65.1942 220.165 65.741 220.011 66.4005 220.016C67.0517 220.017 67.8208 220.247 68.7078 220.706L69.7275 221.233L71.5157 217.776L72.6348 218.355L68.042 227.233L65.6918 226.018ZM66.2866 225.112L67.4182 225.697L69.2322 222.19L68.3369 221.727C67.4913 221.29 66.7905 221.101 66.2345 221.16C65.6785 221.219 65.2311 221.576 64.8923 222.231C64.5964 222.803 64.558 223.324 64.7769 223.795C64.9959 224.265 65.4991 224.704 66.2866 225.112Z" fill="#B3B3BD"/>
<path d="M55.1225 219.968L54.1587 219.294L57.3033 214.796C57.4798 214.544 57.6815 214.264 57.9084 213.955C58.1353 213.647 58.3474 213.368 58.5445 213.119C58.734 212.864 58.8792 212.681 58.98 212.569L58.9341 212.537L49.6839 216.166L48.5366 215.363L54.2643 207.171L55.2281 207.845L52.1155 212.297C51.9176 212.58 51.7026 212.879 51.4703 213.195C51.2304 213.506 51.0092 213.79 50.8067 214.047C50.6042 214.304 50.4591 214.487 50.3712 214.596L50.4171 214.628L59.7028 210.974L60.8502 211.776L55.1225 219.968Z" fill="#B3B3BD"/>
<path d="M43.1704 197.558L44.284 198.58L44.1861 205.372L47.6144 201.639L48.5423 202.492L41.7806 209.854L40.8526 209.001L44.1293 205.434L37.6047 206.018L36.553 205.052L43.0355 204.41L43.1704 197.558Z" fill="#B3B3BD"/>
<path d="M29.2659 195.61C29.9606 196.428 30.7812 196.84 31.7278 196.844C32.6743 196.849 33.6242 196.446 34.5776 195.637C35.5239 194.833 36.0902 193.979 36.2767 193.074C36.45 192.167 36.1651 191.277 35.4221 190.402C35.1382 190.067 34.8409 189.775 34.5303 189.524C34.2196 189.274 33.9008 189.043 33.5738 188.83L34.4062 188.124C34.7546 188.318 35.0835 188.546 35.3931 188.81C35.6966 189.067 36.0266 189.405 36.383 189.825C37.0414 190.6 37.4311 191.383 37.5519 192.175C37.6727 192.966 37.5496 193.744 37.1826 194.508C36.8096 195.266 36.2246 195.983 35.4278 196.66C34.6594 197.312 33.8657 197.747 33.0467 197.965C32.2145 198.182 31.4022 198.155 30.6098 197.885C29.8103 197.621 29.0783 197.098 28.4138 196.315C27.7311 195.511 27.2855 194.684 27.0769 193.832L28.2142 193.528C28.3068 193.853 28.4343 194.198 28.5966 194.562C28.7528 194.919 28.976 195.269 29.2659 195.61Z" fill="#B3B3BD"/>
<path d="M21.8245 167.56L22.4093 168.676L18.2799 170.84L20.6582 175.379L24.7876 173.215L25.3724 174.331L16.5184 178.971L15.9336 177.855L19.6785 175.892L17.3003 171.354L13.5553 173.316L12.9705 172.2L21.8245 167.56Z" fill="#B3B3BD"/>
<path d="M16.5578 154.522L14.064 156.714L15.4222 160.436L18.7367 160.493L19.1734 161.69L8.40467 161.461L8.01592 160.396L16.1115 153.299L16.5578 154.522ZM10.6847 159.541C10.6241 159.593 10.513 159.684 10.3512 159.812C10.1895 159.941 10.0234 160.071 9.85292 160.203C9.67045 160.329 9.53302 160.429 9.4406 160.502C9.7348 160.464 10.0278 160.437 10.3196 160.42C10.6027 160.406 10.8284 160.398 10.9966 160.396L14.2261 160.425L13.1415 157.453L10.6847 159.541Z" fill="#B3B3BD"/>
<path d="M11.917 133.815L3.60895 138.129L3.61564 138.184C3.89955 138.122 4.28596 138.052 4.77485 137.974C5.25448 137.898 5.75838 137.828 6.28657 137.764L12.3051 137.04L12.444 138.193L2.5196 139.388L2.29711 137.539L10.0604 133.503L10.0537 133.447L1.54769 131.312L1.32687 129.477L11.2513 128.283L11.4001 129.52L5.29817 130.254C4.81632 130.312 4.33798 130.36 3.86316 130.399C3.38722 130.428 2.99988 130.451 2.70112 130.468L2.70781 130.524L11.7933 132.786L11.917 133.815Z" fill="#B3B3BD"/>
<path d="M11.164 114.612L8.04448 115.748L7.95793 119.709L11.0252 120.966L10.9974 122.24L1.04709 118.116L1.07186 116.982L11.1925 113.31L11.164 114.612ZM3.86874 117.155C3.79348 117.182 3.65716 117.225 3.45978 117.286C3.2624 117.347 3.06036 117.408 2.85364 117.469C2.63781 117.52 2.47349 117.564 2.3607 117.598C2.64854 117.67 2.93151 117.751 3.20961 117.841C3.47837 117.931 3.69146 118.006 3.84887 118.065L6.84738 119.265L6.91649 116.102L3.86874 117.155Z" fill="#B3B3BD"/>
<path d="M12.8406 100.195L12.621 101.691L6.94997 105.428L11.9642 106.165L11.7812 107.411L1.89122 105.959L2.07423 104.713L6.86686 105.416L2.71476 100.349L2.92217 98.9366L7.09829 103.936L12.8406 100.195Z" fill="#B3B3BD"/>
<path d="M6.63241 87.6014C6.34645 88.636 6.46776 89.5458 6.99634 90.331C7.52492 91.1162 8.39194 91.6754 9.5974 92.0086C10.7939 92.3394 11.8188 92.3273 12.6722 91.9725C13.519 91.6062 14.0954 90.8698 14.4012 89.7633C14.5181 89.3405 14.5928 88.9302 14.6252 88.5325C14.6577 88.1348 14.6697 87.7411 14.6612 87.3514L15.7137 87.6423C15.7492 88.0395 15.745 88.4402 15.701 88.8444C15.6596 89.2396 15.5655 89.7026 15.4188 90.2334C15.1477 91.214 14.719 91.9767 14.1327 92.5215C13.5464 93.0663 12.8338 93.4019 11.9952 93.5284C11.159 93.6458 10.2371 93.5653 9.22957 93.2868C8.258 93.0183 7.45187 92.6066 6.81117 92.0519C6.16397 91.4857 5.72919 90.799 5.50684 89.9919C5.2755 89.1824 5.29659 88.2828 5.57011 87.2933C5.8511 86.2767 6.28494 85.4428 6.87165 84.7916L7.76291 85.5609C7.54592 85.8204 7.33247 86.1197 7.12257 86.4587C6.91515 86.7887 6.75176 87.1696 6.63241 87.6014Z" fill="#B3B3BD"/>
<path d="M9.00486 77.3331L9.46546 76.2511L14.515 78.4006C14.7984 78.5212 15.1143 78.6607 15.4628 78.8192C15.8112 78.9777 16.1277 79.1276 16.4124 79.2691C16.7007 79.402 16.9099 79.5062 17.04 79.5819L17.062 79.5304L11.604 71.2273L12.1523 69.9391L21.3497 73.8543L20.8891 74.9363L15.8911 72.8088C15.5733 72.6735 15.2359 72.5248 14.8789 72.3627C14.5255 72.192 14.2022 72.0341 13.909 71.889C13.6157 71.7438 13.4065 71.6396 13.2813 71.5761L13.2594 71.6277L18.7506 79.9601L18.2022 81.2482L9.00486 77.3331Z" fill="#B3B3BD"/>
<path d="M26.9907 63.5222L17.8048 61.7194L17.7754 61.7671C18.0363 61.8952 18.3821 62.0812 18.8129 62.3251C19.2357 62.5641 19.6735 62.8233 20.1262 63.1027L25.285 66.2863L24.6747 67.2751L16.1682 62.0255L17.146 60.441L25.7332 62.121L25.7626 62.0734L20.4399 55.1035L21.4104 53.5309L29.917 58.7805L29.2626 59.8408L24.0324 56.6131C23.6194 56.3582 23.2152 56.0979 22.82 55.832C22.4296 55.5582 22.1122 55.3349 21.8679 55.1622L21.8384 55.2098L27.5348 62.6406L26.9907 63.5222Z" fill="#B3B3BD"/>
<path d="M38.3669 48.0336L35.219 46.9784L32.6832 50.0227L34.2989 52.9172L33.4835 53.8961L28.2707 44.4704L28.9965 43.599L39.2002 47.0332L38.3669 48.0336ZM31.0762 45.4772C31.0009 45.4509 30.8671 45.4001 30.6747 45.3249C30.4822 45.2496 30.2862 45.1714 30.0867 45.0902C29.8859 44.9958 29.7305 44.9271 29.6206 44.8841C29.8011 45.1195 29.972 45.3591 30.1334 45.6028C30.2876 45.8406 30.4077 46.0318 30.4938 46.1764L32.0915 48.9831L34.1165 46.5521L31.0762 45.4772Z" fill="#B3B3BD"/>
<path d="M48.5973 37.8855L47.6736 38.7424L41.6274 32.2251L39.3079 34.377C39.716 34.9405 40.1427 35.5376 40.588 36.1685C41.0269 36.7926 41.4436 37.3927 41.838 37.9688C42.2325 38.545 42.5571 39.0459 42.812 39.4715C43.1483 40.0125 43.4006 40.504 43.569 40.9462C43.7373 41.3884 43.7882 41.7932 43.7216 42.1605C43.6618 42.5215 43.4575 42.8639 43.1085 43.1876C42.9922 43.2956 42.8598 43.393 42.7112 43.4798C42.5758 43.5672 42.4478 43.6351 42.3271 43.6834L41.613 42.9136C41.72 42.878 41.8341 42.8295 41.9553 42.768C42.0701 42.6996 42.1823 42.6147 42.2917 42.5131C42.497 42.3227 42.5816 42.0914 42.5456 41.8193C42.5101 41.5339 42.4123 41.2364 42.2522 40.9266C42.0857 40.6099 41.9122 40.3062 41.7316 40.0155C41.5451 39.7047 41.2578 39.2646 40.8697 38.6953C40.482 38.1128 40.0217 37.445 39.4885 36.692C38.9622 35.9326 38.3947 35.1287 37.7859 34.2803L41.7989 30.5574L48.5973 37.8855Z" fill="#B3B3BD"/>
<path d="M60.2004 29.0862L58.9694 29.9642L52.345 28.4641L55.288 32.5901L54.2622 33.3218L48.4576 25.1838L49.4834 24.4522L52.2963 28.3958L53.0736 21.8913L54.2362 21.0621L53.5239 27.5373L60.2004 29.0862Z" fill="#B3B3BD"/>
<path d="M71.0244 22.8824L68.4937 20.7334L65.0086 22.6178L65.4333 25.9055L64.3127 26.5114L62.9743 15.8237L63.9719 15.2843L72.1697 22.2632L71.0244 22.8824ZM65.2051 17.8006C65.1449 17.7483 65.0395 17.6514 64.8888 17.5101C64.7381 17.3687 64.5852 17.2233 64.4301 17.0737C64.2787 16.9115 64.16 16.7901 64.0739 16.7093C64.154 16.9949 64.2237 17.2808 64.283 17.5671C64.3379 17.8451 64.3784 18.0672 64.4046 18.2334L64.8453 21.4329L67.6285 19.928L65.2051 17.8006Z" fill="#B3B3BD"/>
<path d="M83.9139 17.3901L82.5835 17.9088L78.5417 14.8264L77.6138 19.8464L76.3747 20.3295L77.5742 14.272L72.9393 10.94L74.2437 10.4314L77.9503 13.1937L78.822 8.64646L80.0612 8.16335L78.9076 13.7221L83.9139 17.3901Z" fill="#B3B3BD"/>
<path d="M97.8796 3.45895L99.0501 3.24421L101.435 16.2432L100.264 16.458L97.8796 3.45895Z" fill="#B3B3BD"/>
<path d="M117.906 11.2914L117.994 1.29576L123.93 1.3483L123.92 2.45426L119.245 2.41287L119.217 5.53475L120.701 5.54789C121.699 5.55673 122.473 5.68958 123.021 5.94644C123.57 6.19397 123.95 6.53335 124.16 6.96456C124.371 7.38645 124.474 7.87271 124.47 8.42336C124.461 9.33799 124.18 10.0542 123.625 10.572C123.069 11.0804 122.138 11.3288 120.832 11.3173L117.906 11.2914ZM120.715 10.2382C121.611 10.2461 122.243 10.1024 122.609 9.80695C122.976 9.50218 123.162 9.03714 123.168 8.41183C123.173 7.76786 122.977 7.31343 122.578 7.04856C122.179 6.78368 121.498 6.64699 120.537 6.63848L119.207 6.62671L119.175 10.2246L120.715 10.2382Z" fill="#B3B3BD"/>
<path d="M138.51 12.8393L137.262 12.667L138.478 3.86055L135.343 3.42783C135.166 4.10052 134.974 4.80892 134.767 5.55302C134.562 6.28787 134.362 6.99037 134.165 7.6605C133.969 8.33064 133.787 8.89907 133.619 9.36581C133.413 9.96867 133.193 10.4752 132.957 10.8855C132.721 11.2958 132.44 11.5915 132.114 11.7726C131.797 11.9549 131.402 12.0135 130.931 11.9484C130.773 11.9267 130.614 11.8859 130.453 11.8259C130.3 11.7765 130.166 11.7203 130.052 11.6575L130.196 10.6174C130.291 10.6777 130.401 10.7352 130.525 10.7901C130.651 10.8357 130.788 10.8687 130.936 10.8891C131.213 10.9274 131.446 10.8465 131.633 10.6463C131.832 10.4381 132 10.174 132.138 9.85389C132.278 9.52457 132.403 9.19795 132.514 8.87404C132.636 8.53292 132.795 8.03192 132.99 7.37103C133.195 6.70217 133.421 5.923 133.666 5.03352C133.921 4.14532 134.183 3.19702 134.455 2.18862L139.877 2.93726L138.51 12.8393Z" fill="#B3B3BD"/>
<path d="M155.379 11.8395C155.099 12.8367 154.683 13.6601 154.131 14.3097C153.591 14.9529 152.935 15.3888 152.163 15.6174C151.391 15.8461 150.52 15.8238 149.55 15.5507C148.552 15.27 147.779 14.8295 147.231 14.229C146.691 13.6312 146.365 12.9138 146.251 12.0771C146.138 11.2404 146.221 10.3234 146.502 9.32616C146.78 8.3379 147.185 7.52094 147.716 6.87527C148.246 6.22961 148.898 5.79245 149.67 5.56379C150.451 5.33765 151.345 5.36621 152.351 5.64945C153.313 5.92004 154.063 6.35428 154.602 6.95216C155.145 7.54106 155.477 8.25514 155.599 9.0944C155.733 9.9272 155.66 10.8422 155.379 11.8395ZM147.779 9.70001C147.437 10.9129 147.424 11.9418 147.739 12.7867C148.056 13.6226 148.758 14.1936 149.845 14.4996C150.942 14.8081 151.839 14.6873 152.536 14.1371C153.237 13.578 153.758 12.692 154.099 11.4791C154.44 10.2662 154.456 9.24759 154.145 8.42318C153.836 7.58977 153.139 7.02007 152.052 6.71407C150.964 6.40807 150.063 6.52763 149.347 7.07273C148.643 7.61138 148.12 8.48714 147.779 9.70001Z" fill="#B3B3BD"/>
<path d="M169.428 12.0435L168.989 13.0739L164.957 11.3565L161.479 19.5224L160.32 19.0285L164.237 9.83226L169.428 12.0435Z" fill="#B3B3BD"/>
<path d="M185.923 33.4434L184.684 32.5763L183.886 25.8312L180.98 29.9831L179.948 29.2605L185.68 21.0715L186.712 21.7941L183.934 25.7624L190.325 24.323L191.495 25.1419L185.154 26.6329L185.923 33.4434Z" fill="#B3B3BD"/>
<path d="M197.519 29.9899L198.385 30.7858L194.67 34.8256C194.461 35.0523 194.224 35.3034 193.958 35.5787C193.692 35.8541 193.445 36.1023 193.217 36.3232C192.995 36.5505 192.827 36.7128 192.712 36.8101L192.753 36.848L202.404 34.4815L203.434 35.4292L196.668 42.7873L195.803 41.9913L199.479 37.9927C199.713 37.7385 199.966 37.4703 200.238 37.1881C200.517 36.9122 200.774 36.6603 201.009 36.4325C201.244 36.2046 201.412 36.0424 201.514 35.9456L201.473 35.9077L191.783 38.2956L190.753 37.348L197.519 29.9899Z" fill="#B3B3BD"/>
<path d="M211.091 43.8212C211.928 44.8252 212.34 45.721 212.328 46.5085C212.316 47.296 211.951 47.9884 211.234 48.5858C210.811 48.9382 210.332 49.1729 209.798 49.2899C209.277 49.4081 208.713 49.3369 208.108 49.0763C207.508 48.8228 206.888 48.3124 206.249 47.5451L205.514 46.663L202.524 49.154L201.717 48.1859L209.398 41.7882L211.091 43.8212ZM210.191 44.4251L209.376 43.4463L206.343 45.9731L206.988 46.7476C207.597 47.4791 208.169 47.9255 208.705 48.0869C209.24 48.2484 209.791 48.0931 210.357 47.6212C210.852 47.2091 211.09 46.7436 211.071 46.225C211.052 45.7064 210.759 45.1064 210.191 44.4251Z" fill="#B3B3BD"/>
<path d="M218.481 53.5008L219.108 54.496L214.463 57.4194C214.203 57.5835 213.908 57.7635 213.579 57.9594C213.25 58.1553 212.947 58.3299 212.668 58.4832C212.394 58.6443 212.19 58.7567 212.053 58.8205L212.083 58.8679L222.016 59.1169L222.762 60.3018L214.302 65.6264L213.676 64.6312L218.273 61.7377C218.565 61.5537 218.88 61.3613 219.217 61.1604C219.558 60.9673 219.872 60.7917 220.159 60.6335C220.445 60.4753 220.65 60.3629 220.773 60.2962L220.744 60.2488L210.767 60.0103L210.022 58.8254L218.481 53.5008Z" fill="#B3B3BD"/>
<path d="M220.732 78.7063L220.213 77.5581L228.314 73.8961L227.011 71.013C226.347 71.221 225.645 71.4358 224.905 71.6575C224.174 71.8754 223.473 72.0798 222.801 72.2707C222.13 72.4617 221.551 72.6104 221.067 72.7167C220.447 72.8638 219.901 72.9468 219.428 72.9659C218.955 72.9851 218.555 72.9047 218.228 72.7248C217.905 72.5534 217.645 72.2509 217.449 71.8171C217.384 71.6726 217.333 71.516 217.298 71.3476C217.258 71.1915 217.235 71.0485 217.227 70.9187L218.184 70.4862C218.184 70.599 218.194 70.7226 218.213 70.857C218.242 70.9876 218.287 71.121 218.348 71.257C218.464 71.5122 218.656 71.6659 218.925 71.7182C219.207 71.7752 219.52 71.777 219.865 71.7236C220.218 71.6664 220.561 71.5984 220.894 71.5195C221.248 71.4414 221.757 71.3088 222.42 71.1217C223.095 70.9393 223.875 70.7149 224.758 70.4487C225.646 70.191 226.588 69.9083 227.586 69.6006L229.841 74.5886L220.732 78.7063Z" fill="#B3B3BD"/>
<path d="M225.342 92.4091L224.979 91.2024L233.494 88.6449L232.583 85.6147C231.898 85.7329 231.174 85.8529 230.411 85.9748C229.658 86.094 228.935 86.2037 228.244 86.3041C227.553 86.4044 226.961 86.4753 226.466 86.5166C225.832 86.5803 225.28 86.5903 224.809 86.5467C224.338 86.503 223.952 86.3704 223.651 86.1488C223.354 85.9361 223.136 85.6019 222.999 85.146C222.954 84.994 222.925 84.8322 222.912 84.6606C222.893 84.5006 222.889 84.3557 222.899 84.2261L223.904 83.9241C223.889 84.0358 223.882 84.1596 223.884 84.2955C223.895 84.4287 223.922 84.5668 223.965 84.7098C224.045 84.978 224.216 85.1558 224.476 85.2434C224.748 85.3371 225.058 85.3804 225.407 85.3731C225.764 85.3631 226.113 85.3411 226.454 85.307C226.815 85.2765 227.337 85.2124 228.019 85.1147C228.712 85.0233 229.515 84.9041 230.425 84.7572C231.339 84.6192 232.311 84.4638 233.341 84.2909L234.915 89.5335L225.342 92.4091Z" fill="#B3B3BD"/>
<path d="M227.965 105.694L230.821 104.002L230.177 100.093L226.93 99.4224L226.723 98.1653L237.263 100.386L237.447 101.505L228.177 106.978L227.965 105.694ZM234.666 101.85C234.736 101.81 234.862 101.742 235.044 101.646C235.227 101.549 235.414 101.452 235.606 101.354C235.809 101.264 235.963 101.191 236.067 101.136C235.771 101.119 235.478 101.092 235.188 101.054C234.907 101.015 234.684 100.981 234.518 100.952L231.35 100.325L231.865 103.447L234.666 101.85Z" fill="#B3B3BD"/>
<path d="M228.498 130.143L228.571 128.885L233.225 129.155L233.521 124.039L228.867 123.77L228.94 122.512L238.919 123.089L238.846 124.347L234.625 124.103L234.329 129.218L238.55 129.463L238.478 130.721L228.498 130.143Z" fill="#B3B3BD"/>
<path d="M230.711 147.41C229.696 147.205 228.843 146.852 228.154 146.351C227.473 145.861 226.989 145.239 226.703 144.486C226.417 143.734 226.374 142.863 226.574 141.875C226.779 140.86 227.16 140.056 227.718 139.464C228.274 138.881 228.965 138.502 229.791 138.326C230.616 138.15 231.537 138.165 232.553 138.37C233.559 138.573 234.404 138.916 235.087 139.397C235.771 139.878 236.256 140.495 236.542 141.247C236.826 142.009 236.864 142.903 236.657 143.927C236.459 144.906 236.082 145.687 235.527 146.27C234.98 146.854 234.293 147.239 233.465 147.424C232.644 147.62 231.727 147.616 230.711 147.41ZM232.275 139.671C231.04 139.421 230.013 139.485 229.194 139.862C228.385 140.241 227.868 140.984 227.644 142.091C227.418 143.207 227.606 144.093 228.207 144.748C228.817 145.404 229.74 145.857 230.975 146.107C232.21 146.356 233.227 146.295 234.025 145.924C234.833 145.554 235.349 144.815 235.573 143.708C235.797 142.601 235.61 141.711 235.013 141.038C234.423 140.376 233.51 139.921 232.275 139.671Z" fill="#B3B3BD"/>
<path d="M232.433 158.869C232.02 160.05 231.533 160.878 230.971 161.354C230.414 161.841 229.705 161.934 228.841 161.632C228.286 161.438 227.878 161.122 227.616 160.684C227.362 160.249 227.284 159.723 227.382 159.104L227.316 159.081C227.116 159.456 226.876 159.773 226.598 160.031C226.317 160.299 225.989 160.471 225.616 160.548C225.243 160.625 224.81 160.577 224.317 160.405C223.462 160.106 222.905 159.579 222.644 158.826C222.381 158.081 222.426 157.202 222.781 156.189L223.942 152.872L233.377 156.174L232.433 158.869ZM228.333 157.702C228.049 158.512 227.983 159.112 228.133 159.501C228.293 159.893 228.628 160.178 229.139 160.357C229.659 160.539 230.094 160.483 230.443 160.19C230.799 159.909 231.117 159.368 231.397 158.566L231.943 157.007L228.943 155.957L228.333 157.702ZM227.952 155.61L224.53 154.413L223.864 156.316C223.571 157.153 223.53 157.791 223.742 158.231C223.954 158.671 224.324 158.984 224.853 159.168C225.346 159.341 225.803 159.308 226.223 159.069C226.648 158.842 227.014 158.293 227.319 157.421L227.952 155.61Z" fill="#B3B3BD"/>
<path d="M219.203 176.397C218.281 175.924 217.556 175.353 217.029 174.684C216.505 174.028 216.208 173.299 216.137 172.496C216.066 171.694 216.26 170.845 216.72 169.948C217.193 169.026 217.778 168.356 218.475 167.937C219.168 167.526 219.936 167.349 220.778 167.403C221.621 167.458 222.503 167.721 223.425 168.194C224.339 168.662 225.059 169.221 225.587 169.869C226.115 170.517 226.414 171.242 226.485 172.044C226.552 172.855 226.347 173.725 225.87 174.655C225.414 175.544 224.84 176.193 224.147 176.604C223.463 177.018 222.697 177.203 221.85 177.157C221.007 177.123 220.125 176.87 219.203 176.397ZM222.806 169.371C221.685 168.796 220.679 168.579 219.788 168.72C218.906 168.866 218.207 169.441 217.692 170.446C217.172 171.459 217.113 172.362 217.514 173.155C217.923 173.953 218.689 174.639 219.81 175.214C220.931 175.788 221.926 176.005 222.796 175.864C223.674 175.727 224.371 175.156 224.886 174.151C225.401 173.146 225.463 172.239 225.07 171.429C224.682 170.632 223.927 169.946 222.806 169.371Z" fill="#B3B3BD"/>
<path d="M213.872 184.991L220.079 184.657L219.266 185.797L213.102 186.094L217.045 188.908L216.346 189.888L212.403 187.074L214.125 192.999L213.312 194.138L211.622 188.168L205.103 188.434L205.94 187.26L212.335 187.025L208.209 184.081L208.909 183.101L213.034 186.045L211.186 179.91L212.024 178.736L213.872 184.991Z" fill="#B3B3BD"/>
<path d="M208.454 199.768L207.639 200.616L203.683 196.811C203.461 196.598 203.216 196.355 202.946 196.083C202.677 195.811 202.434 195.559 202.219 195.325C201.996 195.098 201.838 194.927 201.743 194.81L201.704 194.85L203.854 204.551L202.883 205.56L195.679 198.631L196.494 197.783L200.409 201.549C200.658 201.788 200.92 202.047 201.197 202.326C201.466 202.611 201.712 202.873 201.935 203.113C202.157 203.353 202.316 203.525 202.41 203.629L202.449 203.588L200.279 193.848L201.249 192.839L208.454 199.768Z" fill="#B3B3BD"/>
<path d="M184.532 208.021L185.521 207.241L191.026 214.222L193.51 212.263C193.148 211.668 192.771 211.039 192.378 210.374C191.99 209.717 191.623 209.085 191.276 208.479C190.929 207.874 190.645 207.348 190.426 206.904C190.134 206.337 189.921 205.827 189.789 205.373C189.657 204.919 189.638 204.511 189.734 204.15C189.823 203.795 190.054 203.47 190.428 203.176C190.552 203.077 190.692 202.991 190.847 202.916C190.989 202.84 191.122 202.783 191.246 202.744L191.896 203.569C191.787 203.596 191.669 203.635 191.544 203.686C191.424 203.745 191.305 203.821 191.188 203.913C190.968 204.087 190.865 204.311 190.879 204.585C190.892 204.872 190.965 205.176 191.1 205.498C191.241 205.827 191.389 206.144 191.546 206.448C191.707 206.773 191.958 207.234 192.299 207.833C192.639 208.445 193.044 209.147 193.516 209.94C193.979 210.74 194.481 211.586 195.019 212.481L190.721 215.87L184.532 208.021Z" fill="#B3B3BD"/>
<path d="M173.559 220.873C173.035 219.979 172.729 219.108 172.643 218.261C172.554 217.426 172.695 216.651 173.065 215.936C173.436 215.221 174.055 214.608 174.925 214.098C175.819 213.574 176.672 213.322 177.485 213.343C178.29 213.369 179.033 213.631 179.715 214.129C180.397 214.627 181 215.323 181.524 216.217C182.043 217.102 182.352 217.96 182.449 218.79C182.546 219.62 182.41 220.393 182.04 221.108C181.661 221.828 181.021 222.452 180.119 222.981C179.258 223.486 178.425 223.726 177.62 223.701C176.82 223.683 176.075 223.427 175.385 222.934C174.692 222.453 174.083 221.766 173.559 220.873ZM180.369 216.877C179.732 215.791 179 215.068 178.172 214.709C177.35 214.358 176.452 214.469 175.477 215.04C174.495 215.616 173.961 216.346 173.873 217.231C173.791 218.123 174.068 219.113 174.706 220.2C175.343 221.286 176.067 222.004 176.877 222.351C177.691 222.706 178.586 222.598 179.56 222.027C180.534 221.456 181.072 220.723 181.176 219.829C181.276 218.948 181.007 217.964 180.369 216.877Z" fill="#B3B3BD"/>
<path d="M166.168 229.797C165.013 230.276 164.07 230.465 163.341 230.364C162.607 230.274 162.064 229.807 161.714 228.962C161.488 228.419 161.451 227.904 161.603 227.417C161.758 226.938 162.099 226.529 162.625 226.189L162.598 226.125C162.185 226.225 161.789 226.258 161.411 226.223C161.024 226.192 160.677 226.063 160.371 225.836C160.065 225.61 159.812 225.255 159.611 224.772C159.264 223.936 159.285 223.17 159.673 222.473C160.052 221.78 160.738 221.228 161.729 220.816L164.975 219.47L168.806 228.702L166.168 229.797ZM164.304 225.963C163.511 226.292 163.019 226.642 162.83 227.014C162.644 227.394 162.655 227.834 162.863 228.334C163.074 228.843 163.405 229.13 163.856 229.195C164.303 229.272 164.918 229.148 165.703 228.823L167.229 228.19L166.011 225.254L164.304 225.963ZM165.608 224.285L164.219 220.935L162.357 221.708C161.538 222.048 161.035 222.443 160.848 222.895C160.662 223.346 160.676 223.83 160.89 224.348C161.091 224.83 161.42 225.148 161.877 225.302C162.33 225.468 162.983 225.374 163.837 225.02L165.608 224.285Z" fill="#B3B3BD"/>
<path d="M145.378 226.183L147.35 228.854L151.174 227.816L151.512 224.518L152.742 224.185L151.601 234.895L150.506 235.192L144.121 226.524L145.378 226.183ZM149.881 232.461C149.928 232.525 150.008 232.644 150.123 232.816C150.237 232.988 150.353 233.165 150.469 233.346C150.58 233.538 150.667 233.683 150.733 233.782C150.72 233.485 150.718 233.191 150.725 232.899C150.736 232.616 150.747 232.39 150.759 232.222L151.062 229.007L148.008 229.836L149.881 232.461Z" fill="#B3B3BD"/>
<path d="M129.507 238.682L128.321 238.771L127.335 225.592L128.521 225.503L129.507 238.682Z" fill="#B3B3BD"/>
</svg>
