<svg width="1272" height="385" viewBox="0 0 1272 385" fill="none" xmlns="http://www.w3.org/2000/svg">
<g clip-path="url(#clip0_403_9349)">
<rect width="1272" height="385" fill="#02D3D8"/>
<path d="M780.519 210.09C780.519 243.229 780.519 276.369 780.519 309.467C780.519 342.564 780.519 375.746 780.519 408.843C780.519 427.538 780.519 446.232 780.519 464.926C780.519 465.733 781.678 465.733 781.678 464.926C781.678 431.786 781.678 398.646 781.678 365.549C781.678 332.452 781.678 299.27 781.678 266.172C781.678 247.478 781.678 228.784 781.678 210.09C781.678 209.282 780.519 209.282 780.519 210.09Z" fill="#E8E8E8"/>
<path d="M877.764 194.539C877.764 222.963 877.764 251.387 877.764 279.811C877.764 308.234 877.764 336.658 877.764 365.082C877.764 381.184 877.764 397.329 877.764 413.432C877.764 414.239 878.922 414.239 878.922 413.432C878.922 385.008 878.922 356.584 878.922 328.161C878.922 299.737 878.922 271.313 878.922 242.889C878.922 226.787 878.922 210.642 878.922 194.539C878.922 193.732 877.764 193.732 877.764 194.539Z" fill="#E8E8E8"/>
<path d="M880.081 315.924C901.978 325.951 923.914 335.893 945.927 345.665C946.622 345.963 946.931 344.73 946.236 344.433C924.223 334.661 902.287 324.719 880.39 314.692C879.694 314.395 879.424 315.627 880.081 315.924Z" fill="#E8E8E8"/>
<path d="M941.409 344.816C941.409 376.766 941.409 408.758 941.409 440.708C941.409 449.758 941.409 458.808 941.409 467.858C941.409 468.665 942.567 468.665 942.567 467.858C942.567 435.907 942.567 403.915 942.567 371.965C942.567 362.915 942.567 353.865 942.567 344.816C942.567 344.008 941.409 344.008 941.409 344.816Z" fill="#E8E8E8"/>
<path d="M1036.14 390.022C1059.74 378.848 1083.41 367.631 1105.85 353.78C1112.26 349.829 1118.6 345.623 1124.77 341.162C1125.39 340.694 1124.81 339.59 1124.2 340.057C1102.65 355.565 1079.4 367.801 1055.92 379.187C1049.16 382.459 1042.36 385.688 1035.6 388.874C1034.87 389.257 1035.49 390.319 1036.14 390.022Z" fill="#E8E8E8"/>
<path d="M1065.92 373.537C1065.92 339.207 1065.92 304.835 1065.92 270.506C1065.92 260.734 1065.92 251.004 1065.92 241.233C1065.92 240.425 1064.76 240.425 1064.76 241.233C1064.76 275.562 1064.76 309.934 1064.76 344.263C1064.76 354.035 1064.76 363.765 1064.76 373.537C1064.76 374.344 1065.92 374.344 1065.92 373.537Z" fill="#E8E8E8"/>
<path d="M1059.16 243.824C1087.93 243.824 1116.7 243.824 1145.48 243.824C1153.7 243.824 1161.93 243.824 1170.11 243.824C1170.85 243.824 1170.85 242.55 1170.11 242.55C1141.34 242.55 1112.57 242.55 1083.8 242.55C1075.57 242.55 1067.35 242.55 1059.16 242.55C1058.39 242.55 1058.39 243.824 1059.16 243.824Z" fill="#E8E8E8"/>
<path d="M1159.38 248.03C1159.38 303.476 1159.38 358.921 1159.38 414.367C1159.38 429.917 1159.38 445.467 1159.38 461.06C1159.38 461.867 1160.54 461.867 1160.54 461.06C1160.54 405.614 1160.54 350.169 1160.54 294.723C1160.54 279.173 1160.54 263.623 1160.54 248.03C1160.54 247.223 1159.38 247.223 1159.38 248.03Z" fill="#E8E8E8"/>
<path d="M775.576 211.492C802.571 201.932 831.382 199.85 859.381 196.324C867.568 195.304 875.756 194.284 883.943 193.222C884.677 193.137 884.677 191.863 883.943 191.948C869.345 193.775 854.708 195.644 840.11 197.471C826.245 199.213 812.304 200.87 798.594 203.802C790.715 205.458 782.914 207.583 775.267 210.26C774.572 210.514 774.881 211.747 775.576 211.492Z" fill="#E8E8E8"/>
<path d="M788.823 242.422C788.823 235.327 788.823 228.232 788.823 221.179C788.823 220.371 787.664 220.371 787.664 221.179C787.664 228.274 787.664 235.369 787.664 242.422C787.664 243.229 788.823 243.229 788.823 242.422Z" fill="#E8E8E8"/>
<path d="M787.896 221.094C791.681 221.094 795.465 221.094 799.25 221.094C799.984 221.094 799.984 219.819 799.25 219.819C795.465 219.819 791.681 219.819 787.896 219.819C787.162 219.819 787.162 221.094 787.896 221.094Z" fill="#E8E8E8"/>
<path d="M798.709 220.796C798.709 228.189 798.709 235.582 798.709 242.932C798.709 243.739 799.868 243.739 799.868 242.932C799.868 235.539 799.868 228.146 799.868 220.796C799.868 219.989 798.709 219.989 798.709 220.796Z" fill="#E8E8E8"/>
<path d="M788.397 243.782C791.757 243.782 795.117 243.782 798.477 243.782C799.211 243.782 799.211 242.507 798.477 242.507C795.117 242.507 791.757 242.507 788.397 242.507C787.664 242.507 787.625 243.782 788.397 243.782Z" fill="#E8E8E8"/>
<path d="M821.418 242.252C821.418 235.157 821.418 228.061 821.418 221.009C821.418 220.201 820.259 220.201 820.259 221.009C820.259 228.104 820.259 235.199 820.259 242.252C820.259 243.059 821.418 243.059 821.418 242.252Z" fill="#E8E8E8"/>
<path d="M820.529 220.881C824.314 220.881 828.099 220.881 831.884 220.881C832.617 220.881 832.617 219.607 831.884 219.607C828.099 219.607 824.314 219.607 820.529 219.607C819.757 219.607 819.757 220.881 820.529 220.881Z" fill="#E8E8E8"/>
<path d="M831.304 220.626C831.304 228.019 831.304 235.412 831.304 242.762C831.304 243.569 832.463 243.569 832.463 242.762C832.463 235.369 832.463 227.976 832.463 220.626C832.463 219.819 831.304 219.819 831.304 220.626Z" fill="#E8E8E8"/>
<path d="M820.993 243.569C824.353 243.569 827.713 243.569 831.073 243.569C831.806 243.569 831.806 242.295 831.073 242.295C827.713 242.295 824.353 242.295 820.993 242.295C820.259 242.295 820.259 243.569 820.993 243.569Z" fill="#E8E8E8"/>
<path d="M854.901 241.445C854.901 234.35 854.901 227.254 854.901 220.202C854.901 219.394 853.742 219.394 853.742 220.202C853.742 227.297 853.742 234.392 853.742 241.445C853.742 242.252 854.901 242.252 854.901 241.445Z" fill="#E8E8E8"/>
<path d="M853.974 220.074C857.758 220.074 861.543 220.074 865.328 220.074C866.062 220.074 866.062 218.799 865.328 218.799C861.543 218.799 857.758 218.799 853.974 218.799C853.24 218.799 853.24 220.074 853.974 220.074Z" fill="#E8E8E8"/>
<path d="M864.787 219.819C864.787 227.212 864.787 234.605 864.787 241.955C864.787 242.762 865.946 242.762 865.946 241.955C865.946 234.562 865.946 227.169 865.946 219.819C865.946 218.969 864.787 218.969 864.787 219.819Z" fill="#E8E8E8"/>
<path d="M854.476 242.762C857.836 242.762 861.196 242.762 864.556 242.762C865.289 242.762 865.289 241.487 864.556 241.487C861.196 241.487 857.836 241.487 854.476 241.487C853.742 241.487 853.742 242.762 854.476 242.762Z" fill="#E8E8E8"/>
<path d="M777.005 302.159C777.005 330.157 777.005 358.114 777.005 386.113C777.005 386.92 778.163 386.92 778.163 386.113C778.163 358.114 778.163 330.157 778.163 302.159C778.163 301.309 777.005 301.309 777.005 302.159Z" fill="#E8E8E8"/>
<path d="M771.907 207.838C784.343 203.079 796.971 199.171 809.832 196.154C810.565 195.984 810.256 194.752 809.523 194.922C796.662 197.938 783.995 201.847 771.598 206.606C770.903 206.861 771.212 208.093 771.907 207.838Z" fill="#E8E8E8"/>
<path d="M881.008 322C894.061 327.396 906.767 333.812 919.434 340.227C920.091 340.567 920.709 339.462 920.013 339.122C907.23 332.664 894.447 326.206 881.317 320.768C880.621 320.471 880.312 321.703 881.008 322Z" fill="#E8E8E8"/>
<path d="M888.577 366.909C888.577 359.813 888.577 352.718 888.577 345.665C888.577 344.858 887.418 344.858 887.418 345.665C887.418 352.76 887.418 359.856 887.418 366.909C887.418 367.758 888.577 367.758 888.577 366.909Z" fill="#E8E8E8"/>
<path d="M887.689 345.58C891.473 345.58 895.258 345.58 899.043 345.58C899.777 345.58 899.777 344.306 899.043 344.306C895.258 344.306 891.473 344.306 887.689 344.306C886.916 344.306 886.916 345.58 887.689 345.58Z" fill="#E8E8E8"/>
<path d="M898.464 345.325C898.464 352.718 898.464 360.111 898.464 367.461C898.464 368.268 899.622 368.268 899.622 367.461C899.622 360.068 899.622 352.676 899.622 345.325C899.622 344.476 898.464 344.476 898.464 345.325Z" fill="#E8E8E8"/>
<path d="M888.152 368.268C891.512 368.268 894.872 368.268 898.232 368.268C898.966 368.268 898.966 366.994 898.232 366.994C894.872 366.994 891.512 366.994 888.152 366.994C887.418 366.994 887.418 368.268 888.152 368.268Z" fill="#E8E8E8"/>
<path d="M1052.05 388.535C1077.27 378.125 1101.45 364.869 1124.2 349.022C1124.81 348.597 1124.23 347.492 1123.62 347.917C1100.95 363.722 1076.85 376.936 1051.74 387.302C1051.05 387.6 1051.36 388.832 1052.05 388.535Z" fill="#E8E8E8"/>
<path d="M1162.93 251.047C1162.97 283.932 1163.01 316.774 1163.01 349.659C1163.01 350.466 1164.17 350.466 1164.17 349.659C1164.13 316.774 1164.09 283.932 1164.09 251.047C1164.09 250.24 1162.93 250.24 1162.93 251.047Z" fill="#E8E8E8"/>
<path d="M1079.28 239.533C1109.71 239.533 1140.11 239.533 1170.54 239.533C1171.27 239.533 1171.27 238.258 1170.54 238.258C1140.11 238.258 1109.71 238.258 1079.28 238.258C1078.55 238.258 1078.55 239.533 1079.28 239.533Z" fill="#E8E8E8"/>
<path d="M1077.12 281.765C1077.12 274.67 1077.12 267.574 1077.12 260.521C1077.12 259.714 1075.96 259.714 1075.96 260.521C1075.96 267.617 1075.96 274.712 1075.96 281.765C1075.96 282.615 1077.12 282.615 1077.12 281.765Z" fill="#E8E8E8"/>
<path d="M1076.23 260.437C1080.01 260.437 1083.8 260.437 1087.58 260.437C1088.32 260.437 1088.32 259.162 1087.58 259.162C1083.8 259.162 1080.01 259.162 1076.23 259.162C1075.5 259.162 1075.5 260.437 1076.23 260.437Z" fill="#E8E8E8"/>
<path d="M1087 260.182C1087 267.574 1087 274.967 1087 282.317C1087 283.125 1088.16 283.125 1088.16 282.317C1088.16 274.925 1088.16 267.532 1088.16 260.182C1088.16 259.332 1087 259.332 1087 260.182Z" fill="#E8E8E8"/>
<path d="M1076.73 283.125C1080.09 283.125 1083.45 283.125 1086.81 283.125C1087.55 283.125 1087.55 281.85 1086.81 281.85C1083.45 281.85 1080.09 281.85 1076.73 281.85C1075.96 281.85 1075.96 283.125 1076.73 283.125Z" fill="#E8E8E8"/>
<path d="M1130.76 281.765C1130.76 274.67 1130.76 267.574 1130.76 260.521C1130.76 259.714 1129.6 259.714 1129.6 260.521C1129.6 267.617 1129.6 274.712 1129.6 281.765C1129.6 282.615 1130.76 282.615 1130.76 281.765Z" fill="#E8E8E8"/>
<path d="M1129.83 260.437C1133.62 260.437 1137.4 260.437 1141.19 260.437C1141.92 260.437 1141.92 259.162 1141.19 259.162C1137.4 259.162 1133.62 259.162 1129.83 259.162C1129.1 259.162 1129.1 260.437 1129.83 260.437Z" fill="#E8E8E8"/>
<path d="M1140.65 260.182C1140.65 267.574 1140.65 274.967 1140.65 282.317C1140.65 283.125 1141.81 283.125 1141.81 282.317C1141.81 274.925 1141.81 267.532 1141.81 260.182C1141.81 259.332 1140.65 259.332 1140.65 260.182Z" fill="#E8E8E8"/>
<path d="M1130.34 283.125C1133.7 283.125 1137.06 283.125 1140.42 283.125C1141.15 283.125 1141.15 281.85 1140.42 281.85C1137.06 281.85 1133.7 281.85 1130.34 281.85C1129.6 281.85 1129.6 283.125 1130.34 283.125Z" fill="#E8E8E8"/>
<path d="M1106.99 109.557C1119.63 109.557 1129.87 99.3108 1129.87 86.6714C1129.87 74.0319 1119.63 63.7856 1106.99 63.7856C1094.35 63.7856 1084.1 74.0319 1084.1 86.6714C1084.1 99.3108 1094.35 109.557 1106.99 109.557Z" stroke="#E8E8E8" stroke-width="3" stroke-miterlimit="10"/>
<path d="M1080.52 189.908C1086.93 185.107 1094.73 188.124 1101.37 190.588C1104.5 191.735 1107.67 192.797 1110.95 193.137C1114.5 193.52 1118.05 193.095 1121.53 192.33C1135.32 189.186 1150.22 178.479 1164.4 185.744C1165.05 186.084 1165.67 184.98 1164.98 184.64C1154.55 179.286 1143.08 183.493 1132.88 187.316C1126.94 189.568 1120.8 191.82 1114.42 191.99C1107.9 192.16 1102.18 189.228 1096.04 187.359C1090.71 185.702 1084.69 185.235 1079.9 188.804C1079.32 189.271 1079.9 190.376 1080.52 189.908Z" fill="#E8E8E8"/>
<path d="M791.796 166.753C802.957 170.279 813.925 164.501 824.391 160.89C830.107 158.935 836.131 157.363 842.156 158.213C848.297 159.105 853.896 162.334 859.535 165.011C865.251 167.73 871.198 169.982 877.532 168.877C878.265 168.75 877.956 167.518 877.223 167.645C865.135 169.769 855.016 159.36 843.585 157.151C832.424 154.984 821.803 160.847 811.376 164.246C805.081 166.286 798.554 167.518 792.105 165.478C791.371 165.266 791.062 166.498 791.796 166.753Z" fill="#E8E8E8"/>
<path d="M891.744 185.192C895.876 185.065 899.507 183.025 903.176 181.198C905.416 180.094 907.733 179.032 910.204 178.819C912.946 178.564 915.341 179.626 917.697 181.071C922.022 183.705 926.038 186.127 931.02 186.977C935.732 187.826 940.521 187.444 945.116 185.914C945.812 185.66 945.541 184.427 944.808 184.682C939.71 186.382 934.303 186.594 929.089 185.235C926.618 184.597 924.223 183.578 921.983 182.261C919.859 180.986 917.851 179.456 915.611 178.479C906.999 174.698 900.086 183.62 891.744 183.875C891.01 183.96 891.01 185.235 891.744 185.192Z" fill="#E8E8E8"/>
<path d="M1010.27 145.594C1021.39 151.288 1033.86 151.033 1045.68 148.526C1059.04 145.679 1071.63 139.179 1085.46 139.434C1093.26 139.604 1100.98 141.473 1108.17 144.872C1108.86 145.212 1109.44 144.107 1108.75 143.767C1097.16 138.244 1084.26 136.757 1071.9 139.604C1065.15 141.176 1058.62 143.767 1051.94 145.679C1045.6 147.464 1039.12 148.738 1032.59 148.993C1025.14 149.248 1017.68 148.016 1010.89 144.532C1010.19 144.15 1009.61 145.255 1010.27 145.594Z" fill="#E8E8E8"/>
<path d="M9.3125 210.09C9.3125 243.229 9.3125 276.369 9.3125 309.467C9.3125 342.564 9.3125 375.746 9.3125 408.843C9.3125 427.538 9.3125 446.232 9.3125 464.926C9.3125 465.733 10.4711 465.733 10.4711 464.926C10.4711 431.786 10.4711 398.646 10.4711 365.549C10.4711 332.452 10.4711 299.27 10.4711 266.172C10.4711 247.478 10.4711 228.784 10.4711 210.09C10.4711 209.282 9.3125 209.282 9.3125 210.09Z" fill="#E8E8E8"/>
<path d="M106.558 194.539C106.558 222.963 106.558 251.387 106.558 279.811C106.558 308.234 106.558 336.658 106.558 365.082C106.558 381.184 106.558 397.329 106.558 413.432C106.558 414.239 107.716 414.239 107.716 413.432C107.716 385.008 107.716 356.584 107.716 328.161C107.716 299.737 107.716 271.313 107.716 242.889C107.716 226.787 107.716 210.642 107.716 194.539C107.716 193.732 106.558 193.732 106.558 194.539Z" fill="#E8E8E8"/>
<path d="M108.874 315.925C130.772 325.951 152.708 335.893 174.721 345.665C175.416 345.963 175.725 344.731 175.03 344.433C153.017 334.661 131.081 324.719 109.183 314.692C108.488 314.395 108.218 315.627 108.874 315.925Z" fill="#E8E8E8"/>
<path d="M170.202 344.816C170.202 376.766 170.202 408.758 170.202 440.708C170.202 449.758 170.202 458.808 170.202 467.858C170.202 468.665 171.361 468.665 171.361 467.858C171.361 435.907 171.361 403.915 171.361 371.965C171.361 362.915 171.361 353.865 171.361 344.816C171.361 344.008 170.202 344.008 170.202 344.816Z" fill="#E8E8E8"/>
<path d="M264.936 390.022C288.533 378.848 312.207 367.631 334.645 353.78C341.056 349.829 347.389 345.623 353.568 341.162C354.186 340.694 353.607 339.59 352.989 340.057C331.439 355.565 308.19 367.801 284.71 379.187C277.951 382.459 271.154 385.688 264.396 388.874C263.662 389.257 264.28 390.319 264.936 390.022Z" fill="#E8E8E8"/>
<path d="M294.712 373.537C294.712 339.207 294.712 304.835 294.712 270.506C294.712 260.734 294.712 251.004 294.712 241.233C294.712 240.425 293.553 240.425 293.553 241.233C293.553 275.562 293.553 309.934 293.553 344.263C293.553 354.035 293.553 363.765 293.553 373.537C293.553 374.344 294.712 374.344 294.712 373.537Z" fill="#E8E8E8"/>
<path d="M287.954 243.824C316.725 243.824 345.497 243.824 374.269 243.824C382.495 243.824 390.721 243.824 398.908 243.824C399.642 243.824 399.642 242.55 398.908 242.55C370.136 242.55 341.365 242.55 312.593 242.55C304.367 242.55 296.141 242.55 287.954 242.55C287.181 242.55 287.181 243.824 287.954 243.824Z" fill="#E8E8E8"/>
<path d="M375.579 307.72C404.351 307.72 433.123 307.72 461.894 307.72C470.12 307.72 478.346 307.72 486.534 307.72C487.267 307.72 487.267 306.446 486.534 306.446C457.762 306.446 428.99 306.446 400.219 306.446C391.993 306.446 383.767 306.446 375.579 306.446C374.807 306.446 374.807 307.72 375.579 307.72Z" fill="#E8E8E8"/>
<path d="M388.172 248.03C388.172 303.476 388.172 358.921 388.172 414.367C388.172 429.917 388.172 445.467 388.172 461.06C388.172 461.867 389.33 461.867 389.33 461.06C389.33 405.614 389.33 350.169 389.33 294.723C389.33 279.173 389.33 263.623 389.33 248.03C389.33 247.223 388.172 247.223 388.172 248.03Z" fill="#E8E8E8"/>
<path d="M4.36999 211.492C31.3651 201.932 60.1754 199.85 88.1746 196.324C96.362 195.304 104.549 194.284 112.737 193.222C113.47 193.137 113.47 191.863 112.737 191.948C98.1385 193.775 83.5016 195.644 68.9034 197.471C55.039 199.213 41.0973 200.87 27.3873 203.802C19.5089 205.458 11.7077 207.583 4.06103 210.26C3.36588 210.514 3.67484 211.747 4.36999 211.492Z" fill="#E8E8E8"/>
<path d="M17.6163 242.422C17.6163 235.327 17.6163 228.232 17.6163 221.179C17.6163 220.371 16.4578 220.371 16.4578 221.179C16.4578 228.274 16.4578 235.369 16.4578 242.422C16.4578 243.229 17.6163 243.229 17.6163 242.422Z" fill="#E8E8E8"/>
<path d="M16.6895 221.094C20.4742 221.094 24.2589 221.094 28.0437 221.094C28.7774 221.094 28.7774 219.819 28.0437 219.819C24.2589 219.819 20.4742 219.819 16.6895 219.819C15.9557 219.819 15.9557 221.094 16.6895 221.094Z" fill="#E8E8E8"/>
<path d="M27.5027 220.796C27.5027 228.189 27.5027 235.582 27.5027 242.932C27.5027 243.739 28.6612 243.739 28.6612 242.932C28.6612 235.539 28.6612 228.146 28.6612 220.796C28.6612 219.989 27.5027 219.989 27.5027 220.796Z" fill="#E8E8E8"/>
<path d="M17.1911 243.782C20.551 243.782 23.911 243.782 27.2709 243.782C28.0046 243.782 28.0046 242.507 27.2709 242.507C23.911 242.507 20.551 242.507 17.1911 242.507C16.4574 242.507 16.4187 243.782 17.1911 243.782Z" fill="#E8E8E8"/>
<path d="M50.2111 242.252C50.2111 235.157 50.2111 228.061 50.2111 221.009C50.2111 220.201 49.0525 220.201 49.0525 221.009C49.0525 228.104 49.0525 235.199 49.0525 242.252C49.0525 243.059 50.2111 243.059 50.2111 242.252Z" fill="#E8E8E8"/>
<path d="M49.3229 220.881C53.1077 220.881 56.8924 220.881 60.6771 220.881C61.4109 220.881 61.4109 219.607 60.6771 219.607C56.8924 219.607 53.1077 219.607 49.3229 219.607C48.5506 219.607 48.5506 220.881 49.3229 220.881Z" fill="#E8E8E8"/>
<path d="M60.0977 220.626C60.0977 228.019 60.0977 235.412 60.0977 242.762C60.0977 243.569 61.2562 243.569 61.2562 242.762C61.2562 235.369 61.2562 227.977 61.2562 220.626C61.2562 219.819 60.0977 219.819 60.0977 220.626Z" fill="#E8E8E8"/>
<path d="M49.7867 243.569C53.1466 243.569 56.5064 243.569 59.8663 243.569C60.6001 243.569 60.6001 242.295 59.8663 242.295C56.5064 242.295 53.1466 242.295 49.7867 242.295C49.0529 242.295 49.0529 243.569 49.7867 243.569Z" fill="#E8E8E8"/>
<path d="M83.6945 241.445C83.6945 234.35 83.6945 227.254 83.6945 220.202C83.6945 219.394 82.5359 219.394 82.5359 220.202C82.5359 227.297 82.5359 234.392 82.5359 241.445C82.5359 242.252 83.6945 242.252 83.6945 241.445Z" fill="#E8E8E8"/>
<path d="M82.7674 220.074C86.5521 220.074 90.3368 220.074 94.1215 220.074C94.8553 220.074 94.8553 218.799 94.1215 218.799C90.3368 218.799 86.5521 218.799 82.7674 218.799C82.0336 218.799 82.0336 220.074 82.7674 220.074Z" fill="#E8E8E8"/>
<path d="M93.5808 219.819C93.5808 227.212 93.5808 234.605 93.5808 241.955C93.5808 242.762 94.7394 242.762 94.7394 241.955C94.7394 234.562 94.7394 227.169 94.7394 219.819C94.7394 218.969 93.5808 218.969 93.5808 219.819Z" fill="#E8E8E8"/>
<path d="M83.2693 242.762C86.6292 242.762 89.9891 242.762 93.349 242.762C94.0828 242.762 94.0828 241.487 93.349 241.487C89.9891 241.487 86.6292 241.487 83.2693 241.487C82.5356 241.487 82.5356 242.762 83.2693 242.762Z" fill="#E8E8E8"/>
<path d="M5.79834 302.159C5.79834 330.158 5.79834 358.114 5.79834 386.113C5.79834 386.92 6.95694 386.92 6.95694 386.113C6.95694 358.114 6.95694 330.158 6.95694 302.159C6.95694 301.309 5.79834 301.309 5.79834 302.159Z" fill="#E8E8E8"/>
<path d="M0.700804 207.838C13.1363 203.079 25.7649 199.171 38.6253 196.154C39.359 195.984 39.0501 194.752 38.3163 194.922C25.456 197.938 12.7887 201.847 0.39184 206.606C-0.303313 206.861 0.00565087 208.093 0.700804 207.838Z" fill="#E8E8E8"/>
<path d="M109.801 322C122.854 327.396 135.56 333.812 148.228 340.227C148.884 340.567 149.502 339.462 148.807 339.123C136.024 332.664 123.241 326.206 110.11 320.768C109.415 320.471 109.106 321.703 109.801 322Z" fill="#E8E8E8"/>
<path d="M117.37 366.909C117.37 359.813 117.37 352.718 117.37 345.665C117.37 344.858 116.212 344.858 116.212 345.665C116.212 352.76 116.212 359.856 116.212 366.909C116.212 367.758 117.37 367.758 117.37 366.909Z" fill="#E8E8E8"/>
<path d="M116.482 345.58C120.267 345.58 124.052 345.58 127.837 345.58C128.57 345.58 128.57 344.306 127.837 344.306C124.052 344.306 120.267 344.306 116.482 344.306C115.71 344.306 115.71 345.58 116.482 345.58Z" fill="#E8E8E8"/>
<path d="M127.258 345.325C127.258 352.718 127.258 360.111 127.258 367.461C127.258 368.268 128.416 368.268 128.416 367.461C128.416 360.068 128.416 352.676 128.416 345.325C128.416 344.476 127.258 344.476 127.258 345.325Z" fill="#E8E8E8"/>
<path d="M116.946 368.268C120.306 368.268 123.666 368.268 127.026 368.268C127.759 368.268 127.759 366.994 127.026 366.994C123.666 366.994 120.306 366.994 116.946 366.994C116.212 366.994 116.212 368.268 116.946 368.268Z" fill="#E8E8E8"/>
<path d="M391.725 251.047C391.763 283.932 391.802 316.774 391.802 349.659C391.802 350.466 392.961 350.466 392.961 349.659C392.922 316.774 392.883 283.932 392.883 251.047C392.883 250.24 391.725 250.24 391.725 251.047Z" fill="#E8E8E8"/>
<path d="M308.074 239.533C338.507 239.533 368.9 239.533 399.333 239.533C400.067 239.533 400.067 238.258 399.333 238.258C368.9 238.258 338.507 238.258 308.074 238.258C307.341 238.258 307.341 239.533 308.074 239.533Z" fill="#E8E8E8"/>
<path d="M305.912 281.765C305.912 274.67 305.912 267.574 305.912 260.521C305.912 259.714 304.753 259.714 304.753 260.521C304.753 267.617 304.753 274.712 304.753 281.765C304.753 282.615 305.912 282.615 305.912 281.765Z" fill="#E8E8E8"/>
<path d="M305.024 260.437C308.808 260.437 312.593 260.437 316.378 260.437C317.112 260.437 317.112 259.162 316.378 259.162C312.593 259.162 308.808 259.162 305.024 259.162C304.29 259.162 304.29 260.437 305.024 260.437Z" fill="#E8E8E8"/>
<path d="M315.798 260.182C315.798 267.574 315.798 274.967 315.798 282.317C315.798 283.125 316.957 283.125 316.957 282.317C316.957 274.925 316.957 267.532 316.957 260.182C316.957 259.332 315.798 259.332 315.798 260.182Z" fill="#E8E8E8"/>
<path d="M305.526 283.125C308.885 283.125 312.245 283.125 315.605 283.125C316.339 283.125 316.339 281.85 315.605 281.85C312.245 281.85 308.885 281.85 305.526 281.85C304.753 281.85 304.753 283.125 305.526 283.125Z" fill="#E8E8E8"/>
<path d="M359.555 281.765C359.555 274.67 359.555 267.574 359.555 260.521C359.555 259.714 358.396 259.714 358.396 260.521C358.396 267.617 358.396 274.712 358.396 281.765C358.396 282.615 359.555 282.615 359.555 281.765Z" fill="#E8E8E8"/>
<path d="M358.627 260.437C362.412 260.437 366.197 260.437 369.981 260.437C370.715 260.437 370.715 259.162 369.981 259.162C366.197 259.162 362.412 259.162 358.627 259.162C357.893 259.162 357.893 260.437 358.627 260.437Z" fill="#E8E8E8"/>
<path d="M369.441 260.182C369.441 267.574 369.441 274.967 369.441 282.317C369.441 283.125 370.6 283.125 370.6 282.317C370.6 274.925 370.6 267.532 370.6 260.182C370.6 259.332 369.441 259.332 369.441 260.182Z" fill="#E8E8E8"/>
<path d="M359.129 283.125C362.489 283.125 365.849 283.125 369.209 283.125C369.943 283.125 369.943 281.85 369.209 281.85C365.849 281.85 362.489 281.85 359.129 281.85C358.396 281.85 358.396 283.125 359.129 283.125Z" fill="#E8E8E8"/>
<path d="M309.31 189.908C315.721 185.107 323.522 188.124 330.165 190.588C333.293 191.735 336.46 192.797 339.743 193.137C343.296 193.52 346.849 193.095 350.324 192.33C364.112 189.186 379.019 178.479 393.192 185.744C393.849 186.084 394.467 184.98 393.771 184.64C383.344 179.286 371.874 183.493 361.678 187.316C355.731 189.568 349.591 191.82 343.218 191.99C336.692 192.16 330.976 189.228 324.835 187.359C319.506 185.702 313.481 185.235 308.692 188.804C308.113 189.271 308.692 190.376 309.31 189.908Z" fill="#E8E8E8"/>
<path d="M280.848 388.535C306.066 378.125 330.242 364.869 352.989 349.022C353.607 348.597 353.028 347.492 352.41 347.917C329.74 363.722 305.641 376.936 280.539 387.302C279.843 387.6 280.152 388.832 280.848 388.535Z" fill="#E8E8E8"/>
<path d="M479.35 314.943C479.389 347.828 479.428 380.67 479.428 413.555C479.428 414.363 480.586 414.363 480.586 413.555C480.548 380.67 480.509 347.828 480.509 314.943C480.509 314.136 479.35 314.136 479.35 314.943Z" fill="#E8E8E8"/>
<path d="M395.7 303.429C426.132 303.429 456.526 303.429 486.958 303.429C487.692 303.429 487.692 302.154 486.958 302.154C456.526 302.154 426.132 302.154 395.7 302.154C394.966 302.154 394.966 303.429 395.7 303.429Z" fill="#E8E8E8"/>
<path d="M393.537 345.661C393.537 338.566 393.537 331.47 393.537 324.418C393.537 323.61 392.379 323.61 392.379 324.418C392.379 331.513 392.379 338.608 392.379 345.661C392.379 346.511 393.537 346.511 393.537 345.661Z" fill="#E8E8E8"/>
<path d="M392.649 324.333C396.434 324.333 400.219 324.333 404.003 324.333C404.737 324.333 404.737 323.058 404.003 323.058C400.219 323.058 396.434 323.058 392.649 323.058C391.915 323.058 391.915 324.333 392.649 324.333Z" fill="#E8E8E8"/>
<path d="M403.424 324.078C403.424 331.471 403.424 338.863 403.424 346.214C403.424 347.021 404.582 347.021 404.582 346.214C404.582 338.821 404.582 331.428 404.582 324.078C404.582 323.228 403.424 323.228 403.424 324.078Z" fill="#E8E8E8"/>
<path d="M393.151 347.021C396.511 347.021 399.871 347.021 403.231 347.021C403.965 347.021 403.965 345.746 403.231 345.746C399.871 345.746 396.511 345.746 393.151 345.746C392.379 345.746 392.379 347.021 393.151 347.021Z" fill="#E8E8E8"/>
<path d="M447.18 345.661C447.18 338.566 447.18 331.47 447.18 324.418C447.18 323.61 446.021 323.61 446.021 324.418C446.021 331.513 446.021 338.608 446.021 345.661C446.021 346.511 447.18 346.511 447.18 345.661Z" fill="#E8E8E8"/>
<path d="M446.253 324.333C450.037 324.333 453.822 324.333 457.607 324.333C458.341 324.333 458.341 323.058 457.607 323.058C453.822 323.058 450.037 323.058 446.253 323.058C445.519 323.058 445.519 324.333 446.253 324.333Z" fill="#E8E8E8"/>
<path d="M457.067 324.078C457.067 331.471 457.067 338.863 457.067 346.214C457.067 347.021 458.226 347.021 458.226 346.214C458.226 338.821 458.226 331.428 458.226 324.078C458.226 323.228 457.067 323.228 457.067 324.078Z" fill="#E8E8E8"/>
<path d="M446.755 347.021C450.115 347.021 453.475 347.021 456.835 347.021C457.569 347.021 457.569 345.746 456.835 345.746C453.475 345.746 450.115 345.746 446.755 345.746C446.021 345.746 446.021 347.021 446.755 347.021Z" fill="#E8E8E8"/>
<path d="M20.5897 166.753C31.7508 170.279 42.7188 164.501 53.1847 160.89C58.9004 158.935 64.9251 157.363 70.9498 158.213C77.0903 159.105 82.6901 162.334 88.3286 165.011C94.0443 167.73 99.9917 169.982 106.325 168.877C107.059 168.75 106.75 167.518 106.016 167.645C93.9284 169.769 83.8101 159.36 72.3787 157.151C61.2176 154.984 50.5972 160.847 40.1699 164.246C33.8749 166.286 27.3482 167.518 20.8987 165.478C20.1649 165.266 19.856 166.498 20.5897 166.753Z" fill="#E8E8E8"/>
<path d="M120.538 185.192C124.67 185.065 128.3 183.025 131.969 181.199C134.209 180.094 136.526 179.032 138.998 178.819C141.74 178.564 144.134 179.627 146.49 181.071C150.815 183.705 154.832 186.127 159.814 186.977C164.525 187.826 169.314 187.444 173.91 185.915C174.605 185.66 174.335 184.428 173.601 184.682C168.503 186.382 163.096 186.594 157.883 185.235C155.411 184.597 153.017 183.578 150.777 182.261C148.653 180.986 146.645 179.457 144.405 178.479C135.792 174.698 128.879 183.62 120.538 183.875C119.804 183.96 119.804 185.235 120.538 185.192Z" fill="#E8E8E8"/>
<path d="M877.029 379.145C878.227 386.07 879.385 393.038 880.582 399.964C860.655 407.909 850.961 413.39 851.579 416.449C852.313 420.145 867.954 420.272 898.54 416.873C897.227 402.428 895.914 387.982 894.601 373.494C888.731 375.406 882.861 377.276 877.029 379.145Z" fill="#161616" stroke="#161616" stroke-width="3" stroke-miterlimit="10"/>
<path d="M970.296 292.344C961.954 296.126 958.44 295.191 947.896 298.378C928.471 304.241 914.413 315.202 905.647 323.487C906.071 339.292 906.496 355.098 906.921 370.903C906.033 372.05 896.301 384.201 881.548 382.544C871.391 381.397 865.057 374.344 863.358 372.305C863.088 357.732 863.319 342.182 864.208 325.824C864.748 316.35 865.443 307.172 866.332 298.378C867.645 296.338 869.653 293.407 872.241 290.008C892.554 263.411 916.885 251.599 930.131 245.396C943.339 239.193 951.604 235.327 963.924 234.222C967.206 233.925 1000.03 231.376 1005.32 245.864C1010.23 259.077 990.88 283.04 970.296 292.344Z" fill="white" stroke="#161616" stroke-width="3" stroke-miterlimit="10"/>
<path opacity="0.16" d="M1003.2 241.402C995.862 235.837 979.68 259.544 947.471 281.892C916.498 303.348 900.278 303.008 890.932 323.87C888.074 330.2 885.101 340.227 883.286 350.424C881.046 363.255 881.046 374.217 881.548 381.992C884.058 381.864 887.032 381.482 890.237 380.547C898 378.295 903.522 374.004 906.766 370.988C906.341 354.885 905.878 338.782 905.453 322.722C910.86 317.879 919.472 310.954 931.097 305.048C952.839 293.959 960.988 298.717 978.908 287.373C983.04 284.782 1006.4 269.954 1005.86 250.58C1005.71 247.478 1005.67 243.272 1003.2 241.402Z" fill="#3D3D3D"/>
<path opacity="0.25" d="M1006.21 249.05C1004.59 247.606 998.295 257.293 983.195 269.146C964.426 283.847 955.389 283.677 934.727 297.358C927.274 302.286 916.499 310.189 904.565 322.213C906.882 321.108 910.628 319.239 914.992 316.477C923.875 310.784 926.038 307.3 932.796 303.561C935.229 302.244 939.786 300.884 948.862 298.292C964.735 293.746 967.013 293.959 972.767 291.112C980.376 287.373 985.357 282.657 987.984 280.108C1000.57 267.957 1008.26 250.835 1006.21 249.05Z" fill="#3D3D3D"/>
<path opacity="0.2" d="M904.99 322.68C900.046 342.266 895.142 361.895 890.198 381.482C892.4 380.844 895.103 379.825 898.038 378.125C902.248 375.661 905.222 372.729 907.153 370.478C906.419 354.545 905.724 338.612 904.99 322.68Z" fill="#3D3D3D"/>
<path d="M1018.11 229.591C1019.46 241.062 1021.2 258.355 1022.05 279.471C1023.32 312.058 1021.47 330.2 1021.16 354.29C1020.89 375.406 1021.78 405.699 1027.26 443.045C1024.29 445.212 1017.57 449.503 1008.07 450.225C999.029 450.905 992.116 448.016 988.872 446.401C988.022 428.302 986.516 409.056 984.083 388.832C979.603 351.571 972.845 318.006 965.353 288.605C960.718 281.552 956.045 274.542 951.411 267.489C968.288 254.361 985.126 241.275 1002 228.146C1007.33 228.656 1012.7 229.124 1018.11 229.591Z" fill="white" stroke="#161616" stroke-width="3" stroke-miterlimit="10"/>
<path d="M957.783 271.143C956.586 269.316 955.427 267.447 954.23 265.62C953.882 267.064 953.535 268.509 953.187 269.996C958.903 266.087 964.503 261.966 969.871 257.462C974.351 253.723 978.522 249.602 983.04 245.948C985.898 243.612 988.833 241.402 991.768 239.193C994.588 237.111 997.445 234.477 1000.54 232.82C1002.2 231.928 1004.17 232.055 1005.94 232.055C1009.34 232.055 1012.7 232.183 1016.06 232.395C1019.77 232.607 1019.77 226.234 1016.06 226.022C1012.7 225.852 1009.3 225.682 1005.94 225.682C1003.78 225.682 1001.54 225.682 999.492 226.404C996.287 227.552 993.39 230.313 990.648 232.395C987.482 234.732 984.353 237.069 981.264 239.533C976.475 243.357 972.072 247.648 967.399 251.599C961.915 256.23 956.161 260.479 950.291 264.473C949.055 265.322 948.321 267.404 949.248 268.849C950.445 270.676 951.604 272.545 952.801 274.372C954.925 277.686 959.946 274.5 957.783 271.143Z" fill="white"/>
<path opacity="0.14" d="M979.719 234.689C985.589 253.766 991.035 275.009 995.36 298.25C1006.13 356.414 1006.33 408.163 1003.2 448.823C1005.05 449.546 1007.41 450.183 1010.15 450.268C1018.84 450.523 1025.1 445 1027.11 443.088C1025.41 433.698 1023.2 419.635 1021.89 402.47C1019.03 365.294 1022.63 344.221 1023.2 312.61C1023.55 293.406 1022.9 266.13 1017.99 232.777C1005.21 233.415 992.463 234.052 979.719 234.689Z" fill="#3D3D3D"/>
<path opacity="0.2" d="M1019.27 252.406C1018.18 294.256 1016.33 337.295 1013.63 381.482C1012.24 404.297 1010.62 426.773 1008.84 448.866C1010.62 449.206 1013.78 449.546 1017.53 448.399C1022.39 446.869 1025.41 443.682 1026.64 442.195C1022.32 414.579 1021.24 392.188 1021 377.19C1020.58 348.809 1023.01 334.321 1022.32 301.181C1021.85 280.108 1020.39 263.028 1019.27 252.406Z" fill="#3D3D3D"/>
<path d="M861.311 79.7823C861.813 78.5077 856.87 75.8735 857.372 74.3864C857.874 72.8569 864.015 72.4745 868.147 75.831C872.472 79.3149 872.202 84.4134 874.674 90.9563C877.493 98.3066 881.934 102.3 888.693 108.418C892.748 112.115 908.582 125.966 931.406 125.201C941.756 124.861 950.407 121.589 956.818 118.148C955.929 130.342 955.003 142.578 954.114 154.772C948.862 156.089 941.64 157.236 933.182 156.429C902.441 153.497 882.707 127.41 876.605 119.38C872.897 114.494 867.838 106.974 863.204 96.7345C859.573 97.9242 853.935 99.2838 847.176 98.519C842.388 98.0091 836.672 96.3946 836.711 94.9076C836.749 92.9532 846.597 91.6361 846.52 90.9563C846.443 90.3615 838.68 92.6983 836.711 89.5118C835.166 87.005 837.328 81.3543 840.959 79.06C842.079 78.3802 843.353 77.9553 846.52 77.9978C855.093 77.9978 860.848 80.9294 861.311 79.7823Z" fill="white" stroke="#161616" stroke-width="3" stroke-miterlimit="10"/>
<path d="M836.595 87.0899C838.564 86.5801 840.843 87.6423 842.851 87.7272C844.628 87.8122 846.404 87.6423 848.142 87.2599C848.876 87.0899 848.567 85.8578 847.833 86.0278C845.632 86.4951 843.43 86.6226 841.19 86.2827C839.491 86.0278 837.985 85.4329 836.286 85.8578C835.552 86.0278 835.861 87.2599 836.595 87.0899Z" fill="#161616"/>
<path d="M838.217 82.8838C840.534 82.3739 842.581 83.4361 844.821 83.5636C846.79 83.691 848.76 83.2661 850.691 82.7138C851.425 82.5014 851.116 81.2693 850.382 81.4817C847.872 82.204 845.439 82.5439 842.851 81.9491C841.113 81.5667 839.646 81.2268 837.869 81.6092C837.174 81.8216 837.483 83.0537 838.217 82.8838Z" fill="#161616"/>
<path d="M859.574 84.1585C861.543 86.4527 864.208 87.6424 867.066 87.5574C867.8 87.5149 867.8 86.2403 867.066 86.2828C864.478 86.4103 862.161 85.3481 860.423 83.2662C859.883 82.6714 859.072 83.5636 859.574 84.1585Z" fill="#161616"/>
<path opacity="0.18" d="M836.711 89.1718C836.827 88.0246 845.246 87.7272 852.97 88.9594C857.14 89.5967 861.196 90.234 865.019 92.2309C873.361 96.522 876.103 104.722 880.428 112.242C880.428 112.242 890.122 128.94 907.462 138.287C924.686 147.549 944.344 141.346 955.427 136.417C955.003 142.535 954.578 148.653 954.153 154.772C943.919 157.066 935.731 156.514 930.479 155.706C901.244 151.16 882.9 126.433 875.601 116.618C869.692 108.673 865.753 101.366 863.358 96.3946C859.535 97.9241 853.858 99.4961 847.099 98.7313C842.426 98.179 836.904 96.4795 836.942 94.9925C837.02 93.0806 846.327 91.9334 846.25 91.5086C846.211 91.2961 843.585 91.9334 840.341 91.0412C839.066 90.7013 836.672 89.8091 836.711 89.1718Z" fill="#3D3D3D"/>
<path opacity="0.24" d="M924.416 148.441C938.203 148.654 948.862 142.706 954.423 138.924C954.23 144.363 953.998 149.758 953.805 155.197C946.158 156.599 932.757 157.788 917.464 152.393C889.774 142.663 876.18 118.445 872.665 111.69C873.785 113.899 891.975 147.974 924.416 148.441Z" fill="#3D3D3D"/>
<path opacity="0.19" d="M849.841 96.1399C858.106 96.1824 863.667 94.8228 863.783 95.4601C863.86 95.9699 860.423 97.4995 856.793 98.2642C846.25 100.474 836.595 95.6725 836.711 94.9927C836.826 94.5254 841.152 96.0974 849.841 96.1399Z" fill="#3D3D3D"/>
<path d="M858.879 61.3006C864.893 61.3006 869.769 55.9364 869.769 49.3193C869.769 42.7022 864.893 37.338 858.879 37.338C852.864 37.338 847.988 42.7022 847.988 49.3193C847.988 55.9364 852.864 61.3006 858.879 61.3006Z" fill="#F7A561"/>
<path d="M856.677 62.0653C863.502 62.0653 869.035 55.9592 869.035 48.427C869.035 40.8948 863.502 34.7887 856.677 34.7887C849.852 34.7887 844.319 40.8948 844.319 48.427C844.319 55.9592 849.852 62.0653 856.677 62.0653Z" stroke="#161616" stroke-width="2" stroke-miterlimit="10"/>
<path d="M858.376 40.9493C855.943 40.7793 849.687 43.371 852.004 47.2374C853.356 49.4892 855.982 48.0021 857.874 48.5544C860.307 49.2767 860.037 52.5057 858.531 54.0777C856.947 55.6922 854.707 55.4373 853.201 53.9503C852.66 53.398 851.811 54.2902 852.39 54.8425C855.441 57.9016 860.886 56.1596 860.886 51.1886C860.886 48.9368 859.496 47.4923 857.565 47.2374C856.136 47.0249 852.12 48.2146 853.047 44.9855C853.665 42.7762 856.638 42.0964 858.415 42.2239C859.149 42.2664 859.149 40.9918 858.376 40.9493Z" fill="#161616"/>
<path d="M857.063 41.5441C857.179 40.142 857.295 38.7824 857.411 37.3803C857.488 36.5731 856.329 36.5731 856.252 37.3803C856.136 38.7824 856.02 40.142 855.905 41.5441C855.827 42.3513 856.986 42.3513 857.063 41.5441Z" fill="#161616"/>
<path d="M856.291 56.7545C856.407 57.7317 856.523 58.7514 856.6 59.7286C856.677 60.5358 857.836 60.5358 857.758 59.7286C857.643 58.7514 857.527 57.7317 857.449 56.7545C857.372 55.9472 856.214 55.9472 856.291 56.7545Z" fill="#161616"/>
<path d="M968.481 115.131C967.207 115.216 962.92 115.429 957.436 116.916C954.308 117.766 951.836 118.743 950.407 119.38C947.82 125.158 944.498 134.08 943.262 145.382C941.486 161.485 945.039 171.851 947.472 187.869C949.133 198.873 950.484 214.806 948.631 234.944C952.57 238.896 962.843 248.115 978.445 250.495C1000.54 253.894 1016.76 241.062 1020.12 238.301C1022.16 224.365 1024.09 210.047 1025.83 195.389C1028.8 170.577 1031.04 146.572 1032.71 123.501C1022.01 112.412 1012.74 109.438 1006.21 108.843C993.661 107.654 982.307 114.282 968.481 115.131Z" fill="#00BD8E"/>
<path opacity="0.17" d="M985.821 125.838C988.216 128.557 991.498 132.678 994.433 138.287C1008.53 165.223 999.802 196.664 995.901 210.599C993.198 220.371 988.061 234.689 977.943 250.155C981.805 250.877 986.671 251.302 992.232 250.707C1005.44 249.262 1015.02 242.677 1019.81 238.768C1023.44 216.08 1026.53 191.948 1028.92 166.455C1030.31 151.5 1031.35 136.927 1032.13 122.864C1030.62 121.249 1028.3 119.082 1025.21 116.916C1020.23 113.389 1012.39 107.908 1003.55 109.608C992.271 111.732 986.555 124.138 985.821 125.838Z" fill="#17171B"/>
<path opacity="0.11" d="M1030.39 132.594C1028.42 138.669 1025.37 148.356 1022.28 160.508C1013.09 196.154 1013.74 211.449 1002.58 229.846C999.184 235.454 993.468 243.399 983.852 251.26C988.602 251.217 995.476 250.58 1003.32 247.733C1010.42 245.141 1015.87 241.657 1019.57 238.811C1022.59 221.051 1025.25 201.89 1027.22 181.369C1028.81 164.289 1029.85 147.974 1030.39 132.594Z" fill="#17171B"/>
<path d="M1012.47 214.381C1011.66 212.724 1012.51 210.26 1013.78 208.943C1016.14 206.478 1020.42 207.413 1022.36 210.09C1022.63 210.472 1023.94 212.257 1023.4 213.786C1022.24 216.888 1014.13 217.695 1012.47 214.381Z" fill="white" stroke="#161616" stroke-width="3" stroke-miterlimit="10"/>
<path d="M1023.36 116.279C1029.11 120.655 1036.22 127.028 1043.06 135.95C1050.51 145.637 1055.38 155.409 1058.62 163.609C1061.36 170.619 1063.02 176.865 1064.06 181.581C1060.63 190.291 1054.18 203.122 1042.28 214.381C1038 218.46 1033.75 221.604 1029.85 224.068C1027.8 226.575 1024.94 229.761 1021.16 233.033C1018.69 235.199 1015.33 238.089 1014.55 237.366C1013.94 236.771 1015.02 233.84 1016.68 231.8C1018.65 229.421 1021.08 228.699 1021.04 228.571C1021 228.444 1018.84 228.869 1016.83 230.568C1014.52 232.565 1014.63 234.435 1013.47 234.732C1011.04 235.369 1005.44 228.911 1006.29 222.368C1006.98 216.888 1011.89 213.956 1013.55 212.936C1018.11 210.175 1022.55 210.684 1024.17 210.939C1029.96 201.04 1035.76 191.183 1041.55 181.284C1039.97 179.881 1037.88 177.885 1035.6 175.293C1032.94 172.276 1025.44 163.694 1021.85 151.925C1017.03 136.12 1021.47 121.547 1023.36 116.279Z" fill="white" stroke="#161616" stroke-width="3" stroke-miterlimit="10"/>
<path d="M1007.22 227.764C1008.65 224.28 1011.08 221.561 1014.25 220.032C1014.94 219.692 1014.32 218.587 1013.67 218.927C1010.34 220.541 1007.68 223.473 1006.21 227.127C1005.9 227.849 1006.91 228.487 1007.22 227.764Z" fill="#161616"/>
<path d="M1011.46 233.67C1010.27 229.676 1013.78 225.555 1016.68 223.728C1017.33 223.303 1016.76 222.198 1016.1 222.623C1012.74 224.748 1008.95 229.421 1010.34 234.01C1010.58 234.775 1011.7 234.435 1011.46 233.67Z" fill="#161616"/>
<path opacity="0.18" d="M1021.58 123.289C1026.22 128.557 1032.74 136.417 1039.73 146.742C1049.54 161.145 1054.41 168.367 1054.76 175.973C1055.37 190.078 1045.76 207.71 1033.09 214.423C1029.42 216.378 1019.88 220.329 1014.4 228.061C1012.82 230.271 1011.19 233.33 1011.77 234.01C1012.28 234.562 1014.13 233.117 1014.75 233.797C1015.48 234.604 1013.7 237.069 1014.21 237.621C1014.82 238.301 1018.26 235.879 1021.74 232.82C1023.98 230.823 1026.72 228.104 1029.62 224.535C1033.28 222.241 1037.18 219.352 1041.16 215.698C1053.79 204.099 1060.59 190.546 1064.22 181.283C1063.33 177.545 1061.98 172.489 1059.85 166.668C1053.44 149.121 1044.87 137.777 1042.05 134.208C1038 129.024 1031.89 122.269 1023.36 115.769C1022.74 118.275 1022.16 120.782 1021.58 123.289Z" fill="#3D3D3D"/>
<path opacity="0.21" d="M1058.62 187.487C1054.91 192.755 1053.02 196.111 1051.47 198.618C1048.54 203.292 1044.18 207.753 1035.41 216.675C1032.28 219.862 1028.03 224.11 1022.82 228.996C1017.34 234.222 1014.67 236.899 1014.79 237.069C1014.94 237.281 1020.23 232.863 1030.7 223.813C1032.67 222.538 1035.45 220.669 1038.58 218.035C1056.57 202.867 1064.64 181.071 1063.91 180.561C1063.6 180.391 1061.94 182.728 1058.62 187.487Z" fill="#3D3D3D"/>
<path d="M960.41 45.4528C949.055 55.6922 949.519 76.4683 953.96 89.8941C956.779 98.3915 961.298 104.212 964.272 107.441C963.654 112.37 963.036 117.298 962.418 122.227C965.701 123.884 970.412 125.626 976.166 125.923C991.228 126.73 1002 117.043 1004.94 114.239C1002.27 104.425 999.609 94.6102 996.944 84.7532C996.596 81.9916 996.017 77.7429 995.399 72.5595C993.738 59.0486 993.816 58.3264 993.082 56.117C992.773 55.2248 988.139 42.2663 977.364 39.972C968.674 38.1876 961.491 44.4756 960.41 45.4528Z" fill="white" stroke="#161616" stroke-width="3" stroke-miterlimit="10"/>
<path d="M951.063 80.0372C950.407 82.8839 949.711 87.345 950.175 92.6983C950.484 96.2672 951.025 102.47 955.08 108.461C959.444 114.919 965.314 117.383 967.824 118.275C967.631 117.553 967.399 116.661 967.283 115.599C967.168 114.494 967.206 113.474 967.283 112.71C969.948 114.324 972.652 115.896 975.316 117.511C982.075 110.67 984.315 104.382 985.087 99.8361C985.705 96.2672 986.091 89.7242 987.52 77.7429C987.79 75.6186 988.292 71.7948 990.494 70.8176C991.537 70.3502 992.927 70.5627 993.815 71.4124C996.48 73.8766 993.776 81.0144 994.356 81.2269C994.935 81.4393 999.608 74.259 998.025 66.059C997.214 61.8104 994.974 58.8788 993.661 57.4342C990.726 62.5326 987.481 67.801 983.89 73.1968C981.611 76.6383 979.333 79.8673 977.093 83.0113C976.243 83.5212 974.969 84.0735 973.501 83.946C972.343 83.8186 971.956 83.3937 971.107 83.1388C967.94 82.1616 966.241 86.2828 963.112 85.7305C960.564 85.2631 960.332 82.2466 957.513 82.1616C956.161 82.1191 955.62 82.7989 954.23 82.5015C952.762 82.0341 951.72 80.9295 951.063 80.0372Z" fill="#161616" stroke="#161616" stroke-width="3" stroke-miterlimit="10"/>
<path d="M964.194 67.9711C963.229 72.8996 962.611 77.8705 962.341 82.884C962.302 83.3938 962.843 83.6488 963.229 83.4363C964.812 82.5441 966.434 81.6094 968.018 80.7172C968.674 80.3348 968.095 79.2301 967.438 79.6125C965.855 80.5047 964.233 81.4394 962.65 82.3317C962.958 82.5016 963.229 82.7141 963.538 82.884C963.808 77.9555 964.387 73.112 965.353 68.311C965.469 67.5037 964.349 67.1639 964.194 67.9711Z" fill="#161616"/>
<path d="M958.015 73.0694C958.506 73.0694 958.903 71.9661 958.903 70.6051C958.903 69.2442 958.506 68.1409 958.015 68.1409C957.525 68.1409 957.127 69.2442 957.127 70.6051C957.127 71.9661 957.525 73.0694 958.015 73.0694Z" fill="#161616" stroke="#161616" stroke-width="3" stroke-miterlimit="10"/>
<path d="M972.999 73.0694C973.66 73.0694 974.196 71.9661 974.196 70.6051C974.196 69.2442 973.66 68.1409 972.999 68.1409C972.338 68.1409 971.802 69.2442 971.802 70.6051C971.802 71.9661 972.338 73.0694 972.999 73.0694Z" fill="#161616" stroke="#161616" stroke-width="3" stroke-miterlimit="10"/>
<path d="M955.852 65.8041C956.586 64.3171 958.208 64.657 959.405 65.1243C960.1 65.3792 960.409 64.1471 959.714 63.8922C958.015 63.2124 955.852 63.1699 954.848 65.1668C954.5 65.8466 955.504 66.5264 955.852 65.8041Z" fill="#161616"/>
<path d="M970.45 64.0623C972.265 62.1504 975.046 62.3204 976.591 64.6146C977.016 65.2519 978.02 64.6146 977.595 63.9773C975.625 61.0458 972.072 60.6634 969.639 63.1701C969.099 63.7224 969.91 64.6146 970.45 64.0623Z" fill="#161616"/>
<path d="M942.104 57.9865C958.362 59.0487 974.583 60.5357 990.726 62.4901C992.927 62.745 992.927 58.9212 990.726 58.6663C974.544 56.7119 958.324 55.2248 942.104 54.1627C939.864 54.0352 939.864 57.859 942.104 57.9865Z" fill="#161616"/>
<path d="M952.608 55.3523C952.878 52.5906 953.883 45.4953 958.826 39.7171C965.275 32.1969 977.209 29.0529 986.478 35.4259C993.738 40.4394 997.639 50.1264 996.326 59.9834C981.766 58.4538 967.206 56.9243 952.608 55.3523Z" fill="#00BD8F"/>
<path opacity="0.69" d="M973.154 33.4717C971.261 35.2136 971.261 38.91 971.918 42.8188C972.652 47.11 974.544 52.3359 977.363 57.7317C983.697 58.539 990.031 59.3887 996.364 60.1959C996.635 58.6664 996.905 56.4571 996.673 53.8229C996.673 53.8229 996.248 48.9794 993.931 44.6033C989.297 35.851 977.17 29.7328 973.154 33.4717Z" fill="#0F9574"/>
<path opacity="0.24" d="M993.004 83.3511C991.575 84.2008 990.146 83.9884 989.644 83.861C990.88 86.4527 994.704 95.205 992.85 106.506C991.073 117.256 985.28 123.756 983.272 125.838C985.782 125.286 988.64 124.393 991.73 123.034C997.6 120.4 1002 116.916 1004.98 114.069C1001.89 102.13 998.797 90.1915 995.708 78.2527C995.708 78.4651 995.553 81.8641 993.004 83.3511Z" fill="#3D3D3D"/>
<path opacity="0.19" d="M978.715 61.0879C979.179 63.2547 979.565 66.5262 979.101 70.35C978.29 76.808 975.471 81.2692 974.004 83.351C974.892 83.0536 975.78 82.7137 976.668 82.4163C978.445 80.0371 980.26 77.4878 982.037 74.8961C984.972 70.605 987.675 66.3563 990.147 62.2775C986.323 61.8951 982.539 61.4703 978.715 61.0879Z" fill="#3D3D3D"/>
</g>
<defs>
<clipPath id="clip0_403_9349">
<rect width="1272" height="385" fill="white"/>
</clipPath>
</defs>
</svg>
