<svg width="376" height="294" viewBox="0 0 376 294" fill="none" xmlns="http://www.w3.org/2000/svg">
<rect width="376" height="294" fill="#2459AF"/>
<path d="M330.995 164.572C328.583 186.167 326.192 207.738 323.779 229.332C323.084 235.473 322.41 241.614 321.715 247.777C321.671 248.208 322.323 248.208 322.367 247.777C324.779 226.183 327.17 204.611 329.582 183.017C330.278 176.876 330.952 170.736 331.647 164.572C331.691 164.142 331.039 164.142 330.995 164.572Z" fill="#E8E8E8"/>
<path d="M331.517 164.935C331.951 162.624 335.798 162.85 337.255 163.802C338.667 164.731 338.211 166.612 338.059 168.062C337.907 169.557 337.755 171.053 337.602 172.548C336.994 178.621 336.385 184.671 335.777 190.744C334.56 202.799 333.342 214.853 332.125 226.885C331.452 233.615 330.778 240.368 330.082 247.097C330.039 247.528 330.691 247.528 330.734 247.097C333.429 220.45 336.146 193.803 338.798 167.156C338.906 165.977 339.059 164.731 338.254 163.779C337.581 162.986 336.537 162.669 335.581 162.533C333.886 162.306 331.299 162.601 330.886 164.731C330.8 165.184 331.43 165.365 331.517 164.935Z" fill="#E8E8E8"/>
<path d="M328.909 182.156C324.605 181.227 323.997 187.436 322.519 190.132C320.432 193.893 316.672 196.499 312.543 197.043C312.217 197.088 312.065 197.61 312.456 197.7C313.847 198.063 314.108 199.83 314.238 201.076C314.368 202.368 314.39 203.682 314.281 204.974C314.021 207.784 313.173 210.48 311.804 212.905C311.586 213.29 312.152 213.63 312.369 213.244C312.912 212.293 314.216 212.429 314.934 213.109C315.759 213.902 315.759 215.238 315.651 216.303C315.433 218.162 314.76 219.884 315.216 221.764C315.281 222.059 315.651 222.082 315.803 221.855C318.085 218.524 321.258 216.009 324.953 214.627C325.344 214.491 325.17 213.834 324.779 213.97C320.91 215.42 317.629 218.026 315.238 221.515C315.433 221.538 315.629 221.56 315.825 221.606C315.173 218.864 317.476 215.533 315.672 213.018C314.76 211.726 312.651 211.432 311.782 212.927C311.978 213.041 312.152 213.154 312.347 213.267C313.955 210.389 314.89 207.149 314.977 203.818C315.042 201.734 315.129 197.7 312.608 197.066C312.586 197.292 312.543 197.519 312.521 197.723C316.02 197.27 319.259 195.457 321.562 192.67C322.671 191.333 323.519 189.792 324.105 188.115C324.844 185.963 325.779 182.179 328.735 182.813C329.148 182.904 329.322 182.247 328.909 182.156Z" fill="#E8E8E8"/>
<path d="M333.299 166.091C334.125 166.702 335.168 166.838 336.103 166.453C336.494 166.294 336.32 165.637 335.929 165.796C335.125 166.113 334.321 166.023 333.625 165.501C333.299 165.252 332.973 165.841 333.299 166.091Z" fill="#E8E8E8"/>
<path d="M333.625 167.473C334.038 168.198 334.929 168.56 335.69 168.243C336.081 168.085 335.907 167.427 335.516 167.586C335.016 167.79 334.451 167.631 334.19 167.133C333.973 166.748 333.429 167.088 333.625 167.473Z" fill="#E8E8E8"/>
<path d="M304.697 249.091C308.37 248.683 312.434 247.686 316.085 248.683C317.737 249.137 319.346 249.816 321.019 250.247C322.867 250.723 324.779 250.995 326.648 251.289C327.061 251.357 327.235 250.7 326.822 250.632C324.931 250.338 323.04 250.043 321.193 249.59C319.389 249.137 317.694 248.366 315.89 247.936C312.304 247.029 308.326 248.004 304.718 248.412C304.284 248.457 304.284 249.159 304.697 249.091Z" fill="#E8E8E8"/>
<path d="M324.388 248.865C327.17 249.091 329.8 248.208 332.473 247.573C335.472 246.871 338.515 246.621 341.58 246.825C341.993 246.848 341.993 246.168 341.58 246.146C338.733 245.964 335.907 246.146 333.125 246.735C330.234 247.347 327.409 248.434 324.41 248.185C323.953 248.14 323.953 248.819 324.388 248.865Z" fill="#E8E8E8"/>
<path d="M306.674 141.551C303.784 160.72 300.893 179.89 297.981 199.082C297.155 204.521 296.329 209.981 295.503 215.42C295.438 215.85 296.068 216.032 296.133 215.601C299.024 196.431 301.915 177.262 304.827 158.069C305.653 152.631 306.479 147.17 307.305 141.732C307.37 141.301 306.74 141.12 306.674 141.551Z" fill="#E8E8E8"/>
<path d="M300.524 142.616C297.198 161.763 293.982 180.932 290.874 200.102C290.004 205.518 289.135 210.911 288.265 216.326C288.2 216.757 288.831 216.938 288.896 216.507C291.96 197.315 295.112 178.145 298.372 158.976C299.285 153.583 300.219 148.19 301.154 142.774C301.241 142.366 300.611 142.185 300.524 142.616Z" fill="#E8E8E8"/>
<path d="M300.98 142.412C302.089 139.964 305.001 139.443 306.805 141.415C307.087 141.732 307.566 141.256 307.261 140.939C305.175 138.673 301.697 139.239 300.415 142.094C300.241 142.457 300.806 142.797 300.98 142.412Z" fill="#E8E8E8"/>
<path d="M298.198 152.586C297.437 155.758 294.242 157.072 291.569 158.001C289.113 158.862 286.57 159.791 284.984 162.057C284.766 162.374 285.179 162.646 285.44 162.533C287.309 161.695 286.788 165.026 286.592 165.841C286.309 166.929 285.896 167.971 285.375 168.946C285.266 169.127 285.353 169.399 285.57 169.444C286.766 169.716 286.135 171.597 285.875 172.367C285.44 173.636 284.984 174.882 284.549 176.151C283.658 178.666 282.788 181.182 281.897 183.697C281.81 183.969 282.071 184.173 282.289 184.105C282.701 184.014 282.984 183.81 283.288 183.516C283.571 183.244 283.875 182.904 284.245 182.768C284.658 182.632 285.114 182.722 285.549 182.745C286.788 182.79 288.026 182.632 289.178 182.179C291.395 181.318 293.243 179.641 294.329 177.443C294.525 177.058 293.96 176.718 293.764 177.103C292.612 179.437 290.548 181.159 288.113 181.816C286.874 182.156 285.723 181.907 284.505 182.043C283.44 182.156 283.093 183.244 282.115 183.448C282.245 183.583 282.375 183.719 282.506 183.855C283.68 180.502 284.875 177.148 286.049 173.795C286.483 172.548 287.896 169.263 285.744 168.764C285.809 168.923 285.875 169.104 285.94 169.263C286.809 167.654 287.787 165.411 287.505 163.507C287.331 162.284 286.288 161.4 285.114 161.921C285.266 162.08 285.418 162.238 285.57 162.397C288.852 157.752 297.329 159.179 298.872 152.767C298.915 152.336 298.307 152.155 298.198 152.586Z" fill="#E8E8E8"/>
<path d="M281.289 218.139C283.853 218.433 286.092 216.575 288.678 216.961C291.047 217.3 293.199 218.637 295.633 218.524C296.046 218.501 296.046 217.822 295.633 217.844C293.156 217.958 290.961 216.553 288.548 216.258C286.005 215.964 283.81 217.754 281.289 217.459C280.876 217.414 280.876 218.093 281.289 218.139Z" fill="#E8E8E8"/>
<path d="M294.851 174.973C294.438 175.879 293.938 176.718 293.33 177.511C293.069 177.851 293.525 178.327 293.786 177.987C294.438 177.171 294.981 176.287 295.394 175.313C295.59 174.928 295.025 174.588 294.851 174.973Z" fill="#E8E8E8"/>
<path d="M202.849 213.675C211.456 211.454 220.432 213.041 229.126 213.607C238.255 214.196 247.405 214.287 256.555 214.196C261.749 214.151 266.922 214.038 272.117 213.947C272.53 213.947 272.53 213.267 272.117 213.267C262.836 213.448 253.534 213.63 244.253 213.494C239.646 213.426 235.038 213.267 230.452 212.995C225.996 212.723 221.563 212.247 217.107 211.998C212.282 211.726 207.414 211.794 202.697 213.018C202.284 213.109 202.458 213.766 202.849 213.675Z" fill="#E8E8E8"/>
<path d="M274.508 225.48C281.18 226.5 287.744 224.642 294.373 224.144C301.263 223.622 308.152 224.687 314.868 226.341C315.281 226.432 315.455 225.798 315.042 225.684C308.565 224.098 301.893 223.033 295.199 223.418C288.352 223.804 281.55 225.888 274.681 224.846C274.269 224.755 274.095 225.412 274.508 225.48Z" fill="#E8E8E8"/>
<path d="M56.8161 213.539C64.8578 212.723 72.8561 213.267 80.7674 214.966C84.4405 215.76 88.1353 216.598 91.9171 216.553C95.5902 216.507 99.2416 215.782 102.85 215.148C107.196 214.377 111.608 213.72 115.999 214.468C116.412 214.536 116.586 213.879 116.173 213.811C108.718 212.519 101.459 215.216 94.0906 215.782C89.961 216.099 85.9837 215.397 81.9628 214.536C78.1593 213.72 74.3558 213.04 70.4653 212.723C65.9228 212.361 61.3586 212.406 56.8161 212.882C56.4032 212.882 56.4032 213.562 56.8161 213.539Z" fill="#E8E8E8"/>
<path d="M32.9518 158.998C39.4721 157.253 46.0142 155.509 52.6866 154.512C59.3373 153.515 65.9663 153.492 72.617 154.376C85.4186 156.098 98.1115 159.338 110.587 162.782C135.125 169.603 159.163 178.236 183.68 185.147C197.524 189.044 211.521 192.398 225.714 194.505C226.127 194.573 226.301 193.916 225.888 193.848C200.415 190.041 175.725 182.315 151.165 174.497C126.649 166.68 102.002 158.522 76.6162 154.285C69.3134 153.062 62.0324 152.608 54.6427 153.537C47.2313 154.466 39.972 156.392 32.7562 158.318C32.365 158.454 32.5389 159.112 32.9518 158.998Z" fill="#E8E8E8"/>
<path d="M160.685 178.077C175.877 178.145 190.917 175.63 205.783 172.548C220.737 169.444 235.603 165.751 250.73 163.507C259.337 162.216 268.009 161.445 276.703 161.491C277.116 161.491 277.116 160.811 276.703 160.811C261.51 160.72 246.47 163.236 231.604 166.295C216.651 169.399 201.784 173.092 186.657 175.358C178.05 176.65 169.378 177.443 160.685 177.398C160.25 177.398 160.25 178.077 160.685 178.077Z" fill="#E8E8E8"/>
<path d="M309.956 165.139C314.76 166.861 319.411 169.014 323.845 171.597C324.214 171.801 324.54 171.234 324.171 171.008C319.672 168.402 314.977 166.227 310.108 164.482C309.739 164.346 309.565 165.003 309.956 165.139Z" fill="#E8E8E8"/>
<path d="M25.0405 189.769C27.4313 194.211 28.3659 199.309 27.779 204.362C27.7573 204.543 27.9529 204.702 28.105 204.702C28.844 204.657 30.1263 204.702 30.6697 205.336C31.1696 205.903 30.6697 206.537 30.3437 207.013C29.909 207.648 29.3439 208.305 29.3439 209.12C29.3439 209.574 29.5178 209.936 29.6699 210.344C30.0177 211.182 30.2133 211.976 30.3654 212.882C30.561 214.105 30.7784 215.284 31.2565 216.417C33.1257 220.903 37.3639 223.758 41.2109 226.251C41.5586 226.477 41.9064 225.888 41.5369 225.662C37.2769 222.897 32.3432 219.589 31.2348 214.106C30.9522 212.701 30.7784 211.364 30.2567 210.004C29.6699 208.554 30.7349 207.897 31.3217 206.741C32.4302 204.634 29.6699 203.932 28.1268 204.022C28.2354 204.135 28.3441 204.249 28.4528 204.362C29.0614 199.196 28.0616 193.984 25.6273 189.43C25.41 189.044 24.8449 189.384 25.0405 189.769Z" fill="#E8E8E8"/>
<path d="M26.1707 189.815C28.3876 191.174 30.6262 192.557 32.8431 193.916C33.7342 194.46 35.4513 195.344 35.06 196.635C34.8427 197.36 34.0603 197.655 34.082 198.493C34.082 198.72 34.2776 198.878 34.4949 198.811C36.2337 198.335 36.9509 200.465 37.6247 201.666C38.1898 202.663 39.0157 203.365 39.7981 204.181C41.363 205.835 42.6236 207.761 43.5799 209.846C45.5577 214.151 46.1228 219.113 45.1013 223.758C45.0144 224.189 45.6447 224.37 45.7316 223.94C46.8401 218.864 46.1446 213.494 43.8407 208.871C42.6671 206.492 41.0805 204.543 39.2548 202.685C37.7986 201.212 37.0161 197.406 34.3211 198.131C34.4515 198.244 34.6036 198.357 34.734 198.448C34.7123 197.927 35.4295 197.542 35.6686 197.134C35.8207 196.839 35.8859 196.567 35.8642 196.227C35.799 195.344 35.06 194.596 34.408 194.075C33.2343 193.146 31.8433 192.443 30.561 191.673C29.2135 190.834 27.8442 189.996 26.4967 189.158C26.1272 188.999 25.8012 189.588 26.1707 189.815Z" fill="#E8E8E8"/>
<path d="M29.909 196.25C35.6468 204.475 39.9068 213.72 42.4714 223.509C42.5801 223.94 43.2104 223.758 43.1017 223.328C40.5153 213.471 36.2554 204.158 30.4741 195.91C30.235 195.548 29.6699 195.888 29.909 196.25Z" fill="#E8E8E8"/>
<path d="M38.8853 201.552C39.1896 193.916 45.0361 188.025 45.5795 180.411C45.3621 180.434 45.1448 180.479 44.9492 180.502C45.536 182.405 46.1228 184.309 46.7314 186.212C47.1009 187.368 49.3178 192.557 46.8183 192.489C46.4923 192.489 46.3836 192.942 46.6444 193.123C47.6225 193.78 47.4269 195.14 47.4921 196.205C47.5355 197.111 47.7312 197.882 48.0789 198.72C49.2091 201.326 49.4482 203.864 49.0787 206.673C48.7309 209.279 48.0354 211.817 47.4269 214.355C46.7748 217.119 46.1228 219.906 45.4708 222.671C45.3621 223.101 45.9924 223.283 46.1011 222.852C46.8183 219.793 47.5573 216.734 48.2745 213.652C48.9265 210.911 49.6655 208.169 49.8829 205.336C49.9698 204.09 49.9481 202.821 49.7307 201.575C49.4916 200.17 48.8179 199.015 48.4049 197.678C47.8833 196.001 48.6657 193.622 46.9922 192.511C46.927 192.715 46.8835 192.942 46.8183 193.146C49.1004 193.214 48.7527 190.449 48.2963 188.976C47.4051 186.099 46.4923 183.198 45.6012 180.321C45.4925 179.958 44.9926 180.026 44.9709 180.411C44.4493 188.002 38.581 193.894 38.2767 201.552C38.2115 201.983 38.8635 201.983 38.8853 201.552Z" fill="#E8E8E8"/>
<path d="M45.2752 186.62C44.0146 192.466 43.08 198.403 42.4932 204.362C42.4497 204.793 43.1017 204.793 43.1452 204.362C43.732 198.448 44.6666 192.602 45.9055 186.801C45.9924 186.371 45.3621 186.189 45.2752 186.62Z" fill="#E8E8E8"/>
<path d="M33.8647 212.338C36.212 212.791 38.2985 213.947 39.972 215.714C40.2763 216.032 40.7327 215.556 40.4284 215.238C38.6897 213.38 36.4945 212.157 34.0385 211.681C33.6256 211.613 33.4517 212.27 33.8647 212.338Z" fill="#E8E8E8"/>
<path d="M37.103 206.651C37.3204 204.815 37.5594 203.002 37.7768 201.167C37.8203 200.736 37.1682 200.736 37.1248 201.167C36.9074 203.002 36.6683 204.815 36.451 206.651C36.4075 207.081 37.0596 207.081 37.103 206.651Z" fill="#E8E8E8"/>
<path d="M41.8846 193.463C42.5584 194.392 43.0148 195.389 43.2539 196.522C43.3408 196.952 43.9711 196.771 43.8842 196.341C43.6234 195.162 43.1452 194.075 42.4497 193.123C42.1889 192.783 41.6238 193.1 41.8846 193.463Z" fill="#E8E8E8"/>
<path d="M212.521 199.241C212.652 200.691 212.608 202.141 212.456 203.592C212.434 203.728 212.565 203.909 212.695 203.909C213.282 204 213.869 204.09 214.477 204.158C214.412 204 214.347 203.818 214.282 203.66C214.064 204.203 213.434 205.065 213.738 205.654C213.934 206.016 214.434 206.129 214.629 206.56C214.868 207.081 214.803 207.693 215.021 208.214C215.89 210.163 219.172 208.985 219.694 211.047C219.802 211.477 220.432 211.296 220.324 210.865C219.889 209.098 218.02 209.256 216.672 208.781C215.238 208.282 215.694 206.9 215.021 205.835C214.868 205.608 214.434 205.427 214.347 205.246C214.26 205.064 214.716 204.271 214.847 204C214.912 203.818 214.89 203.524 214.651 203.501C214.064 203.41 213.477 203.32 212.869 203.252C212.956 203.365 213.021 203.478 213.108 203.569C213.282 202.119 213.304 200.669 213.173 199.218C213.13 198.811 212.478 198.811 212.521 199.241Z" fill="#E8E8E8"/>
<path d="M213.238 200.057C215.086 200.94 217.107 201.666 218.802 202.844C220.976 204.362 221.28 206.605 221.258 209.166C221.258 209.596 221.91 209.596 221.91 209.166C221.91 206.855 221.758 204.543 219.976 202.934C218.194 201.303 215.694 200.487 213.564 199.468C213.195 199.286 212.869 199.875 213.238 200.057Z" fill="#E8E8E8"/>
<path d="M215.086 203.592C217.498 205.246 219.324 207.557 220.476 210.321C220.65 210.729 221.193 210.367 221.041 209.981C219.867 207.104 217.933 204.725 215.434 203.025C215.064 202.776 214.738 203.365 215.086 203.592Z" fill="#E8E8E8"/>
<path d="M221.389 204.022C221.215 203.32 220.911 202.436 221.258 201.756C221.541 201.212 222.084 201.099 222.541 200.782C223.214 200.329 223.367 199.264 223.693 198.584C223.91 198.131 224.323 197.247 224.758 196.975C225.388 196.567 225.91 197.292 226.083 197.927C226.257 198.561 226.149 199.173 225.931 199.785C225.823 200.079 225.649 200.329 225.67 200.669C225.692 200.918 225.757 201.054 225.888 201.28C226.257 201.869 226.648 202.255 226.714 203.025C226.801 204.339 226.149 205.472 225.366 206.447C224.171 207.942 222.715 209.166 222.193 211.114C222.084 211.545 222.715 211.726 222.823 211.296C223.606 208.441 226.779 207.058 227.301 204.09C227.496 203.002 227.214 202.255 226.779 201.303C226.366 200.374 226.605 200.079 226.757 199.218C226.844 198.742 226.822 198.221 226.692 197.745C226.518 197.043 225.91 195.978 225.084 196.001C224.258 196.001 223.54 197.474 223.214 198.085C222.888 198.697 222.715 199.672 222.215 200.102C221.823 200.442 221.367 200.487 220.998 200.872C220.172 201.801 220.454 203.116 220.737 204.203C220.889 204.611 221.519 204.453 221.389 204.022Z" fill="#E8E8E8"/>
<path d="M224.149 201.054C223.019 203.682 222.041 206.379 221.258 209.143C221.128 209.574 221.758 209.732 221.889 209.324C222.649 206.628 223.606 203.977 224.714 201.416C224.888 201.008 224.323 200.646 224.149 201.054Z" fill="#E8E8E8"/>
<path d="M52.2736 209.755C58.5983 207.557 65.4881 207.761 71.6824 210.367C72.0736 210.525 72.2475 209.868 71.8563 209.71C65.5533 207.081 58.5331 206.877 52.0998 209.098C51.7085 209.256 51.8824 209.914 52.2736 209.755Z" fill="#E8E8E8"/>
<path d="M267.618 81.5716C277.401 81.5716 285.331 73.4253 285.331 63.3763C285.331 53.3273 277.401 45.1809 267.618 45.1809C257.835 45.1809 249.904 53.3273 249.904 63.3763C249.904 73.4253 257.835 81.5716 267.618 81.5716Z" stroke="#E8E8E8" stroke-width="2" stroke-miterlimit="10"/>
<path d="M56.5336 100.107C55.1643 97.7956 58.4245 95.9149 60.2719 96.0735C62.554 96.2774 64.5971 97.6597 66.9009 97.7956C70.661 98.0449 73.8124 95.3937 77.0943 93.9435C79.1156 93.0598 81.1369 92.7426 83.2669 93.3091C85.3534 93.8756 87.2443 94.9859 89.309 95.5977C91.113 96.1415 92.8735 96.1641 94.6992 95.6656C96.7422 95.1218 98.6331 94.1022 100.698 93.581C102.915 93.0145 104.849 93.3997 106.74 94.6686C108.327 95.7336 109.783 97.1385 111.63 97.7276C113.586 98.3621 116.999 97.5917 117.955 100.016C118.955 102.531 115.325 103.528 113.673 103.755C111.109 104.072 108.5 104.14 105.936 103.914C103.436 103.71 101.002 103.075 98.5027 103.007C96.1988 102.939 94.2428 103.596 92.2649 104.797C90.1784 106.089 88.2006 107.199 85.7229 107.471C80.4414 108.06 75.2686 105.976 70.0089 106.044C67.053 106.066 63.9668 106.882 61.0544 106.021C58.6201 105.296 56.1641 102.917 56.751 100.084C56.8379 99.6537 56.2076 99.4724 56.1207 99.9029C55.7077 101.942 56.5771 103.8 58.0767 105.115C59.9242 106.723 62.228 107.131 64.5753 107.086C67.4225 107.018 70.1828 106.61 73.03 106.905C75.6816 107.199 78.3115 107.766 80.963 108.083C83.3973 108.355 85.9402 108.4 88.3093 107.652C90.8305 106.837 92.7865 104.865 95.3077 104.095C98.1767 103.211 101.198 104.05 104.088 104.435C107.001 104.82 109.957 104.865 112.869 104.571C114.673 104.389 116.781 104.095 118.085 102.622C119.194 101.353 118.911 99.5857 117.629 98.566C115.695 97.0252 113.021 97.7956 110.891 96.7306C108.935 95.7563 107.392 94.0342 105.349 93.1731C100.85 91.2698 96.7857 95.2578 92.3519 95.4164C89.8741 95.507 87.6138 94.2608 85.3751 93.3544C83.3104 92.5387 81.2239 92.0628 79.0504 92.584C76.7466 93.1278 74.7253 94.442 72.6388 95.5297C70.0089 96.8892 67.5529 97.569 64.6623 96.64C62.3802 95.9149 59.9024 94.646 57.5986 96.0055C56.0989 96.8892 54.947 98.7246 55.9685 100.447C56.1859 100.832 56.751 100.492 56.5336 100.107Z" fill="#E8E8E8"/>
<path d="M168.574 68.0214C170.313 64.2827 175.073 67.0924 177.594 67.9308C180.854 69.0184 183.549 67.4776 186.462 66.0727C188.266 65.189 190.048 64.6679 192.047 64.7812C194.09 64.9171 196.09 65.5062 198.111 65.8008C201.958 66.3446 205.544 65.0757 209.283 64.4186C211.282 64.0787 213.325 64.0107 215.325 64.2373C216.346 64.3506 217.368 64.5319 218.368 64.8038C219.302 65.0531 220.454 65.2797 221.28 65.8008C223.801 67.3643 220.454 69.9928 218.889 70.4686C217.281 70.9671 215.564 70.8538 213.934 70.5593C212.043 70.2194 210.174 69.6529 208.261 69.5849C206.457 69.4943 204.827 69.9928 203.175 70.6726C201.263 71.4656 199.437 72.236 197.351 72.2587C195.308 72.2814 193.243 71.9868 191.2 71.8735C186.505 71.6469 181.789 71.7602 177.116 72.2134C174.877 72.44 172.595 72.9838 170.356 73.0064C169.248 73.0291 168.074 72.7799 167.248 71.9641C166.77 71.4656 166.423 70.8085 166.531 70.0834C166.662 69.1997 167.357 68.3613 168.313 68.5199C168.726 68.5879 168.9 67.9308 168.487 67.8628C167.162 67.6589 166.031 68.6559 165.857 70.0381C165.684 71.5336 166.857 72.8025 168.118 73.3237C170.074 74.1394 172.356 73.4823 174.356 73.233C176.833 72.9158 179.311 72.6892 181.81 72.5759C184.31 72.4626 186.788 72.4173 189.287 72.5079C191.765 72.5759 194.243 72.8705 196.72 72.9611C198.981 73.0291 200.937 72.3493 203.002 71.4883C205.414 70.4913 207.587 70.0608 210.174 70.5139C213.63 71.1031 217.65 72.5533 220.867 70.31C221.976 69.5396 223.106 68.0667 222.715 66.5939C222.28 64.8945 219.694 64.4866 218.346 64.1467C216.259 63.6255 214.108 63.3989 211.956 63.4896C209.652 63.6029 207.414 64.1467 205.175 64.6452C202.654 65.2117 200.198 65.5063 197.633 65.0757C195.46 64.7132 193.286 64.0561 191.048 64.124C186.396 64.2373 182.702 68.8825 177.92 67.387C175.877 66.7525 173.986 65.4836 171.769 65.5289C170.226 65.5742 168.683 66.2087 167.987 67.7269C167.835 68.0667 168.4 68.4066 168.574 68.0214Z" fill="#E8E8E8"/>
<path d="M265.097 102.078C270.595 98.8832 277.094 100.492 283.071 100.356C286.048 100.288 288.7 99.5857 291.526 98.634C293.134 98.0902 294.721 97.7049 296.416 97.7049C298.089 97.6823 299.741 97.9089 301.415 97.9995C302.827 98.0675 304.262 98.0675 305.631 97.7049C306.305 97.5463 306.935 97.2518 307.587 97.0931C309.065 96.7533 309.761 97.8862 309.804 99.2911C309.891 102.758 306.544 104.684 303.697 105.205C300.263 105.817 296.698 105.364 293.243 105.25C289.961 105.16 286.766 105.477 283.527 106.089C279.789 106.791 276.029 107.675 272.204 107.584C270.4 107.539 268.596 107.29 266.879 106.701C266.031 106.406 265.14 106.044 264.379 105.522C263.575 104.979 262.402 103.098 264.053 102.735C264.466 102.645 264.292 101.988 263.879 102.078C262.945 102.282 262.445 103.279 262.619 104.253C262.88 105.613 264.336 106.361 265.444 106.859C268.618 108.309 272.16 108.491 275.573 108.151C279.615 107.766 283.527 106.633 287.57 106.157C291.743 105.658 295.916 106.202 300.111 106.179C303.24 106.157 306.913 105.817 309.087 103.143C309.913 102.123 310.478 100.832 310.5 99.4724C310.521 98.3847 310.195 96.9572 309.13 96.504C307.761 95.9149 306.109 97.0025 304.762 97.2291C302.784 97.5463 300.741 97.2744 298.763 97.1385C297.003 97.0025 295.242 96.9798 293.503 97.3877C291.569 97.8409 289.743 98.6793 287.809 99.1551C280.245 101.013 271.921 97.3877 264.814 101.534C264.401 101.716 264.727 102.305 265.097 102.078Z" fill="#E8E8E8"/>
<path d="M39.0374 240.458C47.1009 238.056 55.273 235.677 63.6625 234.952C67.8789 234.589 72.1389 234.657 76.3336 235.405C80.3545 236.13 84.1362 237.558 87.8311 239.303C91.8954 241.183 95.8728 243.291 100.111 244.673C100.502 244.809 100.676 244.152 100.285 244.016C92.417 241.433 85.4403 236.538 77.2899 234.907C69.2047 233.275 60.9022 234.227 52.9257 235.994C48.1876 237.059 43.5147 238.419 38.8636 239.801C38.4723 239.914 38.6462 240.572 39.0374 240.458Z" fill="#E8E8E8"/>
<path d="M89.0265 238.804C95.3077 238.011 101.545 237.422 107.848 238.192C114.064 238.963 120.128 240.821 125.779 243.63C126.149 243.812 126.497 243.223 126.105 243.041C120.585 240.299 114.695 238.441 108.631 237.626C102.067 236.719 95.5685 237.308 89.0265 238.124C88.6135 238.17 88.6135 238.849 89.0265 238.804Z" fill="#E8E8E8"/>
<path d="M116.716 243.427C119.846 244.378 122.954 245.375 126.084 246.259C128.779 247.007 131.582 247.483 134.299 246.508C134.69 246.372 134.517 245.715 134.125 245.851C131.278 246.893 128.322 246.214 125.497 245.375C122.628 244.537 119.759 243.63 116.89 242.769C116.499 242.656 116.325 243.313 116.716 243.427Z" fill="#E8E8E8"/>
<path d="M90.2002 244.922C97.003 245.262 103.393 249.771 110.304 248.14C110.717 248.049 110.544 247.392 110.131 247.483C103.328 249.091 96.9161 244.582 90.2002 244.242C89.7872 244.22 89.7872 244.899 90.2002 244.922Z" fill="#E8E8E8"/>
<path d="M29.3004 246.372C34.3645 244.877 39.4286 243.381 44.4928 241.886C44.9057 241.772 44.7318 241.115 44.3189 241.229C39.2548 242.724 34.1907 244.22 29.1266 245.715C28.7136 245.828 28.8875 246.486 29.3004 246.372Z" fill="#E8E8E8"/>
<path d="M42.6236 245.081C47.253 243.789 51.9476 242.701 56.664 241.84C57.0769 241.772 56.9031 241.115 56.4901 241.183C51.7738 242.067 47.0791 243.132 42.4497 244.424C42.0368 244.559 42.2106 245.194 42.6236 245.081Z" fill="#E8E8E8"/>
<path d="M141.211 225.798C158.033 225.798 174.856 225.798 191.7 225.798C192.96 225.798 192.96 223.758 191.7 223.758C174.877 223.758 158.055 223.758 141.211 223.758C139.95 223.758 139.95 225.798 141.211 225.798Z" fill="#161616"/>
<path d="M198.133 226.183C201.589 226.183 205.045 226.183 208.522 226.183C209.783 226.183 209.783 224.144 208.522 224.144C205.066 224.144 201.611 224.144 198.133 224.144C196.872 224.144 196.872 226.183 198.133 226.183Z" fill="#161616"/>
<path d="M215.303 225.798C216.846 225.798 218.411 225.798 219.954 225.798C221.215 225.798 221.215 223.758 219.954 223.758C218.411 223.758 216.846 223.758 215.303 223.758C214.043 223.758 214.043 225.798 215.303 225.798Z" fill="#161616"/>
<path d="M212.804 242.588C228.496 242.588 244.21 242.588 259.902 242.588C264.358 242.588 268.835 242.588 273.29 242.588C274.551 242.588 274.551 240.549 273.29 240.549C257.598 240.549 241.884 240.549 226.192 240.549C221.736 240.549 217.259 240.549 212.804 240.549C211.543 240.549 211.543 242.588 212.804 242.588Z" fill="#161616"/>
<path d="M278.311 242.226C281.658 242.226 284.984 242.226 288.331 242.226C289.591 242.226 289.591 240.186 288.331 240.186C284.984 240.186 281.658 240.186 278.311 240.186C277.05 240.186 277.05 242.226 278.311 242.226Z" fill="#161616"/>
<path d="M293.351 242.588C294.655 242.588 295.981 242.588 297.285 242.588C298.546 242.588 298.546 240.549 297.285 240.549C295.981 240.549 294.655 240.549 293.351 240.549C292.091 240.549 292.091 242.588 293.351 242.588Z" fill="#161616"/>
<path d="M71.4216 50.166C72.5083 50.7778 73.5081 51.5255 74.421 52.4093C74.7252 52.7038 75.1817 52.228 74.8774 51.9334C73.9428 51.0044 72.8996 50.234 71.7476 49.5995C71.3782 49.3729 71.0521 49.9621 71.4216 50.166Z" fill="#161616"/>
<path d="M75.812 48.5572C75.399 47.5828 74.986 46.6311 74.5731 45.6568C74.3992 45.2489 73.8341 45.6115 74.008 45.9967C74.4209 46.971 74.8339 47.9227 75.2469 48.8971C75.4207 49.3049 75.9858 48.965 75.812 48.5572Z" fill="#161616"/>
<path d="M78.6157 46.9937C78.2245 45.7927 78.0941 44.5918 78.268 43.3229C78.3114 42.8924 77.6594 42.8924 77.6159 43.3229C77.4638 44.6371 77.5725 45.9287 78.0071 47.175C78.1158 47.5828 78.7461 47.4016 78.6157 46.9937Z" fill="#161616"/>
<path d="M153.056 60.0227C153.86 60.4079 154.751 60.4306 155.555 59.9547C156.664 59.2976 156.707 58.1873 156.968 57.009C157.055 56.5785 157.185 56.0573 157.511 55.7628C158.185 55.151 158.424 55.5815 158.968 55.7401C159.315 55.8307 159.641 55.8534 159.967 55.6948C160.598 55.4002 162.163 52.2959 162.88 53.3156C163.141 53.6555 163.706 53.3156 163.445 52.9757C162.923 52.2732 162.184 52.3412 161.511 52.8171C161.054 53.1343 160.837 53.5875 160.554 54.0407C160.402 54.3126 160.207 54.6751 159.967 54.8791C159.294 55.4002 159.033 54.947 158.446 54.8337C157.533 54.6525 156.838 55.2869 156.512 56.148C156.229 56.8504 156.294 57.6435 156.034 58.3686C155.599 59.4789 154.425 59.9774 153.382 59.4562C152.991 59.2523 152.665 59.8414 153.056 60.0227Z" fill="#161616"/>
<path d="M156.316 62.198C157.033 62.7418 157.859 62.3793 158.403 61.7448C159.359 60.5665 158.685 58.5725 160.185 57.8248C161.293 57.2583 162.576 57.5075 163.641 56.7145C164.575 56.012 165.075 54.9244 165.162 53.7461C165.184 53.3156 164.532 53.3156 164.51 53.7461C164.423 55.1283 163.554 56.2613 162.271 56.6465C161.445 56.8957 160.533 56.8504 159.772 57.2583C159.142 57.5982 158.772 58.1873 158.598 58.8898C158.468 59.3656 158.446 59.8868 158.337 60.3626C158.164 61.0424 157.511 62.266 156.664 61.6089C156.316 61.3596 155.99 61.9488 156.316 62.198Z" fill="#161616"/>
<path d="M158.859 200.215C160.945 202.074 163.075 203.932 165.249 205.79C167.335 207.58 169.422 209.347 171.487 211.047C172.421 214.038 172.008 215.828 171.421 216.893C170.4 218.773 168.748 218.796 166.031 221.515C164.64 222.897 163.032 224.529 163.336 225.48C163.706 226.636 166.966 227.18 178.55 225.141C180.941 219.974 183.332 214.808 185.723 209.642C180.485 203.977 175.225 198.289 169.987 192.625C166.27 195.162 162.576 197.7 158.859 200.215Z" fill="#191919"/>
<path d="M135.342 146.626C132.973 152.586 135.429 159.202 139.298 169.558C140.906 173.863 142.58 177.103 143.449 178.757C145.166 182.043 146.166 183.47 153.186 193.78C158.772 201.983 159.315 202.821 160.945 203.365C166.553 205.246 175.638 200.442 175.725 194.165C175.79 189.77 171.4 186.597 170.682 186.076C168.009 182.156 166.336 178.576 165.271 175.925C163.423 171.28 161.445 166.34 161.837 160.131C162.184 154.784 163.901 154.466 163.814 149.799C163.793 149.074 163.532 140.35 158.403 136.838C151.708 132.283 138.776 138.016 135.342 146.626Z" fill="white" stroke="#191919" stroke-width="2" stroke-miterlimit="10"/>
<path opacity="0.47" d="M163.532 147.646C163.88 148.643 163.597 150.524 163.032 154.262C162.402 158.432 161.945 158.681 161.728 160.879C161.358 164.55 162.25 167.292 163.945 172.526C164.401 173.908 165.358 176.106 167.27 180.502C168.596 183.538 169.248 184.898 170.704 186.167C171.878 187.186 172.356 187.141 173.312 188.161C174.682 189.634 175.594 191.831 175.638 193.826C175.725 198.335 171.487 201.96 167.792 203.161C164.532 204.226 161.641 203.41 160.337 202.957C157.772 199.785 154.23 195.208 150.361 189.407C145.34 181.884 142.536 177.715 140.385 171.869C137.777 164.799 133.625 153.537 138.972 147.08C145.297 139.489 161.706 142.525 163.532 147.646Z" fill="#6C6D6D"/>
<path opacity="0.37" d="M149.231 157.412C151.904 159.61 151.491 163.394 152.056 168.968C152.708 175.381 154.36 181.363 155.99 185.147C160.663 196.023 169.813 199.785 168.487 202.481C167.748 203.977 164.184 204.339 161.641 203.524C160.706 203.229 159.989 202.799 159.533 202.481C155.512 197.043 152.404 192.398 150.274 189.135C139.32 172.413 138.168 166.952 139.102 162.465C139.363 161.219 140.037 157.933 142.623 156.596C144.688 155.486 147.47 155.962 149.231 157.412Z" fill="#6C6D6D"/>
<path opacity="0.47" d="M156.251 157.163C154.729 160.562 153.056 162.873 151.861 164.346C148.883 167.971 146.601 168.968 144.971 172.413C143.841 174.837 143.645 177.148 143.623 178.599C142.949 177.488 142.276 176.287 141.624 175.018C140.167 172.141 139.081 169.422 138.277 166.952C144.275 163.689 150.252 160.426 156.251 157.163Z" fill="#6C6D6D"/>
<path d="M116.781 198.289C118.868 200.148 120.998 202.006 123.171 203.864C125.258 205.654 127.344 207.421 129.409 209.121C128.713 209.936 127.627 211.183 126.301 212.678C123.845 215.42 123.193 215.986 122.432 217.323C122.063 217.98 120.02 221.628 121.106 223.056C122.541 224.937 129.126 222.331 133.43 219.498C136.06 217.754 140.276 214.31 143.667 207.738C138.429 202.074 133.169 196.386 127.931 190.721C124.193 193.236 120.476 195.774 116.781 198.289Z" fill="#191919"/>
<path d="M136.255 144.292C132.778 146.536 129.974 148.756 120.389 157.888C104.849 172.662 103.371 175.222 102.915 178.735C102.154 184.558 104.458 190.925 108.674 194.959C109.718 195.956 113.956 199.989 119.802 199.445C124.693 198.992 131.213 195.298 130.93 190.2C130.756 186.869 127.714 183.765 123.628 182.292C132.017 174.316 139.689 169.331 145.362 166.181C152.469 162.239 156.99 160.856 159.033 155.894C161.554 149.753 159.315 140.576 154.099 137.971C149.535 135.705 144.188 139.171 136.255 144.292Z" fill="white" stroke="#191919" stroke-width="2" stroke-miterlimit="10"/>
<path opacity="0.42" d="M147.014 141.777C147.014 145.969 146.362 151.589 143.232 156.846C136.06 168.81 122.889 168.085 119.541 178.87C119.15 180.162 117.738 186.121 120.563 189.43C122.128 191.242 124.562 191.764 125.236 194.211C125.627 195.616 125.236 196.975 124.845 197.927C127.866 197.224 130.191 194.8 130.691 191.832C131.474 187.141 127.149 184.105 126.823 183.878C125.453 182.949 124.106 182.655 123.258 182.541C132.713 173.228 141.211 167.949 147.514 164.799C151.86 162.624 157.12 160.448 159.185 155.101C160.924 150.569 159.62 145.743 158.294 142.525C154.534 142.253 150.774 142.027 147.014 141.777Z" fill="#6C6D6D"/>
<path opacity="0.5" d="M151.274 147.669C151.643 149.776 151.904 152.948 150.687 156.234C148.644 161.74 143.775 163.893 138.516 167.586C134.712 170.237 129.496 174.565 124.062 181.522C125.671 180.162 127.909 178.327 130.648 176.242C135.777 172.345 138.624 170.192 142.776 167.881C148.948 164.482 152.034 162.782 152.208 162.692C152.904 162.375 154.382 161.717 155.881 160.267C156.316 159.837 157.577 158.568 158.576 156.347C158.946 155.509 161.989 148.915 159.359 146.536C157.751 145.04 154.338 145.516 151.274 147.669Z" fill="#6C6D6D"/>
<path d="M140.602 85.2425C143.189 84.6987 147.122 84.1776 151.861 84.6761C155.968 85.1066 163.51 85.877 169.4 91.7911C170.965 93.3772 173.747 96.2323 174.747 100.832C175.986 106.542 173.79 111.437 172.899 113.159C169.291 120.138 163.641 120.115 161.076 126.641C160.837 127.253 160.141 129.111 158.489 130.878C156.686 132.782 154.164 134.096 153.686 133.575C153.469 133.325 153.578 132.623 154.969 130.493C154.621 130.72 153.186 131.671 151.469 131.263C149.1 130.72 147.514 127.955 147.97 126.074C148.079 125.599 148.383 124.874 152.034 122.608C153.708 121.565 154.556 121.044 156.099 120.296C160.076 118.37 167.292 111.799 166.249 105.659C165.64 102.124 162.423 99.4725 159.794 98.3396C154.556 96.119 151.143 99.7444 147.057 97.9544C144.666 96.8894 141.884 93.921 140.602 85.2425Z" fill="white" stroke="#191919" stroke-width="2" stroke-miterlimit="10"/>
<path opacity="0.29" d="M142.732 88.936C144.797 88.936 147.883 89.1173 151.513 89.933C156.468 91.066 160.859 92.5162 164.945 96.3683C168.379 99.6085 169.009 104.208 169.205 105.636C169.378 106.95 170.009 111.459 167.661 115.606C166.162 118.234 164.662 118.642 160.033 122.653C157.685 124.692 156.816 126.8 153.947 128.499C151.078 130.198 149.948 129.7 149.6 129.496C148.035 128.635 147.97 126.12 147.948 125.78C148.47 125.259 149.296 124.488 150.361 123.673C153.882 120.953 155.468 121.089 158.468 119.141C159.641 118.37 163.184 115.991 165.14 111.595C165.705 110.326 166.466 108.514 166.205 106.157C165.923 103.665 164.64 102.01 164.184 101.421C161.445 97.9771 157.207 97.4786 156.36 97.3879C151.86 96.9574 149.948 99.4046 146.883 97.7958C145.536 97.0934 144.753 96.0057 144.362 95.4846C142.471 92.8108 142.645 89.7971 142.732 88.936Z" fill="#6C6D6D"/>
<path opacity="0.24" d="M145.449 96.3908C145.558 95.0766 150.535 94.3968 153.947 94.3741C157.359 94.3515 161.206 94.3288 164.293 97.1839C166.075 98.8154 166.77 100.651 166.901 101.013C168.857 106.27 165.379 111.414 164.966 111.98C165.423 111.255 166.901 108.717 166.314 105.545C165.727 102.26 163.336 100.469 162.163 99.6084C161.467 99.0873 159.142 97.4105 155.881 97.2972C152.165 97.1839 150.535 99.2232 147.579 98.1129C147.448 98.0449 145.384 97.2519 145.449 96.3908Z" fill="#6C6D6D"/>
<path d="M83.2668 69.4943C82.5061 68.18 81.5933 66.2766 80.9195 63.8521C78.92 56.5105 80.7456 49.1236 81.5716 49.1463C81.8976 49.1463 82.3105 50.3019 82.7235 55.1283C83.1799 53.4742 83.419 52.1146 83.5711 51.1403C83.7233 50.1206 83.8102 49.2822 84.3753 48.4212C84.81 47.7414 85.3751 47.3109 85.788 47.0616C86.1575 46.7217 86.527 46.3592 86.8965 46.0193C87.2877 46.3592 87.6137 46.6991 87.8963 47.0616C90.8521 50.823 89.2655 56.5785 88.8308 58.006C89.3307 57.6661 89.961 57.145 90.5261 56.3746C91.5476 55.015 91.5911 53.9047 91.8302 53.9274C92.2866 53.9727 92.8517 57.938 91.5042 61.9034C91.0912 63.127 90.5913 64.0787 90.2001 64.7358C90.1132 67.0017 90.0697 74.8871 95.4598 82.1381C95.9597 82.7952 103.588 92.7879 113.825 92.2894C120.498 91.9722 122.78 87.599 127.214 89.3891C130.648 90.7713 133.147 94.9406 133.234 99.2685C133.343 103.778 130.822 107.97 126.844 109.918C123.997 110.168 119.824 110.258 114.912 109.442C109.326 108.513 97.6984 106.565 91.0695 97.1612C88.1571 93.0145 86.8095 88.2788 86.2662 85.8316C86.1792 85.4237 86.114 85.1291 86.0054 84.5853C85.3316 81.2997 84.4188 76.428 83.2668 69.4943Z" fill="white" stroke="#191919" stroke-width="2" stroke-miterlimit="10"/>
<path d="M85.6142 48.8064C86.0271 48.8064 86.0271 48.1266 85.6142 48.1266C85.2012 48.1266 85.2012 48.8064 85.6142 48.8064Z" fill="#161616"/>
<path d="M85.6794 47.1522C85.0491 49.7354 84.7013 52.3412 84.6796 54.9923C84.6796 55.3096 85.1577 55.3096 85.1795 54.9923C85.2012 52.3865 85.5272 49.8034 86.1575 47.2882C86.2227 46.971 85.7446 46.835 85.6794 47.1522Z" fill="#161616"/>
<path d="M87.592 47.1522C87.1138 49.6221 86.8313 52.1146 86.8095 54.6297C86.8095 54.947 87.2877 54.947 87.3094 54.6297C87.3529 52.1599 87.592 49.7127 88.0701 47.2882C88.1136 46.9483 87.6572 46.8123 87.592 47.1522Z" fill="#161616"/>
<path opacity="0.24" d="M80.9625 51.2762C81.3972 51.2989 81.1581 55.8307 82.1145 61.6089C83.2446 68.4746 85.6354 73.3237 87.0047 76.9038C89.4389 83.2938 94.177 95.6883 105.001 101.195C116.042 106.837 127.931 102.441 131.625 100.9C131.734 101.602 131.886 103.438 130.995 105.432C130.169 107.29 128.887 108.332 128.3 108.717C127.278 109.148 125.757 109.692 123.844 109.986C120.867 110.44 118.52 110.009 116.498 109.601C109.652 108.196 106.218 107.516 103.023 106.021C99.6976 104.48 95.4376 102.486 91.8732 98.0676C88.3957 93.785 87.3307 89.3891 85.4616 81.5943C84.2879 76.7226 83.7228 72.5986 83.4185 69.6755C82.1797 67.5229 80.5931 64.1014 80.1584 59.6828C79.7237 55.3776 80.5496 51.2762 80.9625 51.2762Z" fill="#6C6D6D"/>
<path opacity="0.4" d="M84.2449 48.5571C84.5057 48.3078 84.7665 48.0586 85.0491 47.8093C83.7233 53.1569 83.006 55.8307 82.8974 55.808C82.7887 55.7627 83.2234 53.3608 84.2449 48.5571Z" fill="#6C6D6D"/>
<path opacity="0.44" d="M104.197 106.587C106.936 107.358 110.826 108.106 115.499 107.834C123.019 107.403 128.67 104.571 131.669 102.758C131.582 103.483 131.278 105.432 129.778 107.222C128.061 109.284 125.91 109.782 125.236 109.896C123.149 109.964 120.889 109.918 118.477 109.714C112.847 109.216 108.022 107.947 104.197 106.587Z" fill="#6C6D6D"/>
<path d="M137.255 116.263C143.797 112.502 154.273 107.041 167.792 102.509C188.765 95.4845 200.698 96.1869 221.237 91.6551C232.604 89.1626 249.144 84.4948 268.77 75.0232C268.813 77.4704 268.922 79.9856 269.117 82.614C269.53 88.3921 270.291 93.7171 271.204 98.5435C269.248 102.033 267.27 105.545 265.314 109.035C265.901 115.062 266.466 121.089 267.053 127.117C255.294 127.389 243.254 127.842 230.952 128.567C200.654 130.334 171.921 133.348 144.884 137.245C142.341 130.266 139.798 123.265 137.255 116.263Z" fill="#1D7E66"/>
<g opacity="0.28">
<g opacity="0.28">
<path opacity="0.28" d="M162.358 107.199C179.094 102.146 196.416 99.4272 213.825 99.0873C214.238 99.0873 214.238 98.4075 213.825 98.4075C196.351 98.7474 178.963 101.489 162.184 106.542C161.771 106.655 161.945 107.313 162.358 107.199Z" fill="#266051"/>
</g>
</g>
<g opacity="0.28">
<g opacity="0.28">
<path opacity="0.28" d="M208 102.894C223.323 98.8607 239.928 102.667 254.664 95.8923C255.055 95.711 254.708 95.1219 254.338 95.3031C239.667 102.056 223.062 98.2262 207.827 102.237C207.414 102.35 207.587 103.007 208 102.894Z" fill="#266051"/>
</g>
</g>
<g opacity="0.28">
<g opacity="0.28">
<path opacity="0.28" d="M238.95 107.335C246.427 105.613 254.142 105.273 261.749 106.384C262.162 106.452 262.336 105.794 261.923 105.726C254.208 104.594 246.383 104.911 238.776 106.678C238.363 106.769 238.537 107.426 238.95 107.335Z" fill="#266051"/>
</g>
</g>
<path d="M126.065 89.2883C127.13 89.9907 128.912 91.3502 130.281 93.6841C132.216 96.9697 133.715 102.861 130.651 106.917C128.999 109.092 126.63 109.976 125 110.316C126.13 114.077 127.195 118.201 128.043 122.643C130.064 133.066 130.499 142.469 130.26 150.287C134.867 151.125 141.149 151.76 148.56 151.012C155.211 150.332 160.731 148.746 164.861 147.228C163.818 128.036 159.492 113.783 155.971 104.742C154.972 102.181 147.43 83.1249 140.823 84.0313C138.91 84.2806 137.888 86.0933 133.411 87.7474C130.434 88.8351 127.804 89.175 126.065 89.2883Z" fill="#F7A561" stroke="#191919" stroke-width="2" stroke-miterlimit="10"/>
<path opacity="0.36" d="M136 87.0213C138.13 89.5365 141.108 93.4566 143.759 98.7815C150.627 112.513 150.345 125.429 150.019 130.323C149.454 138.752 147.237 145.799 144.911 151.056C148.041 150.762 151.453 150.286 155.105 149.561C158.647 148.858 161.907 148.02 164.842 147.136C164.646 143.669 164.211 138.299 163.211 131.819C160.842 116.456 156.93 105.964 153.192 98.3056C146.998 85.6844 142.564 83.5318 141.086 84.0756C140.847 84.1663 139.76 84.6648 138.543 85.3672C137.456 85.979 136.609 86.5682 136 87.0213Z" fill="#6C6D6D"/>
<path opacity="0.49" d="M150.494 94.2959C151.386 101.615 152.364 107.597 153.103 111.721C155.711 126.336 157.819 132.137 155.754 140.204C154.624 144.645 152.668 147.998 151.212 150.128C152.95 150.015 154.928 149.788 157.058 149.335C160.079 148.701 162.666 147.772 164.752 146.843C164.317 132.726 161.557 116.094 153.342 99.5982C152.429 97.7628 151.472 95.9953 150.494 94.2959Z" fill="#6C6D6D"/>
<path d="M126.323 116.943C125.975 120.5 125.823 124.579 126.04 129.065C126.388 135.999 127.54 141.936 128.8 146.672C131.256 146.558 134.908 146.468 139.32 146.672C148.796 147.102 153.512 148.484 157.881 148.983C171.052 150.524 175.051 143.477 189.744 141.188C196.177 140.191 205.979 139.897 218.824 144.36C227.974 149.549 237.103 154.761 246.253 159.95C247.101 158.115 249.339 153.945 254.012 151C260.619 146.808 267.357 148.054 268.965 148.394C267.661 144.859 265.596 137.767 267.313 129.337C267.922 126.369 268.857 123.854 269.813 121.837C264.466 119.503 256.924 116.558 247.644 114.042C231.539 109.646 219.02 108.921 206.37 108.264C182.267 106.995 164.184 109.329 159.272 109.986C145.927 111.844 134.734 114.541 126.323 116.943Z" fill="#00BD8E"/>
<path opacity="0.25" d="M190.222 127.049C190.222 127.117 208.413 129.723 226.583 132.6C233.734 133.733 241.08 134.957 249.578 139.511C255.077 142.457 259.163 145.788 261.88 148.28C262.836 147.986 264.227 147.669 265.923 147.782C266.966 147.85 267.857 148.031 268.574 148.258C267.879 146.196 267.183 143.635 266.748 140.622C266.335 137.789 266.27 135.274 266.335 133.189C205.588 128.182 190.222 126.981 190.222 127.049Z" fill="#0BA17D"/>
<path opacity="0.28" d="M126.127 126.097C127.583 128.522 129.17 129.836 130.3 130.561C134.104 133.031 137.559 132.102 146.949 133.325C148.796 133.575 150.296 133.824 151.23 133.983C143.123 134.821 134.995 135.659 126.888 136.475C126.692 134.98 126.518 133.393 126.388 131.739C126.236 129.768 126.149 127.865 126.127 126.097Z" fill="#0BA17D"/>
<g opacity="0.28">
<g opacity="0.28">
<path opacity="0.28" d="M154.708 134.3C161.163 134.821 167.661 134.254 173.943 132.6C174.356 132.487 174.182 131.83 173.769 131.943C167.531 133.575 161.119 134.141 154.708 133.62C154.295 133.575 154.295 134.254 154.708 134.3Z" fill="#0BA17D"/>
</g>
</g>
<g opacity="0.28">
<g opacity="0.28">
<path opacity="0.28" d="M180.028 132.736C187.266 132.215 194.525 132.555 201.697 133.756C202.11 133.824 202.284 133.167 201.871 133.099C194.655 131.875 187.331 131.535 180.028 132.056C179.594 132.102 179.594 132.782 180.028 132.736Z" fill="#0BA17D"/>
</g>
</g>
<g opacity="0.28">
<g opacity="0.28">
<path opacity="0.28" d="M172.704 123.265C186.614 120.75 200.915 121.203 214.651 124.602C215.064 124.692 215.238 124.058 214.825 123.944C200.98 120.523 186.549 120.092 172.53 122.608C172.117 122.676 172.291 123.333 172.704 123.265Z" fill="#0BA17D"/>
</g>
</g>
<g opacity="0.28">
<g opacity="0.28">
<path opacity="0.28" d="M230.539 154.806C235.494 157.072 239.95 160.358 243.623 164.482C243.906 164.799 244.362 164.323 244.079 164.006C240.363 159.837 235.864 156.506 230.865 154.217C230.474 154.036 230.148 154.625 230.539 154.806Z" fill="#0BA17D"/>
</g>
</g>
<path d="M135.495 67.3643C137.103 72.8932 137.69 76.0881 139.972 81.1411C141.037 83.4977 142.058 85.3784 142.776 86.602C140.45 87.735 136.668 89.1852 131.821 89.3664C128.952 89.4797 126.496 89.0945 124.606 88.664C124.801 87.1458 124.91 85.2651 124.758 83.1125C124.562 80.416 124.019 78.1501 123.475 76.4733C120.889 76.1334 118.303 75.7936 115.716 75.4537C115.216 74.298 114.695 73.1424 114.195 71.9641C113.478 71.9415 112.782 71.9188 112.065 71.8962C112.608 70.31 113.412 67.7948 114.347 64.6905C116.086 58.8445 116.064 58.0061 116.999 56.6918C119.585 53.089 125.432 50.8004 129.235 52.7265C131.539 53.8821 132.886 58.3913 135.495 67.3643Z" fill="white" stroke="#161616" stroke-width="2" stroke-miterlimit="10"/>
<path d="M112.152 72.2586C113.478 72.2813 114.803 72.1907 116.108 71.9867C116.52 71.9188 116.347 71.2617 115.934 71.3296C114.673 71.5336 113.412 71.6015 112.152 71.5789C111.739 71.5789 111.739 72.2586 112.152 72.2586Z" fill="#161616"/>
<path d="M111.608 61.7675C112.391 61.3369 113.412 61.5409 113.956 62.3113C114.195 62.6512 114.76 62.3113 114.521 61.9714C113.782 60.9064 112.413 60.5665 111.282 61.1783C110.913 61.3823 111.239 61.9714 111.608 61.7675Z" fill="#161616"/>
<path d="M112.5 65.0757C112.434 64.8265 112.434 64.5772 112.5 64.328C112.543 64.2147 112.587 64.0787 112.652 63.9881C112.695 63.9201 112.739 63.8748 112.782 63.8295C112.739 63.8295 112.717 63.8521 112.717 63.9201C112.717 64.396 112.521 64.8038 112.174 65.1211C112.369 65.2117 112.543 65.2797 112.739 65.3703C112.739 64.9398 112.826 64.5319 113.021 64.1467C113.217 63.7615 112.652 63.4216 112.456 63.8068C112.217 64.3053 112.087 64.8265 112.087 65.393C112.087 65.7102 112.434 65.8235 112.652 65.6422C112.999 65.325 113.26 64.8945 113.347 64.4186C113.412 64.0108 113.456 63.399 113.021 63.2177C112.608 63.0591 112.217 63.4443 112.043 63.7842C111.804 64.26 111.761 64.7812 111.891 65.3023C111.956 65.6875 112.587 65.5063 112.5 65.0757Z" fill="#161616"/>
<path d="M117.933 62.7418C118.933 62.4245 119.998 62.7644 120.606 63.6708C120.846 64.0333 121.411 63.6934 121.172 63.3309C120.411 62.1979 119.042 61.6768 117.759 62.0846C117.368 62.1979 117.542 62.855 117.933 62.7418Z" fill="#161616"/>
<path d="M118.064 65.8688C118.042 65.5516 118.085 65.2344 118.259 64.9624C118.303 64.8945 118.346 64.8265 118.411 64.7585C118.39 64.6679 118.39 64.6679 118.39 64.7585C118.368 64.8945 118.368 65.0531 118.346 65.2117C118.324 65.3477 118.281 65.5063 118.216 65.6422C118.194 65.7102 118.172 65.7555 118.129 65.8008C118.194 65.9595 118.237 65.9595 118.281 65.8008C118.39 65.6875 118.455 65.4383 118.52 65.3023C118.607 65.1437 118.672 64.9851 118.759 64.8038C118.933 64.4639 118.52 64.124 118.237 64.396C118.064 64.5772 117.955 64.7585 117.89 65.0078C117.781 65.4383 118.39 65.5969 118.52 65.189C118.563 65.0531 118.607 64.9851 118.716 64.8718C118.542 64.7359 118.368 64.5999 118.194 64.4639C117.998 64.8491 117.781 65.2344 117.629 65.6422C117.52 65.9141 117.542 66.2314 117.803 66.39C118.455 66.8432 118.889 65.8915 118.998 65.3703C119.107 64.8718 119.129 63.7842 118.324 64.0108C117.672 64.2147 117.412 65.2344 117.455 65.8462C117.433 66.2993 118.085 66.2993 118.064 65.8688Z" fill="#161616"/>
<path d="M116.086 58.142C116.26 56.9411 116.716 54.9924 117.998 52.9757C118.455 52.2733 119.389 50.7551 120.933 49.7354C123.845 47.7867 128.322 47.9453 131.582 50.3246C134.756 52.6585 136.342 56.8504 135.668 60.9971C129.126 60.0454 122.606 59.0937 116.086 58.142Z" fill="#02D3D8"/>
<path d="M105.414 58.006C115.455 59.2976 125.497 60.5892 135.538 61.8807C136.777 62.0393 136.777 60 135.538 59.8414C125.497 58.5498 115.455 57.2582 105.414 55.9667C104.154 55.8081 104.175 57.8474 105.414 58.006Z" fill="#161616"/>
<path d="M129.126 60.7251C127.344 61.3822 126.323 62.6284 125.127 64.124C122.606 67.2509 123.345 68.4065 121.585 70.3552C118.759 73.4596 115.89 71.6242 113.369 74.6605C111.239 77.2436 111.5 80.7332 111.587 81.5036C111.674 82.274 112.043 85.3783 114.543 87.5083C116.694 89.3437 119.607 89.7742 119.802 89.3663C119.868 89.2077 119.628 88.8452 118.02 87.7575C118.498 88.0974 119.215 88.5053 120.172 88.6866C121.259 88.8905 122.302 88.6866 122.323 88.5279C122.323 88.4147 121.737 88.4146 121.28 87.9161C121.019 87.6216 120.889 87.2817 120.846 86.9871C121.715 87.5763 122.823 88.0748 123.888 87.7575C126.757 86.8738 127.279 80.3706 127.431 78.218C127.974 71.239 126.018 67.4322 128.387 64.985C128.583 64.7811 129.561 63.7841 130.604 63.988C131.952 64.2373 132.973 66.3672 132.517 67.7721C132.147 68.973 130.8 69.3129 130.887 69.5395C131.017 69.8341 133.278 69.3809 135.169 67.8401C135.864 67.2736 136.429 66.8204 136.712 65.982C137.233 64.5318 136.625 62.8777 135.821 61.9034C134.19 59.864 131.061 60 129.126 60.7251Z" fill="#161616" stroke="#161616" stroke-width="2" stroke-miterlimit="10"/>
<path opacity="0.22" d="M131.8 69.7208C131.365 69.7661 130.756 69.7888 130.735 69.6302C130.713 69.5622 130.865 69.4489 130.865 69.4489C130.865 69.4489 130.344 70.106 129.713 70.1967C129.409 70.242 129.148 70.1287 128.974 70.038C130.104 72.4852 131.256 75.4309 132.234 78.8072C133.321 82.5233 133.93 85.9222 134.277 88.8225C135.451 88.8225 137.081 88.6866 138.929 88.0974C140.45 87.5989 141.667 86.9418 142.558 86.3753C140.124 82.5006 138.907 79.3963 138.233 77.289C137.907 76.292 137.233 73.9581 136.886 72.8251C136.255 70.7405 135.777 69.0184 135.429 67.8401C135.255 67.9987 134.973 68.248 134.625 68.4972C134.125 68.8598 133.126 69.5622 131.8 69.7208Z" fill="#6D6C6C"/>
<path d="M124.584 48.5118C127.192 49.0329 129.148 51.1629 129.452 53.6781C129.8 56.6691 127.648 58.7084 127.453 58.8897C130.235 59.2296 132.995 59.5921 135.777 59.932C135.821 59.2749 135.842 58.3685 135.668 57.3262C135.147 53.9727 133.212 51.9107 132.799 51.4801C132.169 50.8004 129.865 48.6024 126.475 48.3985C125.692 48.3758 125.04 48.4438 124.584 48.5118Z" fill="#02D3D8"/>
</svg>
