<svg width="376" height="294" viewBox="0 0 376 294" fill="none" xmlns="http://www.w3.org/2000/svg">
<rect width="376" height="294" fill="#F7A561"/>
<path fill-rule="evenodd" clip-rule="evenodd" d="M192.803 48.0302L189.612 56.4919C188.926 58.2806 188.24 60.1037 187.588 61.8923C187.348 62.5459 187.211 63.1994 186.731 63.6466C185.633 64.6785 183.643 65.3665 182.339 66.0888C181.448 66.5704 180.556 67.0863 179.698 67.5679C179.252 67.8087 178.223 68.1527 177.914 68.5654C177.571 69.047 177.742 69.8725 177.742 70.5261V86.5553C182.305 85.9705 186.902 85.4202 191.465 84.8354C185.358 91.8869 179.286 98.9384 173.18 105.99C171.67 107.744 169.852 109.395 168.72 111.425C166.353 115.724 164.02 120.058 161.653 124.392L155.066 136.466L174.792 135.64C179.904 135.434 185.153 135.744 190.058 134.299C194.107 133.095 198.155 131.891 202.237 130.722C202.786 130.55 204.467 130.378 204.844 129.93C205.187 129.518 205.187 127.97 205.29 127.454C207.211 117.582 209.647 106.712 215.239 98.2504C219.253 92.1621 224.639 86.8305 229.579 81.5333C231.5 79.4694 233.49 77.4056 235.343 75.2729C235.823 74.7226 236.509 74.1034 236.818 73.4499C237.024 73.0371 237.298 72.2115 237.195 71.8332C237.126 71.6612 235.857 71.0764 235.686 70.9732C234.382 70.1477 233.113 69.2878 231.843 68.4622C228.241 66.0888 224.639 63.7154 221.037 61.3764C218.224 59.5533 215.411 57.627 212.426 56.0448C209.338 54.4281 205.942 53.2586 202.717 51.9859C199.355 50.5756 196.096 49.3029 192.803 48.0302" fill="#17171B"/>
<path fill-rule="evenodd" clip-rule="evenodd" d="M303.818 198.519C302.24 199.998 299.392 201.993 297.128 201.099C295.996 200.652 295.035 199.654 293.972 199C292.755 198.285 291.617 197.443 290.576 196.489C288.517 194.46 286.973 191.536 284.538 189.954C283.714 189.438 282.136 189.3 281.553 188.475C281.336 188.039 281.252 187.548 281.313 187.065C281.416 186.136 281.93 186.17 281.073 185.482H282.376C282.411 184.966 281.896 184.932 281.519 185.001C281.69 184.175 281.862 181.011 280.387 182.455C279.117 183.694 279.735 185.757 278.843 187.133C278.157 188.165 276.304 187.34 276.064 186.205C275.961 185.689 276.51 184.898 276.579 184.382C276.716 183.281 276.236 182.318 275.515 181.458C273.937 182.524 274.829 184.691 273.937 186.067C273.114 187.305 271.33 186.721 270.06 186.514C268.585 186.239 266.904 186.514 265.498 186.17C263.371 185.654 264.16 183.109 263.954 181.492C263.714 179.738 261.964 177.33 262.513 175.576C263.096 173.684 266.39 173.271 267.968 172.824C271.604 171.792 276.75 171.586 279.46 168.628C281.587 171.035 283.337 173.753 285.567 176.057C288.003 178.534 290.576 180.839 292.908 183.453C295.344 186.136 297.848 188.784 300.181 191.571C301.21 192.775 302.102 194.082 303.166 195.251C304.161 196.317 305.156 197.281 303.818 198.519V198.519ZM196.096 151.945C197.194 151.36 197.366 151.738 197.366 152.942C197.057 152.358 196.714 152.186 196.096 151.945ZM186.662 175.713V173.546C187.76 173.512 187.074 175.369 186.662 175.713ZM186.422 178.912C186.364 177.977 186.445 177.038 186.662 176.126C186.799 177.124 187.074 178.018 186.422 178.912ZM191.019 244.474C192.014 244.577 193.523 243.889 194.347 244.646C195.204 245.437 195.136 247.776 195.342 248.842C195.685 250.631 195.959 252.42 196.268 254.208C196.439 255.378 196.679 256.582 195.342 257.029C193.386 257.683 190.607 256.754 188.549 256.651C184.535 256.479 180.521 256.238 176.473 256.169C172.57 256.071 168.664 256.197 164.775 256.547C163.025 256.719 161.31 257.063 159.56 257.339C158.634 257.511 156.198 258.13 155.375 257.373C153.831 255.928 156.404 252.523 157.502 251.56C159.56 249.771 162.511 248.498 165.083 247.707C166.456 247.294 168.789 246.125 169.852 247.432C170.675 248.43 170.641 249.771 171.842 250.528C174.621 252.282 173.008 247.26 171.259 246.641C172.425 243.924 174.655 247.776 175.547 248.705C175.89 249.049 176.953 250.115 177.399 249.565C177.742 249.152 177.056 247.673 176.919 247.294C176.713 246.675 176.233 245.781 176.37 245.093C176.61 243.889 178.291 243.58 179.286 243.476C180.83 243.339 182.339 243.82 183.883 243.992C186.319 244.268 188.686 244.268 191.019 244.474V244.474ZM175.513 132.441C172.459 132.682 169.406 132.201 166.353 132.613C163.471 132.992 160.761 134.024 158.051 135.021C162.074 125.63 167.323 116.816 173.66 108.81C176.816 104.786 180.247 100.761 183.677 96.9777C185.256 95.189 186.902 93.5035 188.549 91.7493C190.024 90.2014 191.053 87.5872 192.837 86.4521C194.347 85.4545 196.954 86.1769 198.635 86.2457C200.522 86.3145 202.82 86.4865 204.639 85.8673C205.976 85.4201 206.32 84.1818 204.673 84.1474C202.717 84.113 200.762 84.3194 198.772 84.113C193.626 83.6315 188.652 82.8403 183.437 83.2875C182.237 83.3907 180.693 83.9067 179.526 83.7347C178.703 83.6315 179.252 84.0442 178.669 83.3563C178.404 82.9979 178.217 82.5877 178.12 82.1524C177.742 80.2261 178.806 77.4743 179.046 75.5137C179.286 73.725 179.08 71.73 179.526 69.9757C179.938 68.3934 181.139 68.1526 182.648 68.015C186.731 67.5335 190.916 67.2927 195.033 66.9487C204.433 66.1576 214.107 64.9537 223.438 66.9143C226.8 67.6367 230.917 68.7374 233.902 70.4917C234.828 71.042 235.789 71.6956 235.445 72.8307C235.102 74.0346 233.353 75.2729 232.495 76.064C226.114 81.8428 219.973 87.7592 215.514 95.2234C209.819 104.717 206.525 114.933 204.604 125.803C204.193 128.142 203.815 129.38 201.414 130.034C198.894 130.758 196.308 131.231 193.695 131.444C187.588 131.96 181.55 131.96 175.513 132.441V132.441ZM177.537 69.6661C177.091 73.1059 176.439 76.5456 176.37 80.0541C176.336 81.3612 176.233 82.0148 174.826 82.3244C173.18 82.6683 171.499 82.9435 169.852 83.2875C161.893 85.0074 154.071 87.14 146.284 89.5478C138.702 91.8869 131.258 94.5011 123.504 96.2209C120.177 96.9777 116.266 97.4592 113.247 99.1103C109.988 100.865 110.399 103.788 110.125 106.953C109.748 111.218 108.478 115.312 108.032 119.577C107.786 121.608 107.66 123.653 107.655 125.7C107.689 127.454 107.929 129.38 106.763 130.825C104.43 127.695 103.298 123.739 102.852 119.886C102.612 118.029 102.715 116.137 102.646 114.245C102.578 112.732 102.612 110.324 101.651 109.051C99.5243 106.299 96.7455 117.307 96.4711 118.476C96.0251 120.437 95.6477 122.432 95.2017 124.427C94.9959 125.287 94.7558 128.486 93.5893 128.795C91.1536 129.449 91.7025 122.604 91.6682 121.572C91.5996 119.474 91.531 117.375 91.5996 115.277C91.6339 113.764 91.9426 112.113 91.7711 110.599C91.3594 106.884 89.2668 110.805 88.6493 112.181C87.1741 115.69 86.488 119.439 85.15 122.982C84.9442 123.567 84.3953 125.562 83.5719 125.596C82.6457 125.631 82.6457 123.567 82.6114 122.982C82.3026 119.508 81.2734 116.034 81.5822 112.491C81.9457 108.853 83.0803 105.335 84.9099 102.172C88.6149 95.6362 95.339 91.8869 101.789 88.4471C109.179 84.5718 116.907 81.3825 124.877 78.919C134.452 75.8739 144.216 73.4609 154.105 71.6956C159.114 70.8012 164.226 70.1821 169.303 69.6661C171.087 69.4941 172.871 69.3909 174.621 69.047C175.341 68.9094 177.742 68.2902 177.537 69.6661V69.6661ZM182.683 58.4869C180.178 58.5213 177.605 57.283 175.135 56.7671C172.219 56.1479 169.372 55.288 166.456 54.6688C160.761 53.4305 155.032 52.2266 149.337 50.9883C146.867 50.4379 144.363 49.9564 141.892 49.3716C139.251 48.7525 136.403 48.0301 133.693 48.7181C129.611 49.75 127.861 54.2217 126.386 57.7302C125.323 60.2068 124.499 62.9586 122.853 65.1257C122.269 65.8824 121.412 66.8111 120.348 66.5703C118.358 66.1232 118.667 63.4746 118.942 62.0299C119.319 59.9316 119.834 57.8334 120.245 55.7352C120.417 54.8408 121.72 49.3028 119.388 50.1628C117.672 50.8163 116.746 55.0128 116.094 56.4919C115.614 57.5926 115.099 58.7277 114.55 59.794C113.83 61.2387 111.772 66.0888 109.473 65.4696C106.214 64.5753 109.336 55.9415 109.885 54.1185C110.194 53.1209 113.521 45.5535 110.708 46.1727C109.507 46.4478 108.341 48.6493 107.723 49.578C106.626 51.2291 105.562 52.8802 104.533 54.5312C103.47 56.2511 102.955 58.2118 101.926 59.9316C101.377 60.826 100.279 62.0299 99.1813 61.2043C97.5003 59.8972 98.4951 55.4256 98.8039 53.7401C99.4131 50.5014 100.725 47.4365 102.646 44.7624C105.494 40.8755 110.811 39.6371 115.305 38.8804C121.103 37.9173 126.969 38.1581 132.801 38.7428C139.354 39.3964 145.803 40.0843 152.253 41.3914C158.771 42.7329 165.255 44.04 171.67 45.7943C174.689 46.6198 177.742 47.3766 180.727 48.3397C183.883 49.3716 186.971 50.6787 190.23 51.4011C189.098 54.2561 187.931 57.111 186.799 59.966C185.663 58.968 184.192 58.4394 182.683 58.4869V58.4869ZM238.705 66.364C239.699 65.8136 240.797 65.5384 241.175 64.3345C241.483 63.2682 240.934 62.0299 240.694 60.998C239.901 58.1271 239.807 55.1072 240.42 52.1922C241.037 53.1553 243.37 56.8359 244.811 54.6C245.669 53.2585 243.37 51.3323 242.684 50.3691C244.159 49.4404 246.252 46.9982 247.967 48.4773C249.065 49.4404 249.545 50.3348 251.02 50.8163C252.804 51.3667 254.52 51.2635 256.338 51.0915C257.607 50.9883 257.916 50.8163 258.431 51.8138C258.772 52.6509 259.047 53.5135 259.254 54.3936C259.7 56.0447 260.763 59.2781 259.528 60.826C258.431 62.1675 254.211 61.0324 253.628 62.7522C253.319 63.7154 254.828 63.7498 255.412 64.1969C256.135 64.8525 256.719 65.6481 257.127 66.5359C257.401 67.1551 257.847 68.1526 257.367 68.8062C256.681 69.6661 255.412 69.0126 254.863 68.3934C254.142 67.5679 253.902 66.3984 253.285 65.504C252.153 63.8185 252.084 65.16 251.81 66.364C251.501 67.6023 250.746 67.5335 249.58 67.6711C247.556 67.9496 245.551 68.3517 243.576 68.875C242.571 69.1519 241.585 69.4966 240.626 69.9069C240.008 70.1821 238.945 70.9732 238.259 70.9732C237.024 70.9732 236.166 68.9094 235.514 68.0494C236.578 67.5335 237.641 66.9487 238.705 66.364V66.364ZM305.293 193.634C302.205 189.92 299.529 185.861 296.476 182.111C293.457 178.396 289.992 175.163 286.596 171.792C284.984 170.21 283.474 168.456 281.725 167.08C280.421 166.048 279.392 166.013 277.814 166.495C273.258 167.778 268.808 169.411 264.503 171.379C260.558 173.202 256.955 175.576 252.633 176.573C248.238 177.586 243.721 177.968 239.219 177.708C234.677 177.395 230.193 176.505 225.874 175.06C221.723 173.718 217.4 172.549 213.867 169.9C210.162 167.114 207.28 163.124 204.604 159.375C203.266 157.483 201.928 155.488 201.002 153.321C200.213 151.463 199.698 149.227 198.292 147.714C197.949 148.195 197.503 148.643 197.331 149.193C197.263 149.468 197.709 149.434 197.674 149.64C197.571 150.019 197.057 150.431 196.748 150.638C195.65 151.394 195.65 150.81 195.925 152.22C196.096 153.046 195.788 154.972 194.415 154.353C194.93 154.972 194.107 155.728 193.866 156.21C193.786 156.111 193.677 156.038 193.555 156.002C193.433 155.965 193.302 155.965 193.18 156.004C193.695 157.001 193.386 157.036 192.906 157.827C192.754 158.085 192.638 158.362 192.563 158.652C192.082 159.375 191.499 159.547 191.225 160.407C190.985 161.129 191.053 161.92 190.779 162.642C190.47 162.195 190.127 161.748 189.818 161.301C189.896 161.701 190.011 162.092 190.161 162.47C190.264 162.677 190.676 163.124 190.676 163.227C190.642 163.64 190.161 163.537 190.024 163.881C189.75 164.534 190.127 164.637 189.99 165.257C189.818 165.979 189.372 165.704 189.166 166.323C189.132 166.426 189.441 166.908 189.407 167.148C189.338 167.492 188.995 167.699 188.892 168.043C188.583 168.868 188.72 169.453 188.309 170.244C188.116 170.511 187.955 170.8 187.828 171.104C187.726 171.414 187.931 172.067 187.76 172.308C186.868 173.615 186.971 171.379 187.039 170.795C187.623 166.117 189.475 161.266 191.156 156.898C192.014 154.731 192.803 152.461 193.866 150.397C194.258 149.526 194.805 148.733 195.479 148.058C196.371 147.232 197.606 146.923 198.429 146.028C198.292 146.166 199.287 145.237 199.15 145.547C199.287 145.272 199.047 144.893 199.115 144.618C199.218 144.274 199.424 144.205 199.664 143.93C200.076 143.414 200.59 143.139 199.939 142.485C200.899 142.279 201.379 141.97 201.585 140.903C201.722 140.146 201.448 140.181 201.928 139.665C202.443 139.149 202.683 139.562 202.992 138.667C203.346 137.481 203.633 136.275 203.849 135.056C204.055 134.093 203.575 132.682 204.364 131.994C205.393 131.134 206.32 131.513 206.148 129.758C205.976 128.073 206.491 127.041 207.006 125.424C208.069 122.225 208.481 118.82 209.407 115.587C211.397 108.673 214.862 102.412 218.601 96.3241C222.066 90.6829 226.903 85.9017 231.569 81.2924C232.838 80.0197 234.108 78.747 235.274 77.3711C236.269 76.1672 236.715 74.5505 237.675 73.4154C238.259 72.7275 239.322 72.4179 240.145 72.0739C241.483 71.4548 243.096 70.6636 244.605 70.8012C243.988 72.8307 243.816 75.2385 245.6 76.752C247.761 78.6094 249.717 76.6832 251.707 75.6169C255.309 73.6906 260.489 75.4449 263.645 72.5555C264.4 71.8675 264.606 70.7668 265.395 70.1133C265.978 69.6317 266.767 69.5285 267.419 69.1845C269.374 68.1182 270.335 66.1576 269.58 63.9905C268.894 62.0299 267.796 61.3419 270.198 60.3444C272.153 59.5189 272.908 58.315 272.016 56.1479C271.158 54.0841 269.614 53.8433 268.174 52.4674C266.767 51.1603 268.379 49.6124 269.443 48.6149C270.815 47.3422 271.09 46.2071 269.477 44.8656C267.831 43.4897 265.429 43.5241 263.508 44.212C261.312 45.0031 259.871 46.2759 258.945 48.3741C257.985 50.5067 255.652 49.922 253.765 49.3028C251.947 48.7525 251.466 47.5142 250.3 46.2071C248.962 44.728 246.286 46.0007 244.708 46.6542C240.866 48.3053 237.058 50.9195 236.886 55.4944C236.783 58.2462 237.95 60.5852 238.567 63.165C239.116 65.5384 235.343 65.332 234.691 67.6023C227.727 63.8873 219.939 62.7522 212.152 62.5114C203.849 62.2363 195.444 62.0299 187.245 63.337C189.166 60.0004 190.161 56.3543 191.808 52.9146C192.288 51.917 192.494 52.0202 193.558 52.2954C195.582 52.8802 197.606 53.4993 199.63 54.0841C207.006 56.2511 214.244 58.8309 221.38 61.6859C222.066 61.9611 223.61 62.7178 224.227 61.8923C224.913 60.9292 223.301 59.7597 222.649 59.2781C219.768 57.1798 216.2 55.8727 212.975 54.3936C205.942 51.1603 198.155 49.6124 190.779 47.2046C174.814 42.0697 158.483 38.16 141.927 35.5095C137.913 34.8559 133.831 34.7871 129.817 34.3055C126.237 33.887 122.621 33.8985 119.045 34.3399C112.423 35.1311 104.773 36.851 101.034 42.9393C97.6718 48.3741 95.4419 54.5312 96.2995 61.0324C96.574 62.993 97.3973 65.2976 99.7988 64.7817C101.48 64.4377 102.337 63.0274 103.126 61.6171C104.293 59.5189 105.459 57.4206 106.729 55.3912C107.209 58.4525 105.494 61.4451 105.768 64.5409C105.94 66.6391 107.106 69.9757 109.85 69.3909C113.59 68.5654 115.134 62.7178 116.952 59.8972C117.055 62.0643 116.3 64.1969 116.506 66.364C116.746 68.4966 118.393 70.526 120.76 70.2509C122.99 69.9757 124.431 67.6023 125.357 65.8136C126.661 63.337 127.621 60.654 128.89 58.143C130.091 55.8039 131.498 52.9834 134.379 52.5362C136.918 52.1578 139.868 53.0521 142.373 53.4305C149.371 54.4624 156.232 56.2511 163.162 57.6958C170.572 59.2437 178.188 60.1724 185.358 62.649C182.82 66.0888 176.199 65.3664 172.459 65.7104C166.764 66.2608 161.001 66.7079 155.341 67.5335C149.749 68.359 144.26 69.8037 138.736 70.8356C133.213 71.8675 127.724 72.9339 122.372 74.7225C112.458 78.0247 102.372 82.2212 93.658 87.9999C89.6098 90.6829 85.9734 93.7787 83.469 98.0096C80.9304 102.275 79.7296 107.125 79.2494 112.009C78.9749 115.071 79.4552 117.719 80.0384 120.678C80.4501 122.845 80.6216 126.456 82.3369 128.004C85.6303 131.031 88.3748 118.786 88.958 117.307C89.404 119.714 88.6836 133.336 93.9667 132.235C96.3338 131.753 96.8484 128.486 97.2601 126.559C97.9805 122.982 98.5981 119.37 99.8331 115.931C100.622 120.54 100.931 125.356 102.612 129.793C103.744 132.717 106.934 137.911 109.164 132.923C110.845 129.174 110.262 124.84 110.468 120.85C110.674 116.412 111.943 112.147 112.423 107.778C112.595 106.093 112.423 104.167 114.139 103.238C115.614 102.447 117.741 102.172 119.319 101.725C124.053 100.417 128.788 99.2135 133.487 97.8032C138.187 96.3929 142.819 94.7762 147.484 93.194C151.91 91.6805 156.473 90.8205 160.967 89.5134C163.505 88.7567 166.044 87.9999 168.651 87.3808C169.852 87.1056 171.087 86.8648 172.288 86.5553C173.18 86.3489 174.346 85.4889 175.272 85.5233C176.233 85.5233 176.576 86.3489 177.64 86.4177C178.806 86.4865 179.972 86.2113 181.139 86.1425C183.952 85.9361 186.971 85.5577 189.784 85.9705C188.103 87.9999 185.804 89.3758 183.815 91.0269C181.486 92.9436 179.306 95.0365 177.296 97.2873C173.319 101.877 169.575 106.664 166.078 111.631C162.648 116.515 159.869 121.847 157.467 127.316C156.218 130.027 155.152 132.82 154.277 135.675C153.934 136.844 153.659 138.014 153.042 139.08C152.493 140.043 151.67 140.903 152.356 142.073C152.802 141.77 153.226 141.437 153.625 141.075C153.145 144.446 152.116 147.748 151.567 151.119C151.052 154.456 151.052 157.861 151.087 161.232C151.155 168.249 151.67 175.129 153.111 182.043C154.539 189.037 156.418 195.931 158.737 202.681C160.967 209.148 163.231 215.958 166.353 222.047C169.715 228.582 173.66 235.427 178.531 240.931C175.375 242.238 171.327 241.997 167.999 242.513C164.616 242.98 161.374 244.177 158.497 246.022C155.478 247.982 153.831 250.528 153.419 254.105C153.111 256.651 152.253 260.194 155.581 260.847C157.982 261.329 160.658 260.537 163.059 260.331C167.279 259.987 171.464 259.781 175.684 259.574C179.904 259.402 184.089 259.23 188.309 259.093C190.299 259.024 192.254 258.99 194.244 258.921C194.993 258.848 195.75 258.918 196.474 259.127C197.091 259.334 197.057 259.746 197.743 259.23C198.875 258.405 198.635 255.722 198.601 254.552C198.576 252.738 198.381 250.93 198.017 249.152C197.812 248.086 195.273 241.344 197.263 241.034C194.998 238.523 194.072 234.946 193.043 231.781C191.774 227.826 190.642 223.904 189.75 219.845C187.907 211.209 186.998 202.398 187.039 193.566C195.788 198.966 205.05 201.89 215.376 202.234C225.634 202.543 236.886 201.718 246.629 198.278C251.064 196.749 255.249 194.569 259.048 191.811C260.42 190.814 261.93 188.544 263.748 188.578C265.909 188.612 268.345 189.438 270.506 189.816C274.623 190.504 280.009 190.883 283.508 193.428C285.395 194.804 286.768 196.765 288.449 198.347C289.752 199.551 291.433 200.239 292.703 201.443C294.075 202.75 293.526 204.47 295.824 204.573C297.78 204.676 299.907 203.885 301.588 202.956C304.813 201.305 308.38 197.384 305.293 193.634Z" fill="#17171B"/>
<path fill-rule="evenodd" clip-rule="evenodd" d="M272.976 105.887C277.882 109.395 283.543 111.769 288.689 114.933C289.958 115.724 293.972 117.375 293.938 118.82C293.903 119.68 292.702 120.746 292.188 121.331C291.296 122.363 290.438 123.361 289.615 124.461C285.807 129.38 282.205 134.368 278.088 139.046C277.471 139.734 275.584 143.105 275.001 141.454C274.726 140.697 274.966 139.837 274.246 139.149C273.868 138.771 272.462 138.599 272.874 137.807C273.148 137.945 273.422 138.048 273.697 138.186C273.491 137.567 273.491 136.879 273.182 136.294C272.976 135.916 272.599 135.744 272.462 135.331C272.29 134.746 272.599 134.093 272.53 133.508C272.415 132.926 272.231 132.36 271.982 131.822C270.918 128.555 270.541 125.252 269.992 121.881C269.443 118.545 268.62 115.312 268.276 111.941C267.933 108.363 267.487 104.82 266.939 101.277C267.968 101.415 268.757 102.55 269.477 103.169C270.579 104.156 271.748 105.064 272.976 105.887V105.887ZM269.134 140.422C268.897 140.241 268.709 140.005 268.585 139.734C270.987 138.53 269.546 140.594 269.134 140.422ZM267.659 137.876C266.595 138.151 265.841 138.22 265.052 137.807C264.983 137.773 265.052 137.463 264.914 137.395C264.777 137.326 264.606 137.395 264.503 137.36C264.16 137.188 263.542 137.567 263.474 136.879C264.812 136.466 266.149 135.709 267.556 135.572C269.512 135.365 269.443 137.395 267.659 137.876V137.876ZM263.062 133.886C261.621 134.23 260.455 135.021 258.911 134.815C257.47 134.608 256.235 133.886 255.103 133.026C257.916 132.235 260.866 132.097 263.714 131.306C264.64 131.066 265.841 130.378 266.836 130.653C267.933 130.962 268.002 131.994 268.345 132.923C266.561 133.233 264.812 133.473 263.062 133.886V133.886ZM254.108 129.93C252.736 130.274 251.329 130.997 250.163 129.724C249.991 129.518 249.82 129.724 249.82 129.105C249.854 128.451 250.437 128.039 250.952 127.798C252.153 127.247 253.834 127.591 255.103 127.523C257.127 127.385 259.185 126.972 261.175 126.663C262.547 126.422 263.988 125.94 265.395 126.044C266.493 126.112 267.796 127.041 266.218 127.729C264.777 128.348 262.582 128.245 261.004 128.52C258.705 128.898 256.407 129.38 254.108 129.93V129.93ZM252.736 123.429L253.01 123.704C253.01 123.704 253.525 123.257 253.696 123.257C254.382 123.189 255.103 123.257 255.789 123.189C257.403 123.063 259.007 122.833 260.592 122.501C261.896 122.26 263.199 121.813 264.537 121.916C265.669 122.019 265.806 122.26 265.875 123.361C262.959 123.361 259.94 123.292 257.058 123.911C255.172 124.324 253.113 125.528 252.187 123.361C252.358 123.395 252.564 123.395 252.736 123.429V123.429ZM254.588 118.717C255.309 119.267 257.298 118.338 258.156 118.27C259.081 118.193 259.999 118.044 260.901 117.823C261.724 117.616 264.4 116.55 265.017 117.582C265.978 119.13 262.101 119.405 261.484 119.474C258.911 119.783 256.235 120.058 253.731 120.746C254.039 120.058 254.314 119.37 254.588 118.717V118.717ZM258.122 113.488C258.293 114.211 264.125 111.597 264.228 113.488C264.297 114.933 258.465 115.69 257.436 115.552C257.676 114.864 258.328 114.28 258.122 113.488ZM260.077 109.051C260.215 107.606 260.386 107.641 261.552 107.503C262.41 107.4 263.611 106.884 263.405 108.432C263.165 109.774 259.94 110.496 260.077 109.051V109.051ZM262.136 104.098C262.41 103.341 263.028 104.373 263.028 104.751C263.062 105.783 262.273 105.577 261.518 105.577C261.759 105.099 261.965 104.605 262.136 104.098V104.098ZM271.741 98.3536C271.57 98.1816 270.712 98.1128 270.472 98.0096C269.855 97.8032 269.957 97.3216 269.168 97.7688C269.134 97.7344 269.203 97.3904 269.168 97.356C268.906 97.2673 268.653 97.152 268.414 97.0121C267.992 96.7448 267.59 96.4458 267.213 96.1177C266.82 95.6832 266.384 95.2912 265.909 94.9482C265.732 94.7883 265.521 94.6707 265.292 94.6043C264.674 94.5011 264.846 94.9482 264.297 95.017C263.954 95.0858 263.714 94.673 263.268 94.845C262.89 94.9826 262.65 95.533 262.479 95.8426C261.861 97.0121 261.381 98.2504 260.763 99.4199C257.676 105.439 254.142 111.218 251.158 117.272C249.717 120.196 248.207 123.154 247.178 126.25C246.458 128.486 244.777 131.753 246.218 133.989C247.247 135.606 249.339 136.328 250.986 137.119C253.491 138.289 255.755 139.837 258.293 141.006C261.278 142.382 264.194 143.793 267.144 145.34C268.379 145.994 269.512 146.923 270.747 147.542C271.501 147.92 272.668 147.267 272.942 148.127C273.903 146.957 275.446 147.748 276.544 146.923C277.196 146.441 277.676 145.512 278.191 144.893C279.014 143.999 279.872 143.173 280.695 142.313C283.989 138.874 287.008 135.262 289.992 131.547C292.84 128.004 296.202 124.668 298.603 120.781C299.071 120.073 299.361 119.263 299.451 118.419C299.541 117.575 299.426 116.721 299.118 115.931C298.672 114.692 297.54 112.8 295.962 113.626C296.579 112.629 294.246 111.562 293.526 111.356C293.526 111.356 293.389 112.113 293.183 112.113C293.251 112.113 292.6 110.393 292.291 110.186C291.377 109.482 290.427 108.828 289.443 108.226C288.586 107.744 287.659 107.503 286.836 106.919C285.807 106.265 284.881 105.439 283.886 104.786C282.894 104.069 281.837 103.447 280.73 102.928C279.803 102.55 278.946 102.481 278.088 101.828C277.117 101.089 276.056 100.477 274.932 100.005C273.937 99.6607 272.462 99.2479 271.741 98.3536" fill="white"/>
<path fill-rule="evenodd" clip-rule="evenodd" d="M129.131 191.295C129.336 190.848 129.508 190.401 129.714 189.954C129.954 190.745 130.023 191.123 129.131 191.295ZM129.405 193.394C128.993 193.462 129.165 192.155 129.165 191.915C129.851 192.327 129.268 192.843 129.405 193.394ZM128.753 189.61C129.096 189.404 129.474 189.197 129.817 188.991C129.336 189.92 129.508 189.335 129.714 189.954C129.538 190.007 129.35 190.002 129.177 189.94C129.005 189.878 128.856 189.762 128.753 189.61V189.61ZM126.626 196.799C125.288 201.649 121.069 205.467 116.609 207.428C114.036 208.563 111.531 208.838 108.753 208.735C107.689 208.701 106.42 208.322 105.391 208.391C104.602 208.425 104.636 208.46 103.984 209.148C103.71 208.597 103.916 208.253 103.332 207.909C102.612 207.531 102.303 207.978 101.96 208.529C101.48 208.047 101.308 207.772 100.691 207.497H100.142C100.039 207.462 99.3871 207.049 99.1813 206.946C98.3236 206.637 97.363 206.499 96.574 206.052C95.8879 205.639 95.339 204.538 94.5499 205.398C94.5499 203.954 92.6288 203.369 91.7368 202.612C90.323 201.358 89.219 199.792 88.512 198.037C87.7573 196.249 87.5172 194.529 87.1741 192.671C86.9339 191.399 85.3216 189.507 86.2821 188.234C86.5223 188.784 86.4194 189.335 86.7967 189.816C87.1123 189.137 87.3427 188.42 87.4828 187.684C87.5515 187.34 87.9974 186.273 87.9631 185.964C87.8602 185.345 87.0712 185.31 87.5172 184.519C88.4091 185.517 89.1295 183.762 88.4777 183.074C88.191 183.454 87.9812 183.887 87.8602 184.347C86.9683 182.558 89.4383 183.143 88.8894 181.527C89.7814 181.355 90.296 181.114 90.639 180.254C91.0164 179.256 90.7419 179.05 91.5996 178.396C91.9083 178.19 92.7317 177.846 92.8689 177.468C93.1777 176.745 92.4229 176.539 93.0748 175.885C93.2806 176.264 94.1726 177.055 94.6528 176.298C94.7558 176.161 94.3441 176.057 94.6528 175.713C95.0988 175.197 95.5791 174.716 96.2995 174.819C95.7163 173.374 99.3871 173.271 100.348 172.927C101.231 172.592 102.153 172.373 103.092 172.274C104.087 172.205 104.156 171.895 104.979 171.311C105.048 172.17 105.253 171.998 105.871 172.136C106.008 171.895 106.18 171.861 106.317 172.067C106.466 172.205 106.663 172.279 106.866 172.274C107.209 172.308 107.586 172.239 107.929 172.239C108.753 172.239 109.61 172.17 110.434 172.205C110.639 172.173 110.837 172.103 111.017 171.998C111.086 172.136 111.154 172.274 111.257 172.446C111.703 172.514 111.703 173.03 112.252 172.446C112.423 173.202 112.869 172.79 113.35 172.996C113.796 173.168 113.864 173.478 114.242 173.684C114.358 173.786 114.505 173.848 114.659 173.86C114.814 173.873 114.968 173.835 115.099 173.753C115.374 173.959 115.683 174.166 115.957 174.372C116.528 174.642 117.112 174.883 117.707 175.094C118.084 175.266 118.461 175.404 118.839 175.576C118.839 176.023 119.045 176.195 119.456 176.057C119.769 176.266 120.037 176.535 120.245 176.849C120.971 177.955 121.798 178.992 122.715 179.944C126.935 184.519 128.273 190.848 126.626 196.799V196.799ZM127.964 177.674C126.009 175.06 123.264 172.067 120.794 170.416C119.525 169.591 117.775 168.077 116.231 167.63C115.854 167.527 115.477 167.527 115.134 167.424C114.859 167.355 114.722 167.045 114.379 167.011C114.173 166.976 114.139 167.458 113.899 167.424C113.418 167.32 113.11 166.839 112.767 166.529C112.012 167.802 111.634 165.669 110.537 167.114C109.233 165.085 106.18 165.532 104.121 165.635C103.504 165.669 103.229 165.876 102.68 166.048C102.324 166.152 101.952 166.187 101.583 166.151C100.25 166.109 98.9254 166.367 97.7061 166.908C95.5791 167.94 93.5893 169.522 91.5653 170.76C89.2941 172.15 87.2466 173.879 85.4931 175.885C79.2151 183.143 77.534 193.738 82.5428 202.165C90.5018 215.546 111.017 216.956 122.647 207.875C131.635 200.858 135.066 187.237 127.964 177.674" fill="white"/>
<path fill-rule="evenodd" clip-rule="evenodd" d="M226.457 140.078C226.217 140.628 224.159 140.422 224.09 139.803C224.022 138.839 226.835 139.149 226.457 140.078ZM228.653 139.734C229.819 139.837 231.775 140.628 232.907 140.146C234.656 139.39 232.804 138.255 231.878 137.911C230.917 137.567 229.511 137.739 229.03 136.741C228.653 135.984 229.579 133.921 228.447 134.23C227.281 134.574 227.624 137.567 225.771 136.569C224.879 136.088 225.257 133.164 223.781 134.643C223.37 135.056 223.335 135.812 222.821 136.122C222.272 136.432 221.586 136.122 221.003 136.122C219.459 136.191 218.979 137.635 220.522 138.186C221.106 138.392 223.267 138.667 221.963 139.596C221.14 140.181 219.287 138.943 218.601 139.975C217.641 141.385 220.248 141.419 220.934 141.832C222.135 142.554 221.14 144.24 221.243 145.409C221.38 147.232 222.443 146.854 222.821 145.306C223.13 143.999 222.752 142.107 224.708 142.623C227.898 143.483 222.924 147.542 225.257 148.608C226.766 149.262 226.972 145.684 227.075 145.065C227.521 142.761 228.79 143.311 230.746 143.38C233.01 143.449 233.559 141.763 231.157 141.282C230.402 141.144 229.339 141.316 228.687 140.834C228.275 140.628 227.727 139.631 228.653 139.734" fill="white"/>
<path fill-rule="evenodd" clip-rule="evenodd" d="M144.911 214.479C143.059 213.826 140.006 213.963 139.56 216.337C139.473 216.836 139.505 217.349 139.654 217.833C139.803 218.318 140.065 218.76 140.417 219.123C141.206 219.948 142.476 220.052 142.407 218.573C142.373 217.575 141.412 216.681 143.093 216.474C144.157 216.337 145.7 217.128 145.735 218.297C145.838 220.912 141.344 221.118 139.663 220.671C136.369 219.776 137.261 216.302 139.525 214.72C140.109 214.307 141.79 213.688 141.858 212.828C141.961 211.693 140.555 211.934 139.903 212.071C134.894 213.172 133.796 221.6 139.045 223.182C141.412 223.904 144.774 223.147 146.215 221.015C147.553 218.951 147.587 215.408 144.911 214.479" fill="#00BD8E"/>
<path fill-rule="evenodd" clip-rule="evenodd" d="M78.4603 154.869C76.8822 155.625 75.3384 156.382 73.7604 157.139C73.2458 156.038 72.3538 152.977 71.0502 152.598C68.9232 151.979 70.2611 155.281 70.6385 156.038C70.9472 156.657 71.6334 157.62 71.4618 158.377C71.2217 159.375 69.8151 159.719 69.0947 160.235C67.2765 161.507 67.2765 164.19 69.9181 163.055C71.3932 162.402 73.2458 160.647 74.4122 162.642C74.9268 163.571 76.1961 168.8 77.4997 165.394C78.3231 163.296 74.4122 161.095 76.3333 159.306C76.9508 158.721 77.6713 158.687 78.2888 158.343C79.7639 157.517 78.9406 156.072 78.4603 154.869" fill="white"/>
<path fill-rule="evenodd" clip-rule="evenodd" d="M308.175 79.3318C307.248 78.9878 306.082 78.3342 305.053 78.5406C303.955 78.7814 303.509 79.8821 302.686 80.5701C300.49 82.3931 299.221 79.6757 298.02 78.1966C296.888 76.7863 295.516 76.4768 293.903 77.3023C293.251 77.6463 290.576 79.2286 291.056 80.2261C291.399 80.9484 292.703 80.2949 293.183 80.1573C294.178 79.8133 295.07 79.5037 296.065 80.0197C297.951 80.9484 298.432 83.5282 300.696 83.9066C303.063 84.3194 303.132 82.0835 304.813 81.2236C305.945 80.6733 306.734 81.6708 307.797 81.4644C308.895 81.2924 309.375 79.7789 308.175 79.3318" fill="#00BD8E"/>
<path fill-rule="evenodd" clip-rule="evenodd" d="M289.169 88.3783C289.992 88.5503 290.541 86.9336 291.056 86.5208C291.913 85.8329 293.423 85.6953 294.315 86.3832C296.03 87.7247 295.447 90.6141 297.883 91.3709C300.078 92.0588 301.108 89.1694 302.926 88.4471C303.989 88.0343 305.156 87.7591 304.744 86.2456C304.47 85.2137 303.612 84.9385 302.686 85.3513C301.108 86.0393 300.559 88.8255 298.672 88.8599C296.716 88.8943 296.51 86.1081 295.687 84.8698C294.418 83.0123 291.776 82.5651 290.301 84.3194C289.889 84.9042 287.591 88.0343 289.169 88.3783" fill="white"/>
<path fill-rule="evenodd" clip-rule="evenodd" d="M250.677 56.4575C251.844 57.2487 254.142 57.2143 255.206 56.2511C256.304 55.2536 254.828 55.0816 253.971 55.116C253.285 55.1504 252.015 55.4944 252.393 54.2905C252.736 53.2586 254.623 53.7745 254.794 52.6394C253.388 52.3986 251.81 52.4674 250.746 53.6025C249.991 54.4281 249.58 55.7352 250.677 56.4575" fill="#17171B"/>
</svg>
