<svg width="712" height="402" viewBox="0 0 712 402" fill="none" xmlns="http://www.w3.org/2000/svg">
<g clip-path="url(#clip0_402_4863)">
<rect width="712" height="402" fill="white"/>
<path d="M617.99 301.353C614.321 310.354 589.702 309.208 586.848 316.9C583.995 324.592 609.104 323.855 608.288 333.511C607.473 343.167 592.31 344.639 565.082 346.194C537.854 347.749 531.821 354.95 504.593 363.869C477.365 372.788 465.381 361.25 450.137 352.904C434.974 344.639 405.871 359.859 396.74 347.012C387.61 334.084 412.474 329.501 434.403 324.51C456.414 319.437 446.468 317.064 445.898 306.344C445.816 304.135 446.468 302.417 447.691 301.026C452.664 295.625 467.093 295.543 484.376 295.871C506.142 296.362 511.604 289.079 541.93 289.734C569.892 290.306 613.75 292.025 617.745 299.307C618.234 299.962 618.316 300.617 617.99 301.353Z" fill="#2459AF"/>
<path d="M660.544 317.309C660.299 317.8 659.891 318.291 659.402 318.864C655.897 322.71 644.402 325.083 635.191 325.246C623.778 325.328 611.875 324.592 611.468 317.637C611.142 310.681 640.326 310.272 650.517 311.418C659.321 312.236 662.093 314.282 660.544 317.309Z" fill="#2459AF"/>
<path d="M434.974 316.164C434.811 316.573 434.485 316.982 434.077 317.391C431.305 320.419 422.256 322.383 415.001 322.464C406.034 322.546 396.577 321.973 396.333 316.327C396.088 310.763 419.077 310.436 427.066 311.336C433.996 312.072 436.278 313.709 434.974 316.164Z" fill="#2459AF"/>
<path d="M580.979 359.778C572.99 362.969 543.153 363.132 543.234 359.205C543.234 358.714 543.397 358.223 543.723 357.814C545.925 354.704 555.055 352.986 563.289 352.659C572.99 352.331 579.593 353.395 582.528 354.95C585.218 356.423 584.81 358.223 580.979 359.778Z" fill="#2459AF"/>
<path d="M504.838 350.04C497.501 352.74 474.185 352.085 474.349 347.258C474.349 346.685 474.512 346.112 474.756 345.539C476.713 341.775 482.827 340.384 489.838 340.139C497.99 339.812 504.675 341.121 507.365 342.675C510.789 344.557 510.87 347.749 504.838 350.04Z" fill="#2459AF"/>
<path d="M595.245 304.135C590.924 306.263 575.191 306.099 575.272 303.317C575.272 302.99 575.354 302.662 575.517 302.335C576.74 300.208 581.549 299.062 585.952 298.898C591.087 298.735 594.593 299.553 596.06 300.699C597.528 301.762 597.283 303.072 595.245 304.135Z" fill="#2459AF"/>
<path d="M591.006 333.429C587.5 335.148 574.62 334.984 574.702 332.775C574.702 332.529 574.783 332.202 574.946 331.957C575.924 330.238 579.919 329.256 583.506 329.174C587.745 329.011 590.598 329.747 591.821 330.647C592.881 331.547 592.718 332.611 591.006 333.429Z" fill="#2459AF"/>
<path d="M552.039 332.038C515.028 342.266 459.512 325.246 460.001 315.509C460.082 314.282 460.571 313.218 461.468 312.236C467.827 305.199 493.751 303.235 517.31 304.626C544.946 306.344 563.615 310.763 571.767 315.509C579.185 319.682 570.952 326.801 552.039 332.038Z" fill="#2459AF"/>
<path d="M458.044 334.738C454.539 336.702 441.495 336.538 441.658 334.002C441.658 333.675 441.74 333.429 441.903 333.102C442.881 331.138 446.876 330.074 450.463 329.91C454.702 329.747 457.555 330.483 458.778 331.547C459.919 332.611 459.756 333.838 458.044 334.738Z" fill="#2459AF"/>
<path d="M576.903 47.1988C576.903 47.1988 574.783 40.5708 582.12 40.1617C589.457 39.8344 582.12 28.9514 589.457 22.6507C596.794 16.35 605.517 19.1322 605.843 27.5603C606.169 35.9885 604.783 41.2254 605.843 43.3529C606.903 45.4804 610.001 39.5071 613.832 43.6802C617.664 47.8534 593.941 128.453 593.941 128.453L581.06 125.262L576.903 47.1988Z" fill="#F2F2F2"/>
<path d="M600.218 60.0455C596.712 61.682 589.539 109.796 595.49 105.05C596.876 103.987 609.185 55.8723 600.218 60.0455Z" fill="#E3F0FF"/>
<path d="M660.954 9.23114C660.628 11.5223 660.057 13.6498 659.486 15.5318C653.78 32.8791 638.209 33.5337 637.965 35.9067C637.72 38.5252 649.214 47.1988 638.454 57.7545C627.693 68.3101 605.764 54.8905 599.975 54.3996C591.823 53.745 574.867 68.3101 563.209 53.1722C555.709 43.4348 567.774 37.9524 565.003 35.2521C562.231 32.5518 540.546 32.0608 540.546 7.5946C540.546 7.10364 540.546 6.61268 540.546 6.12172C541.361 -18.3445 563.046 -16.6261 564.106 -21.4539C565.166 -26.2817 564.921 -54.5938 599.16 -55.8212C633.481 -57.0486 632.421 -22.1904 635.519 -20.5538C638.78 -18.8355 664.622 -14.335 660.954 9.23114Z" fill="#E3F0FF"/>
<path d="M633.723 29.606C641.06 26.5784 652.066 21.1778 659.402 15.5318C653.696 32.8791 638.125 33.5337 637.881 35.9067C637.636 38.5251 649.131 47.1988 638.37 57.7544C627.609 68.3101 605.68 54.8905 599.892 54.3995C591.74 53.7449 574.783 68.3101 563.126 53.1721C555.626 43.4347 567.691 37.9523 564.919 35.2521C562.147 32.5518 540.463 32.0608 540.463 7.5946C542.338 11.4405 546.251 16.9229 554.647 20.7687C568.75 27.233 578.696 20.0323 583.669 26.9876C588.642 33.9428 578.207 38.2796 582.854 42.371C587.582 46.4623 594.919 36.1522 606.658 41.6346C618.479 47.1169 625.816 50.7173 630.462 45.7259C635.354 40.6526 623.288 33.9428 633.723 29.606Z" fill="#F2F2F2"/>
<path d="M628.424 -17.199C628.424 -17.199 628.995 -17.199 629.892 -17.1171C630.788 -17.0353 632.011 -16.8717 633.479 -16.4625C634.946 -16.0534 636.658 -15.3988 638.288 -14.0896C639.104 -13.4349 639.837 -12.6985 640.489 -11.7984C640.816 -11.3074 641.06 -10.8983 641.305 -10.3255L641.631 -9.58908L641.794 -8.77082C642.038 -7.95255 642.283 -6.72515 642.283 -5.74323C642.364 -4.67948 642.283 -3.69756 642.038 -2.79746C641.631 -0.915445 640.897 0.721086 640.082 1.94849C639.267 3.17589 638.37 4.07599 637.799 4.64877C637.147 5.22156 636.739 5.54887 636.739 5.54887C636.332 5.87617 635.68 5.79435 635.354 5.38522C635.028 4.97608 635.109 4.32146 635.517 3.99416C635.435 4.07598 636.903 2.93041 638.125 0.721087C638.777 -0.34266 639.267 -1.73372 639.43 -3.28843C639.511 -4.02487 639.511 -4.84313 639.43 -5.57957C639.348 -6.39784 639.185 -6.97063 638.859 -7.95255L638.696 -8.52533L638.451 -9.0163C638.288 -9.34361 638.044 -9.67091 637.881 -9.91639C637.473 -10.4892 636.902 -10.8983 636.332 -11.3074C635.109 -12.0439 633.805 -12.5348 632.582 -12.7803C631.359 -13.0258 630.381 -13.1076 629.647 -13.1076C628.913 -13.1076 628.587 -13.1076 628.587 -13.1076C627.446 -13.1076 626.468 -14.0077 626.468 -15.1533C626.386 -16.2171 627.283 -17.199 628.424 -17.199Z" fill="#F2F2F2"/>
<path d="M574.294 -7.21619C574.294 -7.21619 574.212 -7.21619 574.131 -7.21619C573.968 -7.21619 573.805 -7.13437 573.56 -7.05254C572.99 -6.88889 572.256 -6.6434 571.441 -6.07061C571.033 -5.82513 570.625 -5.49783 570.299 -5.08869C569.892 -4.67956 569.566 -4.18859 569.321 -3.6158C569.077 -3.04302 568.832 -2.47023 568.669 -1.73379C568.506 -1.07917 568.424 -0.260904 568.424 0.393712C568.424 1.29381 568.506 1.8666 568.669 2.52122C568.832 3.17583 569.077 3.83045 569.484 4.40324C570.218 5.54881 571.196 6.36708 572.174 6.93987C573.153 7.51266 574.049 7.83997 574.702 8.00362C575.354 8.16728 575.761 8.24911 575.68 8.24911C576.087 8.24911 576.414 8.65824 576.332 9.06738C576.332 9.47651 575.924 9.80382 575.517 9.72199C575.517 9.72199 575.028 9.72199 574.294 9.55834C573.56 9.39468 572.5 9.1492 571.196 8.65824C569.973 8.08545 568.587 7.18536 567.446 5.7943C566.875 5.05785 566.468 4.23958 566.142 3.42131C565.979 3.01218 565.897 2.43939 565.734 2.03025C565.571 1.53929 565.571 1.21198 565.49 0.721022C565.49 0.475541 565.408 0.393712 565.408 -0.015423V-0.670035C565.408 -1.161 565.408 -1.57014 565.49 -2.0611C565.571 -2.96119 565.734 -3.94311 566.06 -4.76138C566.386 -5.66148 566.794 -6.47975 567.365 -7.13437C567.854 -7.87081 568.424 -8.4436 569.077 -8.93456C570.218 -9.91648 571.359 -10.4074 572.174 -10.7348C572.582 -10.8984 572.908 -10.9802 573.153 -11.0621C573.397 -11.1439 573.56 -11.1439 573.56 -11.1439C574.702 -11.3894 575.843 -10.7348 576.087 -9.58918C576.332 -8.4436 575.68 -7.29802 574.539 -7.05254C574.457 -7.2162 574.376 -7.21619 574.294 -7.21619Z" fill="#F2F2F2"/>
<path d="M624.267 17.4956C624.267 17.4956 624.267 18.0684 624.104 18.9685C623.941 19.8686 623.696 21.096 623.207 22.5689C622.718 24.0417 621.984 25.7601 620.598 27.3148C619.946 28.0513 619.131 28.7877 618.153 29.3605C617.663 29.606 617.174 29.9333 616.685 30.0969L615.87 30.3424L615.136 30.5061C614.321 30.7515 613.098 30.8334 612.12 30.8334C611.06 30.8334 610.082 30.6697 609.185 30.5061C607.31 30.0151 605.761 29.1968 604.538 28.2967C603.316 27.3966 602.5 26.4965 601.93 25.8419C601.359 25.1873 601.115 24.7782 601.115 24.6963C600.788 24.2872 600.951 23.6326 601.359 23.3053C601.767 22.978 602.419 23.1416 602.745 23.5508C602.745 23.4689 603.723 24.9418 605.924 26.3329C606.984 26.9875 608.37 27.6421 609.837 27.8876C610.571 28.0513 611.386 28.0512 612.12 27.9694C612.935 27.8876 613.506 27.8058 614.484 27.4785L615.055 27.3148L615.544 27.0693C615.87 26.9057 616.196 26.742 616.441 26.4965C617.011 26.0874 617.5 25.5146 617.908 25.0237C618.723 23.8781 619.212 22.5688 619.538 21.3414C619.865 20.114 619.946 19.1321 620.028 18.3957C620.109 17.6592 620.028 17.3319 620.028 17.3319C620.028 16.1863 621.006 15.2863 622.147 15.2863C623.37 15.3681 624.348 16.2682 624.267 17.4956Z" fill="#F2F2F2"/>
<path d="M559.539 85.1665L556.115 75.5927C556.115 75.5927 564.022 74.3653 559.865 63.9733C557.501 58.1636 550.816 62.7459 550.816 62.7459C550.816 62.7459 549.675 54.3177 540.952 56.1998C534.104 57.6726 533.941 68.7193 536.631 72.2378C539.24 75.7564 541.93 75.4291 541.93 75.4291C541.93 75.4291 536.224 75.2654 537.12 80.5023C538.017 85.7393 542.501 85.9847 545.925 84.2664C547.555 83.4481 548.778 81.4024 548.778 81.4024L556.196 87.5394C556.848 88.1122 557.827 88.1941 558.642 87.7849C559.539 87.3758 559.946 86.2302 559.539 85.1665Z" fill="#F2F2F2"/>
<path d="M640.897 106.605C640.571 108.16 640 109.551 639.348 110.287C637.392 112.578 634.294 112.824 634.294 112.824C634.294 112.824 637.066 114.379 635.028 117.733C633.479 120.188 628.913 118.715 627.691 117.161C626.386 115.606 626.386 113.806 626.386 113.806L620.843 118.552C619.946 119.37 618.479 119.288 617.663 118.306C616.93 117.488 616.93 116.179 617.663 115.36L618.397 114.542L622.881 109.223C622.881 109.223 616.522 106.605 618.805 101.859C620.843 97.5223 624.919 99.5679 625.979 100.714C626.957 101.777 627.12 103.577 627.12 103.577C627.12 103.577 628.995 96.2948 635.761 97.9314C640.816 99.077 641.549 103.25 640.897 106.605Z" fill="#F2F2F2"/>
<path d="M467.582 206.679C468.887 208.479 468.968 210.934 467.664 212.816L467.175 213.471C466.686 214.126 465.952 214.453 465.218 214.453C464.648 214.453 464.158 214.289 463.669 213.88L455.843 207.007C455.843 207.007 452.012 215.926 441.577 213.88C434.322 212.407 432.447 206.188 433.262 201.033C433.588 198.497 434.566 196.205 435.87 194.814C438.153 192.36 441.088 192.032 443.207 192.114C441.088 191.459 438.072 189.741 436.93 185.486C436.197 182.786 436.36 180.086 437.338 177.958C438.887 174.603 442.392 172.476 447.365 173.048C455.599 174.112 455.762 185.813 455.762 185.813C455.762 185.813 458.615 177.876 466.441 181.313C473.289 184.341 471.332 193.505 466.686 197.106C464.24 198.988 462.12 199.397 462.12 199.397L467.582 206.679Z" fill="#E1ECFF"/>
<path d="M449.892 193.587C449.892 193.587 446.55 192.932 443.289 192.032C441.169 191.378 438.153 189.741 436.93 185.404C436.197 182.704 436.36 180.004 437.338 177.876C437.827 180.74 439.131 185.241 442.311 188.186C447.284 192.769 449.892 193.587 449.892 193.587Z" fill="white"/>
<path d="M467.175 213.389C466.686 214.044 465.952 214.371 465.218 214.371C464.648 214.371 464.158 214.207 463.669 213.798L455.843 206.925C455.843 206.925 452.012 215.844 441.577 213.798C434.322 212.325 432.447 206.106 433.262 200.951C434.403 203.406 436.93 206.188 442.718 207.17C454.294 209.216 454.62 201.933 454.62 201.933L467.175 213.389Z" fill="white"/>
<path d="M498.234 188.596C497.175 188.596 493.669 188.35 490.49 185.404C487.311 182.458 485.68 177.794 485.599 171.657C485.436 157.174 482.664 155.21 479.648 154.31C475.408 153.083 470.843 154.719 470.843 154.719C469.213 155.374 467.419 154.556 466.767 152.919C466.115 151.282 466.93 149.482 468.561 148.828C468.805 148.746 475.001 146.373 481.359 148.173C489.838 150.628 491.713 158.892 491.794 171.494C491.876 175.749 492.854 178.94 494.566 180.658C496.196 182.213 498.071 182.213 498.071 182.213C499.783 182.049 501.251 183.522 501.332 185.241C501.414 186.959 500.109 188.432 498.397 188.514C498.479 188.596 498.397 188.596 498.234 188.596Z" fill="#F7A561"/>
<path d="M495.707 144.573C494.892 145.309 492.528 147.928 492.202 152.183C491.957 156.52 493.914 161.02 498.071 165.602C507.772 176.24 507.202 179.595 505.571 182.295C503.289 186.141 498.887 188.023 498.887 188.023C497.256 188.678 496.523 190.478 497.175 192.114C497.827 193.751 499.62 194.487 501.251 193.833C501.495 193.751 507.691 191.214 511.033 185.486C515.517 177.795 511.196 170.594 502.8 161.266C499.946 158.156 498.479 155.129 498.561 152.674C498.642 150.383 500.028 149.155 500.109 149.073C501.414 148.01 501.495 145.964 500.354 144.655C499.213 143.345 497.338 143.182 495.952 144.327C495.87 144.409 495.789 144.491 495.707 144.573Z" fill="#2459AF"/>
<path d="M640.163 163.311C637.066 163.311 633.642 162.329 630.544 159.874C625.245 155.783 621.74 158.565 621.74 158.647C620.435 159.793 618.397 159.629 617.337 158.238C616.196 156.929 616.359 154.883 617.745 153.819C620.272 151.692 627.039 149.155 634.457 154.883C638.452 157.992 642.691 157.174 644.321 155.619C645.87 154.228 646.767 150.219 646.93 147.846C647.011 146.127 648.56 144.736 650.272 144.9C651.984 144.982 653.288 146.537 653.207 148.255C653.125 149.073 652.555 156.683 648.56 160.284C646.522 162.166 643.506 163.311 640.163 163.311Z" fill="#2459AF"/>
<path d="M638.533 202.261L664.538 231.473C664.538 231.473 656.957 218.381 650.435 210.116C643.587 201.606 638.533 202.261 638.533 202.261Z" fill="#E1ECFF"/>
<path d="M658.995 215.68C658.995 215.68 652.31 207.661 651.332 206.434C648.723 203.243 646.848 202.261 646.848 202.261C646.848 202.261 649.212 201.934 652.31 205.861C655.408 209.707 658.995 215.68 658.995 215.68Z" fill="#E1ECFF"/>
<path d="M619.131 188.432L630.87 168.139L623.859 186.877L634.212 197.187L619.131 188.432Z" fill="#D07F3C"/>
<path d="M637.473 178.286L620.598 187.368L624.756 188.923L637.473 178.286Z" fill="#D07F3C"/>
<path d="M467.012 142.527L460.898 135.408C460.164 134.508 460.245 133.199 461.142 132.38C462.039 131.644 463.343 131.726 464.158 132.626C464.321 132.79 464.403 132.953 464.485 133.117L468.398 141.627C468.561 142.036 468.398 142.527 467.99 142.691C467.664 142.936 467.256 142.854 467.012 142.527Z" fill="#F7A561"/>
<path d="M461.387 150.301L449.892 151.446C448.751 151.528 447.691 150.71 447.61 149.564C447.528 148.419 448.343 147.355 449.485 147.273C449.648 147.273 449.811 147.273 449.974 147.273L461.387 148.664C461.876 148.746 462.12 149.155 462.12 149.564C462.039 149.973 461.794 150.301 461.387 150.301Z" fill="#F7A561"/>
<path d="M466.441 159.792L460.816 166.83C460.082 167.73 458.778 167.893 457.881 167.157C456.985 166.42 456.822 165.111 457.555 164.211C457.637 164.047 457.8 163.884 457.963 163.802L465.3 158.565C465.707 158.32 466.197 158.401 466.523 158.729C466.767 159.056 466.686 159.465 466.441 159.792Z" fill="#F7A561"/>
<path d="M500.517 138.354L504.838 132.626C505.408 131.89 506.386 131.808 507.12 132.299C507.854 132.872 507.935 133.853 507.446 134.59C507.365 134.672 507.283 134.835 507.12 134.917L501.414 139.254C501.169 139.499 500.762 139.418 500.517 139.172C500.354 138.927 500.354 138.599 500.517 138.354Z" fill="#F7A561"/>
<path d="M493.832 135.408L491.061 126.98C490.816 126.162 491.224 125.18 492.12 124.934C492.935 124.689 493.914 125.098 494.158 125.998C494.158 126.08 494.24 126.243 494.24 126.325L495.055 135.163C495.055 135.49 494.811 135.817 494.484 135.817C494.158 135.817 493.914 135.654 493.832 135.408Z" fill="#F7A561"/>
<path d="M487.555 140.727L481.359 137.618C480.544 137.208 480.218 136.226 480.626 135.408C481.033 134.59 482.012 134.263 482.827 134.672C482.99 134.754 483.071 134.835 483.234 134.917L488.37 139.581C488.615 139.827 488.696 140.236 488.452 140.563C488.126 140.809 487.8 140.891 487.555 140.727Z" fill="#F7A561"/>
<path d="M651.984 130.089L650.517 138.517C650.435 139.008 650.028 139.254 649.538 139.172C649.131 139.09 648.886 138.763 648.805 138.436L647.745 129.926C647.582 128.78 648.397 127.716 649.62 127.553C650.761 127.389 651.821 128.207 651.984 129.435C652.066 129.68 652.066 129.844 651.984 130.089Z" fill="#F7A561"/>
<path d="M666.739 138.026L658.18 143.672C657.609 144 656.875 143.918 656.549 143.345C656.223 142.854 656.305 142.199 656.712 141.79L664.212 134.753C665.027 133.935 666.413 134.017 667.147 134.835C667.962 135.653 667.881 137.044 667.065 137.781C666.902 137.863 666.821 137.944 666.739 138.026Z" fill="#F7A561"/>
<path d="M665.354 156.028L658.017 152.51C657.527 152.264 657.283 151.692 657.527 151.119C657.691 150.71 658.18 150.464 658.587 150.546L666.576 151.937C667.718 152.101 668.533 153.246 668.288 154.392C668.125 155.537 666.984 156.356 665.843 156.11C665.761 156.192 665.598 156.11 665.354 156.028Z" fill="#F7A561"/>
<path d="M550.49 115.933C550.49 115.933 516.169 157.174 514.865 156.11C514.539 155.865 513.968 153.983 513.234 150.955C511.278 142.363 508.588 124.362 508.262 105.214C507.854 79.4386 508.506 71.5832 515.354 68.392C520.408 66.019 534.185 88.8487 543.234 104.15C546.495 109.387 549.022 113.724 550.49 115.933Z" fill="#F7A561"/>
<path d="M550.49 115.933C550.49 115.933 516.169 157.174 514.865 156.11C514.539 155.865 513.968 153.983 513.234 150.955C516.577 142.363 520.653 133.281 525.137 126.407C532.392 115.442 538.914 108.323 543.234 104.15C546.495 109.387 549.022 113.724 550.49 115.933Z" fill="#F7A561"/>
<path d="M669.348 257.739C667.228 262.158 647.582 256.021 631.522 250.456C628.424 249.393 625.408 248.329 622.636 247.347C616.278 245.138 612.038 239.083 612.038 232.291C612.12 216.498 610.653 191.378 613.669 190.068C617.256 188.432 635.027 206.025 651.25 224.927C668.044 244.483 672.527 250.947 669.348 257.739Z" fill="#D07F3C"/>
<path d="M631.522 250.457C628.424 249.393 625.408 248.33 622.636 247.348C616.278 245.138 612.038 239.083 612.038 232.292C612.12 216.499 610.653 191.378 613.669 190.069C613.75 190.069 620.435 210.853 625 227.218C627.609 236.71 629.81 244.484 631.522 250.457Z" fill="#D07F3C"/>
<path d="M619.783 149.155C619.212 171.494 615.952 208.643 602.664 245.465C591.169 277.378 581.223 298.571 574.62 311.09C569.158 321.4 565.979 325.983 565.979 325.983C565.979 325.983 557.338 330.32 540.707 331.629C531.414 332.365 519.675 332.202 505.571 329.829C466.115 323.201 461.957 310.763 461.957 310.763C461.957 310.763 461.387 303.644 463.262 289.652C465.626 271.65 472.148 242.356 489.186 202.342C508.343 157.583 530.191 131.235 543.723 117.897C551.713 110.042 556.848 106.687 556.848 106.687C556.848 106.687 567.446 102.35 589.376 109.223C598.098 111.924 604.702 115.442 609.348 118.797C616.522 123.789 619.457 128.207 619.457 128.207C619.457 128.207 620.191 136.226 619.783 149.155Z" fill="#E1ECFF"/>
<path d="M619.783 149.155C619.212 171.494 615.952 208.643 602.664 245.465C591.169 277.378 581.223 298.571 574.62 311.09C569.158 321.401 565.979 325.983 565.979 325.983C565.979 325.983 557.338 330.32 540.707 331.629C551.305 317.064 567.039 291.779 582.691 253.484C608.125 191.296 609.674 136.636 609.43 118.797C616.604 123.789 619.538 128.207 619.538 128.207C619.538 128.207 620.191 136.226 619.783 149.155Z" fill="#B3B3BD"/>
<path d="M472.555 286.133C472.311 286.133 472.148 286.133 471.903 286.051C469.62 285.724 468.071 283.515 468.398 281.224C468.642 279.832 473.86 246.12 488.289 212.162C502.718 178.285 514.131 161.674 514.62 160.938C515.925 159.056 518.533 158.565 520.49 159.874C522.365 161.184 522.854 163.802 521.55 165.766C521.468 165.929 510.055 182.459 496.033 215.435C482.012 248.411 476.713 282.124 476.713 282.451C476.305 284.66 474.512 286.133 472.555 286.133Z" fill="#F8FBFF"/>
<path d="M619.783 149.156C616.93 146.619 613.261 143.673 608.859 140.646C607.066 139.418 605.109 138.109 602.99 136.8C601.848 136.145 600.707 135.409 599.484 134.754C594.674 131.972 589.212 129.354 583.261 127.062C582.772 126.899 582.365 126.735 581.876 126.571C580.979 126.244 580.164 125.917 579.348 125.671C572.501 123.217 566.468 121.58 561.332 120.434C559.865 120.107 558.397 119.862 557.093 119.534C551.386 118.471 546.984 118.143 543.886 117.98C551.876 110.124 557.011 106.769 557.011 106.769C557.011 106.769 560.272 105.46 566.957 105.46C568.424 105.46 570.055 105.542 571.848 105.706C576.088 106.033 581.223 106.933 587.256 108.651C587.99 108.897 588.805 109.061 589.539 109.306C590.109 109.47 590.68 109.633 591.251 109.879C595.979 111.515 600.055 113.316 603.479 115.116C604.865 115.852 606.087 116.589 607.31 117.407C608.126 117.898 608.778 118.389 609.511 118.88C616.685 123.871 619.62 128.29 619.62 128.29C619.62 128.29 620.191 136.227 619.783 149.156Z" fill="#1C3177"/>
<path d="M619.783 149.155C616.93 146.618 613.261 143.673 608.859 140.645C609.511 131.071 609.511 123.625 609.511 118.879C616.685 123.871 619.62 128.289 619.62 128.289C619.62 128.289 620.191 136.226 619.783 149.155Z" fill="#142966"/>
<path d="M607.31 117.406L603.56 135.817C603.479 136.226 603.316 136.554 602.99 136.881C601.848 136.226 600.707 135.49 599.484 134.835L603.479 115.197C604.865 115.933 606.169 116.67 607.31 117.406Z" fill="#142966"/>
<path d="M591.25 109.878L583.261 127.062C582.772 126.898 582.365 126.735 581.875 126.571C580.979 126.244 580.163 125.916 579.348 125.671L587.174 108.651C587.908 108.896 588.723 109.06 589.457 109.305C590.109 109.551 590.68 109.715 591.25 109.878Z" fill="#142966"/>
<path d="M571.848 105.705C571.767 105.869 571.685 106.032 571.604 106.196L561.332 120.434C559.865 120.106 558.397 119.861 557.093 119.534C557.175 119.206 557.256 118.879 557.501 118.552L566.957 105.378C568.424 105.46 570.055 105.541 571.848 105.705Z" fill="#142966"/>
<path d="M512.863 300.553C532.027 307.152 554.954 290.878 564.07 264.204C573.187 237.53 565.042 210.557 545.877 203.958C526.713 197.358 503.787 213.632 494.67 240.306C485.553 266.98 493.699 293.954 512.863 300.553Z" fill="white"/>
<path d="M515.488 298.458C534.652 305.057 557.496 289.026 566.51 262.651C575.524 236.277 567.296 209.546 548.132 202.947C528.968 196.348 506.124 212.379 497.11 238.754C488.095 265.129 496.324 291.859 515.488 298.458Z" fill="#1C3177"/>
<path d="M517.387 289.325C532.59 294.56 550.825 281.512 558.116 260.182C565.406 238.851 558.991 217.315 543.787 212.08C528.584 206.844 510.349 219.892 503.058 241.223C495.768 262.554 502.183 284.089 517.387 289.325Z" fill="#2459AF"/>
<path d="M525.096 238.297C529.44 239.793 534.655 236.05 536.744 229.938C538.833 223.825 537.005 217.657 532.661 216.161C528.317 214.665 523.102 218.408 521.013 224.521C518.924 230.634 520.752 236.802 525.096 238.297Z" fill="white"/>
<path d="M515.133 265.18C517.475 265.987 520.274 264.007 521.385 260.758C522.495 257.509 521.496 254.222 519.154 253.415C516.812 252.609 514.013 254.589 512.902 257.837C511.792 261.086 512.791 264.374 515.133 265.18Z" fill="white"/>
<path d="M558.153 260.194C550.816 281.551 532.636 294.561 517.392 289.324C509.403 286.542 503.778 279.259 501.414 269.849C503.37 271.159 505.49 272.304 507.772 273.041C526.685 279.587 549.43 263.303 558.479 236.709C559.049 235.073 559.539 233.436 559.946 231.8C561.984 240.228 561.577 250.293 558.153 260.194Z" fill="#2459AF"/>
<path d="M574.702 311.172C569.24 321.482 566.061 326.064 566.061 326.064C566.061 326.064 557.419 330.401 540.789 331.71C531.495 332.447 519.756 332.283 505.653 329.91C491.061 327.455 481.36 324.182 474.838 321.073C463.751 315.754 462.039 310.845 462.039 310.845C462.039 310.845 461.468 303.726 463.343 289.733C466.767 292.925 471.333 296.525 477.365 299.88C486.659 305.035 499.294 309.863 516.495 312.399C529.376 314.281 541.686 314.527 552.691 313.79C560.843 313.381 568.262 312.318 574.702 311.172Z" fill="#F7A561"/>
<path d="M574.702 311.172C569.24 321.482 566.06 326.064 566.06 326.064C566.06 326.064 557.419 330.401 540.789 331.71C544.294 326.883 548.289 320.991 552.691 313.79C560.843 313.381 568.261 312.317 574.702 311.172Z" fill="#D07F3C"/>
<path d="M477.365 299.962L474.838 321.155C463.751 315.836 462.039 310.927 462.039 310.927C462.039 310.927 461.468 303.808 463.343 289.815C466.767 293.007 471.333 296.525 477.365 299.962Z" fill="#F7A561"/>
</g>
<defs>
<clipPath id="clip0_402_4863">
<rect width="712" height="402" fill="white"/>
</clipPath>
</defs>
</svg>
