<svg width="712" height="402" viewBox="0 0 712 402" fill="none" xmlns="http://www.w3.org/2000/svg">
<g clip-path="url(#clip0_402_4980)">
<rect width="712" height="402" fill="white"/>
<path d="M617.99 301.353C614.321 310.354 589.702 309.208 586.848 316.9C583.995 324.592 609.104 323.855 608.288 333.511C607.473 343.166 592.31 344.639 565.082 346.194C537.854 347.749 531.821 354.95 504.593 363.869C477.365 372.788 465.381 361.25 450.137 352.904C434.974 344.639 405.871 359.859 396.74 347.012C387.61 334.084 412.474 329.501 434.403 324.51C456.414 319.437 446.468 317.064 445.898 306.344C445.816 304.135 446.468 302.417 447.691 301.026C452.664 295.625 467.093 295.543 484.376 295.871C506.142 296.362 511.604 289.079 541.93 289.734C569.892 290.306 613.75 292.025 617.745 299.307C618.234 299.962 618.316 300.617 617.99 301.353Z" fill="#2459AF"/>
<path d="M660.544 317.309C660.299 317.8 659.891 318.291 659.402 318.864C655.897 322.71 644.402 325.083 635.191 325.246C623.778 325.328 611.875 324.592 611.468 317.637C611.142 310.681 640.326 310.272 650.517 311.418C659.321 312.236 662.093 314.282 660.544 317.309Z" fill="#2459AF"/>
<path d="M434.974 316.164C434.811 316.573 434.485 316.982 434.077 317.391C431.305 320.419 422.256 322.382 415.001 322.464C406.034 322.546 396.577 321.973 396.333 316.327C396.088 310.763 419.077 310.436 427.066 311.336C433.996 312.072 436.278 313.709 434.974 316.164Z" fill="#2459AF"/>
<path d="M580.979 359.777C572.99 362.969 543.153 363.132 543.234 359.205C543.234 358.714 543.397 358.223 543.723 357.814C545.925 354.704 555.055 352.986 563.289 352.658C572.99 352.331 579.593 353.395 582.528 354.95C585.218 356.422 584.81 358.223 580.979 359.777Z" fill="#2459AF"/>
<path d="M504.838 350.04C497.501 352.74 474.185 352.085 474.349 347.258C474.349 346.685 474.512 346.112 474.756 345.539C476.713 341.775 482.827 340.384 489.838 340.139C497.99 339.811 504.675 341.121 507.365 342.675C510.789 344.557 510.87 347.749 504.838 350.04Z" fill="#2459AF"/>
<path d="M595.245 304.135C590.924 306.263 575.191 306.099 575.272 303.317C575.272 302.99 575.354 302.662 575.517 302.335C576.74 300.208 581.549 299.062 585.952 298.898C591.087 298.735 594.593 299.553 596.06 300.699C597.528 301.762 597.283 303.072 595.245 304.135Z" fill="#2459AF"/>
<path d="M591.006 333.429C587.5 335.148 574.62 334.984 574.702 332.775C574.702 332.529 574.783 332.202 574.946 331.957C575.924 330.238 579.919 329.256 583.506 329.174C587.745 329.011 590.598 329.747 591.821 330.647C592.881 331.547 592.718 332.611 591.006 333.429Z" fill="#2459AF"/>
<path d="M552.039 332.038C515.028 342.266 459.512 325.246 460.001 315.509C460.082 314.282 460.571 313.218 461.468 312.236C467.827 305.199 493.751 303.235 517.31 304.626C544.946 306.344 563.615 310.763 571.767 315.509C579.185 319.682 570.952 326.801 552.039 332.038Z" fill="#2459AF"/>
<path d="M458.044 334.738C454.539 336.702 441.495 336.538 441.658 334.002C441.658 333.675 441.74 333.429 441.903 333.102C442.881 331.138 446.876 330.074 450.463 329.91C454.702 329.747 457.555 330.483 458.778 331.547C459.919 332.611 459.756 333.838 458.044 334.738Z" fill="#2459AF"/>
<path d="M576.903 47.1987C576.903 47.1987 574.783 40.5707 582.12 40.1616C589.457 39.8343 582.12 28.9513 589.457 22.6507C596.794 16.35 605.517 19.1321 605.843 27.5603C606.169 35.9884 604.783 41.2254 605.843 43.3529C606.903 45.4803 610.001 39.507 613.832 43.6802C617.664 47.8533 593.941 128.453 593.941 128.453L581.06 125.262L576.903 47.1987Z" fill="#F2F2F2"/>
<path d="M600.218 60.0454C596.712 61.682 589.539 109.796 595.49 105.05C596.876 103.986 609.185 55.8723 600.218 60.0454Z" fill="#E3F0FF"/>
<path d="M660.954 9.23111C660.628 11.5223 660.057 13.6498 659.486 15.5318C653.78 32.8791 638.209 33.5337 637.965 35.9067C637.72 38.5251 649.214 47.1988 638.454 57.7544C627.693 68.3101 605.764 54.8905 599.975 54.3995C591.823 53.7449 574.867 68.3101 563.209 53.1721C555.709 43.4347 567.774 37.9523 565.003 35.2521C562.231 32.5518 540.546 32.0608 540.546 7.59457C540.546 7.10361 540.546 6.61265 540.546 6.12168C541.361 -18.3445 563.046 -16.6262 564.106 -21.454C565.166 -26.2817 564.921 -54.5938 599.16 -55.8212C633.481 -57.0486 632.421 -22.1904 635.519 -20.5539C638.78 -18.8355 664.622 -14.335 660.954 9.23111Z" fill="#E3F0FF"/>
<path d="M633.723 29.606C641.06 26.5784 652.066 21.1778 659.402 15.5318C653.696 32.8791 638.125 33.5337 637.881 35.9067C637.636 38.5251 649.131 47.1988 638.37 57.7544C627.609 68.3101 605.68 54.8905 599.892 54.3995C591.74 53.7449 574.783 68.3101 563.126 53.1721C555.626 43.4347 567.691 37.9523 564.919 35.2521C562.147 32.5518 540.463 32.0608 540.463 7.5946C542.338 11.4405 546.251 16.9229 554.647 20.7687C568.75 27.233 578.696 20.0323 583.669 26.9876C588.642 33.9428 578.207 38.2796 582.854 42.371C587.582 46.4623 594.919 36.1522 606.658 41.6346C618.479 47.1169 625.816 50.7173 630.462 45.7259C635.354 40.6526 623.288 33.9428 633.723 29.606Z" fill="#F2F2F2"/>
<path d="M628.424 -17.199C628.424 -17.199 628.995 -17.199 629.892 -17.1171C630.788 -17.0353 632.011 -16.8717 633.479 -16.4625C634.946 -16.0534 636.658 -15.3988 638.288 -14.0896C639.104 -13.4349 639.837 -12.6985 640.489 -11.7984C640.816 -11.3074 641.06 -10.8983 641.305 -10.3255L641.631 -9.58908L641.794 -8.77082C642.038 -7.95255 642.283 -6.72515 642.283 -5.74323C642.364 -4.67948 642.283 -3.69756 642.038 -2.79746C641.631 -0.915445 640.897 0.721086 640.082 1.94849C639.267 3.17589 638.37 4.07599 637.799 4.64877C637.147 5.22156 636.739 5.54887 636.739 5.54887C636.332 5.87617 635.68 5.79435 635.354 5.38522C635.028 4.97608 635.109 4.32146 635.517 3.99416C635.435 4.07598 636.903 2.93041 638.125 0.721087C638.777 -0.34266 639.267 -1.73372 639.43 -3.28843C639.511 -4.02487 639.511 -4.84313 639.43 -5.57957C639.348 -6.39784 639.185 -6.97063 638.859 -7.95255L638.696 -8.52533L638.451 -9.0163C638.288 -9.34361 638.044 -9.67091 637.881 -9.91639C637.473 -10.4892 636.902 -10.8983 636.332 -11.3074C635.109 -12.0439 633.805 -12.5348 632.582 -12.7803C631.359 -13.0258 630.381 -13.1076 629.647 -13.1076C628.913 -13.1076 628.587 -13.1076 628.587 -13.1076C627.446 -13.1076 626.468 -14.0077 626.468 -15.1533C626.386 -16.2171 627.283 -17.199 628.424 -17.199Z" fill="#F2F2F2"/>
<path d="M574.294 -7.21619C574.294 -7.21619 574.212 -7.21619 574.131 -7.21619C573.968 -7.21619 573.805 -7.13437 573.56 -7.05254C572.99 -6.88889 572.256 -6.6434 571.441 -6.07061C571.033 -5.82513 570.625 -5.49783 570.299 -5.08869C569.892 -4.67956 569.566 -4.18859 569.321 -3.6158C569.077 -3.04302 568.832 -2.47023 568.669 -1.73379C568.506 -1.07917 568.424 -0.260904 568.424 0.393712C568.424 1.29381 568.506 1.8666 568.669 2.52122C568.832 3.17583 569.077 3.83045 569.484 4.40324C570.218 5.54881 571.196 6.36708 572.174 6.93987C573.153 7.51266 574.049 7.83997 574.702 8.00362C575.354 8.16728 575.761 8.24911 575.68 8.24911C576.087 8.24911 576.414 8.65824 576.332 9.06738C576.332 9.47651 575.924 9.80382 575.517 9.72199C575.517 9.72199 575.028 9.72199 574.294 9.55834C573.56 9.39468 572.5 9.1492 571.196 8.65824C569.973 8.08545 568.587 7.18536 567.446 5.7943C566.875 5.05785 566.468 4.23958 566.142 3.42131C565.979 3.01218 565.897 2.43939 565.734 2.03025C565.571 1.53929 565.571 1.21198 565.49 0.721022C565.49 0.475541 565.408 0.393712 565.408 -0.015423V-0.670035C565.408 -1.161 565.408 -1.57014 565.49 -2.0611C565.571 -2.96119 565.734 -3.94311 566.06 -4.76138C566.386 -5.66148 566.794 -6.47975 567.365 -7.13437C567.854 -7.87081 568.424 -8.4436 569.077 -8.93456C570.218 -9.91648 571.359 -10.4074 572.174 -10.7348C572.582 -10.8984 572.908 -10.9802 573.153 -11.0621C573.397 -11.1439 573.56 -11.1439 573.56 -11.1439C574.702 -11.3894 575.843 -10.7348 576.087 -9.58918C576.332 -8.4436 575.68 -7.29802 574.539 -7.05254C574.457 -7.2162 574.376 -7.21619 574.294 -7.21619Z" fill="#F2F2F2"/>
<path d="M624.267 17.4956C624.267 17.4956 624.267 18.0684 624.104 18.9685C623.941 19.8686 623.696 21.096 623.207 22.5689C622.718 24.0417 621.984 25.7601 620.598 27.3148C619.946 28.0513 619.131 28.7877 618.153 29.3605C617.663 29.606 617.174 29.9333 616.685 30.0969L615.87 30.3424L615.136 30.5061C614.321 30.7515 613.098 30.8334 612.12 30.8334C611.06 30.8334 610.082 30.6697 609.185 30.5061C607.31 30.0151 605.761 29.1968 604.538 28.2967C603.316 27.3966 602.5 26.4965 601.93 25.8419C601.359 25.1873 601.115 24.7782 601.115 24.6963C600.788 24.2872 600.951 23.6326 601.359 23.3053C601.767 22.978 602.419 23.1416 602.745 23.5508C602.745 23.4689 603.723 24.9418 605.924 26.3329C606.984 26.9875 608.37 27.6421 609.837 27.8876C610.571 28.0513 611.386 28.0512 612.12 27.9694C612.935 27.8876 613.506 27.8058 614.484 27.4785L615.055 27.3148L615.544 27.0693C615.87 26.9057 616.196 26.742 616.441 26.4965C617.011 26.0874 617.5 25.5146 617.908 25.0237C618.723 23.8781 619.212 22.5688 619.538 21.3414C619.865 20.114 619.946 19.1321 620.028 18.3957C620.109 17.6592 620.028 17.3319 620.028 17.3319C620.028 16.1863 621.006 15.2863 622.147 15.2863C623.37 15.3681 624.348 16.2682 624.267 17.4956Z" fill="#F2F2F2"/>
<path d="M559.539 85.1664L556.115 75.5927C556.115 75.5927 564.022 74.3653 559.865 63.9733C557.501 58.1635 550.816 62.7458 550.816 62.7458C550.816 62.7458 549.675 54.3177 540.952 56.1997C534.104 57.6726 533.941 68.7192 536.631 72.2378C539.24 75.7563 541.93 75.429 541.93 75.429C541.93 75.429 536.224 75.2654 537.12 80.5023C538.017 85.7392 542.501 85.9847 545.925 84.2663C547.555 83.448 548.778 81.4024 548.778 81.4024L556.196 87.5394C556.848 88.1122 557.827 88.194 558.642 87.7849C559.539 87.3757 559.946 86.2302 559.539 85.1664Z" fill="#F2F2F2"/>
<path d="M640.897 106.605C640.571 108.16 640 109.551 639.348 110.287C637.392 112.578 634.294 112.824 634.294 112.824C634.294 112.824 637.066 114.379 635.028 117.733C633.479 120.188 628.913 118.715 627.691 117.161C626.386 115.606 626.386 113.806 626.386 113.806L620.843 118.552C619.946 119.37 618.479 119.288 617.663 118.306C616.93 117.488 616.93 116.179 617.663 115.36L618.397 114.542L622.881 109.223C622.881 109.223 616.522 106.605 618.805 101.859C620.843 97.5223 624.919 99.5679 625.979 100.714C626.957 101.777 627.12 103.577 627.12 103.577C627.12 103.577 628.995 96.2948 635.761 97.9314C640.816 99.077 641.549 103.25 640.897 106.605Z" fill="#F2F2F2"/>
<path d="M467.582 206.679C468.887 208.479 468.968 210.934 467.664 212.816L467.175 213.471C466.686 214.126 465.952 214.453 465.218 214.453C464.648 214.453 464.158 214.289 463.669 213.88L455.843 207.007C455.843 207.007 452.012 215.926 441.577 213.88C434.322 212.407 432.447 206.188 433.262 201.033C433.588 198.497 434.566 196.205 435.87 194.814C438.153 192.36 441.088 192.032 443.207 192.114C441.088 191.459 438.072 189.741 436.93 185.486C436.197 182.786 436.36 180.086 437.338 177.958C438.887 174.603 442.392 172.476 447.365 173.048C455.599 174.112 455.762 185.813 455.762 185.813C455.762 185.813 458.615 177.876 466.441 181.313C473.289 184.341 471.332 193.505 466.686 197.106C464.24 198.988 462.12 199.397 462.12 199.397L467.582 206.679Z" fill="#E1ECFF"/>
<path d="M449.892 193.587C449.892 193.587 446.55 192.932 443.289 192.032C441.169 191.378 438.153 189.741 436.93 185.404C436.197 182.704 436.36 180.004 437.338 177.876C437.827 180.74 439.131 185.241 442.311 188.186C447.284 192.769 449.892 193.587 449.892 193.587Z" fill="white"/>
<path d="M467.175 213.389C466.686 214.044 465.952 214.371 465.218 214.371C464.648 214.371 464.158 214.207 463.669 213.798L455.843 206.925C455.843 206.925 452.012 215.844 441.577 213.798C434.322 212.325 432.447 206.107 433.262 200.951C434.403 203.406 436.93 206.188 442.718 207.17C454.294 209.216 454.62 201.933 454.62 201.933L467.175 213.389Z" fill="white"/>
<path d="M498.234 188.596C497.175 188.596 493.669 188.35 490.49 185.404C487.311 182.458 485.68 177.794 485.599 171.657C485.436 157.174 482.664 155.21 479.648 154.31C475.408 153.083 470.843 154.719 470.843 154.719C469.213 155.374 467.419 154.556 466.767 152.919C466.115 151.282 466.93 149.482 468.561 148.828C468.805 148.746 475.001 146.373 481.359 148.173C489.838 150.628 491.713 158.892 491.794 171.494C491.876 175.749 492.854 178.94 494.566 180.658C496.196 182.213 498.071 182.213 498.071 182.213C499.783 182.049 501.251 183.522 501.332 185.241C501.414 186.959 500.109 188.432 498.397 188.514C498.479 188.596 498.397 188.596 498.234 188.596Z" fill="#F7A561"/>
<path d="M495.707 144.573C494.892 145.309 492.528 147.928 492.202 152.183C491.957 156.52 493.914 161.02 498.071 165.602C507.772 176.24 507.202 179.595 505.571 182.295C503.289 186.141 498.887 188.023 498.887 188.023C497.256 188.678 496.523 190.478 497.175 192.114C497.827 193.751 499.62 194.487 501.251 193.833C501.495 193.751 507.691 191.214 511.033 185.486C515.517 177.795 511.196 170.594 502.8 161.266C499.946 158.156 498.479 155.129 498.561 152.674C498.642 150.383 500.028 149.155 500.109 149.073C501.414 148.01 501.495 145.964 500.354 144.655C499.213 143.345 497.338 143.182 495.952 144.327C495.87 144.409 495.789 144.491 495.707 144.573Z" fill="#2459AF"/>
<path d="M640.163 163.311C637.066 163.311 633.642 162.329 630.544 159.874C625.245 155.783 621.74 158.565 621.74 158.647C620.435 159.793 618.397 159.629 617.337 158.238C616.196 156.929 616.359 154.883 617.745 153.819C620.272 151.692 627.039 149.155 634.457 154.883C638.452 157.992 642.691 157.174 644.321 155.619C645.87 154.228 646.767 150.219 646.93 147.846C647.011 146.127 648.56 144.736 650.272 144.9C651.984 144.982 653.288 146.537 653.207 148.255C653.125 149.073 652.555 156.683 648.56 160.284C646.522 162.166 643.506 163.311 640.163 163.311Z" fill="#2459AF"/>
<path d="M638.533 202.261L664.538 231.473C664.538 231.473 656.957 218.381 650.435 210.116C643.587 201.606 638.533 202.261 638.533 202.261Z" fill="#E1ECFF"/>
<path d="M658.995 215.68C658.995 215.68 652.31 207.661 651.332 206.434C648.723 203.243 646.848 202.261 646.848 202.261C646.848 202.261 649.212 201.934 652.31 205.861C655.408 209.707 658.995 215.68 658.995 215.68Z" fill="#E1ECFF"/>
<path d="M619.131 188.432L630.87 168.139L623.859 186.877L634.212 197.187L619.131 188.432Z" fill="#D07F3C"/>
<path d="M637.473 178.286L620.598 187.368L624.756 188.923L637.473 178.286Z" fill="#D07F3C"/>
<path d="M467.012 142.527L460.898 135.408C460.164 134.508 460.245 133.199 461.142 132.38C462.039 131.644 463.343 131.726 464.158 132.626C464.321 132.79 464.403 132.953 464.485 133.117L468.398 141.627C468.561 142.036 468.398 142.527 467.99 142.691C467.664 142.936 467.256 142.854 467.012 142.527Z" fill="#F7A561"/>
<path d="M461.387 150.301L449.892 151.446C448.751 151.528 447.691 150.71 447.61 149.564C447.528 148.419 448.343 147.355 449.485 147.273C449.648 147.273 449.811 147.273 449.974 147.273L461.387 148.664C461.876 148.746 462.12 149.155 462.12 149.564C462.039 149.973 461.794 150.301 461.387 150.301Z" fill="#F7A561"/>
<path d="M466.441 159.792L460.816 166.83C460.082 167.73 458.778 167.893 457.881 167.157C456.985 166.42 456.822 165.111 457.555 164.211C457.637 164.047 457.8 163.884 457.963 163.802L465.3 158.565C465.707 158.32 466.197 158.401 466.523 158.729C466.767 159.056 466.686 159.465 466.441 159.792Z" fill="#F7A561"/>
<path d="M500.517 138.354L504.838 132.626C505.408 131.89 506.386 131.808 507.12 132.299C507.854 132.872 507.935 133.853 507.446 134.59C507.365 134.672 507.283 134.835 507.12 134.917L501.414 139.254C501.169 139.499 500.762 139.418 500.517 139.172C500.354 138.927 500.354 138.599 500.517 138.354Z" fill="#F7A561"/>
<path d="M493.832 135.408L491.061 126.98C490.816 126.162 491.224 125.18 492.12 124.934C492.935 124.689 493.914 125.098 494.158 125.998C494.158 126.08 494.24 126.243 494.24 126.325L495.055 135.163C495.055 135.49 494.811 135.817 494.484 135.817C494.158 135.817 493.914 135.654 493.832 135.408Z" fill="#F7A561"/>
<path d="M487.555 140.727L481.359 137.618C480.544 137.208 480.218 136.226 480.626 135.408C481.033 134.59 482.012 134.263 482.827 134.672C482.99 134.754 483.071 134.835 483.234 134.917L488.37 139.581C488.615 139.827 488.696 140.236 488.452 140.563C488.126 140.809 487.8 140.891 487.555 140.727Z" fill="#F7A561"/>
<path d="M651.984 130.089L650.517 138.517C650.435 139.008 650.028 139.254 649.538 139.172C649.131 139.09 648.886 138.763 648.805 138.436L647.745 129.926C647.582 128.78 648.397 127.716 649.62 127.553C650.761 127.389 651.821 128.207 651.984 129.435C652.066 129.68 652.066 129.844 651.984 130.089Z" fill="#F7A561"/>
<path d="M666.739 138.026L658.18 143.672C657.609 144 656.875 143.918 656.549 143.345C656.223 142.854 656.305 142.199 656.712 141.79L664.212 134.753C665.027 133.935 666.413 134.017 667.147 134.835C667.962 135.653 667.881 137.044 667.065 137.781C666.902 137.863 666.821 137.945 666.739 138.026Z" fill="#F7A561"/>
<path d="M665.354 156.028L658.017 152.51C657.527 152.264 657.283 151.692 657.527 151.119C657.691 150.71 658.18 150.464 658.587 150.546L666.576 151.937C667.718 152.101 668.533 153.246 668.288 154.392C668.125 155.537 666.984 156.356 665.843 156.11C665.761 156.192 665.598 156.11 665.354 156.028Z" fill="#F7A561"/>
<path d="M550.49 115.933C550.49 115.933 516.169 157.174 514.865 156.11C514.539 155.865 513.968 153.983 513.234 150.955C511.278 142.363 508.588 124.362 508.262 105.214C507.854 79.4386 508.506 71.5832 515.354 68.392C520.408 66.019 534.185 88.8487 543.234 104.15C546.495 109.387 549.022 113.724 550.49 115.933Z" fill="#F7A561"/>
<path d="M550.49 115.933C550.49 115.933 516.169 157.174 514.865 156.11C514.539 155.865 513.968 153.983 513.234 150.955C516.577 142.364 520.653 133.281 525.137 126.407C532.392 115.443 538.914 108.324 543.234 104.15C546.495 109.387 549.022 113.724 550.49 115.933Z" fill="#F7A561"/>
<path d="M669.348 257.739C667.228 262.158 647.582 256.021 631.522 250.456C628.424 249.393 625.408 248.329 622.636 247.347C616.278 245.138 612.038 239.082 612.038 232.291C612.12 216.498 610.653 191.378 613.669 190.068C617.256 188.432 635.027 206.025 651.25 224.926C668.044 244.483 672.527 250.947 669.348 257.739Z" fill="#D07F3C"/>
<path d="M631.522 250.457C628.424 249.393 625.408 248.33 622.636 247.348C616.278 245.138 612.038 239.083 612.038 232.292C612.12 216.499 610.653 191.378 613.669 190.069C613.75 190.069 620.435 210.853 625 227.218C627.609 236.71 629.81 244.484 631.522 250.457Z" fill="#D07F3C"/>
<path d="M619.783 149.155C619.212 171.494 615.952 208.643 602.664 245.465C591.169 277.378 581.223 298.571 574.62 311.09C569.158 321.401 565.979 325.983 565.979 325.983C565.979 325.983 557.338 330.32 540.707 331.629C531.414 332.365 519.675 332.202 505.571 329.829C466.115 323.201 461.957 310.763 461.957 310.763C461.957 310.763 461.387 303.644 463.262 289.652C465.626 271.65 472.148 242.356 489.186 202.342C508.343 157.583 530.191 131.235 543.723 117.897C551.713 110.042 556.848 106.687 556.848 106.687C556.848 106.687 567.446 102.35 589.376 109.223C598.098 111.924 604.702 115.442 609.348 118.797C616.522 123.789 619.457 128.207 619.457 128.207C619.457 128.207 620.191 136.226 619.783 149.155Z" fill="#E1ECFF"/>
<path d="M619.783 149.155C619.212 171.494 615.952 208.643 602.664 245.465C591.169 277.378 581.223 298.571 574.62 311.09C569.158 321.401 565.979 325.983 565.979 325.983C565.979 325.983 557.338 330.32 540.707 331.629C551.305 317.064 567.039 291.779 582.691 253.484C608.125 191.296 609.674 136.636 609.43 118.797C616.604 123.789 619.538 128.207 619.538 128.207C619.538 128.207 620.191 136.226 619.783 149.155Z" fill="#B3B3BD"/>
<path d="M472.555 286.133C472.311 286.133 472.148 286.133 471.903 286.051C469.62 285.724 468.071 283.515 468.398 281.224C468.642 279.832 473.86 246.12 488.289 212.162C502.718 178.285 514.131 161.674 514.62 160.938C515.925 159.056 518.533 158.565 520.49 159.874C522.365 161.184 522.854 163.802 521.55 165.766C521.468 165.929 510.055 182.459 496.033 215.435C482.012 248.411 476.713 282.124 476.713 282.451C476.305 284.66 474.512 286.133 472.555 286.133Z" fill="#F8FBFF"/>
<path d="M619.783 149.156C616.93 146.619 613.261 143.673 608.859 140.646C607.066 139.418 605.109 138.109 602.99 136.8C601.848 136.145 600.707 135.409 599.484 134.754C594.674 131.972 589.212 129.354 583.261 127.062C582.772 126.899 582.365 126.735 581.876 126.571C580.979 126.244 580.164 125.917 579.348 125.671C572.501 123.216 566.468 121.58 561.332 120.434C559.865 120.107 558.397 119.862 557.093 119.534C551.386 118.471 546.984 118.143 543.886 117.98C551.876 110.124 557.011 106.769 557.011 106.769C557.011 106.769 560.272 105.46 566.957 105.46C568.424 105.46 570.055 105.542 571.848 105.706C576.088 106.033 581.223 106.933 587.256 108.651C587.99 108.897 588.805 109.06 589.539 109.306C590.109 109.47 590.68 109.633 591.251 109.879C595.979 111.515 600.055 113.315 603.479 115.116C604.865 115.852 606.087 116.589 607.31 117.407C608.126 117.898 608.778 118.389 609.511 118.88C616.685 123.871 619.62 128.29 619.62 128.29C619.62 128.29 620.191 136.227 619.783 149.156Z" fill="#1C3177"/>
<path d="M619.783 149.155C616.93 146.618 613.261 143.673 608.859 140.645C609.511 131.071 609.511 123.625 609.511 118.879C616.685 123.871 619.62 128.289 619.62 128.289C619.62 128.289 620.191 136.226 619.783 149.155Z" fill="#142966"/>
<path d="M607.31 117.406L603.56 135.817C603.479 136.227 603.316 136.554 602.99 136.881C601.848 136.227 600.707 135.49 599.484 134.835L603.479 115.197C604.865 115.933 606.169 116.67 607.31 117.406Z" fill="#142966"/>
<path d="M591.25 109.878L583.261 127.062C582.772 126.898 582.365 126.735 581.875 126.571C580.979 126.244 580.163 125.916 579.348 125.671L587.174 108.651C587.908 108.896 588.723 109.06 589.457 109.305C590.109 109.551 590.68 109.715 591.25 109.878Z" fill="#142966"/>
<path d="M571.848 105.705C571.767 105.869 571.685 106.032 571.604 106.196L561.332 120.434C559.865 120.106 558.397 119.861 557.093 119.534C557.175 119.206 557.256 118.879 557.501 118.552L566.957 105.378C568.424 105.46 570.055 105.541 571.848 105.705Z" fill="#142966"/>
<path d="M512.863 300.553C532.027 307.152 554.954 290.878 564.07 264.204C573.187 237.53 565.042 210.557 545.877 203.958C526.713 197.359 503.787 213.632 494.67 240.307C485.553 266.981 493.699 293.954 512.863 300.553Z" fill="white"/>
<path d="M515.488 298.458C534.652 305.058 557.496 289.026 566.51 262.651C575.524 236.277 567.296 209.546 548.132 202.947C528.968 196.348 506.124 212.379 497.11 238.754C488.095 265.129 496.324 291.859 515.488 298.458Z" fill="#1C3177"/>
<path d="M517.387 289.325C532.59 294.56 550.825 281.512 558.116 260.182C565.406 238.851 558.991 217.315 543.787 212.08C528.584 206.844 510.349 219.892 503.058 241.223C495.768 262.554 502.183 284.09 517.387 289.325Z" fill="#2459AF"/>
<path d="M525.096 238.298C529.44 239.793 534.655 236.051 536.744 229.938C538.833 223.825 537.005 217.657 532.661 216.161C528.317 214.665 523.102 218.408 521.013 224.521C518.924 230.634 520.752 236.802 525.096 238.298Z" fill="white"/>
<path d="M515.133 265.18C517.475 265.987 520.274 264.007 521.385 260.758C522.495 257.51 521.496 254.222 519.154 253.415C516.812 252.609 514.013 254.589 512.902 257.837C511.792 261.086 512.791 264.374 515.133 265.18Z" fill="white"/>
<path d="M558.153 260.194C550.816 281.551 532.636 294.561 517.392 289.324C509.403 286.542 503.778 279.259 501.414 269.849C503.37 271.159 505.49 272.304 507.772 273.041C526.685 279.587 549.43 263.303 558.479 236.709C559.049 235.073 559.539 233.436 559.946 231.8C561.984 240.228 561.577 250.293 558.153 260.194Z" fill="#2459AF"/>
<path d="M574.702 311.172C569.24 321.482 566.061 326.064 566.061 326.064C566.061 326.064 557.419 330.401 540.789 331.71C531.495 332.447 519.756 332.283 505.653 329.91C491.061 327.455 481.36 324.182 474.838 321.073C463.751 315.754 462.039 310.845 462.039 310.845C462.039 310.845 461.468 303.726 463.343 289.733C466.767 292.925 471.333 296.525 477.365 299.88C486.659 305.035 499.294 309.863 516.495 312.399C529.376 314.281 541.686 314.527 552.691 313.79C560.843 313.381 568.262 312.318 574.702 311.172Z" fill="#F7A561"/>
<path d="M574.702 311.172C569.24 321.482 566.06 326.064 566.06 326.064C566.06 326.064 557.419 330.401 540.789 331.71C544.294 326.883 548.289 320.991 552.691 313.79C560.843 313.381 568.261 312.317 574.702 311.172Z" fill="#D07F3C"/>
<path d="M477.365 299.962L474.838 321.155C463.751 315.836 462.039 310.927 462.039 310.927C462.039 310.927 461.468 303.808 463.343 289.815C466.767 293.007 471.333 296.525 477.365 299.962Z" fill="#F7A561"/>
<path d="M61.8 305.46L63.96 304.92V281.88L61.8 281.34V280.8H80.88V287.28H79.8C79.344 286.92 78.948 286.464 78.612 285.912C77.844 284.616 77.46 283.212 77.46 281.7H69.9V291.24H71.88C75.84 291.24 78.684 291.876 80.412 293.148C82.164 294.42 83.04 296.244 83.04 298.62C83.04 300.996 82.164 302.82 80.412 304.092C78.684 305.364 75.84 306 71.88 306H61.8V305.46ZM71.88 305.1C73.392 305.1 74.604 304.548 75.516 303.444C76.452 302.316 76.92 300.708 76.92 298.62C76.92 296.532 76.452 294.936 75.516 293.832C74.604 292.704 73.392 292.14 71.88 292.14H69.9V305.1H71.88ZM92.0372 306.54C90.6932 306.54 89.5052 306.288 88.4732 305.784C87.4412 305.256 86.6372 304.56 86.0612 303.696C85.4852 302.832 85.1972 301.92 85.1972 300.96H86.0972C86.0972 301.728 86.3252 302.484 86.7812 303.228C87.2612 303.948 87.8972 304.536 88.6892 304.992C89.5052 305.424 90.3812 305.64 91.3172 305.64C92.6132 305.64 93.6332 305.064 94.3772 303.912C95.1212 302.736 95.5412 300.672 95.6372 297.72H92.9372C92.7932 298.248 92.5052 298.884 92.0732 299.628C91.9532 299.82 91.8452 299.976 91.7492 300.096C91.6532 300.216 91.5692 300.324 91.4972 300.42H90.5972V294.12H91.4972L92.0732 294.948C92.5292 295.692 92.8172 296.316 92.9372 296.82H95.6372C95.6372 293.628 95.2532 291.396 94.4852 290.124C93.7412 288.828 92.6852 288.18 91.3172 288.18C90.8132 288.18 90.3812 288.24 90.0212 288.36L89.5172 288.54V293.94L89.0492 294.048C88.6652 294.096 88.3412 294.12 88.0772 294.12C87.2612 294.12 86.6012 293.88 86.0972 293.4C85.6172 292.896 85.3772 292.236 85.3772 291.42C85.3772 290.316 85.9292 289.38 87.0332 288.612C88.1612 287.844 89.8292 287.46 92.0372 287.46C95.0852 287.46 97.4612 288.312 99.1652 290.016C100.893 291.696 101.757 294.024 101.757 297C101.757 299.976 100.893 302.316 99.1652 304.02C97.4612 305.7 95.0852 306.54 92.0372 306.54ZM104.647 305.46L106.807 304.92V289.08L104.647 288.54V288H114.727V288.54L112.567 289.08V296.1H113.827C114.523 296.1 115.123 295.884 115.627 295.452C116.131 294.996 116.491 294.432 116.707 293.76L117.607 290.52C118.183 288.6 119.263 287.64 120.847 287.64C121.927 287.64 122.767 287.928 123.367 288.504C123.967 289.08 124.267 289.872 124.267 290.88C124.267 291.792 124.015 292.5 123.511 293.004C123.031 293.508 122.383 293.76 121.567 293.76C121.231 293.76 120.895 293.736 120.559 293.688L120.127 293.58V288.72C119.407 288.912 118.927 289.512 118.687 290.52L117.787 293.76C117.547 294.6 117.151 295.272 116.599 295.776C116.407 295.968 116.143 296.136 115.807 296.28H116.887C118.303 296.28 119.407 296.568 120.199 297.144C121.015 297.696 121.591 298.428 121.927 299.34L123.727 304.92L125.527 305.46V306H121.747C120.475 306 119.443 305.712 118.651 305.136C117.883 304.56 117.355 303.828 117.067 302.94L115.087 297H112.567V304.92L114.727 305.46V306H104.647V305.46ZM134.167 306.54C132.031 306.54 130.387 306.084 129.235 305.172C128.083 304.26 127.507 303.096 127.507 301.68C127.507 300.744 127.711 299.82 128.119 298.908C128.287 298.476 128.503 298.08 128.767 297.72C129.751 297.48 130.819 297.264 131.971 297.072C134.563 296.64 136.855 296.376 138.847 296.28V295.2C138.847 292.536 138.523 290.7 137.875 289.692C137.227 288.684 136.231 288.18 134.887 288.18C134.383 288.18 133.951 288.24 133.591 288.36L133.087 288.54V293.94L132.619 294.048C132.235 294.096 131.911 294.12 131.647 294.12C130.831 294.12 130.171 293.88 129.667 293.4C129.187 292.896 128.947 292.236 128.947 291.42C128.947 290.316 129.499 289.38 130.603 288.612C131.731 287.844 133.399 287.46 135.607 287.46C137.479 287.46 139.087 287.796 140.431 288.468C141.799 289.116 142.831 290.028 143.527 291.204C144.247 292.356 144.607 293.688 144.607 295.2V304.92L146.767 305.46V306H143.527C142.087 306 140.971 305.556 140.179 304.668C139.843 304.308 139.579 303.852 139.387 303.3C139.051 303.9 138.655 304.44 138.199 304.92C137.119 306 135.775 306.54 134.167 306.54ZM135.607 305.28C136.495 305.28 137.299 304.8 138.019 303.84C138.283 303.48 138.559 303 138.847 302.4V297.18C137.743 297.18 136.687 297.24 135.679 297.36C134.935 297.456 134.431 297.516 134.167 297.54C134.047 297.804 133.927 298.164 133.807 298.62C133.567 299.532 133.447 300.432 133.447 301.32C133.447 302.664 133.651 303.66 134.059 304.308C134.467 304.956 134.983 305.28 135.607 305.28ZM148.944 306V305.46L151.104 304.92V289.08L148.944 288.54V288H170.184V288.54L168.024 289.08V304.92L170.184 305.46V306H160.104V305.46L162.264 304.92V288.9H156.864V304.92L159.024 305.46V306H148.944ZM173.061 305.46L175.221 304.92V289.08L173.061 288.54V288H183.141V288.54L180.981 289.08V295.2H182.781C189.021 295.2 192.141 297 192.141 300.6C192.141 304.2 189.021 306 182.781 306H173.061V305.46ZM192.861 306V305.46L195.021 304.92V289.08L192.861 288.54V288H202.941V288.54L200.781 289.08V304.92L202.941 305.46V306H192.861ZM182.781 305.1C183.837 305.1 184.665 304.728 185.265 303.984C185.889 303.216 186.201 302.088 186.201 300.6C186.201 299.112 185.889 297.996 185.265 297.252C184.665 296.484 183.837 296.1 182.781 296.1H180.981V305.1H182.781ZM225.637 306.54C222.565 306.54 220.177 305.7 218.473 304.02C216.769 302.316 215.917 299.976 215.917 297C215.917 294.024 216.769 291.696 218.473 290.016C220.177 288.312 222.565 287.46 225.637 287.46C227.845 287.46 229.501 287.844 230.605 288.612C231.733 289.38 232.297 290.316 232.297 291.42C232.297 292.236 232.045 292.896 231.541 293.4C231.061 293.88 230.413 294.12 229.597 294.12C229.261 294.12 228.925 294.096 228.589 294.048L228.157 293.94V288.54L227.653 288.36C227.293 288.24 226.861 288.18 226.357 288.18C224.989 288.18 223.921 288.828 223.153 290.124C222.409 291.42 222.037 293.712 222.037 297C222.037 300.192 222.409 302.436 223.153 303.732C223.921 305.004 224.989 305.64 226.357 305.64C227.293 305.64 228.157 305.424 228.949 304.992C229.765 304.536 230.401 303.948 230.857 303.228C231.337 302.484 231.577 301.728 231.577 300.96H232.477C232.477 301.92 232.189 302.832 231.613 303.696C231.037 304.56 230.233 305.256 229.201 305.784C228.169 306.288 226.981 306.54 225.637 306.54ZM241.675 306.54C239.539 306.54 237.895 306.084 236.743 305.172C235.591 304.26 235.015 303.096 235.015 301.68C235.015 300.744 235.219 299.82 235.627 298.908C235.795 298.476 236.011 298.08 236.275 297.72C237.259 297.48 238.327 297.264 239.479 297.072C242.071 296.64 244.363 296.376 246.355 296.28V295.2C246.355 292.536 246.031 290.7 245.383 289.692C244.735 288.684 243.739 288.18 242.395 288.18C241.891 288.18 241.459 288.24 241.099 288.36L240.595 288.54V293.94L240.127 294.048C239.743 294.096 239.419 294.12 239.155 294.12C238.339 294.12 237.679 293.88 237.175 293.4C236.695 292.896 236.455 292.236 236.455 291.42C236.455 290.316 237.007 289.38 238.111 288.612C239.239 287.844 240.907 287.46 243.115 287.46C244.987 287.46 246.595 287.796 247.939 288.468C249.307 289.116 250.339 290.028 251.035 291.204C251.755 292.356 252.115 293.688 252.115 295.2V304.92L254.275 305.46V306H251.035C249.595 306 248.479 305.556 247.687 304.668C247.351 304.308 247.087 303.852 246.895 303.3C246.559 303.9 246.163 304.44 245.707 304.92C244.627 306 243.283 306.54 241.675 306.54ZM243.115 305.28C244.003 305.28 244.807 304.8 245.527 303.84C245.791 303.48 246.067 303 246.355 302.4V297.18C245.251 297.18 244.195 297.24 243.187 297.36C242.443 297.456 241.939 297.516 241.675 297.54C241.555 297.804 241.435 298.164 241.315 298.62C241.075 299.532 240.955 300.432 240.955 301.32C240.955 302.664 241.159 303.66 241.567 304.308C241.975 304.956 242.491 305.28 243.115 305.28ZM267.252 285.48C265.404 285.48 264.036 285.192 263.148 284.616C262.284 284.04 261.852 283.308 261.852 282.42C261.852 281.796 262.056 281.28 262.464 280.872C262.872 280.464 263.388 280.26 264.012 280.26C264.06 280.26 264.336 280.296 264.84 280.368L265.272 280.44V284.4C265.296 284.4 265.464 284.46 265.776 284.58C266.112 284.7 266.604 284.76 267.252 284.76C267.9 284.76 268.38 284.7 268.692 284.58C269.028 284.46 269.208 284.4 269.232 284.4V280.44L269.664 280.368C270.168 280.296 270.444 280.26 270.492 280.26C271.116 280.26 271.632 280.464 272.04 280.872C272.448 281.28 272.652 281.796 272.652 282.42C272.652 283.308 272.208 284.04 271.32 284.616C270.456 285.192 269.1 285.48 267.252 285.48ZM256.452 306V305.46L258.612 304.92V289.08L256.452 288.54V288H266.532V288.54L264.372 289.08V300.96L270.132 291.06V289.08L267.972 288.54V288H278.052V288.54L275.892 289.08V304.92L278.052 305.46V306H267.972V305.46L270.132 304.92V293.04L264.372 302.94V304.92L266.532 305.46V306H256.452ZM284.34 305.46L286.5 304.92V288.9H283.8C283.8 290.22 283.404 291.552 282.612 292.896C282.3 293.4 281.916 293.868 281.46 294.3H280.38V288H298.38V294.3H297.3C296.844 293.892 296.448 293.424 296.112 292.896C295.344 291.6 294.96 290.268 294.96 288.9H292.26V304.92L294.42 305.46V306H284.34V305.46ZM310.253 306.54C307.277 306.54 304.937 305.7 303.233 304.02C301.553 302.316 300.713 299.976 300.713 297C300.713 294.024 301.553 291.696 303.233 290.016C304.937 288.312 307.277 287.46 310.253 287.46C313.229 287.46 315.557 288.312 317.237 290.016C318.941 291.696 319.793 294.024 319.793 297C319.793 299.976 318.941 302.316 317.237 304.02C315.557 305.7 313.229 306.54 310.253 306.54ZM310.253 305.82C311.213 305.82 312.017 305.148 312.665 303.804C313.337 302.46 313.673 300.192 313.673 297C313.673 293.808 313.337 291.54 312.665 290.196C312.017 288.852 311.213 288.18 310.253 288.18C309.293 288.18 308.477 288.852 307.805 290.196C307.157 291.54 306.833 293.808 306.833 297C306.833 300.192 307.157 302.46 307.805 303.804C308.477 305.148 309.293 305.82 310.253 305.82ZM322.686 305.46L324.846 304.92V289.08L322.686 288.54V288H331.866C333.954 288 335.67 288.216 337.014 288.648C338.382 289.08 339.366 289.644 339.966 290.34C340.566 291.012 340.866 291.732 340.866 292.5C340.866 293.46 340.554 294.24 339.93 294.84C339.33 295.44 338.562 295.872 337.626 296.136C336.618 296.448 335.538 296.616 334.386 296.64V296.82C335.802 296.844 337.062 297.024 338.166 297.36C339.27 297.72 340.17 298.2 340.866 298.8C341.586 299.376 341.946 300.156 341.946 301.14C341.946 302.556 341.202 303.72 339.714 304.632C338.25 305.544 335.874 306 332.586 306H322.686V305.46ZM331.866 296.28C332.706 296.28 333.426 295.932 334.026 295.236C334.626 294.54 334.926 293.628 334.926 292.5C334.926 291.444 334.626 290.58 334.026 289.908C333.426 289.236 332.706 288.9 331.866 288.9H330.606V296.28H331.866ZM332.586 305.1C333.618 305.1 334.446 304.752 335.07 304.056C335.694 303.36 336.006 302.388 336.006 301.14C336.006 299.892 335.694 298.92 335.07 298.224C334.446 297.528 333.618 297.18 332.586 297.18H330.606V305.1H332.586ZM61.44 350V349.46L63.6 348.92V333.08L61.44 332.54V332H71.52V332.54L69.36 333.08V340.46H74.76V333.08L72.6 332.54V332H82.68V332.54L80.52 333.08V348.92L82.68 349.46V350H72.6V349.46L74.76 348.92V341.36H69.36V348.92L71.52 349.46V350H61.44ZM92.5772 350.54C90.4412 350.54 88.7972 350.084 87.6452 349.172C86.4932 348.26 85.9172 347.096 85.9172 345.68C85.9172 344.744 86.1212 343.82 86.5292 342.908C86.6972 342.476 86.9132 342.08 87.1772 341.72C88.1612 341.48 89.2292 341.264 90.3812 341.072C92.9732 340.64 95.2652 340.376 97.2572 340.28V339.2C97.2572 336.536 96.9332 334.7 96.2852 333.692C95.6372 332.684 94.6412 332.18 93.2972 332.18C92.7932 332.18 92.3612 332.24 92.0012 332.36L91.4972 332.54V337.94L91.0292 338.048C90.6452 338.096 90.3212 338.12 90.0572 338.12C89.2412 338.12 88.5812 337.88 88.0772 337.4C87.5972 336.896 87.3572 336.236 87.3572 335.42C87.3572 334.316 87.9092 333.38 89.0132 332.612C90.1412 331.844 91.8092 331.46 94.0172 331.46C95.8892 331.46 97.4972 331.796 98.8412 332.468C100.209 333.116 101.241 334.028 101.937 335.204C102.657 336.356 103.017 337.688 103.017 339.2V348.92L105.177 349.46V350H101.937C100.497 350 99.3812 349.556 98.5892 348.668C98.2532 348.308 97.9892 347.852 97.7972 347.3C97.4612 347.9 97.0652 348.44 96.6092 348.92C95.5292 350 94.1852 350.54 92.5772 350.54ZM94.0172 349.28C94.9052 349.28 95.7092 348.8 96.4292 347.84C96.6932 347.48 96.9692 347 97.2572 346.4V341.18C96.1532 341.18 95.0972 341.24 94.0892 341.36C93.3452 341.456 92.8412 341.516 92.5772 341.54C92.4572 341.804 92.3372 342.164 92.2172 342.62C91.9772 343.532 91.8572 344.432 91.8572 345.32C91.8572 346.664 92.0612 347.66 92.4692 348.308C92.8772 348.956 93.3932 349.28 94.0172 349.28ZM118.524 350V349.46L121.044 348.74V328.976L117.264 331.64L116.544 330.74L123.096 324.8H126.984V348.74L129.504 349.46V350H118.524ZM144.805 350.54C140.965 350.54 137.965 349.4 135.805 347.12C133.645 344.84 132.565 341.6 132.565 337.4C132.565 334.64 133.033 332.276 133.969 330.308C134.929 328.316 136.261 326.816 137.965 325.808C139.693 324.776 141.685 324.26 143.941 324.26C145.309 324.26 146.689 324.656 148.081 325.448C148.609 325.736 149.137 326.12 149.665 326.6C150.073 325.976 150.493 325.484 150.925 325.124C151.357 324.812 151.597 324.644 151.645 324.62H152.545V331.46H151.105C150.793 330.308 150.325 329.264 149.701 328.328C149.125 327.416 148.405 326.66 147.541 326.06C146.701 325.46 145.729 325.16 144.625 325.16C142.969 325.16 141.589 326.12 140.485 328.04C139.405 329.96 138.865 333.08 138.865 337.4C138.865 341.792 139.453 344.936 140.629 346.832C141.829 348.704 143.461 349.64 145.525 349.64C146.653 349.64 147.721 349.328 148.729 348.704C149.761 348.056 150.589 347.204 151.213 346.148C151.861 345.092 152.185 343.976 152.185 342.8H153.085C153.085 344.168 152.713 345.452 151.969 346.652C151.249 347.828 150.253 348.776 148.981 349.496C147.733 350.192 146.341 350.54 144.805 350.54ZM155.439 339.38V337.94H173.439V339.38H155.439ZM176.304 349.46L178.464 348.92V325.88L176.304 325.34V324.8H195.384V331.28H194.304C193.848 330.92 193.452 330.464 193.116 329.912C192.348 328.616 191.964 327.212 191.964 325.7H184.404V335.24H186.384C190.344 335.24 193.188 335.876 194.916 337.148C196.668 338.42 197.544 340.244 197.544 342.62C197.544 344.996 196.668 346.82 194.916 348.092C193.188 349.364 190.344 350 186.384 350H176.304V349.46ZM186.384 349.1C187.896 349.1 189.108 348.548 190.02 347.444C190.956 346.316 191.424 344.708 191.424 342.62C191.424 340.532 190.956 338.936 190.02 337.832C189.108 336.704 187.896 336.14 186.384 336.14H184.404V349.1H186.384ZM200.061 350V349.46L202.221 348.92V333.08L200.061 332.54V332H210.141V332.54L207.981 333.08V344.96L213.741 335.06V333.08L211.581 332.54V332H221.661V332.54L219.501 333.08V348.92L221.661 349.46V350H211.581V349.46L213.741 348.92V337.04L207.981 346.94V348.92L210.141 349.46V350H200.061ZM227.95 349.46L230.11 348.92V332.9H227.41C227.41 334.22 227.014 335.552 226.222 336.896C225.91 337.4 225.526 337.868 225.07 338.3H223.99V332H241.99V338.3H240.91C240.454 337.892 240.058 337.424 239.722 336.896C238.954 335.6 238.57 334.268 238.57 332.9H235.87V348.92L238.03 349.46V350H227.95V349.46ZM243.963 356.66L246.123 356.12V333.08L243.963 332.54V332H247.203C248.619 332 249.735 332.456 250.551 333.368C250.863 333.728 251.127 334.172 251.343 334.7C251.655 334.076 252.051 333.536 252.531 333.08C253.611 332 254.955 331.46 256.563 331.46C257.979 331.46 259.239 331.832 260.343 332.576C261.447 333.296 262.323 334.376 262.971 335.816C263.619 337.232 263.943 338.96 263.943 341C263.943 344.072 263.223 346.436 261.783 348.092C260.367 349.724 258.447 350.54 256.023 350.54C254.871 350.54 253.863 350.3 252.999 349.82C252.639 349.652 252.267 349.412 251.883 349.1V356.12L254.043 356.66V357.2H243.963V356.66ZM254.583 349.46C255.615 349.46 256.407 348.86 256.959 347.66C257.535 346.46 257.823 344.24 257.823 341C257.823 337.904 257.559 335.756 257.031 334.556C256.527 333.332 255.891 332.72 255.123 332.72C254.211 332.72 253.395 333.2 252.675 334.16C252.363 334.568 252.099 335.048 251.883 335.6V348.02C252.219 348.356 252.483 348.596 252.675 348.74C253.323 349.22 253.959 349.46 254.583 349.46ZM266.823 350V349.46L268.983 348.92V333.08L266.823 332.54V332H276.903V332.54L274.743 333.08V344.96L280.503 335.06V333.08L278.343 332.54V332H288.423V332.54L286.263 333.08V348.92L288.423 349.46V350H278.343V349.46L280.503 348.92V337.04L274.743 346.94V348.92L276.903 349.46V350H266.823ZM291.292 349.46L293.452 348.92V333.08L291.292 332.54V332H301.372V332.54L299.212 333.08V340.1H300.472C301.168 340.1 301.768 339.884 302.272 339.452C302.776 338.996 303.136 338.432 303.352 337.76L304.252 334.52C304.828 332.6 305.908 331.64 307.492 331.64C308.572 331.64 309.412 331.928 310.012 332.504C310.612 333.08 310.912 333.872 310.912 334.88C310.912 335.792 310.66 336.5 310.156 337.004C309.676 337.508 309.028 337.76 308.212 337.76C307.876 337.76 307.54 337.736 307.204 337.688L306.772 337.58V332.72C306.052 332.912 305.572 333.512 305.332 334.52L304.432 337.76C304.192 338.6 303.796 339.272 303.244 339.776C303.052 339.968 302.788 340.136 302.452 340.28H303.532C304.948 340.28 306.052 340.568 306.844 341.144C307.66 341.696 308.236 342.428 308.572 343.34L310.372 348.92L312.172 349.46V350H308.392C307.12 350 306.088 349.712 305.296 349.136C304.528 348.56 304 347.828 303.712 346.94L301.732 341H299.212V348.92L301.372 349.46V350H291.292V349.46ZM323.512 350.54C320.44 350.54 318.052 349.7 316.348 348.02C314.644 346.316 313.792 343.976 313.792 341C313.792 338.024 314.644 335.696 316.348 334.016C318.052 332.312 320.44 331.46 323.512 331.46C325.72 331.46 327.376 331.844 328.48 332.612C329.608 333.38 330.172 334.316 330.172 335.42C330.172 336.236 329.92 336.896 329.416 337.4C328.936 337.88 328.288 338.12 327.472 338.12C327.136 338.12 326.8 338.096 326.464 338.048L326.032 337.94V332.54L325.528 332.36C325.168 332.24 324.736 332.18 324.232 332.18C322.864 332.18 321.796 332.828 321.028 334.124C320.284 335.42 319.912 337.712 319.912 341C319.912 344.192 320.284 346.436 321.028 347.732C321.796 349.004 322.864 349.64 324.232 349.64C325.168 349.64 326.032 349.424 326.824 348.992C327.64 348.536 328.276 347.948 328.732 347.228C329.212 346.484 329.452 345.728 329.452 344.96H330.352C330.352 345.92 330.064 346.832 329.488 347.696C328.912 348.56 328.108 349.256 327.076 349.784C326.044 350.288 324.856 350.54 323.512 350.54Z" fill="black"/>
</g>
<defs>
<clipPath id="clip0_402_4980">
<rect width="712" height="402" fill="white"/>
</clipPath>
</defs>
</svg>
