<svg width="488" height="486" viewBox="0 0 488 486" fill="none" xmlns="http://www.w3.org/2000/svg">
<rect width="488" height="486" fill="#02D3D8"/>
<path d="M142.242 418.94C147.649 418.94 153.055 418.94 158.462 418.94C159.039 418.94 159.039 417.937 158.462 417.937C153.055 417.937 147.649 417.937 142.242 417.937C141.665 417.937 141.665 418.94 142.242 418.94Z" fill="#161616"/>
<path d="M213.532 418.338C217.541 418.338 221.551 418.338 225.56 418.338C226.138 418.338 226.138 417.336 225.56 417.336C221.551 417.336 217.541 417.336 213.532 417.336C212.924 417.336 212.924 418.338 213.532 418.338Z" fill="#161616"/>
<path d="M231.392 417.737C233.731 417.737 236.04 417.737 238.379 417.737C238.956 417.737 238.956 416.734 238.379 416.734C236.04 416.734 233.731 416.734 231.392 416.734C230.815 416.734 230.815 417.737 231.392 417.737Z" fill="#161616"/>
<path d="M202.779 377.67H145.097C143.092 377.67 141.452 375.866 141.452 373.66V371.588C141.452 369.383 143.092 367.578 145.097 367.578H202.779C204.784 367.578 206.424 369.383 206.424 371.588V373.66C206.424 375.866 204.784 377.67 202.779 377.67Z" stroke="#161616" stroke-width="2" stroke-miterlimit="10"/>
<path d="M208.429 388.297H150.747C148.742 388.297 147.102 386.492 147.102 384.287V382.215C147.102 380.009 148.742 378.205 150.747 378.205H208.429C210.434 378.205 212.074 380.009 212.074 382.215V384.287C212.074 386.492 210.434 388.297 208.429 388.297Z" stroke="#161616" stroke-width="2" stroke-miterlimit="10"/>
<path d="M195.125 398.656H137.443C135.438 398.656 133.798 396.851 133.798 394.646V392.574C133.798 390.368 135.438 388.564 137.443 388.564H195.125C197.13 388.564 198.77 390.368 198.77 392.574V394.646C198.77 396.851 197.13 398.656 195.125 398.656Z" stroke="#161616" stroke-width="2" stroke-miterlimit="10"/>
<path d="M202.172 408.413H144.52C142.515 408.413 140.875 406.609 140.875 404.403V402.332C140.875 400.126 142.515 398.322 144.52 398.322H202.202C204.207 398.322 205.847 400.126 205.847 402.332V404.403C205.817 406.609 204.176 408.413 202.172 408.413Z" stroke="#161616" stroke-width="2" stroke-miterlimit="10"/>
<path d="M208.429 418.505H150.747C148.742 418.505 147.102 416.701 147.102 414.495V412.423C147.102 410.218 148.742 408.413 150.747 408.413H208.429C210.434 408.413 212.074 410.218 212.074 412.423V414.495C212.074 416.701 210.434 418.505 208.429 418.505Z" stroke="#161616" stroke-width="2" stroke-miterlimit="10"/>
<path d="M185.921 371.922C185.921 373.293 185.921 374.696 185.921 376.066C185.921 376.534 186.62 376.567 186.62 376.066C186.62 374.696 186.62 373.293 186.62 371.922C186.589 371.421 185.921 371.421 185.921 371.922Z" fill="#161616"/>
<path d="M187.956 372.658C187.956 373.927 187.956 375.164 187.956 376.434C187.956 376.902 188.655 376.935 188.655 376.434C188.655 375.164 188.655 373.927 188.655 372.658C188.655 372.19 187.956 372.19 187.956 372.658Z" fill="#161616"/>
<path d="M194.821 370.586C194.821 372.357 194.821 374.094 194.821 375.866C194.821 376.333 195.52 376.367 195.52 375.866C195.52 374.094 195.52 372.357 195.52 370.586C195.52 370.118 194.821 370.118 194.821 370.586Z" fill="#161616"/>
<path d="M196.188 373.593C196.188 374.295 196.188 374.963 196.188 375.665C196.188 376.133 196.887 376.166 196.887 375.665C196.887 374.963 196.887 374.295 196.887 373.593C196.887 373.125 196.188 373.125 196.188 373.593Z" fill="#161616"/>
<path d="M149.046 370.452C149.046 372.39 149.046 374.328 149.046 376.3C149.046 376.768 149.745 376.801 149.745 376.3C149.745 374.362 149.745 372.424 149.745 370.452C149.714 369.951 149.046 369.951 149.046 370.452Z" fill="#161616"/>
<path d="M146.221 371.922C146.221 373.059 146.221 374.228 146.221 375.364C146.221 375.832 146.92 375.866 146.92 375.364C146.92 374.228 146.92 373.059 146.92 371.922C146.92 371.455 146.221 371.455 146.221 371.922Z" fill="#161616"/>
<path d="M157.581 370.686C157.581 372.257 157.581 373.827 157.581 375.364C157.581 375.832 158.28 375.866 158.28 375.364C158.28 373.794 158.28 372.223 158.28 370.686C158.249 370.185 157.581 370.185 157.581 370.686Z" fill="#161616"/>
<path d="M154.453 373.426C154.453 374.462 154.453 375.498 154.453 376.534C154.453 377.002 155.151 377.035 155.151 376.534C155.151 375.498 155.151 374.462 155.151 373.426C155.121 372.925 154.453 372.925 154.453 373.426Z" fill="#161616"/>
<path d="M170.369 370.786C170.369 372.825 170.369 374.83 170.369 376.868C170.369 377.336 171.068 377.369 171.068 376.868C171.068 374.83 171.068 372.825 171.068 370.786C171.068 370.318 170.369 370.318 170.369 370.786Z" fill="#161616"/>
<path d="M172.465 373.092C172.465 374.128 172.465 375.164 172.465 376.2C172.465 376.668 173.164 376.701 173.164 376.2C173.164 375.164 173.164 374.128 173.164 373.092C173.133 372.591 172.465 372.591 172.465 373.092Z" fill="#161616"/>
<path d="M175.563 370.318C175.563 372.357 175.563 374.362 175.563 376.4C175.563 376.868 176.262 376.902 176.262 376.4C176.262 374.362 176.262 372.357 176.262 370.318C176.262 369.851 175.563 369.851 175.563 370.318Z" fill="#161616"/>
<path d="M155.273 380.511C155.273 382.917 155.273 385.323 155.273 387.728C155.273 388.196 155.971 388.23 155.971 387.728C155.971 385.323 155.971 382.917 155.971 380.511C155.971 380.043 155.273 380.043 155.273 380.511Z" fill="#161616"/>
<path d="M159.039 382.917C159.039 384.621 159.039 386.358 159.039 388.063C159.039 388.531 159.738 388.564 159.738 388.063C159.738 386.358 159.738 384.621 159.738 382.917C159.708 382.449 159.039 382.449 159.039 382.917Z" fill="#161616"/>
<path d="M171.22 381.546C171.22 383.251 171.22 384.988 171.22 386.693C171.22 387.16 171.918 387.194 171.918 386.693C171.918 384.988 171.918 383.251 171.918 381.546C171.888 381.079 171.22 381.079 171.22 381.546Z" fill="#161616"/>
<path d="M179.117 379.709C179.117 382.482 179.117 385.289 179.117 388.063C179.117 388.53 179.816 388.564 179.816 388.063C179.816 385.289 179.816 382.482 179.816 379.709C179.785 379.241 179.117 379.241 179.117 379.709Z" fill="#161616"/>
<path d="M186.286 383.05C186.286 383.952 186.286 384.888 186.286 385.79C186.286 386.258 186.984 386.292 186.984 385.79C186.984 384.888 186.984 383.952 186.984 383.05C186.984 382.549 186.286 382.549 186.286 383.05Z" fill="#161616"/>
<path d="M140.905 391.404C140.905 393.61 140.905 395.815 140.905 398.054C140.905 398.522 141.604 398.555 141.604 398.054C141.604 395.849 141.604 393.643 141.604 391.404C141.604 390.903 140.905 390.903 140.905 391.404Z" fill="#161616"/>
<path d="M156.943 391.638C156.943 393.944 156.943 396.216 156.943 398.522C156.943 398.99 157.642 399.023 157.642 398.522C157.642 396.216 157.642 393.944 157.642 391.638C157.642 391.137 156.943 391.137 156.943 391.638Z" fill="#161616"/>
<path d="M150.291 392.206C150.291 393.743 150.291 395.247 150.291 396.784C150.291 397.252 150.99 397.286 150.99 396.784C150.99 395.247 150.99 393.743 150.99 392.206C150.96 391.705 150.291 391.705 150.291 392.206Z" fill="#161616"/>
<path d="M152.569 390.702C152.569 391.972 152.569 393.209 152.569 394.479C152.569 394.946 153.268 394.98 153.268 394.479C153.268 393.209 153.268 391.972 153.268 390.702C153.268 390.235 152.569 390.235 152.569 390.702Z" fill="#161616"/>
<path d="M174.652 390.836C174.652 393.175 174.652 395.481 174.652 397.82C174.652 398.288 175.351 398.322 175.351 397.82C175.351 395.481 175.351 393.175 175.351 390.836C175.32 390.335 174.652 390.335 174.652 390.836Z" fill="#161616"/>
<path d="M168.911 390.702C168.911 391.271 168.911 391.839 168.911 392.407C168.911 392.875 169.61 392.908 169.61 392.407C169.61 391.839 169.61 391.271 169.61 390.702C169.61 390.235 168.911 390.235 168.911 390.702Z" fill="#161616"/>
<path d="M188.26 388.664C188.26 390.87 188.26 393.075 188.26 395.314C188.26 395.782 188.959 395.815 188.959 395.314C188.959 393.109 188.959 390.903 188.959 388.664C188.959 388.163 188.26 388.163 188.26 388.664Z" fill="#161616"/>
<path d="M191.297 393.443C191.297 394.779 191.297 396.116 191.297 397.453C191.297 397.92 191.996 397.954 191.996 397.453C191.996 396.116 191.996 394.779 191.996 393.443C191.966 392.975 191.297 392.975 191.297 393.443Z" fill="#161616"/>
<path d="M180.362 390.702C180.362 392.641 180.362 394.579 180.362 396.55C180.362 397.018 181.061 397.052 181.061 396.55C181.061 394.612 181.061 392.674 181.061 390.702C181.061 390.235 180.362 390.235 180.362 390.702Z" fill="#161616"/>
<path d="M146.737 399.424C146.737 401.897 146.737 404.37 146.737 406.876C146.737 407.344 147.436 407.378 147.436 406.876C147.436 404.403 147.436 401.931 147.436 399.424C147.436 398.923 146.737 398.923 146.737 399.424Z" fill="#161616"/>
<path d="M152.023 408.213C152.023 405.74 152.023 403.267 152.023 400.761C152.023 400.293 151.324 400.26 151.324 400.761C151.324 403.234 151.324 405.707 151.324 408.213C151.324 408.714 152.023 408.714 152.023 408.213Z" fill="#161616"/>
<path d="M154.21 408.012C154.21 407.043 154.21 406.108 154.21 405.139C154.21 404.671 153.511 404.637 153.511 405.139C153.511 406.108 153.511 407.043 153.511 408.012C153.511 408.48 154.21 408.48 154.21 408.012Z" fill="#161616"/>
<path d="M159.039 398.856C159.039 401.463 159.039 404.036 159.039 406.642C159.039 407.11 159.738 407.144 159.738 406.642C159.738 404.036 159.738 401.463 159.738 398.856C159.708 398.355 159.039 398.355 159.039 398.856Z" fill="#161616"/>
<path d="M160.801 402.499C160.801 403.735 160.801 404.938 160.801 406.174C160.801 406.642 161.5 406.676 161.5 406.174C161.5 404.938 161.5 403.735 161.5 402.499C161.469 402.031 160.801 402.031 160.801 402.499Z" fill="#161616"/>
<path d="M163.201 401.128C163.201 402.465 163.201 403.802 163.201 405.138C163.201 405.606 163.899 405.64 163.899 405.138C163.899 403.802 163.899 402.465 163.899 401.128C163.869 400.661 163.201 400.661 163.201 401.128Z" fill="#161616"/>
<path d="M171.007 398.856C171.007 401.563 171.007 404.27 171.007 406.976C171.007 407.444 171.706 407.478 171.706 406.976C171.706 404.27 171.706 401.563 171.706 398.856C171.675 398.355 171.007 398.355 171.007 398.856Z" fill="#161616"/>
<path d="M178.904 401.83C178.904 403.334 178.904 404.804 178.904 406.308C178.904 406.776 179.603 406.809 179.603 406.308C179.603 404.804 179.603 403.334 179.603 401.83C179.603 401.329 178.904 401.329 178.904 401.83Z" fill="#161616"/>
<path d="M189.718 398.622C189.718 401.496 189.718 404.337 189.718 407.21C189.718 407.678 190.417 407.712 190.417 407.21C190.417 404.337 190.417 401.496 190.417 398.622C190.417 398.121 189.718 398.121 189.718 398.622Z" fill="#161616"/>
<path d="M193.059 402.833C193.059 404.203 193.059 405.573 193.059 406.943C193.059 407.411 193.758 407.444 193.758 406.943C193.758 405.573 193.758 404.203 193.758 402.833C193.758 402.365 193.059 402.365 193.059 402.833Z" fill="#161616"/>
<path d="M198.8 399.057C198.8 401.195 198.8 403.334 198.8 405.473C198.8 405.94 199.499 405.974 199.499 405.473C199.499 403.334 199.499 401.195 199.499 399.057C199.468 398.589 198.8 398.589 198.8 399.057Z" fill="#161616"/>
<path d="M155.242 418.205C155.242 415.732 155.242 413.259 155.242 410.753C155.242 410.285 154.544 410.251 154.544 410.753C154.544 413.225 154.544 415.698 154.544 418.205C154.544 418.672 155.242 418.672 155.242 418.205Z" fill="#161616"/>
<path d="M157.733 418.071C157.733 416.801 157.733 415.565 157.733 414.295C157.733 413.827 157.034 413.794 157.034 414.295C157.034 415.565 157.034 416.801 157.034 418.071C157.065 418.572 157.733 418.572 157.733 418.071Z" fill="#161616"/>
<path d="M164.75 409.382C164.75 412.256 164.75 415.097 164.75 417.971C164.75 418.438 165.448 418.472 165.448 417.971C165.448 415.097 165.448 412.256 165.448 409.382C165.448 408.881 164.75 408.881 164.75 409.382Z" fill="#161616"/>
<path d="M171.007 410.753C171.007 412.524 171.007 414.261 171.007 416.032C171.007 416.5 171.706 416.534 171.706 416.032C171.706 414.261 171.706 412.524 171.706 410.753C171.675 410.251 171.007 410.251 171.007 410.753Z" fill="#161616"/>
<path d="M168.82 411.789C168.82 412.49 168.82 413.159 168.82 413.86C168.82 414.328 169.519 414.362 169.519 413.86C169.519 413.159 169.519 412.49 169.519 411.789C169.488 411.287 168.82 411.287 168.82 411.789Z" fill="#161616"/>
<path d="M182.337 408.581C182.337 411.555 182.337 414.529 182.337 417.503C182.337 417.971 183.035 418.004 183.035 417.503C183.035 414.529 183.035 411.555 183.035 408.581C183.035 408.079 182.337 408.079 182.337 408.581Z" fill="#161616"/>
<path d="M184.949 412.457C184.949 413.793 184.949 415.13 184.949 416.467C184.949 416.935 185.648 416.968 185.648 416.467C185.648 415.13 185.648 413.793 185.648 412.457C185.617 411.989 184.949 411.989 184.949 412.457Z" fill="#161616"/>
<path d="M191.601 409.015C191.601 411.789 191.601 414.596 191.601 417.369C191.601 417.837 192.3 417.87 192.3 417.369C192.3 414.596 192.3 411.789 192.3 409.015C192.3 408.547 191.601 408.547 191.601 409.015Z" fill="#161616"/>
<path d="M203.691 409.717C203.691 412.123 203.691 414.529 203.691 416.935C203.691 417.402 204.389 417.436 204.389 416.935C204.389 414.529 204.389 412.123 204.389 409.717C204.359 409.249 203.691 409.249 203.691 409.717Z" fill="#161616"/>
<path d="M205.543 412.824C205.543 413.961 205.543 415.13 205.543 416.266C205.543 416.734 206.242 416.768 206.242 416.266C206.242 415.13 206.242 413.961 206.242 412.824C206.242 412.323 205.543 412.323 205.543 412.824Z" fill="#161616"/>
<path d="M197.767 387.528C197.767 385.757 197.767 383.952 197.767 382.181C197.767 381.714 197.069 381.68 197.069 382.181C197.069 383.952 197.069 385.757 197.069 387.528C197.099 387.996 197.767 388.029 197.767 387.528Z" fill="#161616"/>
<path d="M201.959 380.009C201.959 382.415 201.959 384.788 201.959 387.194C201.959 387.662 202.658 387.695 202.658 387.194C202.658 384.788 202.658 382.415 202.658 380.009C202.627 379.541 201.959 379.508 201.959 380.009Z" fill="#161616"/>
<path d="M205.118 365.707C206.789 366.776 207.7 368.781 207.548 370.886C207.518 371.354 208.186 371.354 208.247 370.886C208.429 368.514 207.366 366.275 205.483 365.072C205.088 364.805 204.723 365.44 205.118 365.707Z" fill="#161616"/>
<path d="M135.559 390.535C134.739 392.006 134.587 393.743 135.134 395.347C135.286 395.782 135.954 395.615 135.802 395.147C135.316 393.71 135.438 392.24 136.167 390.903C136.379 390.502 135.802 390.101 135.559 390.535Z" fill="#161616"/>
<path d="M132.127 386.759C130.365 389.199 129.484 392.106 129.545 395.214C129.545 395.682 130.244 395.715 130.244 395.214C130.183 392.307 131.003 389.566 132.643 387.261C132.886 386.926 132.4 386.392 132.127 386.759Z" fill="#161616"/>
<path d="M204.814 397.419C206.029 398.121 206.789 399.458 206.789 400.995C206.789 401.463 207.487 401.496 207.487 400.995C207.487 399.224 206.607 397.586 205.179 396.784C204.784 396.55 204.419 397.185 204.814 397.419Z" fill="#161616"/>
<path opacity="0.15" d="M173.315 368.38C175.168 368.113 179.512 367.779 183.643 370.519C184.828 371.287 185.739 372.156 186.498 372.992C186.407 374.529 186.286 376.066 186.194 377.603C181.729 377.804 177.295 378.004 172.829 378.171C173.437 378.205 178.297 378.505 180.94 382.85C182.094 384.754 182.367 386.659 182.428 387.795C182.276 388.998 181.79 391.571 180.028 394.044C177.902 397.018 175.229 398.121 174.196 398.489C174.682 398.756 176.991 400.193 177.781 403.267C178.236 405.072 177.963 406.642 177.781 407.377C174.834 410.886 171.888 414.395 168.941 417.937C182.458 418.104 196.006 418.271 209.523 418.438C210.039 418.138 211.011 417.436 211.618 416.133C212.621 413.994 212.135 411.421 211.011 409.884C208.885 406.91 204.055 407.946 203.508 408.079C203.66 407.979 206.121 405.941 205.908 402.632C205.756 400.26 204.268 398.823 203.964 398.522C201.807 398.355 199.681 398.188 197.524 398.021C197.737 397.787 199.347 395.849 199.013 393.075C198.739 390.936 197.433 389.132 195.58 388.297C198.466 388.263 200.957 388.196 202.931 388.129C208.672 387.962 209.978 387.862 211.011 386.659C212.408 384.988 212.864 381.747 211.467 379.742C210.707 378.673 209.674 378.272 209.067 378.104C206.819 378.004 204.571 377.871 202.324 377.77C202.658 377.77 204.268 377.804 205.483 376.467C206.667 375.13 206.576 373.359 206.546 372.524C206.515 371.989 206.333 369.784 204.906 368.414C203.417 366.977 201.504 367.378 198.01 367.578C195.277 367.745 192.513 367.445 189.779 367.578C184.068 367.846 178.297 368.146 173.315 368.38Z" fill="#3D3D3D"/>
<path d="M215.446 409.616C236.374 409.616 257.333 409.616 278.261 409.616C284.215 409.616 290.198 409.616 296.152 409.616C296.729 409.616 296.729 408.614 296.152 408.614C275.224 408.614 254.265 408.614 233.337 408.614C227.383 408.614 221.399 408.614 215.446 408.614C214.869 408.614 214.869 409.616 215.446 409.616Z" fill="#E8E8E8"/>
<path d="M304.627 410.452C318.66 409.249 332.663 408.915 346.726 410.218C347.303 410.285 347.303 409.282 346.726 409.215C332.663 407.912 318.69 408.246 304.627 409.449C304.05 409.483 304.05 410.485 304.627 410.452Z" fill="#E8E8E8"/>
<path d="M342.656 415.732C350.22 416.467 357.722 414.395 365.255 413.86C373.001 413.326 380.777 413.86 388.431 415.364C389.009 415.464 389.252 414.495 388.674 414.395C381.141 412.925 373.487 412.357 365.832 412.824C358.117 413.292 350.402 415.498 342.656 414.729C342.079 414.662 342.079 415.665 342.656 415.732Z" fill="#E8E8E8"/>
<path d="M347.395 408.982C344.236 406.308 341.289 403.301 338.677 399.993C338.1 399.257 337.553 398.522 337.006 397.787C336.611 397.252 336.186 396.684 335.913 396.083C335.548 395.281 335.7 394.713 335.7 393.81C335.7 392.24 334.88 392.307 333.938 391.237C332.511 389.6 332.298 387.227 331.873 385.122C331.478 383.151 330.749 381.413 329.929 379.642C328.015 375.398 327.134 370.552 325.98 366.008C325.889 366.208 325.768 366.409 325.676 366.609C329.686 366.008 334.03 369.316 337.219 371.722C338.859 372.958 340.408 374.295 341.897 375.732C343.385 377.202 345.663 379.274 344.843 381.747C344.722 382.081 345.025 382.382 345.268 382.382C347.759 382.482 349.642 385.222 350.979 387.261C352.285 389.199 353.348 391.338 354.138 393.576C355.717 398.088 356.203 403 355.505 407.779C355.414 408.413 356.295 408.681 356.386 408.046C357.175 402.699 356.568 397.219 354.594 392.206C353.622 389.767 352.346 387.461 350.797 385.389C349.369 383.485 347.638 381.446 345.238 381.346C345.39 381.547 345.542 381.78 345.663 381.981C346.362 379.909 345.268 378.004 343.993 376.534C342.352 374.629 340.439 372.992 338.495 371.488C334.91 368.681 330.02 364.905 325.373 365.64C325.13 365.674 325.008 366.008 325.069 366.242C326.254 370.887 327.134 375.765 329.109 380.11C330.111 382.349 330.779 384.454 331.265 386.893C331.6 388.698 332.086 390.569 333.301 391.939C333.817 392.541 334.728 392.875 334.819 393.744C334.88 394.546 334.637 395.114 334.91 395.983C335.488 397.754 336.976 399.358 338.069 400.728C340.742 404.103 343.75 407.144 346.969 409.884C347.395 410.218 347.85 409.349 347.395 408.982Z" fill="#E8E8E8"/>
<path d="M352.589 386.96C353.652 382.649 356.811 378.906 359.302 375.498C359.97 374.596 360.608 373.727 361.276 372.858C361.823 372.123 362.521 370.753 363.463 370.586C363.858 370.519 364.04 370.786 364.465 370.486C364.921 370.185 365.103 369.583 365.346 369.115C367.169 365.473 370.085 362.833 373.153 360.461C375.552 358.589 377.921 356.718 379.106 353.644C378.802 353.543 378.529 353.476 378.225 353.376C376.98 358.456 376.98 363.501 377.77 368.681C378.59 374.061 378.772 379.274 377.435 384.621C374.884 394.813 367.867 401.663 360.729 408.146C360.274 408.547 360.911 409.249 361.367 408.848C368.353 402.499 375.248 395.782 378.013 385.957C379.319 381.279 379.683 376.333 379.076 371.488C378.711 368.614 378.134 365.807 378.043 362.867C377.952 359.725 378.316 356.618 379.076 353.61C379.228 352.975 378.407 352.775 378.195 353.343C376.798 357.019 373.365 358.89 370.631 361.196C369.234 362.365 367.928 363.669 366.743 365.105C366.227 365.74 365.741 366.442 365.316 367.144C364.982 367.712 364.465 369.249 363.919 369.45C363.554 369.583 363.159 369.349 362.734 369.55C362.126 369.817 361.732 370.619 361.337 371.12C360 372.892 358.664 374.629 357.388 376.434C355.171 379.508 352.65 382.783 351.678 386.626C351.556 387.327 352.437 387.595 352.589 386.96Z" fill="#E8E8E8"/>
<path d="M329.443 371.755C332.177 373.894 334.242 376.768 336.277 379.675C338.434 382.683 340.56 385.724 342.565 388.865C346.423 394.88 349.794 401.329 351.586 408.48C351.738 409.115 352.619 408.848 352.467 408.213C350.614 400.794 347.091 394.111 343.051 387.896C341.077 384.855 339.011 381.914 336.915 378.973C334.819 375.999 332.693 373.092 329.868 370.92C329.413 370.519 328.957 371.388 329.443 371.755Z" fill="#E8E8E8"/>
<path d="M375.006 362.031C370.176 375.999 359.028 386.425 355.839 401.195C355.717 401.83 356.568 402.098 356.72 401.463C359.879 386.693 371.057 376.267 375.886 362.299C376.099 361.697 375.218 361.43 375.006 362.031Z" fill="#E8E8E8"/>
<path d="M367.533 364.404C367.989 369.049 367.716 373.66 366.713 378.171C366.561 378.806 367.442 379.074 367.594 378.439C368.596 373.827 368.9 369.115 368.445 364.404C368.384 363.769 367.473 363.769 367.533 364.404Z" fill="#E8E8E8"/>
<path d="M370.297 373.861C373.153 371.889 375.856 369.684 378.408 367.244C378.863 366.81 378.195 366.108 377.77 366.542C375.279 368.915 372.636 371.087 369.842 372.992C369.325 373.359 369.781 374.228 370.297 373.861Z" fill="#E8E8E8"/>
<path d="M329.777 380.544C331.873 380.477 334.819 379.809 336.733 380.911C337.249 381.212 337.705 380.343 337.189 380.043C335.032 378.773 332.116 379.441 329.777 379.541C329.17 379.575 329.17 380.577 329.777 380.544Z" fill="#E8E8E8"/>
<path d="M341.259 375.465C340.894 378.706 340.955 381.881 341.38 385.122C341.471 385.757 342.352 385.49 342.261 384.855C341.836 381.714 341.836 378.606 342.17 375.465C342.261 374.83 341.35 374.83 341.259 375.465Z" fill="#E8E8E8"/>
<path d="M322.578 420.978C327.499 421.279 332.359 420.076 337.28 420.176C341.988 420.276 346.574 421.646 351.283 420.811C351.86 420.711 351.617 419.742 351.04 419.842C346.24 420.711 341.502 419.174 336.703 419.174C331.994 419.174 327.317 420.276 322.578 419.976C322.001 419.909 322.001 420.911 322.578 420.978Z" fill="#E8E8E8"/>
<path d="M379.501 408.413C383.025 407.879 386.578 407.712 390.132 407.879C393.625 408.046 397.088 408.514 400.612 408.18C404.044 407.879 407.446 407.277 410.909 407.311C414.402 407.344 417.865 407.779 421.327 408.28C421.904 408.347 421.904 407.344 421.327 407.277C417.865 406.809 414.402 406.342 410.909 406.308C407.264 406.275 403.679 406.943 400.034 407.21C396.541 407.478 393.079 406.977 389.585 406.843C386.123 406.709 382.69 406.943 379.288 407.444C378.681 407.545 378.924 408.514 379.501 408.413Z" fill="#E8E8E8"/>
<path d="M64.33 414.829C73.7462 416.266 83.0714 413.961 92.4572 413.259C97.4387 412.891 102.329 413.292 107.311 413.794C112.292 414.295 117.274 414.529 122.285 414.562C127.996 414.596 133.737 414.428 139.447 414.228C140.024 414.195 140.024 413.192 139.447 413.225C133.038 413.426 126.599 413.626 120.19 413.526C113.902 413.426 107.705 412.657 101.448 412.223C89.116 411.321 76.8749 415.732 64.573 413.86C63.9959 413.794 63.7529 414.729 64.33 414.829Z" fill="#E8E8E8"/>
<path d="M117.517 420.477C121.07 420.477 124.594 419.541 128.117 419.24C131.702 418.94 135.286 418.873 138.87 419.04C139.447 419.073 139.447 418.071 138.87 418.037C135.286 417.87 131.702 417.904 128.117 418.238C124.594 418.539 121.04 419.474 117.517 419.474C116.939 419.474 116.939 420.477 117.517 420.477Z" fill="#E8E8E8"/>
<path d="M98.2285 204.071C98.2285 230.136 98.2285 256.201 98.2285 282.232C98.2285 308.264 98.2285 334.362 98.2285 360.394C98.2285 375.097 98.2285 389.8 98.2285 404.504C98.2285 405.139 99.1398 405.139 99.1398 404.504C99.1398 378.439 99.1398 352.374 99.1398 326.342C99.1398 300.311 99.1398 274.212 99.1398 248.181C99.1398 233.477 99.1398 218.774 99.1398 204.071C99.1398 203.436 98.2285 203.436 98.2285 204.071Z" fill="#E8E8E8"/>
<path d="M174.713 191.84C174.713 214.196 174.713 236.551 174.713 258.907C174.713 281.263 174.713 303.619 174.713 325.974C174.713 338.639 174.713 351.338 174.713 364.003C174.713 364.637 175.624 364.637 175.624 364.003C175.624 341.647 175.624 319.291 175.624 296.935C175.624 274.58 175.624 252.224 175.624 229.868C175.624 217.203 175.624 204.505 175.624 191.84C175.624 191.205 174.713 191.205 174.713 191.84Z" fill="#E8E8E8"/>
<path d="M176.535 287.311C193.758 295.198 211.011 303.017 228.325 310.703C228.871 310.937 229.114 309.968 228.568 309.734C211.254 302.048 194.001 294.229 176.778 286.342C176.232 286.108 176.019 287.077 176.535 287.311Z" fill="#E8E8E8"/>
<path d="M224.771 310.035C224.771 335.164 224.771 360.327 224.771 385.456C224.771 392.574 224.771 399.692 224.771 406.809C224.771 407.444 225.682 407.444 225.682 406.809C225.682 381.68 225.682 356.517 225.682 331.388C225.682 324.27 225.682 317.153 225.682 310.035C225.682 309.4 224.771 309.4 224.771 310.035Z" fill="#E8E8E8"/>
<path d="M307.755 406.442C307.755 385.389 307.755 364.37 307.755 343.318C307.755 342.683 306.844 342.683 306.844 343.318C306.844 364.37 306.844 385.389 306.844 406.442C306.844 407.077 307.755 407.077 307.755 406.442Z" fill="#E8E8E8"/>
<path d="M299.281 345.59C317.84 336.801 336.46 327.979 354.107 317.086C359.15 313.978 364.131 310.67 368.991 307.161C369.477 306.793 369.022 305.924 368.536 306.292C351.586 318.489 333.301 328.113 314.833 337.069C309.517 339.642 304.171 342.182 298.855 344.688C298.278 344.989 298.764 345.824 299.281 345.59Z" fill="#E8E8E8"/>
<path d="M322.7 332.624C322.7 305.624 322.7 278.59 322.7 251.589C322.7 243.903 322.7 236.251 322.7 228.565C322.7 227.93 321.788 227.93 321.788 228.565C321.788 255.566 321.788 282.6 321.788 309.6C321.788 317.286 321.788 324.939 321.788 332.624C321.788 333.259 322.7 333.259 322.7 332.624Z" fill="#E8E8E8"/>
<path d="M317.384 230.603C340.014 230.603 362.643 230.603 385.272 230.603C391.742 230.603 398.212 230.603 404.652 230.603C405.229 230.603 405.229 229.601 404.652 229.601C382.022 229.601 359.393 229.601 336.763 229.601C330.294 229.601 323.824 229.601 317.384 229.601C316.777 229.601 316.777 230.603 317.384 230.603Z" fill="#E8E8E8"/>
<path d="M396.207 233.911C396.207 277.52 396.207 321.129 396.207 364.738C396.207 376.968 396.207 389.199 396.207 401.463C396.207 402.098 397.119 402.098 397.119 401.463C397.119 357.854 397.119 314.245 397.119 270.636C397.119 258.406 397.119 246.175 397.119 233.911C397.119 233.277 396.207 233.277 396.207 233.911Z" fill="#E8E8E8"/>
<path d="M94.3405 205.173C115.573 197.654 138.232 196.017 160.254 193.243C166.694 192.441 173.133 191.639 179.573 190.804C180.15 190.737 180.15 189.735 179.573 189.802C168.091 191.238 156.579 192.709 145.097 194.146C134.193 195.516 123.227 196.819 112.444 199.125C106.248 200.428 100.112 202.099 94.0975 204.204C93.5507 204.405 93.7938 205.374 94.3405 205.173Z" fill="#E8E8E8"/>
<path d="M104.759 229.501C104.759 223.92 104.759 218.339 104.759 212.792C104.759 212.157 103.848 212.157 103.848 212.792C103.848 218.373 103.848 223.953 103.848 229.501C103.848 230.136 104.759 230.136 104.759 229.501Z" fill="#E8E8E8"/>
<path d="M104.03 212.725C107.007 212.725 109.984 212.725 112.96 212.725C113.538 212.725 113.538 211.723 112.96 211.723C109.984 211.723 107.007 211.723 104.03 211.723C103.453 211.723 103.453 212.725 104.03 212.725Z" fill="#E8E8E8"/>
<path d="M112.535 212.491C112.535 218.306 112.535 224.12 112.535 229.902C112.535 230.536 113.446 230.536 113.446 229.902C113.446 224.087 113.446 218.273 113.446 212.491C113.446 211.857 112.535 211.857 112.535 212.491Z" fill="#E8E8E8"/>
<path d="M104.425 230.57C107.068 230.57 109.71 230.57 112.353 230.57C112.93 230.57 112.93 229.567 112.353 229.567C109.71 229.567 107.068 229.567 104.425 229.567C103.848 229.567 103.817 230.57 104.425 230.57Z" fill="#E8E8E8"/>
<path d="M130.396 229.367C130.396 223.786 130.396 218.206 130.396 212.659C130.396 212.024 129.484 212.024 129.484 212.659C129.484 218.239 129.484 223.82 129.484 229.367C129.484 230.002 130.396 230.002 130.396 229.367Z" fill="#E8E8E8"/>
<path d="M129.697 212.558C132.674 212.558 135.651 212.558 138.627 212.558C139.204 212.558 139.204 211.556 138.627 211.556C135.651 211.556 132.674 211.556 129.697 211.556C129.09 211.556 129.09 212.558 129.697 212.558Z" fill="#E8E8E8"/>
<path d="M138.172 212.358C138.172 218.172 138.172 223.987 138.172 229.768C138.172 230.403 139.083 230.403 139.083 229.768C139.083 223.953 139.083 218.139 139.083 212.358C139.083 211.723 138.172 211.723 138.172 212.358Z" fill="#E8E8E8"/>
<path d="M130.062 230.403C132.704 230.403 135.347 230.403 137.989 230.403C138.566 230.403 138.566 229.4 137.989 229.4C135.347 229.4 132.704 229.4 130.062 229.4C129.484 229.4 129.484 230.403 130.062 230.403Z" fill="#E8E8E8"/>
<path d="M156.731 228.732C156.731 223.151 156.731 217.571 156.731 212.024C156.731 211.389 155.82 211.389 155.82 212.024C155.82 217.604 155.82 223.185 155.82 228.732C155.82 229.367 156.731 229.367 156.731 228.732Z" fill="#E8E8E8"/>
<path d="M156.002 211.923C158.978 211.923 161.955 211.923 164.932 211.923C165.509 211.923 165.509 210.921 164.932 210.921C161.955 210.921 158.978 210.921 156.002 210.921C155.425 210.921 155.425 211.923 156.002 211.923Z" fill="#E8E8E8"/>
<path d="M164.507 211.723C164.507 217.537 164.507 223.352 164.507 229.133C164.507 229.768 165.418 229.768 165.418 229.133C165.418 223.319 165.418 217.504 165.418 211.723C165.418 211.055 164.507 211.055 164.507 211.723Z" fill="#E8E8E8"/>
<path d="M156.397 229.768C159.039 229.768 161.682 229.768 164.325 229.768C164.902 229.768 164.902 228.765 164.325 228.765C161.682 228.765 159.039 228.765 156.397 228.765C155.82 228.765 155.82 229.768 156.397 229.768Z" fill="#E8E8E8"/>
<path d="M95.4644 276.484C95.4644 298.506 95.4644 320.494 95.4644 342.516C95.4644 343.151 96.3756 343.151 96.3756 342.516C96.3756 320.494 96.3756 298.506 96.3756 276.484C96.3756 275.816 95.4644 275.816 95.4644 276.484Z" fill="#E8E8E8"/>
<path d="M101.843 346.726C101.843 356.952 101.843 367.144 101.843 377.369C101.843 378.004 102.754 378.004 102.754 377.369C102.754 367.144 102.754 356.952 102.754 346.726C102.754 346.091 101.843 346.091 101.843 346.726Z" fill="#E8E8E8"/>
<path d="M91.4549 202.299C101.236 198.557 111.168 195.482 121.283 193.11C121.86 192.976 121.617 192.007 121.04 192.141C110.925 194.513 100.962 197.588 91.2119 201.33C90.6651 201.531 90.9081 202.5 91.4549 202.299Z" fill="#E8E8E8"/>
<path d="M177.264 292.09C187.531 296.334 197.524 301.38 207.487 306.426C208.004 306.693 208.49 305.824 207.943 305.557C197.889 300.478 187.835 295.398 177.507 291.121C176.961 290.887 176.717 291.856 177.264 292.09Z" fill="#E8E8E8"/>
<path d="M183.218 327.411C183.218 321.831 183.218 316.25 183.218 310.703C183.218 310.068 182.307 310.068 182.307 310.703C182.307 316.284 182.307 321.864 182.307 327.411C182.307 328.08 183.218 328.08 183.218 327.411Z" fill="#E8E8E8"/>
<path d="M182.519 310.636C185.496 310.636 188.473 310.636 191.449 310.636C192.027 310.636 192.027 309.634 191.449 309.634C188.473 309.634 185.496 309.634 182.519 309.634C181.912 309.634 181.912 310.636 182.519 310.636Z" fill="#E8E8E8"/>
<path d="M190.994 310.436C190.994 316.25 190.994 322.065 190.994 327.846C190.994 328.481 191.905 328.481 191.905 327.846C191.905 322.031 191.905 316.217 191.905 310.436C191.905 309.767 190.994 309.767 190.994 310.436Z" fill="#E8E8E8"/>
<path d="M182.884 328.481C185.526 328.481 188.169 328.481 190.811 328.481C191.389 328.481 191.389 327.478 190.811 327.478C188.169 327.478 185.526 327.478 182.884 327.478C182.306 327.478 182.306 328.481 182.884 328.481Z" fill="#E8E8E8"/>
<path d="M311.795 344.42C331.63 336.233 350.645 325.807 368.536 313.343C369.022 313.009 368.566 312.14 368.08 312.474C350.25 324.905 331.296 335.298 311.552 343.451C311.005 343.685 311.248 344.654 311.795 344.42Z" fill="#E8E8E8"/>
<path d="M399.002 236.284C399.032 262.149 399.063 287.98 399.063 313.844C399.063 314.479 399.974 314.479 399.974 313.844C399.943 287.98 399.913 262.149 399.913 236.284C399.913 235.649 399.002 235.649 399.002 236.284Z" fill="#E8E8E8"/>
<path d="M333.21 227.228C357.145 227.228 381.05 227.228 404.986 227.228C405.563 227.228 405.563 226.226 404.986 226.226C381.05 226.226 357.145 226.226 333.21 226.226C332.632 226.226 332.632 227.228 333.21 227.228Z" fill="#E8E8E8"/>
<path d="M331.508 260.444C331.508 254.864 331.508 249.283 331.508 243.736C331.508 243.101 330.597 243.101 330.597 243.736C330.597 249.317 330.597 254.897 330.597 260.444C330.597 261.113 331.508 261.113 331.508 260.444Z" fill="#E8E8E8"/>
<path d="M330.81 243.669C333.787 243.669 336.763 243.669 339.74 243.669C340.317 243.669 340.317 242.667 339.74 242.667C336.763 242.667 333.787 242.667 330.81 242.667C330.233 242.667 330.233 243.669 330.81 243.669Z" fill="#E8E8E8"/>
<path d="M339.285 243.469C339.285 249.283 339.285 255.098 339.285 260.879C339.285 261.514 340.196 261.514 340.196 260.879C340.196 255.064 340.196 249.25 340.196 243.469C340.196 242.8 339.285 242.8 339.285 243.469Z" fill="#E8E8E8"/>
<path d="M331.205 261.514C333.847 261.514 336.49 261.514 339.133 261.514C339.71 261.514 339.71 260.511 339.133 260.511C336.49 260.511 333.847 260.511 331.205 260.511C330.597 260.511 330.597 261.514 331.205 261.514Z" fill="#E8E8E8"/>
<path d="M373.699 260.444C373.699 254.864 373.699 249.283 373.699 243.736C373.699 243.101 372.788 243.101 372.788 243.736C372.788 249.317 372.788 254.897 372.788 260.444C372.788 261.113 373.699 261.113 373.699 260.444Z" fill="#E8E8E8"/>
<path d="M372.97 243.669C375.947 243.669 378.924 243.669 381.901 243.669C382.478 243.669 382.478 242.667 381.901 242.667C378.924 242.667 375.947 242.667 372.97 242.667C372.393 242.667 372.393 243.669 372.97 243.669Z" fill="#E8E8E8"/>
<path d="M381.475 243.469C381.475 249.283 381.475 255.098 381.475 260.879C381.475 261.514 382.387 261.514 382.387 260.879C382.387 255.064 382.387 249.25 382.387 243.469C382.387 242.8 381.475 242.8 381.475 243.469Z" fill="#E8E8E8"/>
<path d="M373.365 261.514C376.008 261.514 378.651 261.514 381.293 261.514C381.87 261.514 381.87 260.511 381.293 260.511C378.651 260.511 376.008 260.511 373.365 260.511C372.788 260.511 372.788 261.514 373.365 261.514Z" fill="#E8E8E8"/>
<path d="M355 125C364.942 125 373 116.941 373 107C373 97.0589 364.942 89 355 89C345.059 89 337 97.0589 337 107C337 116.941 345.059 125 355 125Z" stroke="#E8E8E8" stroke-width="3" stroke-miterlimit="10"/>
<path d="M334.181 188.198C339.224 184.421 345.359 186.794 350.584 188.732C353.044 189.634 355.535 190.47 358.117 190.737C360.911 191.038 363.706 190.704 366.44 190.102C377.284 187.629 389.008 179.208 400.156 184.923C400.672 185.19 401.158 184.321 400.612 184.054C392.41 179.843 383.389 183.152 375.37 186.159C370.692 187.93 365.863 189.701 360.851 189.835C355.717 189.969 351.222 187.663 346.392 186.193C342.2 184.889 337.462 184.522 333.695 187.329C333.24 187.696 333.695 188.565 334.181 188.198Z" fill="#E8E8E8"/>
<path d="M107.098 169.985C115.876 172.759 124.503 168.214 132.735 165.374C137.23 163.837 141.969 162.6 146.707 163.269C151.537 163.97 155.941 166.51 160.376 168.615C164.871 170.754 169.549 172.525 174.531 171.656C175.108 171.556 174.865 170.587 174.288 170.687C164.78 172.358 156.822 164.171 147.831 162.433C139.053 160.729 130.699 165.341 122.498 168.014C117.547 169.618 112.414 170.587 107.341 168.983C106.764 168.816 106.521 169.785 107.098 169.985Z" fill="#E8E8E8"/>
<path d="M185.709 184.488C188.959 184.388 191.814 182.784 194.7 181.347C196.461 180.478 198.284 179.643 200.228 179.476C202.384 179.275 204.268 180.111 206.121 181.247C209.523 183.319 212.682 185.223 216.6 185.892C220.306 186.56 224.072 186.259 227.687 185.056C228.234 184.856 228.021 183.887 227.444 184.087C223.434 185.424 219.182 185.591 215.081 184.522C213.137 184.02 211.254 183.218 209.492 182.183C207.822 181.18 206.242 179.977 204.48 179.208C197.707 176.234 192.27 183.252 185.709 183.452C185.131 183.519 185.131 184.522 185.709 184.488Z" fill="#E8E8E8"/>
<path d="M278.929 153.344C287.677 157.822 297.489 157.621 306.783 155.65C317.293 153.411 327.195 148.298 338.07 148.499C344.205 148.632 350.28 150.103 355.93 152.776C356.477 153.043 356.932 152.174 356.386 151.907C347.273 147.563 337.128 146.393 327.408 148.632C322.092 149.869 316.959 151.907 311.704 153.411C306.723 154.814 301.62 155.817 296.486 156.017C290.624 156.218 284.761 155.249 279.415 152.509C278.869 152.208 278.413 153.077 278.929 153.344Z" fill="#E8E8E8"/>
<path d="M174.136 337.035C175.077 342.482 175.989 347.963 176.93 353.41C161.257 359.659 153.633 363.969 154.119 366.375C154.696 369.283 166.998 369.383 191.054 366.709C190.022 355.348 188.989 343.986 187.956 332.591C183.339 334.095 178.722 335.565 174.136 337.035Z" fill="#161616" stroke="#161616" stroke-width="3" stroke-miterlimit="10"/>
<path d="M247.491 268.765C240.93 271.739 238.166 271.004 229.874 273.51C214.595 278.122 203.539 286.743 196.644 293.26C196.978 305.691 197.312 318.122 197.646 330.553C196.947 331.455 189.293 341.012 177.69 339.709C169.701 338.807 164.719 333.259 163.383 331.655C163.17 320.193 163.353 307.963 164.051 295.098C164.476 287.646 165.023 280.428 165.722 273.51C166.754 271.906 168.334 269.601 170.369 266.927C186.346 246.008 205.483 236.719 215.901 231.84C226.289 226.961 232.79 223.92 242.479 223.051C245.061 222.817 270.88 220.812 275.041 232.207C278.899 242.6 263.681 261.447 247.491 268.765Z" fill="white" stroke="#161616" stroke-width="3" stroke-miterlimit="10"/>
<path opacity="0.16" d="M273.371 228.699C267.599 224.321 254.872 242.968 229.54 260.545C205.179 277.42 192.421 277.153 185.071 293.56C182.823 298.539 180.484 306.426 179.056 314.446C177.295 324.538 177.295 333.159 177.69 339.274C179.664 339.174 182.003 338.873 184.524 338.138C190.629 336.367 194.973 332.992 197.524 330.619C197.19 317.955 196.826 305.29 196.492 292.658C200.744 288.849 207.518 283.402 216.661 278.757C233.762 270.035 240.171 273.778 254.265 264.855C257.515 262.817 275.892 251.155 275.467 235.917C275.345 233.477 275.315 230.169 273.371 228.699Z" fill="#3D3D3D"/>
<path opacity="0.25" d="M275.74 234.714C274.464 233.577 269.513 241.196 257.636 250.52C242.874 262.082 235.766 261.948 219.516 272.708C213.653 276.585 205.179 282.8 195.793 292.257C197.615 291.388 200.562 289.918 203.994 287.746C210.98 283.268 212.681 280.528 217.997 277.587C219.911 276.551 223.495 275.482 230.633 273.443C243.117 269.868 244.909 270.035 249.435 267.796C255.419 264.855 259.337 261.146 261.403 259.141C271.305 249.584 277.35 236.117 275.74 234.714Z" fill="#3D3D3D"/>
<path opacity="0.2" d="M196.127 292.625C192.239 308.03 188.382 323.468 184.493 338.873C186.225 338.372 188.351 337.57 190.66 336.233C193.971 334.295 196.309 331.99 197.828 330.218C197.251 317.687 196.704 305.156 196.127 292.625Z" fill="#3D3D3D"/>
<path d="M272.946 389.232C273.887 394.679 274.798 400.159 275.74 405.606C261.555 413.459 254.812 418.338 255.419 420.243C256.179 422.549 267.63 420.544 289.743 414.261C288.741 404.437 287.768 394.612 286.766 384.788C282.149 386.292 277.562 387.762 272.946 389.232Z" fill="#161616" stroke="#161616" stroke-width="3" stroke-miterlimit="10"/>
<path d="M285.095 219.409C286.159 228.431 287.526 242.032 288.194 258.64C289.196 284.27 287.738 298.539 287.495 317.487C287.282 334.095 287.981 357.921 292.294 387.294C289.956 388.998 284.67 392.373 277.198 392.941C270.09 393.476 264.653 391.204 262.102 389.934C261.433 375.698 260.249 360.561 258.335 344.654C254.812 315.348 249.496 288.949 243.603 265.824C239.958 260.277 236.283 254.764 232.638 249.216C245.912 238.891 259.155 228.598 272.429 218.273C276.621 218.674 280.843 219.041 285.095 219.409Z" fill="white" stroke="#161616" stroke-width="3" stroke-miterlimit="10"/>
<path d="M237.65 252.09C236.708 250.653 235.797 249.183 234.855 247.746C234.582 248.882 234.308 250.018 234.035 251.188C238.531 248.114 242.935 244.872 247.157 241.33C250.681 238.389 253.961 235.148 257.515 232.274C259.763 230.436 262.071 228.699 264.38 226.961C266.597 225.323 268.845 223.252 271.275 221.948C272.581 221.247 274.13 221.347 275.527 221.347C278.2 221.347 280.843 221.447 283.486 221.614C286.402 221.781 286.402 216.769 283.486 216.602C280.843 216.468 278.17 216.334 275.527 216.334C273.826 216.334 272.065 216.334 270.455 216.902C267.934 217.805 265.656 219.977 263.499 221.614C261.008 223.452 258.548 225.29 256.118 227.228C252.351 230.236 248.888 233.611 245.213 236.719C240.9 240.361 236.374 243.703 231.757 246.844C230.785 247.512 230.208 249.15 230.937 250.286C231.878 251.723 232.79 253.193 233.731 254.63C235.402 257.236 239.351 254.73 237.65 252.09Z" fill="white"/>
<path opacity="0.14" d="M254.903 223.419C259.52 238.423 263.803 255.131 267.205 273.41C275.679 319.157 275.831 359.859 273.371 391.839C274.829 392.407 276.682 392.908 278.838 392.975C285.673 393.175 290.593 388.831 292.173 387.327C290.836 379.942 289.105 368.881 288.072 355.381C285.825 326.141 288.649 309.567 289.105 284.705C289.378 269.6 288.862 248.147 285.004 221.915C274.95 222.416 264.927 222.917 254.903 223.419Z" fill="#3D3D3D"/>
<path opacity="0.2" d="M286.007 237.354C285.156 270.269 283.698 304.12 281.572 338.873C280.478 356.818 279.203 374.495 277.805 391.872C279.203 392.139 281.693 392.407 284.64 391.505C288.467 390.302 290.836 387.795 291.808 386.626C288.406 364.905 287.556 347.294 287.374 335.498C287.039 313.176 288.953 301.781 288.406 275.716C288.042 259.141 286.888 245.708 286.007 237.354Z" fill="#3D3D3D"/>
<path d="M161.773 101.582C162.168 100.579 158.28 98.5072 158.675 97.3376C159.07 96.1346 163.899 95.8339 167.149 98.4738C170.551 101.214 170.339 105.224 172.283 110.37C174.5 116.151 177.993 119.292 183.309 124.104C186.498 127.012 198.952 137.905 216.904 137.304C225.044 137.037 231.848 134.464 236.89 131.757C236.192 141.347 235.463 150.971 234.764 160.562C230.633 161.598 224.953 162.5 218.301 161.865C194.122 159.559 178.601 139.042 173.802 132.726C170.886 128.883 166.906 122.968 163.261 114.915C160.406 115.85 155.971 116.92 150.656 116.318C146.889 115.917 142.394 114.647 142.424 113.478C142.455 111.941 150.2 110.905 150.139 110.37C150.079 109.902 143.973 111.74 142.424 109.234C141.209 107.262 142.91 102.818 145.765 101.013C146.646 100.479 147.649 100.145 150.139 100.178C156.883 100.178 161.409 102.484 161.773 101.582Z" fill="white" stroke="#161616" stroke-width="3" stroke-miterlimit="10"/>
<path d="M142.333 107.329C143.882 106.928 145.674 107.764 147.254 107.83C148.651 107.897 150.048 107.764 151.415 107.463C151.992 107.329 151.749 106.36 151.172 106.494C149.441 106.861 147.709 106.962 145.948 106.694C144.611 106.494 143.427 106.026 142.09 106.36C141.513 106.494 141.756 107.463 142.333 107.329Z" fill="#161616"/>
<path d="M143.609 104.021C145.431 103.62 147.041 104.455 148.803 104.556C150.352 104.656 151.901 104.322 153.42 103.887C153.997 103.72 153.754 102.751 153.177 102.918C151.203 103.486 149.289 103.754 147.254 103.286C145.887 102.985 144.733 102.718 143.335 103.018C142.789 103.186 143.032 104.155 143.609 104.021Z" fill="#161616"/>
<path d="M160.406 105.024C161.955 106.828 164.051 107.764 166.299 107.697C166.876 107.663 166.876 106.661 166.299 106.694C164.264 106.795 162.441 105.959 161.074 104.322C160.649 103.854 160.011 104.556 160.406 105.024Z" fill="#161616"/>
<path opacity="0.18" d="M142.424 108.967C142.515 108.064 149.137 107.83 155.212 108.8C158.493 109.301 161.682 109.802 164.689 111.373C171.25 114.748 173.407 121.197 176.809 127.112C176.809 127.112 184.433 140.245 198.071 147.596C211.618 154.881 227.079 150.002 235.797 146.126C235.463 150.938 235.129 155.75 234.795 160.562C226.745 162.366 220.306 161.932 216.175 161.297C193.181 157.722 178.753 138.273 173.012 130.554C168.364 124.305 165.266 118.557 163.383 114.647C160.376 115.85 155.911 117.087 150.595 116.485C146.92 116.051 142.576 114.714 142.606 113.545C142.667 112.041 149.987 111.139 149.927 110.805C149.896 110.637 147.831 111.139 145.279 110.437C144.277 110.17 142.394 109.468 142.424 108.967Z" fill="#3D3D3D"/>
<path opacity="0.24" d="M211.406 155.583C222.25 155.75 230.633 151.072 235.007 148.098C234.855 152.375 234.673 156.619 234.521 160.896C228.507 161.999 217.967 162.935 205.938 158.691C184.159 151.038 173.467 131.991 170.703 126.677C171.584 128.415 185.891 155.215 211.406 155.583Z" fill="#3D3D3D"/>
<path opacity="0.19" d="M152.752 114.447C159.252 114.48 163.626 113.411 163.717 113.912C163.778 114.313 161.074 115.516 158.219 116.118C149.927 117.856 142.333 114.079 142.424 113.545C142.515 113.177 145.917 114.414 152.752 114.447Z" fill="#3D3D3D"/>
<path d="M159.859 87.0454C164.59 87.0454 168.425 82.8263 168.425 77.6219C168.425 72.4174 164.59 68.1984 159.859 68.1984C155.129 68.1984 151.294 72.4174 151.294 77.6219C151.294 82.8263 155.129 87.0454 159.859 87.0454Z" fill="#F7A561"/>
<path d="M158.128 87.6469C163.496 87.6469 167.848 82.8443 167.848 76.9201C167.848 70.9959 163.496 66.1934 158.128 66.1934C152.76 66.1934 148.408 70.9959 148.408 76.9201C148.408 82.8443 152.76 87.6469 158.128 87.6469Z" stroke="#161616" stroke-width="2" stroke-miterlimit="10"/>
<path d="M159.465 71.0388C157.551 70.9051 152.63 72.9435 154.453 75.9845C155.516 77.7555 157.581 76.586 159.07 77.0204C160.983 77.5885 160.771 80.1281 159.586 81.3645C158.341 82.6344 156.579 82.4339 155.394 81.2643C154.969 80.8299 154.301 81.5316 154.756 81.966C157.156 84.372 161.439 83.002 161.439 79.0922C161.439 77.3211 160.345 76.185 158.827 75.9845C157.703 75.8174 154.544 76.753 155.273 74.2134C155.759 72.4757 158.098 71.941 159.495 72.0413C160.072 72.0747 160.072 71.0722 159.465 71.0388Z" fill="#161616"/>
<path d="M158.432 71.5066C158.523 70.4039 158.614 69.3346 158.705 68.2318C158.766 67.5969 157.855 67.5969 157.794 68.2318C157.703 69.3346 157.612 70.4039 157.52 71.5066C157.46 72.1415 158.371 72.1415 158.432 71.5066Z" fill="#161616"/>
<path d="M157.824 83.4697C157.915 84.2383 158.007 85.0403 158.067 85.8089C158.128 86.4438 159.039 86.4438 158.979 85.8089C158.887 85.0403 158.796 84.2383 158.736 83.4697C158.675 82.8348 157.764 82.8348 157.824 83.4697Z" fill="#161616"/>
<path d="M246.064 129.384C245.061 129.451 241.69 129.618 237.376 130.788C234.916 131.456 232.972 132.225 231.848 132.726C229.813 137.271 227.201 144.288 226.229 153.177C224.832 165.842 227.626 173.995 229.54 186.594C230.846 195.248 231.909 207.78 230.451 223.619C233.549 226.727 241.629 233.978 253.9 235.85C271.275 238.523 284.032 228.431 286.675 226.259C288.285 215.299 289.804 204.037 291.17 192.508C293.509 172.993 295.271 154.113 296.577 135.967C288.163 127.246 280.873 124.906 275.74 124.439C265.868 123.503 256.938 128.716 246.064 129.384Z" fill="#00BD8E"/>
<path opacity="0.17" d="M259.702 137.805C261.585 139.944 264.167 143.185 266.476 147.596C277.563 168.783 270.698 193.511 267.63 204.472C265.504 212.157 261.464 223.419 253.506 235.582C256.543 236.151 260.37 236.485 264.744 236.017C275.132 234.881 282.666 229.701 286.432 226.627C289.287 208.782 291.717 189.802 293.6 169.752C294.694 157.989 295.514 146.527 296.122 135.466C294.937 134.196 293.114 132.492 290.684 130.788C286.766 128.014 280.6 123.703 273.644 125.04C264.775 126.711 260.279 136.469 259.702 137.805Z" fill="#17171B"/>
<path opacity="0.11" d="M294.755 143.119C293.206 147.897 290.806 155.516 288.376 165.073C281.147 193.11 281.663 205.14 272.885 219.609C270.212 224.02 265.716 230.269 258.153 236.451C261.889 236.418 267.296 235.917 273.462 233.678C279.051 231.639 283.334 228.899 286.25 226.66C288.619 212.692 290.715 197.621 292.264 181.481C293.509 168.047 294.33 155.215 294.755 143.119Z" fill="#17171B"/>
<path d="M280.661 207.446C280.023 206.142 280.691 204.204 281.694 203.168C283.546 201.23 286.918 201.965 288.437 204.071C288.649 204.371 289.682 205.775 289.257 206.978C288.346 209.417 281.967 210.052 280.661 207.446Z" fill="white" stroke="#161616" stroke-width="3" stroke-miterlimit="10"/>
<path d="M289.227 130.286C293.752 133.728 299.341 138.741 304.718 145.758C310.58 153.377 314.407 161.063 316.959 167.513C319.116 173.026 320.422 177.939 321.242 181.648C318.538 188.498 313.466 198.59 304.11 207.446C300.739 210.654 297.397 213.126 294.33 215.065C292.72 217.036 290.472 219.542 287.495 222.116C285.551 223.82 282.909 226.092 282.301 225.524C281.815 225.056 282.666 222.75 283.972 221.146C285.521 219.275 287.434 218.707 287.404 218.607C287.374 218.507 285.673 218.841 284.093 220.177C282.271 221.748 282.362 223.218 281.451 223.452C279.537 223.953 275.133 218.874 275.801 213.728C276.348 209.417 280.205 207.111 281.511 206.309C285.096 204.137 288.589 204.538 289.864 204.739C294.421 196.953 298.977 189.2 303.533 181.414C302.288 180.311 300.648 178.741 298.855 176.702C296.76 174.33 290.867 167.58 288.042 158.323C284.245 145.892 287.738 134.43 289.227 130.286Z" fill="white" stroke="#161616" stroke-width="3" stroke-miterlimit="10"/>
<path d="M276.53 217.972C277.654 215.232 279.567 213.093 282.058 211.89C282.605 211.623 282.119 210.754 281.602 211.021C278.99 212.291 276.894 214.597 275.74 217.471C275.497 218.039 276.287 218.54 276.53 217.972Z" fill="#161616"/>
<path d="M279.871 222.617C278.929 219.476 281.694 216.234 283.972 214.797C284.488 214.463 284.032 213.594 283.516 213.928C280.873 215.599 277.897 219.275 278.99 222.884C279.172 223.486 280.053 223.218 279.871 222.617Z" fill="#161616"/>
<path opacity="0.18" d="M287.829 135.8C291.474 139.944 296.608 146.126 302.106 154.246C309.821 165.575 313.648 171.255 313.921 177.237C314.407 188.331 306.844 202.199 296.881 207.479C293.995 209.016 286.493 212.124 282.18 218.206C280.934 219.943 279.658 222.349 280.114 222.884C280.509 223.319 281.967 222.182 282.453 222.717C283.03 223.352 281.633 225.29 282.028 225.725C282.514 226.259 285.217 224.354 287.951 221.948C289.713 220.378 291.869 218.239 294.147 215.432C297.033 213.628 300.101 211.355 303.229 208.482C313.162 199.359 318.508 188.699 321.363 181.414C320.665 178.473 319.602 174.497 317.931 169.919C312.889 156.118 306.145 147.195 303.928 144.388C300.739 140.312 295.939 134.998 289.227 129.885C288.741 131.857 288.285 133.829 287.829 135.8Z" fill="#3D3D3D"/>
<path opacity="0.21" d="M316.959 186.293C314.043 190.436 312.555 193.076 311.34 195.048C309.031 198.724 305.599 202.233 298.704 209.25C296.243 211.756 292.902 215.098 288.801 218.941C284.488 223.051 282.392 225.156 282.483 225.29C282.605 225.457 286.766 221.982 294.998 214.864C296.547 213.862 298.734 212.391 301.194 210.319C315.349 198.39 321.697 181.247 321.12 180.846C320.877 180.712 319.571 182.55 316.959 186.293Z" fill="#3D3D3D"/>
<path d="M239.715 74.5809C230.785 82.6344 231.149 98.9751 234.643 109.535C236.86 116.218 240.414 120.796 242.753 123.336C242.267 127.212 241.781 131.089 241.295 134.965C243.877 136.268 247.582 137.638 252.108 137.872C263.954 138.507 272.429 130.888 274.738 128.683C272.642 120.963 270.546 113.244 268.45 105.491C268.177 103.319 267.721 99.9776 267.235 95.9008C265.929 85.2743 265.99 84.7062 265.412 82.9685C265.169 82.2668 261.524 72.0747 253.05 70.2702C246.215 68.8667 240.566 73.8124 239.715 74.5809Z" fill="white" stroke="#161616" stroke-width="3" stroke-miterlimit="10"/>
<path d="M232.364 101.782C231.848 104.021 231.301 107.53 231.666 111.74C231.909 114.547 232.334 119.426 235.524 124.138C238.956 129.217 243.573 131.155 245.547 131.857C245.395 131.289 245.213 130.587 245.122 129.752C245.031 128.883 245.061 128.081 245.122 127.479C247.218 128.749 249.344 129.986 251.44 131.256C256.756 125.875 258.517 120.93 259.125 117.354C259.611 114.547 259.915 109.401 261.038 99.9776C261.251 98.3067 261.646 95.2992 263.377 94.5306C264.197 94.1631 265.291 94.3301 265.99 94.9985C268.085 96.9366 265.959 102.551 266.415 102.718C266.87 102.885 270.546 97.2374 269.3 90.788C268.663 87.4463 266.901 85.1406 265.868 84.0044C263.56 88.0144 261.008 92.1581 258.183 96.402C256.391 99.1087 254.599 101.648 252.837 104.121C252.169 104.522 251.167 104.957 250.012 104.856C249.101 104.756 248.797 104.422 248.129 104.221C245.638 103.453 244.302 106.694 241.841 106.26C239.837 105.892 239.654 103.52 237.437 103.453C236.374 103.419 235.949 103.954 234.855 103.72C233.701 103.353 232.881 102.484 232.364 101.782Z" fill="#161616" stroke="#161616" stroke-width="3" stroke-miterlimit="10"/>
<path d="M242.692 92.2918C241.933 96.1681 241.447 100.078 241.234 104.021C241.204 104.422 241.629 104.622 241.933 104.455C243.178 103.754 244.454 103.018 245.699 102.317C246.216 102.016 245.76 101.147 245.244 101.448C243.998 102.15 242.722 102.885 241.477 103.587C241.72 103.72 241.933 103.887 242.176 104.021C242.388 100.145 242.844 96.3352 243.603 92.5591C243.694 91.9242 242.814 91.6568 242.692 92.2918Z" fill="#161616"/>
<path d="M237.832 96.3018C238.218 96.3018 238.531 95.434 238.531 94.3636C238.531 93.2932 238.218 92.4254 237.832 92.4254C237.446 92.4254 237.133 93.2932 237.133 94.3636C237.133 95.434 237.446 96.3018 237.832 96.3018Z" fill="#161616" stroke="#161616" stroke-width="3" stroke-miterlimit="10"/>
<path d="M249.617 96.3018C250.138 96.3018 250.559 95.434 250.559 94.3636C250.559 93.2932 250.138 92.4254 249.617 92.4254C249.097 92.4254 248.676 93.2932 248.676 94.3636C248.676 95.434 249.097 96.3018 249.617 96.3018Z" fill="#161616" stroke="#161616" stroke-width="3" stroke-miterlimit="10"/>
<path d="M236.131 90.5875C236.708 89.4179 237.984 89.6852 238.926 90.0528C239.472 90.2533 239.715 89.2842 239.169 89.0837C237.832 88.5491 236.131 88.5156 235.341 90.0862C235.068 90.6209 235.858 91.1556 236.131 90.5875Z" fill="#161616"/>
<path d="M247.613 89.2174C249.04 87.7136 251.227 87.8473 252.442 89.6518C252.776 90.1531 253.566 89.6518 253.232 89.1506C251.683 86.8448 248.888 86.5441 246.975 88.5156C246.55 88.9501 247.187 89.6518 247.613 89.2174Z" fill="#161616"/>
<path d="M225.317 84.4388C238.105 85.2742 250.863 86.4438 263.56 87.981C265.291 88.1815 265.291 85.174 263.56 84.9735C250.833 83.4363 238.075 82.2667 225.317 81.4313C223.556 81.331 223.556 84.3385 225.317 84.4388Z" fill="#161616"/>
<path d="M233.58 82.367C233.792 80.1949 234.582 74.6143 238.47 70.0696C243.543 64.1549 252.928 61.6821 260.218 66.6946C265.929 70.6377 268.997 78.2567 267.964 86.0094C256.513 84.8064 245.061 83.6034 233.58 82.367Z" fill="#00BD8F"/>
<path opacity="0.69" d="M249.739 65.1574C248.251 66.5275 248.251 69.4347 248.767 72.509C249.344 75.8841 250.832 79.9944 253.05 84.2383C258.031 84.8732 263.013 85.5415 267.994 86.1765C268.207 84.9735 268.42 83.2358 268.237 81.164C268.237 81.164 267.903 77.3545 266.081 73.9125C262.436 67.0287 252.898 62.2167 249.739 65.1574Z" fill="#0F9574"/>
<path opacity="0.24" d="M265.352 104.389C264.228 105.057 263.104 104.89 262.709 104.79C263.681 106.828 266.688 113.712 265.23 122.601C263.833 131.055 259.277 136.168 257.697 137.805C259.672 137.371 261.919 136.669 264.349 135.6C268.966 133.528 272.429 130.788 274.768 128.549C272.338 119.159 269.908 109.769 267.478 100.379C267.478 100.546 267.356 103.219 265.352 104.389Z" fill="#3D3D3D"/>
<path opacity="0.19" d="M254.113 86.8782C254.477 88.5824 254.781 91.1555 254.417 94.163C253.779 99.2423 251.561 102.751 250.407 104.389C251.106 104.155 251.804 103.887 252.503 103.653C253.9 101.782 255.328 99.777 256.725 97.7386C259.034 94.3635 261.16 91.0218 263.104 87.8138C260.097 87.5131 257.12 87.1789 254.113 86.8782Z" fill="#3D3D3D"/>
</svg>
