<svg width="24" height="24" viewBox="0 0 24 24" fill="none" xmlns="http://www.w3.org/2000/svg">
<path d="M16.375 2H7.625C4.5 2 2 4.5 2 7.625V11.375V16.375C2 19.5 4.5 22 7.625 22H16.375C19.5 22 22 19.5 22 16.375V11.375V7.625C22 4.5 19.5 2 16.375 2ZM12 8.25C14.0625 8.25 15.75 9.9375 15.75 12C15.75 14.0625 14.0625 15.75 12 15.75C9.9375 15.75 8.25 14.0625 8.25 12C8.25 9.9375 9.9375 8.25 12 8.25ZM15.75 6.375C15.75 5.6875 16.3125 5.125 17 5.125C17.6875 5.125 18.25 5.6875 18.25 6.375C18.25 7.0625 17.6875 7.625 17 7.625C16.3125 7.625 15.75 7.0625 15.75 6.375Z" fill="white"/>
</svg>
