<svg width="1200" height="400" viewBox="0 0 1200 400" fill="none" xmlns="http://www.w3.org/2000/svg">
<rect width="1200" height="400" fill="#F7A561"/>
<path fill-rule="evenodd" clip-rule="evenodd" d="M604.316 101.03L601.117 109.492C600.429 111.28 599.741 113.104 599.087 114.892C598.847 115.546 598.709 116.199 598.227 116.646C597.127 117.678 595.132 118.366 593.824 119.089C592.93 119.57 592.036 120.086 591.176 120.568C590.729 120.809 589.697 121.153 589.387 121.565C589.043 122.047 589.215 122.872 589.215 123.526V139.555C593.79 138.97 598.399 138.42 602.974 137.835C596.851 144.887 590.763 151.938 584.64 158.99C583.127 160.744 581.304 162.395 580.169 164.425C577.795 168.724 575.456 173.058 573.083 177.392L566.479 189.466L586.257 188.64C591.382 188.434 596.645 188.744 601.564 187.299C605.623 186.095 609.682 184.891 613.775 183.721C614.325 183.549 616.011 183.378 616.389 182.93C616.733 182.518 616.733 180.97 616.836 180.454C618.763 170.582 621.205 159.712 626.812 151.25C630.836 145.162 636.237 139.83 641.19 134.533C643.116 132.469 645.111 130.405 646.969 128.273C647.45 127.722 648.138 127.103 648.448 126.45C648.654 126.037 648.929 125.211 648.826 124.833C648.757 124.661 647.484 124.076 647.312 123.973C646.005 123.148 644.733 122.288 643.46 121.462C639.848 119.089 636.237 116.715 632.625 114.376C629.804 112.553 626.984 110.627 623.991 109.045C620.895 107.428 617.49 106.258 614.257 104.986C610.886 103.575 607.618 102.303 604.316 101.03" fill="#17171B"/>
<path fill-rule="evenodd" clip-rule="evenodd" d="M715.626 251.519C714.043 252.998 711.188 254.993 708.918 254.099C707.783 253.652 706.82 252.654 705.753 252C704.534 251.285 703.392 250.443 702.348 249.489C700.284 247.46 698.736 244.536 696.294 242.954C695.469 242.438 693.886 242.3 693.302 241.475C693.084 241.039 693 240.548 693.061 240.065C693.164 239.136 693.68 239.17 692.82 238.482H694.127C694.162 237.966 693.646 237.932 693.267 238.001C693.439 237.175 693.611 234.011 692.132 235.455C690.859 236.694 691.479 238.757 690.584 240.133C689.896 241.165 688.039 240.34 687.798 239.205C687.695 238.689 688.245 237.898 688.314 237.382C688.452 236.281 687.97 235.318 687.248 234.458C685.665 235.524 686.56 237.691 685.665 239.067C684.84 240.305 683.051 239.721 681.778 239.514C680.299 239.239 678.614 239.514 677.204 239.17C675.071 238.654 675.862 236.109 675.656 234.492C675.415 232.738 673.661 230.33 674.211 228.576C674.796 226.684 678.098 226.271 679.68 225.824C683.326 224.792 688.486 224.586 691.203 221.628C693.336 224.035 695.09 226.753 697.326 229.057C699.768 231.534 702.348 233.839 704.687 236.453C707.129 239.136 709.64 241.784 711.979 244.571C713.011 245.775 713.906 247.082 714.972 248.251C715.97 249.317 716.967 250.281 715.626 251.519V251.519ZM607.618 204.945C608.718 204.36 608.89 204.738 608.89 205.942C608.581 205.358 608.237 205.186 607.618 204.945ZM598.158 228.713V226.546C599.259 226.512 598.571 228.369 598.158 228.713ZM597.918 231.912C597.859 230.977 597.94 230.038 598.158 229.126C598.296 230.124 598.571 231.018 597.918 231.912ZM602.527 297.474C603.524 297.577 605.038 296.889 605.863 297.646C606.723 298.437 606.654 300.776 606.861 301.842C607.205 303.631 607.48 305.42 607.79 307.208C607.962 308.378 608.202 309.582 606.861 310.029C604.9 310.683 602.114 309.754 600.05 309.651C596.026 309.479 592.001 309.238 587.942 309.169C584.028 309.071 580.112 309.197 576.213 309.547C574.458 309.719 572.739 310.063 570.984 310.339C570.056 310.511 567.613 311.13 566.788 310.373C565.24 308.928 567.82 305.523 568.92 304.56C570.984 302.771 573.942 301.498 576.522 300.707C577.898 300.294 580.237 299.125 581.304 300.432C582.129 301.43 582.095 302.771 583.299 303.528C586.085 305.282 584.468 300.26 582.714 299.641C583.883 296.924 586.119 300.776 587.014 301.705C587.357 302.049 588.424 303.115 588.871 302.565C589.215 302.152 588.527 300.673 588.389 300.294C588.183 299.675 587.701 298.781 587.839 298.093C588.08 296.889 589.765 296.58 590.763 296.476C592.311 296.339 593.824 296.82 595.372 296.992C597.814 297.268 600.188 297.268 602.527 297.474V297.474ZM586.979 185.441C583.918 185.682 580.856 185.201 577.795 185.613C574.906 185.992 572.188 187.024 569.471 188.021C573.505 178.63 578.768 169.816 585.122 161.81C588.286 157.786 591.726 153.761 595.166 149.978C596.748 148.189 598.399 146.504 600.05 144.749C601.529 143.201 602.561 140.587 604.35 139.452C605.863 138.455 608.478 139.177 610.163 139.246C612.055 139.314 614.359 139.486 616.183 138.867C617.524 138.42 617.868 137.182 616.217 137.147C614.256 137.113 612.296 137.319 610.301 137.113C605.141 136.631 600.153 135.84 594.925 136.287C593.721 136.391 592.173 136.907 591.004 136.735C590.178 136.631 590.728 137.044 590.144 136.356C589.878 135.998 589.691 135.588 589.593 135.152C589.215 133.226 590.281 130.474 590.522 128.514C590.763 126.725 590.556 124.73 591.004 122.976C591.416 121.393 592.62 121.153 594.134 121.015C598.227 120.533 602.424 120.293 606.551 119.949C615.976 119.158 625.676 117.954 635.032 119.914C638.403 120.637 642.531 121.737 645.524 123.492C646.452 124.042 647.415 124.696 647.071 125.831C646.727 127.035 644.973 128.273 644.113 129.064C637.715 134.843 631.558 140.759 627.087 148.223C621.377 157.717 618.074 167.933 616.148 178.803C615.735 181.142 615.357 182.38 612.949 183.034C610.422 183.758 607.83 184.231 605.21 184.444C599.087 184.96 593.033 184.96 586.979 185.441V185.441ZM589.009 122.666C588.561 126.106 587.908 129.546 587.839 133.054C587.805 134.361 587.701 135.015 586.291 135.324C584.64 135.668 582.955 135.944 581.304 136.287C573.323 138.007 565.481 140.14 557.672 142.548C550.071 144.887 542.606 147.501 534.833 149.221C531.496 149.978 527.575 150.459 524.548 152.11C521.28 153.865 521.693 156.788 521.418 159.953C521.039 164.218 519.767 168.312 519.319 172.577C519.072 174.608 518.946 176.653 518.941 178.7C518.975 180.454 519.216 182.38 518.047 183.825C515.708 180.695 514.573 176.739 514.125 172.886C513.885 171.029 513.988 169.137 513.919 167.245C513.85 165.732 513.885 163.324 512.921 162.051C510.789 159.299 508.003 170.307 507.727 171.476C507.28 173.437 506.902 175.432 506.455 177.427C506.248 178.287 506.008 181.486 504.838 181.795C502.396 182.449 502.946 175.604 502.912 174.572C502.843 172.474 502.774 170.375 502.843 168.277C502.877 166.764 503.187 165.113 503.015 163.599C502.602 159.884 500.504 163.805 499.885 165.181C498.406 168.69 497.718 172.439 496.376 175.982C496.17 176.567 495.62 178.562 494.794 178.596C493.865 178.631 493.865 176.567 493.831 175.982C493.521 172.508 492.489 169.034 492.799 165.491C493.163 161.853 494.301 158.335 496.135 155.172C499.85 148.636 506.592 144.887 513.059 141.447C520.469 137.572 528.218 134.383 536.208 131.919C545.809 128.874 555.599 126.461 565.515 124.696C570.537 123.801 575.662 123.182 580.753 122.666C582.542 122.494 584.331 122.391 586.085 122.047C586.807 121.909 589.215 121.29 589.009 122.666V122.666ZM594.168 111.487C591.657 111.521 589.077 110.283 586.601 109.767C583.677 109.148 580.822 108.288 577.898 107.669C572.188 106.431 566.444 105.227 560.734 103.988C558.257 103.438 555.746 102.956 553.27 102.372C550.621 101.752 547.766 101.03 545.049 101.718C540.955 102.75 539.201 107.222 537.722 110.73C536.656 113.207 535.83 115.959 534.179 118.126C533.594 118.882 532.734 119.811 531.668 119.57C529.673 119.123 529.983 116.475 530.258 115.03C530.636 112.932 531.152 110.833 531.565 108.735C531.737 107.841 533.044 102.303 530.705 103.163C528.985 103.816 528.056 108.013 527.403 109.492C526.921 110.593 526.405 111.728 525.855 112.794C525.133 114.239 523.069 119.089 520.764 118.47C517.496 117.575 520.626 108.942 521.177 107.118C521.486 106.121 524.823 98.5535 522.002 99.1727C520.798 99.4478 519.629 101.649 519.01 102.578C517.909 104.229 516.843 105.88 515.811 107.531C514.744 109.251 514.229 111.212 513.197 112.932C512.646 113.826 511.546 115.03 510.445 114.204C508.759 112.897 509.757 108.426 510.066 106.74C510.677 103.501 511.992 100.436 513.919 97.7624C516.774 93.8755 522.106 92.6371 526.612 91.8804C532.425 90.9173 538.307 91.1581 544.154 91.7428C550.724 92.3964 557.191 93.0843 563.658 94.3914C570.193 95.7329 576.694 97.04 583.127 98.7943C586.154 99.6198 589.215 100.377 592.208 101.34C595.372 102.372 598.468 103.679 601.736 104.401C600.6 107.256 599.431 110.111 598.296 112.966C597.157 111.968 595.682 111.439 594.168 111.487V111.487ZM650.339 119.364C651.337 118.814 652.437 118.538 652.816 117.335C653.125 116.268 652.575 115.03 652.334 113.998C651.539 111.127 651.444 108.107 652.059 105.192C652.678 106.155 655.017 109.836 656.462 107.6C657.322 106.259 655.017 104.332 654.329 103.369C655.808 102.44 657.907 99.9982 659.626 101.477C660.727 102.44 661.209 103.335 662.688 103.816C664.477 104.367 666.196 104.263 668.019 104.091C669.292 103.988 669.602 103.816 670.118 104.814C670.46 105.651 670.736 106.513 670.943 107.394C671.39 109.045 672.457 112.278 671.218 113.826C670.118 115.167 665.887 114.032 665.302 115.752C664.992 116.715 666.506 116.75 667.091 117.197C667.816 117.852 668.401 118.648 668.811 119.536C669.086 120.155 669.533 121.153 669.051 121.806C668.363 122.666 667.091 122.013 666.54 121.393C665.818 120.568 665.577 119.398 664.958 118.504C663.823 116.819 663.754 118.16 663.479 119.364C663.169 120.602 662.413 120.533 661.243 120.671C659.214 120.95 657.204 121.352 655.224 121.875C654.215 122.152 653.227 122.497 652.265 122.907C651.646 123.182 650.58 123.973 649.892 123.973C648.654 123.973 647.794 121.909 647.14 121.049C648.207 120.533 649.273 119.949 650.339 119.364V119.364ZM717.105 246.634C714.009 242.92 711.326 238.861 708.264 235.111C705.238 231.396 701.763 228.163 698.358 224.792C696.741 223.21 695.228 221.456 693.474 220.08C692.166 219.048 691.135 219.013 689.552 219.495C684.985 220.778 680.523 222.411 676.206 224.379C672.25 226.202 668.639 228.576 664.305 229.573C659.898 230.586 655.369 230.968 650.855 230.708C646.301 230.395 641.805 229.505 637.475 228.06C633.312 226.718 628.978 225.549 625.435 222.9C621.721 220.114 618.831 216.124 616.148 212.375C614.807 210.483 613.465 208.488 612.536 206.321C611.745 204.463 611.229 202.227 609.819 200.714C609.475 201.195 609.028 201.643 608.856 202.193C608.787 202.468 609.234 202.434 609.2 202.64C609.097 203.019 608.581 203.431 608.271 203.638C607.17 204.394 607.17 203.81 607.446 205.22C607.618 206.046 607.308 207.972 605.932 207.353C606.448 207.972 605.623 208.728 605.382 209.21C605.301 209.111 605.192 209.038 605.069 209.002C604.947 208.965 604.816 208.965 604.694 209.004C605.21 210.001 604.9 210.036 604.419 210.827C604.266 211.085 604.15 211.362 604.075 211.652C603.593 212.375 603.008 212.547 602.733 213.407C602.492 214.129 602.561 214.92 602.286 215.642C601.976 215.195 601.632 214.748 601.323 214.301C601.401 214.701 601.516 215.092 601.667 215.47C601.77 215.677 602.183 216.124 602.183 216.227C602.148 216.64 601.667 216.537 601.529 216.881C601.254 217.534 601.632 217.637 601.495 218.257C601.323 218.979 600.876 218.704 600.669 219.323C600.635 219.426 600.944 219.908 600.91 220.148C600.841 220.492 600.497 220.699 600.394 221.043C600.085 221.868 600.222 222.453 599.809 223.244C599.616 223.511 599.454 223.8 599.328 224.104C599.225 224.414 599.431 225.067 599.259 225.308C598.365 226.615 598.468 224.379 598.537 223.795C599.121 219.117 600.979 214.266 602.664 209.898C603.524 207.731 604.315 205.461 605.382 203.397C605.775 202.526 606.323 201.733 606.998 201.058C607.893 200.232 609.131 199.923 609.957 199.028C609.819 199.166 610.817 198.237 610.679 198.547C610.817 198.272 610.576 197.893 610.645 197.618C610.748 197.274 610.954 197.205 611.195 196.93C611.608 196.414 612.124 196.139 611.47 195.485C612.433 195.279 612.915 194.97 613.121 193.903C613.259 193.146 612.984 193.181 613.465 192.665C613.981 192.149 614.222 192.562 614.531 191.667C614.887 190.481 615.174 189.275 615.391 188.056C615.598 187.093 615.116 185.682 615.907 184.994C616.939 184.134 617.868 184.513 617.696 182.758C617.524 181.073 618.04 180.041 618.556 178.424C619.622 175.225 620.035 171.82 620.964 168.587C622.959 161.673 626.433 155.412 630.182 149.324C633.656 143.683 638.506 138.902 643.185 134.292C644.457 133.02 645.73 131.747 646.899 130.371C647.897 129.167 648.344 127.551 649.307 126.415C649.892 125.727 650.958 125.418 651.784 125.074C653.125 124.455 654.742 123.664 656.256 123.801C655.636 125.831 655.464 128.238 657.253 129.752C659.42 131.609 661.381 129.683 663.376 128.617C666.988 126.691 672.182 128.445 675.346 125.555C676.103 124.868 676.309 123.767 677.1 123.113C677.685 122.632 678.476 122.529 679.13 122.185C681.091 121.118 682.054 119.158 681.297 116.991C680.609 115.03 679.508 114.342 681.916 113.344C683.877 112.519 684.633 111.315 683.739 109.148C682.879 107.084 681.331 106.843 679.887 105.467C678.476 104.16 680.093 102.612 681.159 101.615C682.535 100.342 682.81 99.2071 681.194 97.8656C679.543 96.4897 677.135 96.5241 675.209 97.212C673.007 98.0031 671.562 99.2759 670.634 101.374C669.671 103.507 667.332 102.922 665.44 102.303C663.617 101.752 663.135 100.514 661.966 99.2071C660.624 97.728 657.941 99.0007 656.359 99.6542C652.506 101.305 648.688 103.92 648.516 108.494C648.413 111.246 649.582 113.585 650.202 116.165C650.752 118.538 646.968 118.332 646.315 120.602C639.332 116.887 631.524 115.752 623.716 115.511C615.391 115.236 606.964 115.03 598.743 116.337C600.669 113 601.667 109.354 603.318 105.915C603.799 104.917 604.006 105.02 605.072 105.295C607.102 105.88 609.131 106.499 611.161 107.084C618.556 109.251 625.814 111.831 632.968 114.686C633.656 114.961 635.204 115.718 635.823 114.892C636.511 113.929 634.895 112.76 634.241 112.278C631.352 110.18 627.774 108.873 624.541 107.394C617.49 104.16 609.681 102.612 602.286 100.205C586.279 95.0697 569.904 91.16 553.304 88.5095C549.28 87.8559 545.186 87.7871 541.162 87.3055C537.573 86.887 533.947 86.8985 530.361 87.3399C523.722 88.1311 516.052 89.851 512.302 95.9393C508.931 101.374 506.695 107.531 507.555 114.032C507.831 115.993 508.656 118.298 511.064 117.782C512.749 117.438 513.609 116.027 514.401 114.617C515.57 112.519 516.74 110.421 518.012 108.391C518.494 111.453 516.774 114.445 517.049 117.541C517.221 119.639 518.391 122.976 521.142 122.391C524.892 121.565 526.44 115.718 528.263 112.897C528.366 115.064 527.609 117.197 527.816 119.364C528.056 121.497 529.707 123.526 532.081 123.251C534.317 122.976 535.761 120.602 536.69 118.814C537.997 116.337 538.96 113.654 540.233 111.143C541.437 108.804 542.847 105.983 545.737 105.536C548.282 105.158 551.24 106.052 553.751 106.431C560.768 107.462 567.648 109.251 574.596 110.696C582.026 112.244 589.662 113.172 596.851 115.649C594.306 119.089 587.667 118.366 583.918 118.71C578.208 119.261 572.429 119.708 566.753 120.533C561.147 121.359 555.643 122.804 550.105 123.836C544.567 124.868 539.063 125.934 533.697 127.723C523.757 131.025 513.644 135.221 504.907 141C500.848 143.683 497.202 146.779 494.691 151.01C492.145 155.275 490.941 160.125 490.46 165.009C490.185 168.071 490.666 170.719 491.251 173.678C491.664 175.845 491.836 179.456 493.556 181.004C496.858 184.031 499.61 171.786 500.194 170.307C500.642 172.714 499.919 186.336 505.216 185.235C507.59 184.753 508.106 181.486 508.519 179.559C509.241 175.982 509.86 172.37 511.098 168.931C511.89 173.54 512.199 178.356 513.885 182.793C515.02 185.717 518.219 190.911 520.454 185.923C522.14 182.174 521.555 177.84 521.762 173.85C521.968 169.412 523.241 165.147 523.722 160.778C523.894 159.093 523.722 157.167 525.442 156.238C526.921 155.447 529.054 155.172 530.636 154.725C535.383 153.417 540.13 152.214 544.842 150.803C549.555 149.393 554.198 147.776 558.876 146.194C563.314 144.68 567.889 143.821 572.395 142.513C574.94 141.757 577.485 141 580.1 140.381C581.304 140.106 582.542 139.865 583.746 139.555C584.64 139.349 585.81 138.489 586.738 138.523C587.701 138.523 588.045 139.349 589.112 139.418C590.281 139.486 591.451 139.211 592.62 139.142C595.441 138.936 598.468 138.558 601.288 138.971C599.603 141 597.298 142.376 595.303 144.027C592.968 145.944 590.783 148.037 588.768 150.287C584.78 154.877 581.026 159.664 577.52 164.631C574.08 169.515 571.294 174.847 568.886 180.316C567.633 183.027 566.564 185.82 565.687 188.675C565.343 189.844 565.068 191.014 564.449 192.08C563.898 193.043 563.073 193.903 563.761 195.073C564.208 194.77 564.633 194.437 565.034 194.075C564.552 197.446 563.52 200.748 562.97 204.119C562.454 207.456 562.454 210.861 562.488 214.232C562.557 221.249 563.073 228.129 564.518 235.043C565.949 242.037 567.834 248.931 570.159 255.681C572.395 262.148 574.665 268.958 577.795 275.047C581.166 281.582 585.122 288.427 590.006 293.931C586.842 295.238 582.783 294.997 579.446 295.513C576.054 295.98 572.803 297.177 569.918 299.022C566.891 300.982 565.24 303.528 564.827 307.105C564.518 309.651 563.658 313.194 566.994 313.847C569.402 314.329 572.085 313.537 574.493 313.331C578.724 312.987 582.92 312.781 587.151 312.574C591.382 312.402 595.578 312.23 599.809 312.093C601.804 312.024 603.765 311.99 605.76 311.921C606.512 311.848 607.27 311.918 607.996 312.127C608.615 312.334 608.581 312.746 609.269 312.23C610.404 311.405 610.163 308.722 610.129 307.552C610.104 305.738 609.908 303.93 609.544 302.152C609.337 301.086 606.792 294.344 608.787 294.034C606.517 291.523 605.588 287.946 604.556 284.781C603.283 280.826 602.148 276.904 601.254 272.845C599.406 264.209 598.495 255.398 598.537 246.566C607.308 251.966 616.595 254.89 626.949 255.234C637.234 255.543 648.516 254.718 658.285 251.278C662.732 249.749 666.928 247.569 670.737 244.811C672.113 243.814 673.626 241.544 675.449 241.578C677.616 241.612 680.059 242.438 682.226 242.816C686.353 243.504 691.754 243.883 695.262 246.428C697.154 247.804 698.53 249.765 700.215 251.347C701.523 252.551 703.208 253.239 704.481 254.443C705.857 255.75 705.306 257.47 707.611 257.573C709.572 257.676 711.704 256.885 713.39 255.956C716.623 254.305 720.2 250.384 717.105 246.634Z" fill="#17171B"/>
<path fill-rule="evenodd" clip-rule="evenodd" d="M684.702 158.887C689.621 162.395 695.297 164.769 700.456 167.933C701.729 168.724 705.754 170.375 705.719 171.82C705.685 172.68 704.481 173.746 703.965 174.331C703.071 175.363 702.211 176.361 701.385 177.461C697.567 182.38 693.955 187.368 689.828 192.046C689.208 192.734 687.317 196.105 686.732 194.454C686.457 193.697 686.697 192.837 685.975 192.149C685.597 191.771 684.186 191.599 684.599 190.807C684.874 190.945 685.15 191.048 685.425 191.186C685.218 190.567 685.218 189.879 684.909 189.294C684.702 188.916 684.324 188.744 684.186 188.331C684.014 187.746 684.324 187.093 684.255 186.508C684.14 185.926 683.955 185.36 683.705 184.822C682.639 181.555 682.26 178.252 681.71 174.881C681.159 171.545 680.334 168.312 679.99 164.941C679.646 161.363 679.199 157.82 678.648 154.277C679.68 154.415 680.472 155.55 681.194 156.169C682.298 157.156 683.471 158.064 684.702 158.887V158.887ZM680.85 193.422C680.613 193.241 680.424 193.005 680.3 192.734C682.707 191.53 681.263 193.594 680.85 193.422ZM679.371 190.876C678.304 191.151 677.548 191.22 676.757 190.807C676.688 190.773 676.757 190.463 676.619 190.395C676.481 190.326 676.309 190.395 676.206 190.36C675.862 190.188 675.243 190.567 675.174 189.879C676.516 189.466 677.857 188.709 679.268 188.572C681.228 188.365 681.159 190.395 679.371 190.876V190.876ZM674.762 186.886C673.317 187.23 672.147 188.021 670.599 187.815C669.155 187.608 667.916 186.886 666.781 186.026C669.602 185.235 672.56 185.097 675.415 184.306C676.344 184.066 677.548 183.378 678.545 183.653C679.646 183.962 679.715 184.994 680.059 185.923C678.27 186.233 676.516 186.473 674.762 186.886V186.886ZM665.784 182.93C664.408 183.274 662.998 183.997 661.828 182.724C661.656 182.518 661.484 182.724 661.484 182.105C661.519 181.451 662.103 181.039 662.619 180.798C663.823 180.247 665.509 180.591 666.781 180.523C668.811 180.385 670.875 179.972 672.87 179.663C674.246 179.422 675.69 178.94 677.101 179.044C678.201 179.112 679.508 180.041 677.926 180.729C676.481 181.348 674.28 181.245 672.698 181.52C670.393 181.898 668.088 182.38 665.784 182.93V182.93ZM664.408 176.429L664.683 176.704C664.683 176.704 665.199 176.257 665.371 176.257C666.059 176.189 666.781 176.257 667.469 176.189C669.088 176.063 670.696 175.833 672.285 175.501C673.592 175.26 674.899 174.813 676.241 174.916C677.376 175.019 677.513 175.26 677.582 176.361C674.658 176.361 671.631 176.292 668.742 176.911C666.85 177.324 664.786 178.528 663.858 176.361C664.03 176.395 664.236 176.395 664.408 176.429V176.429ZM666.265 171.717C666.988 172.267 668.983 171.338 669.843 171.27C670.77 171.193 671.69 171.044 672.595 170.823C673.42 170.616 676.103 169.55 676.722 170.582C677.685 172.13 673.798 172.405 673.179 172.474C670.599 172.783 667.916 173.058 665.405 173.746C665.715 173.058 665.99 172.37 666.265 171.717V171.717ZM669.808 166.488C669.98 167.211 675.828 164.597 675.931 166.488C676 167.933 670.152 168.69 669.12 168.552C669.361 167.864 670.015 167.28 669.808 166.488ZM671.769 162.051C671.907 160.606 672.079 160.641 673.248 160.503C674.108 160.4 675.312 159.884 675.106 161.432C674.865 162.774 671.631 163.496 671.769 162.051V162.051ZM673.833 157.098C674.108 156.341 674.727 157.373 674.727 157.751C674.762 158.783 673.97 158.577 673.214 158.577C673.455 158.099 673.662 157.605 673.833 157.098V157.098ZM683.464 151.354C683.292 151.182 682.432 151.113 682.191 151.01C681.572 150.803 681.675 150.322 680.884 150.769C680.85 150.734 680.919 150.39 680.884 150.356C680.621 150.267 680.368 150.152 680.128 150.012C679.704 149.745 679.302 149.446 678.924 149.118C678.53 148.683 678.092 148.291 677.617 147.948C677.439 147.788 677.227 147.671 676.997 147.604C676.378 147.501 676.55 147.948 676 148.017C675.656 148.086 675.415 147.673 674.968 147.845C674.59 147.983 674.349 148.533 674.177 148.843C673.558 150.012 673.076 151.25 672.457 152.42C669.361 158.439 665.818 164.218 662.826 170.272C661.381 173.196 659.867 176.154 658.836 179.25C658.113 181.486 656.428 184.753 657.872 186.989C658.904 188.606 661.003 189.328 662.654 190.119C665.165 191.289 667.435 192.837 669.98 194.006C672.973 195.382 675.897 196.793 678.855 198.34C680.093 198.994 681.228 199.923 682.467 200.542C683.223 200.92 684.393 200.267 684.668 201.127C685.631 199.957 687.179 200.748 688.28 199.923C688.933 199.441 689.415 198.512 689.931 197.893C690.756 196.999 691.616 196.173 692.442 195.314C695.744 191.874 698.771 188.262 701.764 184.547C704.619 181.004 707.989 177.668 710.397 173.781C710.866 173.073 711.158 172.263 711.247 171.419C711.337 170.575 711.223 169.721 710.913 168.931C710.466 167.692 709.331 165.8 707.749 166.626C708.368 165.629 706.029 164.562 705.306 164.356C705.306 164.356 705.169 165.113 704.963 165.113C705.031 165.113 704.378 163.393 704.068 163.186C703.152 162.482 702.199 161.828 701.213 161.226C700.353 160.744 699.425 160.503 698.599 159.919C697.567 159.265 696.638 158.439 695.641 157.786C694.647 157.069 693.587 156.447 692.476 155.928C691.548 155.55 690.688 155.481 689.828 154.828C688.854 154.089 687.79 153.477 686.663 153.005C685.666 152.661 684.186 152.248 683.464 151.354" fill="white"/>
<path fill-rule="evenodd" clip-rule="evenodd" d="M540.474 244.296C540.681 243.848 540.853 243.401 541.059 242.954C541.3 243.745 541.368 244.124 540.474 244.296ZM540.749 246.394C540.337 246.463 540.509 245.155 540.509 244.915C541.196 245.327 540.612 245.843 540.749 246.394ZM540.096 242.61C540.44 242.404 540.818 242.197 541.162 241.991C540.681 242.92 540.853 242.335 541.059 242.954C540.883 243.007 540.694 243.002 540.521 242.94C540.348 242.878 540.199 242.762 540.096 242.61V242.61ZM537.963 249.799C536.622 254.649 532.391 258.467 527.919 260.428C525.339 261.563 522.828 261.838 520.042 261.735C518.976 261.701 517.703 261.322 516.671 261.391C515.88 261.425 515.914 261.46 515.261 262.148C514.986 261.597 515.192 261.253 514.607 260.91C513.885 260.531 513.575 260.978 513.231 261.529C512.75 261.047 512.578 260.772 511.959 260.497H511.408C511.305 260.462 510.652 260.05 510.445 259.946C509.585 259.637 508.622 259.499 507.831 259.052C507.143 258.639 506.593 257.539 505.802 258.399C505.802 256.954 503.875 256.369 502.981 255.612C501.563 254.358 500.456 252.792 499.748 251.037C498.991 249.249 498.75 247.529 498.406 245.671C498.165 244.399 496.549 242.507 497.512 241.234C497.753 241.785 497.649 242.335 498.028 242.816C498.344 242.137 498.575 241.42 498.716 240.684C498.784 240.34 499.232 239.274 499.197 238.964C499.094 238.345 498.303 238.31 498.75 237.519C499.644 238.517 500.367 236.763 499.713 236.075C499.426 236.454 499.215 236.887 499.094 237.347C498.2 235.559 500.676 236.143 500.126 234.527C501.02 234.355 501.536 234.114 501.88 233.254C502.259 232.256 501.983 232.05 502.843 231.397C503.153 231.19 503.978 230.846 504.116 230.468C504.426 229.745 503.669 229.539 504.322 228.886C504.529 229.264 505.423 230.055 505.905 229.298C506.008 229.161 505.595 229.057 505.905 228.714C506.352 228.198 506.833 227.716 507.556 227.819C506.971 226.374 510.652 226.271 511.615 225.927C512.5 225.593 513.425 225.373 514.366 225.274C515.364 225.205 515.433 224.895 516.258 224.311C516.327 225.171 516.534 224.999 517.153 225.136C517.29 224.895 517.462 224.861 517.6 225.067C517.749 225.205 517.947 225.279 518.15 225.274C518.494 225.308 518.873 225.239 519.217 225.239C520.042 225.239 520.902 225.171 521.728 225.205C521.933 225.173 522.132 225.103 522.312 224.999C522.381 225.136 522.45 225.274 522.553 225.446C523 225.515 523 226.031 523.551 225.446C523.723 226.203 524.17 225.79 524.651 225.996C525.098 226.168 525.167 226.478 525.546 226.684C525.663 226.786 525.809 226.848 525.964 226.861C526.119 226.873 526.274 226.835 526.406 226.753C526.681 226.959 526.99 227.166 527.266 227.372C527.838 227.642 528.423 227.883 529.02 228.094C529.398 228.266 529.777 228.404 530.155 228.576C530.155 229.023 530.361 229.195 530.774 229.057C531.087 229.267 531.356 229.535 531.565 229.849C532.292 230.955 533.122 231.992 534.042 232.944C538.273 237.519 539.614 243.848 537.963 249.799V249.799ZM539.305 230.674C537.344 228.06 534.592 225.067 532.116 223.416C530.843 222.591 529.089 221.077 527.541 220.63C527.162 220.527 526.784 220.527 526.44 220.424C526.165 220.355 526.027 220.045 525.683 220.011C525.477 219.977 525.442 220.458 525.202 220.424C524.72 220.321 524.411 219.839 524.067 219.529C523.31 220.802 522.931 218.669 521.831 220.114C520.524 218.085 517.462 218.532 515.398 218.635C514.779 218.669 514.504 218.876 513.954 219.048C513.597 219.152 513.223 219.187 512.853 219.151C511.517 219.109 510.189 219.367 508.966 219.908C506.833 220.94 504.838 222.522 502.809 223.76C500.532 225.151 498.479 226.879 496.721 228.886C490.426 236.143 488.74 246.738 493.762 255.165C501.743 268.546 522.312 269.956 533.973 260.875C542.985 253.858 546.425 240.237 539.305 230.674" fill="white"/>
<path fill-rule="evenodd" clip-rule="evenodd" d="M638.06 193.078C637.819 193.628 635.755 193.422 635.686 192.803C635.618 191.839 638.438 192.149 638.06 193.078ZM640.261 192.734C641.431 192.837 643.391 193.628 644.526 193.146C646.281 192.39 644.423 191.255 643.495 190.911C642.531 190.567 641.121 190.739 640.64 189.741C640.261 188.984 641.19 186.921 640.055 187.23C638.885 187.574 639.229 190.567 637.372 189.569C636.477 189.088 636.856 186.164 635.377 187.643C634.964 188.056 634.93 188.812 634.414 189.122C633.863 189.432 633.175 189.122 632.591 189.122C631.043 189.191 630.561 190.635 632.109 191.186C632.694 191.392 634.861 191.667 633.554 192.596C632.728 193.181 630.871 191.943 630.183 192.974C629.22 194.385 631.834 194.419 632.522 194.832C633.726 195.554 632.728 197.24 632.831 198.409C632.969 200.232 634.035 199.854 634.414 198.306C634.723 196.999 634.345 195.107 636.305 195.623C639.504 196.483 634.517 200.542 636.856 201.608C638.369 202.262 638.576 198.684 638.679 198.065C639.126 195.761 640.399 196.311 642.359 196.38C644.63 196.449 645.18 194.763 642.772 194.282C642.015 194.144 640.949 194.316 640.296 193.834C639.883 193.628 639.332 192.631 640.261 192.734" fill="white"/>
<path fill-rule="evenodd" clip-rule="evenodd" d="M556.297 267.479C554.439 266.826 551.378 266.963 550.931 269.337C550.843 269.836 550.876 270.349 551.025 270.833C551.175 271.318 551.437 271.76 551.791 272.123C552.582 272.949 553.854 273.052 553.786 271.573C553.751 270.575 552.788 269.681 554.474 269.474C555.54 269.337 557.088 270.128 557.122 271.298C557.225 273.912 552.719 274.118 551.034 273.671C547.732 272.777 548.626 269.302 550.896 267.72C551.481 267.307 553.167 266.688 553.235 265.828C553.339 264.693 551.928 264.934 551.275 265.072C546.253 266.172 545.152 274.6 550.415 276.182C552.788 276.904 556.159 276.148 557.604 274.015C558.945 271.951 558.98 268.408 556.297 267.479" fill="#00BD8E"/>
<path fill-rule="evenodd" clip-rule="evenodd" d="M489.669 207.869C488.087 208.625 486.539 209.382 484.957 210.139C484.441 209.038 483.546 205.977 482.239 205.598C480.106 204.979 481.448 208.281 481.826 209.038C482.136 209.657 482.824 210.62 482.652 211.377C482.411 212.375 481.001 212.719 480.278 213.235C478.455 214.507 478.455 217.19 481.104 216.055C482.583 215.402 484.441 213.647 485.61 215.642C486.126 216.571 487.399 221.8 488.706 218.394C489.531 216.296 485.61 214.095 487.536 212.306C488.155 211.721 488.878 211.687 489.497 211.343C490.976 210.517 490.151 209.072 489.669 207.869" fill="white"/>
<path fill-rule="evenodd" clip-rule="evenodd" d="M719.994 132.332C719.066 131.988 717.896 131.334 716.864 131.541C715.763 131.781 715.316 132.882 714.491 133.57C712.289 135.393 711.017 132.676 709.813 131.197C708.678 129.786 707.302 129.477 705.685 130.302C705.031 130.646 702.348 132.229 702.83 133.226C703.174 133.948 704.481 133.295 704.963 133.157C705.96 132.813 706.854 132.504 707.852 133.02C709.744 133.948 710.225 136.528 712.496 136.907C714.869 137.319 714.938 135.084 716.623 134.224C717.758 133.673 718.55 134.671 719.616 134.464C720.717 134.292 721.198 132.779 719.994 132.332" fill="#00BD8E"/>
<path fill-rule="evenodd" clip-rule="evenodd" d="M700.938 141.378C701.763 141.55 702.314 139.934 702.83 139.521C703.69 138.833 705.203 138.695 706.097 139.383C707.817 140.725 707.233 143.614 709.675 144.371C711.876 145.059 712.908 142.169 714.731 141.447C715.798 141.034 716.967 140.759 716.554 139.246C716.279 138.214 715.419 137.939 714.49 138.351C712.908 139.039 712.358 141.825 710.466 141.86C708.505 141.894 708.299 139.108 707.473 137.87C706.201 136.012 703.552 135.565 702.073 137.319C701.66 137.904 699.356 141.034 700.938 141.378" fill="white"/>
<path fill-rule="evenodd" clip-rule="evenodd" d="M662.344 109.457C663.513 110.249 665.818 110.214 666.884 109.251C667.985 108.253 666.506 108.082 665.646 108.116C664.958 108.15 663.685 108.494 664.064 107.29C664.408 106.258 666.3 106.774 666.472 105.639C665.061 105.399 663.479 105.467 662.413 106.602C661.656 107.428 661.243 108.735 662.344 109.457" fill="#17171B"/>
</svg>
