<svg width="1200" height="400" viewBox="0 0 1200 400" fill="none" xmlns="http://www.w3.org/2000/svg">
<rect width="1200" height="400" fill="#2459AF"/>
<path d="M742.995 217.572C740.583 239.167 738.192 260.738 735.779 282.333C735.084 288.473 734.41 294.614 733.714 300.777C733.671 301.208 734.323 301.208 734.367 300.777C736.779 279.183 739.17 257.611 741.582 236.017C742.278 229.876 742.952 223.736 743.647 217.572C743.691 217.142 743.039 217.142 742.995 217.572Z" fill="#E8E8E8"/>
<path d="M743.517 217.935C743.951 215.624 747.798 215.85 749.255 216.802C750.667 217.731 750.211 219.612 750.059 221.062C749.907 222.557 749.754 224.053 749.602 225.548C748.994 231.621 748.385 237.671 747.777 243.744C746.559 255.799 745.342 267.853 744.125 279.885C743.451 286.615 742.778 293.368 742.082 300.097C742.039 300.528 742.691 300.528 742.734 300.097C745.429 273.45 748.146 246.803 750.798 220.156C750.906 218.977 751.058 217.731 750.254 216.779C749.581 215.986 748.537 215.669 747.581 215.533C745.886 215.306 743.299 215.601 742.886 217.731C742.799 218.184 743.43 218.365 743.517 217.935Z" fill="#E8E8E8"/>
<path d="M740.909 235.156C736.605 234.227 735.997 240.436 734.519 243.132C732.432 246.893 728.672 249.499 724.543 250.043C724.217 250.088 724.065 250.61 724.456 250.7C725.847 251.063 726.108 252.83 726.238 254.076C726.368 255.368 726.39 256.682 726.281 257.974C726.021 260.784 725.173 263.48 723.804 265.905C723.586 266.29 724.152 266.63 724.369 266.244C724.912 265.293 726.216 265.429 726.934 266.109C727.759 266.902 727.759 268.238 727.651 269.303C727.433 271.162 726.76 272.884 727.216 274.764C727.281 275.059 727.651 275.082 727.803 274.855C730.085 271.524 733.258 269.009 736.953 267.627C737.344 267.491 737.17 266.834 736.779 266.97C732.91 268.42 729.629 271.026 727.238 274.515C727.433 274.538 727.629 274.56 727.825 274.606C727.173 271.864 729.476 268.533 727.672 266.018C726.76 264.726 724.651 264.432 723.782 265.927C723.978 266.041 724.152 266.154 724.347 266.267C725.955 263.389 726.89 260.149 726.977 256.818C727.042 254.734 727.129 250.7 724.608 250.066C724.586 250.292 724.543 250.519 724.521 250.723C728.02 250.27 731.259 248.457 733.562 245.67C734.671 244.333 735.519 242.792 736.105 241.115C736.844 238.963 737.779 235.179 740.735 235.813C741.148 235.904 741.322 235.247 740.909 235.156Z" fill="#E8E8E8"/>
<path d="M745.299 219.091C746.125 219.702 747.168 219.838 748.103 219.453C748.494 219.294 748.32 218.637 747.929 218.796C747.125 219.113 746.321 219.023 745.625 218.501C745.299 218.252 744.973 218.841 745.299 219.091Z" fill="#E8E8E8"/>
<path d="M745.625 220.473C746.038 221.198 746.929 221.561 747.69 221.243C748.081 221.085 747.907 220.428 747.516 220.586C747.016 220.79 746.451 220.631 746.19 220.133C745.973 219.748 745.43 220.088 745.625 220.473Z" fill="#E8E8E8"/>
<path d="M716.697 302.091C720.37 301.684 724.434 300.687 728.086 301.684C729.737 302.137 731.346 302.816 733.019 303.247C734.867 303.723 736.779 303.995 738.648 304.289C739.061 304.357 739.235 303.7 738.822 303.632C736.931 303.338 735.041 303.043 733.193 302.59C731.389 302.137 729.694 301.366 727.89 300.936C724.304 300.029 720.326 301.004 716.718 301.412C716.284 301.457 716.284 302.159 716.697 302.091Z" fill="#E8E8E8"/>
<path d="M736.388 301.865C739.17 302.091 741.8 301.208 744.473 300.573C747.472 299.871 750.515 299.622 753.58 299.825C753.993 299.848 753.993 299.168 753.58 299.146C750.732 298.964 747.907 299.146 745.125 299.735C742.234 300.347 739.409 301.434 736.41 301.185C735.953 301.14 735.953 301.819 736.388 301.865Z" fill="#E8E8E8"/>
<path d="M718.674 194.551C715.784 213.72 712.893 232.89 709.98 252.082C709.155 257.521 708.329 262.981 707.503 268.42C707.438 268.85 708.068 269.032 708.133 268.601C711.024 249.431 713.914 230.262 716.827 211.069C717.653 205.631 718.479 200.17 719.305 194.732C719.37 194.301 718.739 194.12 718.674 194.551Z" fill="#E8E8E8"/>
<path d="M712.524 195.616C709.198 214.763 705.982 233.932 702.874 253.102C702.004 258.518 701.135 263.911 700.265 269.326C700.2 269.757 700.831 269.938 700.896 269.507C703.96 250.315 707.112 231.145 710.372 211.976C711.285 206.583 712.219 201.19 713.154 195.774C713.241 195.366 712.611 195.185 712.524 195.616Z" fill="#E8E8E8"/>
<path d="M712.98 195.412C714.088 192.964 717.001 192.443 718.805 194.415C719.087 194.732 719.565 194.256 719.261 193.939C717.174 191.673 713.697 192.239 712.415 195.094C712.241 195.457 712.806 195.797 712.98 195.412Z" fill="#E8E8E8"/>
<path d="M710.198 205.586C709.437 208.758 706.242 210.072 703.569 211.001C701.113 211.862 698.57 212.791 696.983 215.057C696.766 215.374 697.179 215.646 697.44 215.533C699.309 214.695 698.787 218.026 698.592 218.841C698.309 219.929 697.896 220.971 697.375 221.946C697.266 222.127 697.353 222.399 697.57 222.444C698.766 222.716 698.135 224.597 697.874 225.367C697.44 226.636 696.983 227.882 696.549 229.151C695.658 231.666 694.788 234.182 693.897 236.697C693.81 236.969 694.071 237.173 694.288 237.105C694.701 237.014 694.984 236.81 695.288 236.516C695.571 236.244 695.875 235.904 696.244 235.768C696.657 235.632 697.114 235.722 697.548 235.745C698.787 235.79 700.026 235.632 701.178 235.179C703.395 234.318 705.242 232.641 706.329 230.443C706.525 230.058 705.96 229.718 705.764 230.103C704.612 232.437 702.547 234.159 700.113 234.816C698.874 235.156 697.722 234.907 696.505 235.043C695.44 235.156 695.092 236.244 694.114 236.448C694.245 236.583 694.375 236.719 694.506 236.855C695.679 233.502 696.875 230.148 698.048 226.795C698.483 225.548 699.896 222.263 697.744 221.764C697.809 221.923 697.874 222.104 697.94 222.263C698.809 220.654 699.787 218.411 699.505 216.507C699.331 215.284 698.287 214.4 697.114 214.921C697.266 215.08 697.418 215.238 697.57 215.397C700.852 210.752 709.328 212.179 710.872 205.767C710.915 205.336 710.306 205.155 710.198 205.586Z" fill="#E8E8E8"/>
<path d="M693.289 271.139C695.853 271.433 698.092 269.575 700.678 269.961C703.047 270.301 705.199 271.637 707.633 271.524C708.046 271.501 708.046 270.822 707.633 270.844C705.156 270.958 702.961 269.553 700.548 269.258C698.005 268.964 695.81 270.754 693.289 270.459C692.876 270.414 692.876 271.094 693.289 271.139Z" fill="#E8E8E8"/>
<path d="M706.851 227.973C706.438 228.879 705.938 229.718 705.33 230.511C705.069 230.851 705.525 231.327 705.786 230.987C706.438 230.171 706.982 229.287 707.395 228.313C707.59 227.928 707.025 227.588 706.851 227.973Z" fill="#E8E8E8"/>
<path d="M614.85 266.675C623.456 264.454 632.433 266.04 641.126 266.607C650.255 267.196 659.405 267.287 668.555 267.196C673.75 267.151 678.922 267.037 684.117 266.947C684.53 266.947 684.53 266.267 684.117 266.267C674.836 266.448 665.534 266.63 656.254 266.494C651.646 266.426 647.038 266.267 642.452 265.995C637.997 265.723 633.563 265.247 629.107 264.998C624.282 264.726 619.414 264.794 614.697 266.018C614.285 266.108 614.458 266.766 614.85 266.675Z" fill="#E8E8E8"/>
<path d="M686.508 278.48C693.18 279.5 699.744 277.642 706.373 277.144C713.263 276.622 720.152 277.687 726.868 279.341C727.281 279.432 727.455 278.798 727.042 278.684C720.565 277.098 713.893 276.033 707.199 276.418C700.352 276.804 693.55 278.888 686.681 277.846C686.269 277.755 686.095 278.412 686.508 278.48Z" fill="#E8E8E8"/>
<path d="M468.816 266.539C476.858 265.723 484.856 266.267 492.767 267.967C496.44 268.76 500.135 269.598 503.917 269.553C507.59 269.507 511.242 268.782 514.849 268.148C519.196 267.377 523.608 266.72 527.999 267.468C528.412 267.536 528.586 266.879 528.173 266.811C520.718 265.519 513.458 268.216 506.091 268.782C501.961 269.1 497.984 268.397 493.963 267.536C490.159 266.72 486.356 266.04 482.465 265.723C477.923 265.361 473.359 265.406 468.816 265.882C468.403 265.882 468.403 266.562 468.816 266.539Z" fill="#E8E8E8"/>
<path d="M444.952 211.998C451.472 210.253 458.014 208.509 464.687 207.512C471.337 206.515 477.966 206.492 484.617 207.376C497.419 209.098 510.112 212.338 522.587 215.782C547.125 222.603 571.163 231.236 595.68 238.147C609.525 242.044 623.522 245.398 637.714 247.505C638.127 247.573 638.301 246.916 637.888 246.848C612.415 243.041 587.725 235.315 563.165 227.497C538.649 219.68 514.002 211.522 488.616 207.285C481.314 206.061 474.033 205.608 466.643 206.537C459.231 207.466 451.972 209.392 444.756 211.318C444.365 211.454 444.539 212.111 444.952 211.998Z" fill="#E8E8E8"/>
<path d="M572.685 231.077C587.877 231.145 602.917 228.63 617.784 225.548C632.737 222.444 647.603 218.751 662.73 216.507C671.337 215.216 680.009 214.445 688.703 214.491C689.116 214.491 689.116 213.811 688.703 213.811C673.511 213.72 658.47 216.236 643.604 219.295C628.651 222.399 613.785 226.092 598.657 228.358C590.051 229.65 581.379 230.443 572.685 230.398C572.25 230.398 572.25 231.077 572.685 231.077Z" fill="#E8E8E8"/>
<path d="M721.956 218.139C726.76 219.861 731.411 222.014 735.845 224.597C736.214 224.801 736.54 224.234 736.171 224.008C731.672 221.402 726.977 219.227 722.108 217.482C721.739 217.346 721.565 218.003 721.956 218.139Z" fill="#E8E8E8"/>
<path d="M437.04 242.769C439.431 247.211 440.366 252.309 439.779 257.362C439.757 257.543 439.953 257.702 440.105 257.702C440.844 257.657 442.126 257.702 442.67 258.336C443.17 258.903 442.67 259.537 442.344 260.013C441.909 260.648 441.344 261.305 441.344 262.12C441.344 262.574 441.518 262.936 441.67 263.344C442.018 264.182 442.213 264.976 442.365 265.882C442.561 267.105 442.778 268.284 443.257 269.417C445.126 273.903 449.364 276.758 453.211 279.251C453.559 279.477 453.906 278.888 453.537 278.662C449.277 275.897 444.343 272.589 443.235 267.106C442.952 265.701 442.778 264.364 442.257 263.004C441.67 261.554 442.735 260.897 443.322 259.741C444.43 257.634 441.67 256.932 440.127 257.022C440.235 257.135 440.344 257.249 440.453 257.362C441.061 252.196 440.062 246.984 437.627 242.43C437.41 242.044 436.845 242.384 437.04 242.769Z" fill="#E8E8E8"/>
<path d="M438.171 242.815C440.388 244.174 442.626 245.556 444.843 246.916C445.734 247.46 447.451 248.344 447.06 249.635C446.843 250.36 446.06 250.655 446.082 251.493C446.082 251.72 446.278 251.878 446.495 251.81C448.234 251.335 448.951 253.465 449.625 254.666C450.19 255.663 451.016 256.365 451.798 257.181C453.363 258.835 454.624 260.761 455.58 262.845C457.558 267.151 458.123 272.113 457.101 276.758C457.015 277.189 457.645 277.37 457.732 276.94C458.84 271.864 458.145 266.494 455.841 261.871C454.667 259.492 453.081 257.543 451.255 255.685C449.799 254.212 449.016 250.406 446.321 251.131C446.452 251.244 446.604 251.357 446.734 251.448C446.712 250.927 447.43 250.542 447.669 250.134C447.821 249.839 447.886 249.567 447.864 249.227C447.799 248.344 447.06 247.596 446.408 247.075C445.235 246.146 443.844 245.443 442.561 244.673C441.214 243.834 439.844 242.996 438.497 242.158C438.127 241.999 437.801 242.588 438.171 242.815Z" fill="#E8E8E8"/>
<path d="M441.909 249.25C447.647 257.475 451.907 266.72 454.471 276.509C454.58 276.94 455.21 276.758 455.102 276.328C452.515 266.471 448.255 257.158 442.474 248.91C442.235 248.548 441.67 248.887 441.909 249.25Z" fill="#E8E8E8"/>
<path d="M450.885 254.552C451.189 246.916 457.036 241.025 457.579 233.411C457.362 233.434 457.145 233.479 456.949 233.502C457.536 235.405 458.123 237.309 458.731 239.212C459.101 240.368 461.318 245.557 458.818 245.489C458.492 245.489 458.383 245.942 458.644 246.123C459.622 246.78 459.427 248.14 459.492 249.205C459.535 250.111 459.731 250.882 460.079 251.72C461.209 254.326 461.448 256.864 461.079 259.673C460.731 262.279 460.035 264.817 459.427 267.355C458.775 270.119 458.123 272.906 457.471 275.671C457.362 276.101 457.992 276.283 458.101 275.852C458.818 272.793 459.557 269.734 460.274 266.652C460.926 263.911 461.665 261.169 461.883 258.336C461.97 257.09 461.948 255.821 461.731 254.575C461.491 253.17 460.818 252.015 460.405 250.678C459.883 249.001 460.666 246.622 458.992 245.511C458.927 245.715 458.883 245.942 458.818 246.146C461.1 246.214 460.753 243.449 460.296 241.976C459.405 239.099 458.492 236.198 457.601 233.321C457.492 232.958 456.992 233.026 456.971 233.411C456.449 241.002 450.581 246.894 450.277 254.552C450.211 254.983 450.863 254.983 450.885 254.552Z" fill="#E8E8E8"/>
<path d="M457.275 239.62C456.015 245.466 455.08 251.403 454.493 257.362C454.45 257.793 455.102 257.793 455.145 257.362C455.732 251.448 456.667 245.602 457.906 239.801C457.993 239.371 457.362 239.189 457.275 239.62Z" fill="#E8E8E8"/>
<path d="M445.865 265.338C448.212 265.791 450.298 266.947 451.972 268.714C452.276 269.032 452.733 268.556 452.428 268.239C450.69 266.38 448.494 265.157 446.038 264.681C445.625 264.613 445.452 265.27 445.865 265.338Z" fill="#E8E8E8"/>
<path d="M449.103 259.651C449.32 257.815 449.559 256.002 449.777 254.167C449.82 253.736 449.168 253.736 449.125 254.167C448.907 256.002 448.668 257.815 448.451 259.651C448.407 260.081 449.059 260.081 449.103 259.651Z" fill="#E8E8E8"/>
<path d="M453.885 246.463C454.558 247.392 455.015 248.389 455.254 249.522C455.341 249.952 455.971 249.771 455.884 249.341C455.623 248.162 455.145 247.075 454.45 246.123C454.189 245.783 453.624 246.1 453.885 246.463Z" fill="#E8E8E8"/>
<path d="M624.521 252.241C624.652 253.691 624.608 255.141 624.456 256.592C624.434 256.728 624.565 256.909 624.695 256.909C625.282 257 625.869 257.09 626.477 257.158C626.412 257 626.347 256.818 626.282 256.66C626.064 257.203 625.434 258.065 625.738 258.654C625.934 259.016 626.434 259.129 626.629 259.56C626.869 260.081 626.803 260.693 627.021 261.214C627.89 263.163 631.172 261.985 631.694 264.047C631.802 264.477 632.433 264.296 632.324 263.865C631.889 262.098 630.02 262.256 628.672 261.781C627.238 261.282 627.694 259.9 627.021 258.835C626.869 258.608 626.434 258.427 626.347 258.246C626.26 258.064 626.716 257.271 626.847 257C626.912 256.818 626.89 256.524 626.651 256.501C626.064 256.41 625.478 256.32 624.869 256.252C624.956 256.365 625.021 256.478 625.108 256.569C625.282 255.119 625.304 253.669 625.173 252.218C625.13 251.811 624.478 251.811 624.521 252.241Z" fill="#E8E8E8"/>
<path d="M625.238 253.057C627.086 253.94 629.107 254.666 630.802 255.844C632.976 257.362 633.28 259.605 633.258 262.166C633.258 262.596 633.91 262.596 633.91 262.166C633.91 259.855 633.758 257.543 631.976 255.934C630.194 254.303 627.694 253.487 625.564 252.468C625.195 252.286 624.869 252.875 625.238 253.057Z" fill="#E8E8E8"/>
<path d="M627.086 256.592C629.498 258.246 631.324 260.557 632.476 263.321C632.65 263.729 633.193 263.367 633.041 262.982C631.867 260.104 629.933 257.725 627.433 256.025C627.064 255.776 626.738 256.365 627.086 256.592Z" fill="#E8E8E8"/>
<path d="M633.389 257.022C633.215 256.32 632.91 255.436 633.258 254.756C633.541 254.212 634.084 254.099 634.54 253.782C635.214 253.329 635.366 252.264 635.692 251.584C635.91 251.131 636.323 250.247 636.757 249.975C637.388 249.567 637.909 250.292 638.083 250.927C638.257 251.561 638.148 252.173 637.931 252.785C637.822 253.079 637.648 253.329 637.67 253.669C637.692 253.918 637.757 254.054 637.888 254.28C638.257 254.869 638.648 255.255 638.713 256.025C638.8 257.339 638.148 258.472 637.366 259.447C636.171 260.942 634.714 262.166 634.193 264.114C634.084 264.545 634.714 264.726 634.823 264.296C635.605 261.441 638.779 260.058 639.3 257.09C639.496 256.002 639.213 255.255 638.779 254.303C638.366 253.374 638.605 253.079 638.757 252.218C638.844 251.742 638.822 251.221 638.692 250.745C638.518 250.043 637.909 248.978 637.083 249.001C636.257 249.001 635.54 250.474 635.214 251.085C634.888 251.697 634.714 252.672 634.214 253.102C633.823 253.442 633.367 253.487 632.997 253.872C632.171 254.801 632.454 256.116 632.736 257.203C632.889 257.611 633.519 257.453 633.389 257.022Z" fill="#E8E8E8"/>
<path d="M636.149 254.054C635.019 256.682 634.041 259.379 633.258 262.143C633.128 262.574 633.758 262.732 633.889 262.324C634.649 259.628 635.606 256.977 636.714 254.416C636.888 254.008 636.323 253.646 636.149 254.054Z" fill="#E8E8E8"/>
<path d="M464.274 262.755C470.598 260.557 477.488 260.761 483.683 263.367C484.074 263.525 484.248 262.868 483.856 262.71C477.553 260.081 470.533 259.877 464.1 262.098C463.709 262.256 463.883 262.914 464.274 262.755Z" fill="#E8E8E8"/>
<path d="M679.618 134.572C689.401 134.572 697.331 126.425 697.331 116.376C697.331 106.327 689.401 98.1809 679.618 98.1809C669.835 98.1809 661.904 106.327 661.904 116.376C661.904 126.425 669.835 134.572 679.618 134.572Z" stroke="#E8E8E8" stroke-width="2" stroke-miterlimit="10"/>
<path d="M468.533 153.107C467.164 150.796 470.424 148.915 472.272 149.074C474.554 149.277 476.597 150.66 478.901 150.796C482.661 151.045 485.812 148.394 489.094 146.944C491.115 146.06 493.137 145.743 495.267 146.309C497.353 146.876 499.244 147.986 501.309 148.598C503.113 149.141 504.873 149.164 506.699 148.666C508.742 148.122 510.633 147.102 512.698 146.581C514.915 146.015 516.849 146.4 518.74 147.669C520.326 148.734 521.783 150.138 523.63 150.728C525.586 151.362 528.998 150.592 529.955 153.016C530.954 155.531 527.325 156.528 525.673 156.755C523.108 157.072 520.5 157.14 517.936 156.914C515.436 156.71 513.002 156.075 510.502 156.007C508.199 155.939 506.243 156.596 504.265 157.797C502.178 159.089 500.2 160.199 497.723 160.471C492.441 161.06 487.268 158.976 482.009 159.044C479.053 159.066 475.967 159.882 473.054 159.021C470.62 158.296 468.164 155.917 468.751 153.084C468.838 152.654 468.207 152.472 468.12 152.903C467.707 154.942 468.577 156.8 470.077 158.115C471.924 159.723 474.228 160.131 476.575 160.086C479.422 160.018 482.183 159.61 485.03 159.905C487.681 160.199 490.311 160.766 492.963 161.083C495.397 161.355 497.94 161.4 500.309 160.652C502.83 159.837 504.786 157.865 507.307 157.095C510.176 156.211 513.198 157.05 516.088 157.435C519.001 157.82 521.956 157.865 524.869 157.571C526.673 157.389 528.781 157.095 530.085 155.622C531.194 154.353 530.911 152.586 529.629 151.566C527.694 150.025 525.021 150.796 522.891 149.731C520.935 148.756 519.392 147.034 517.349 146.173C512.85 144.27 508.785 148.258 504.352 148.416C501.874 148.507 499.614 147.261 497.375 146.354C495.31 145.539 493.224 145.063 491.05 145.584C488.746 146.128 486.725 147.442 484.639 148.53C482.009 149.889 479.553 150.569 476.662 149.64C474.38 148.915 471.902 147.646 469.598 149.006C468.099 149.889 466.947 151.725 467.968 153.447C468.186 153.832 468.751 153.492 468.533 153.107Z" fill="#E8E8E8"/>
<path d="M580.574 121.021C582.313 117.283 587.073 120.092 589.594 120.931C592.854 122.018 595.549 120.478 598.462 119.073C600.266 118.189 602.048 117.668 604.047 117.781C606.09 117.917 608.09 118.506 610.111 118.801C613.958 119.345 617.544 118.076 621.283 117.419C623.282 117.079 625.325 117.011 627.325 117.237C628.346 117.351 629.368 117.532 630.368 117.804C631.302 118.053 632.454 118.28 633.28 118.801C635.801 120.364 632.454 122.993 630.889 123.469C629.281 123.967 627.564 123.854 625.934 123.559C624.043 123.219 622.174 122.653 620.261 122.585C618.457 122.494 616.827 122.993 615.175 123.673C613.263 124.466 611.437 125.236 609.351 125.259C607.308 125.281 605.243 124.987 603.2 124.873C598.505 124.647 593.789 124.76 589.116 125.213C586.877 125.44 584.595 125.984 582.357 126.006C581.248 126.029 580.074 125.78 579.249 124.964C578.77 124.466 578.423 123.809 578.531 123.083C578.662 122.2 579.357 121.361 580.314 121.52C580.726 121.588 580.9 120.931 580.487 120.863C579.162 120.659 578.031 121.656 577.858 123.038C577.684 124.534 578.857 125.803 580.118 126.324C582.074 127.139 584.356 126.482 586.356 126.233C588.833 125.916 591.311 125.689 593.811 125.576C596.31 125.463 598.788 125.417 601.287 125.508C603.765 125.576 606.243 125.87 608.72 125.961C610.981 126.029 612.937 125.349 615.002 124.488C617.414 123.491 619.588 123.061 622.174 123.514C625.63 124.103 629.651 125.553 632.867 123.31C633.976 122.54 635.106 121.067 634.715 119.594C634.28 117.894 631.694 117.487 630.346 117.147C628.26 116.626 626.108 116.399 623.956 116.49C621.652 116.603 619.414 117.147 617.175 117.645C614.654 118.212 612.198 118.506 609.633 118.076C607.46 117.713 605.286 117.056 603.048 117.124C598.397 117.237 594.702 121.882 589.92 120.387C587.877 119.753 585.986 118.484 583.769 118.529C582.226 118.574 580.683 119.209 579.987 120.727C579.835 121.067 580.4 121.407 580.574 121.021Z" fill="#E8E8E8"/>
<path d="M677.096 155.078C682.595 151.883 689.094 153.492 695.071 153.356C698.048 153.288 700.7 152.586 703.525 151.634C705.134 151.09 706.72 150.705 708.416 150.705C710.089 150.682 711.741 150.909 713.415 151C714.827 151.067 716.262 151.067 717.631 150.705C718.305 150.546 718.935 150.252 719.587 150.093C721.065 149.753 721.76 150.886 721.804 152.291C721.891 155.758 718.544 157.684 715.697 158.205C712.263 158.817 708.698 158.364 705.242 158.25C701.96 158.16 698.766 158.477 695.527 159.089C691.789 159.791 688.029 160.675 684.204 160.584C682.4 160.539 680.596 160.29 678.879 159.701C678.031 159.406 677.14 159.044 676.379 158.522C675.575 157.979 674.401 156.098 676.053 155.735C676.466 155.645 676.292 154.988 675.879 155.078C674.945 155.282 674.445 156.279 674.619 157.253C674.879 158.613 676.336 159.361 677.444 159.859C680.617 161.309 684.16 161.491 687.572 161.151C691.615 160.766 695.527 159.633 699.57 159.157C703.743 158.658 707.916 159.202 712.11 159.179C715.24 159.157 718.913 158.817 721.087 156.143C721.913 155.123 722.478 153.832 722.499 152.472C722.521 151.385 722.195 149.957 721.13 149.504C719.761 148.915 718.109 150.003 716.762 150.229C714.784 150.546 712.741 150.274 710.763 150.138C709.002 150.003 707.242 149.98 705.503 150.388C703.569 150.841 701.743 151.679 699.809 152.155C692.245 154.013 683.921 150.388 676.814 154.534C676.401 154.716 676.727 155.305 677.096 155.078Z" fill="#E8E8E8"/>
<path d="M451.037 293.458C459.101 291.056 467.273 288.677 475.663 287.952C479.879 287.59 484.139 287.658 488.334 288.405C492.355 289.13 496.136 290.558 499.831 292.303C503.895 294.183 507.873 296.291 512.111 297.673C512.502 297.809 512.676 297.152 512.285 297.016C504.417 294.433 497.44 289.538 489.29 287.907C481.205 286.275 472.902 287.227 464.926 288.994C460.188 290.059 455.515 291.419 450.864 292.801C450.472 292.914 450.646 293.572 451.037 293.458Z" fill="#E8E8E8"/>
<path d="M501.027 291.804C507.308 291.011 513.546 290.422 519.848 291.192C526.064 291.963 532.128 293.821 537.779 296.63C538.149 296.812 538.497 296.223 538.105 296.041C532.585 293.299 526.695 291.441 520.631 290.626C514.067 289.719 507.569 290.308 501.027 291.124C500.614 291.17 500.614 291.849 501.027 291.804Z" fill="#E8E8E8"/>
<path d="M528.716 296.427C531.846 297.378 534.954 298.375 538.084 299.259C540.779 300.007 543.582 300.483 546.299 299.508C546.69 299.372 546.517 298.715 546.125 298.851C543.278 299.893 540.322 299.214 537.497 298.375C534.628 297.537 531.759 296.63 528.89 295.769C528.499 295.656 528.325 296.313 528.716 296.427Z" fill="#E8E8E8"/>
<path d="M502.2 297.922C509.003 298.262 515.393 302.771 522.305 301.14C522.718 301.049 522.544 300.392 522.131 300.483C515.328 302.091 508.916 297.582 502.2 297.242C501.787 297.22 501.787 297.899 502.2 297.922Z" fill="#E8E8E8"/>
<path d="M441.301 299.372C446.365 297.877 451.429 296.381 456.493 294.886C456.906 294.772 456.732 294.115 456.319 294.229C451.255 295.724 446.191 297.22 441.127 298.715C440.714 298.828 440.888 299.486 441.301 299.372Z" fill="#E8E8E8"/>
<path d="M454.623 298.081C459.253 296.789 463.947 295.701 468.664 294.84C469.077 294.772 468.903 294.115 468.49 294.183C463.774 295.067 459.079 296.132 454.45 297.424C454.037 297.56 454.21 298.194 454.623 298.081Z" fill="#E8E8E8"/>
<path d="M553.211 278.798C570.033 278.798 586.856 278.798 603.7 278.798C604.961 278.798 604.961 276.758 603.7 276.758C586.878 276.758 570.055 276.758 553.211 276.758C551.95 276.758 551.95 278.798 553.211 278.798Z" fill="#161616"/>
<path d="M610.133 279.183C613.589 279.183 617.045 279.183 620.522 279.183C621.783 279.183 621.783 277.144 620.522 277.144C617.067 277.144 613.611 277.144 610.133 277.144C608.873 277.144 608.873 279.183 610.133 279.183Z" fill="#161616"/>
<path d="M627.303 278.798C628.846 278.798 630.411 278.798 631.954 278.798C633.215 278.798 633.215 276.758 631.954 276.758C630.411 276.758 628.846 276.758 627.303 276.758C626.043 276.758 626.043 278.798 627.303 278.798Z" fill="#161616"/>
<path d="M624.804 295.588C640.496 295.588 656.21 295.588 671.902 295.588C676.358 295.588 680.835 295.588 685.291 295.588C686.551 295.588 686.551 293.549 685.291 293.549C669.598 293.549 653.884 293.549 638.192 293.549C633.737 293.549 629.259 293.549 624.804 293.549C623.543 293.549 623.543 295.588 624.804 295.588Z" fill="#161616"/>
<path d="M690.311 295.226C693.658 295.226 696.984 295.226 700.331 295.226C701.591 295.226 701.591 293.186 700.331 293.186C696.984 293.186 693.658 293.186 690.311 293.186C689.051 293.186 689.051 295.226 690.311 295.226Z" fill="#161616"/>
<path d="M705.352 295.588C706.656 295.588 707.982 295.588 709.286 295.588C710.546 295.588 710.546 293.549 709.286 293.549C707.982 293.549 706.656 293.549 705.352 293.549C704.091 293.549 704.091 295.588 705.352 295.588Z" fill="#161616"/>
<path d="M483.422 103.166C484.509 103.778 485.508 104.526 486.421 105.409C486.725 105.704 487.182 105.228 486.878 104.933C485.943 104.004 484.9 103.234 483.748 102.6C483.378 102.373 483.052 102.962 483.422 103.166Z" fill="#161616"/>
<path d="M487.812 101.557C487.399 100.583 486.986 99.6311 486.574 98.6568C486.4 98.2489 485.835 98.6115 486.008 98.9967C486.421 99.971 486.834 100.923 487.247 101.897C487.421 102.305 487.986 101.965 487.812 101.557Z" fill="#161616"/>
<path d="M490.616 99.9937C490.225 98.7927 490.094 97.5918 490.268 96.3229C490.312 95.8924 489.66 95.8924 489.616 96.3229C489.464 97.6371 489.573 98.9287 490.008 100.175C490.116 100.583 490.746 100.402 490.616 99.9937Z" fill="#161616"/>
<path d="M565.056 113.023C565.86 113.408 566.751 113.431 567.555 112.955C568.664 112.298 568.707 111.187 568.968 110.009C569.055 109.578 569.186 109.057 569.512 108.763C570.185 108.151 570.424 108.581 570.968 108.74C571.316 108.831 571.642 108.853 571.968 108.695C572.598 108.4 574.163 105.296 574.88 106.316C575.141 106.655 575.706 106.316 575.445 105.976C574.923 105.273 574.184 105.341 573.511 105.817C573.054 106.134 572.837 106.587 572.554 107.041C572.402 107.313 572.207 107.675 571.968 107.879C571.294 108.4 571.033 107.947 570.446 107.834C569.533 107.652 568.838 108.287 568.512 109.148C568.229 109.85 568.294 110.643 568.034 111.369C567.599 112.479 566.425 112.977 565.382 112.456C564.991 112.252 564.665 112.841 565.056 113.023Z" fill="#161616"/>
<path d="M568.316 115.198C569.033 115.742 569.859 115.379 570.403 114.745C571.359 113.567 570.685 111.573 572.185 110.825C573.293 110.258 574.576 110.508 575.641 109.714C576.575 109.012 577.075 107.924 577.162 106.746C577.184 106.316 576.532 106.316 576.51 106.746C576.423 108.128 575.554 109.261 574.271 109.646C573.445 109.896 572.533 109.85 571.772 110.258C571.142 110.598 570.772 111.187 570.598 111.89C570.468 112.366 570.446 112.887 570.337 113.363C570.164 114.042 569.512 115.266 568.664 114.609C568.316 114.36 567.99 114.949 568.316 115.198Z" fill="#161616"/>
<path d="M570.859 253.215C572.945 255.074 575.075 256.932 577.249 258.79C579.335 260.58 581.422 262.347 583.487 264.047C584.421 267.038 584.008 268.828 583.421 269.893C582.4 271.773 580.748 271.796 578.031 274.515C576.64 275.897 575.032 277.529 575.336 278.48C575.706 279.636 578.966 280.18 590.55 278.141C592.941 272.974 595.332 267.808 597.723 262.642C592.485 256.977 587.225 251.289 581.987 245.625C578.27 248.162 574.575 250.7 570.859 253.215Z" fill="#191919"/>
<path d="M547.343 199.626C544.973 205.586 547.429 212.202 551.298 222.558C552.907 226.863 554.58 230.103 555.449 231.757C557.166 235.043 558.166 236.47 565.186 246.78C570.772 254.983 571.316 255.821 572.946 256.365C578.553 258.246 587.638 253.442 587.725 247.165C587.79 242.77 583.4 239.597 582.683 239.076C580.009 235.156 578.336 231.576 577.271 228.925C575.423 224.28 573.445 219.34 573.837 213.131C574.184 207.784 575.901 207.466 575.815 202.799C575.793 202.074 575.532 193.35 570.403 189.838C563.708 185.283 550.777 191.016 547.343 199.626Z" fill="white" stroke="#191919" stroke-width="2" stroke-miterlimit="10"/>
<path opacity="0.47" d="M575.532 200.646C575.88 201.643 575.597 203.524 575.032 207.262C574.402 211.432 573.945 211.681 573.728 213.879C573.359 217.55 574.25 220.292 575.945 225.526C576.401 226.908 577.358 229.106 579.27 233.502C580.596 236.538 581.248 237.898 582.704 239.167C583.878 240.186 584.356 240.141 585.313 241.161C586.682 242.634 587.595 244.831 587.638 246.826C587.725 251.335 583.487 254.96 579.792 256.161C576.532 257.226 573.641 256.41 572.337 255.957C569.772 252.785 566.23 248.208 562.361 242.407C557.34 234.884 554.537 230.715 552.385 224.869C549.777 217.799 545.626 206.537 550.972 200.08C557.297 192.489 573.706 195.525 575.532 200.646Z" fill="#6C6D6D"/>
<path opacity="0.37" d="M561.231 210.412C563.904 212.61 563.491 216.394 564.056 221.968C564.708 228.381 566.36 234.363 567.99 238.147C572.663 249.023 581.813 252.785 580.487 255.481C579.748 256.977 576.184 257.339 573.641 256.524C572.707 256.229 571.989 255.799 571.533 255.481C567.512 250.043 564.404 245.398 562.274 242.135C551.32 225.412 550.168 219.952 551.103 215.465C551.363 214.219 552.037 210.933 554.624 209.596C556.688 208.486 559.47 208.962 561.231 210.412Z" fill="#6C6D6D"/>
<path opacity="0.47" d="M568.251 210.163C566.73 213.562 565.056 215.873 563.861 217.346C560.883 220.971 558.601 221.968 556.971 225.413C555.841 227.837 555.645 230.148 555.624 231.599C554.95 230.488 554.276 229.287 553.624 228.018C552.168 225.141 551.081 222.422 550.277 219.952C556.276 216.689 562.253 213.426 568.251 210.163Z" fill="#6C6D6D"/>
<path d="M528.781 251.289C530.868 253.147 532.998 255.005 535.171 256.864C537.258 258.654 539.344 260.421 541.409 262.121C540.713 262.936 539.627 264.182 538.301 265.678C535.845 268.42 535.193 268.986 534.432 270.323C534.063 270.98 532.02 274.628 533.106 276.056C534.541 277.937 541.126 275.331 545.43 272.498C548.06 270.754 552.276 267.309 555.667 260.738C550.429 255.073 545.169 249.386 539.931 243.721C536.193 246.236 532.476 248.774 528.781 251.289Z" fill="#191919"/>
<path d="M548.255 197.292C544.778 199.536 541.974 201.756 532.389 210.888C516.849 225.662 515.371 228.222 514.915 231.734C514.154 237.558 516.458 243.925 520.675 247.958C521.718 248.955 525.956 252.989 531.803 252.445C536.693 251.992 543.213 248.298 542.93 243.2C542.757 239.869 539.714 236.765 535.628 235.292C544.017 227.316 551.689 222.331 557.362 219.181C564.469 215.239 568.99 213.856 571.033 208.894C573.554 202.753 571.316 193.576 566.099 190.971C561.535 188.705 556.188 192.171 548.255 197.292Z" fill="white" stroke="#191919" stroke-width="2" stroke-miterlimit="10"/>
<path opacity="0.42" d="M559.014 194.777C559.014 198.969 558.362 204.589 555.232 209.846C548.06 221.81 534.889 221.085 531.542 231.87C531.15 233.162 529.738 239.121 532.563 242.43C534.128 244.242 536.562 244.764 537.236 247.211C537.627 248.616 537.236 249.975 536.845 250.927C539.866 250.224 542.191 247.8 542.691 244.831C543.474 240.141 539.149 237.105 538.823 236.878C537.453 235.949 536.106 235.654 535.258 235.541C544.713 226.228 553.211 220.949 559.514 217.799C563.861 215.624 569.12 213.448 571.185 208.101C572.924 203.569 571.62 198.743 570.294 195.525C566.534 195.253 562.774 195.026 559.014 194.777Z" fill="#6C6D6D"/>
<path opacity="0.5" d="M563.274 200.669C563.643 202.776 563.904 205.948 562.687 209.234C560.644 214.74 555.776 216.893 550.516 220.586C546.712 223.237 541.496 227.565 536.062 234.522C537.671 233.162 539.909 231.327 542.648 229.242C547.777 225.345 550.625 223.192 554.776 220.881C560.948 217.482 564.035 215.782 564.209 215.692C564.904 215.374 566.382 214.717 567.882 213.267C568.316 212.837 569.577 211.568 570.577 209.347C570.946 208.509 573.989 201.915 571.359 199.536C569.751 198.04 566.338 198.516 563.274 200.669Z" fill="#6C6D6D"/>
<path d="M552.602 138.243C555.188 137.699 559.122 137.178 563.86 137.676C567.968 138.107 575.51 138.877 581.4 144.791C582.965 146.377 585.747 149.232 586.747 153.832C587.986 159.542 585.79 164.437 584.899 166.159C581.291 173.138 575.64 173.115 573.076 179.641C572.837 180.253 572.141 182.111 570.489 183.878C568.685 185.782 566.164 187.096 565.686 186.575C565.469 186.325 565.577 185.623 566.968 183.493C566.621 183.72 565.186 184.671 563.469 184.263C561.1 183.72 559.514 180.955 559.97 179.074C560.079 178.599 560.383 177.874 564.034 175.608C565.708 174.565 566.556 174.044 568.099 173.296C572.076 171.37 579.292 164.799 578.249 158.659C577.64 155.124 574.423 152.473 571.793 151.34C566.556 149.119 563.143 152.744 559.057 150.954C556.666 149.889 553.884 146.921 552.602 138.243Z" fill="white" stroke="#191919" stroke-width="2" stroke-miterlimit="10"/>
<path opacity="0.29" d="M554.732 141.936C556.797 141.936 559.883 142.117 563.513 142.933C568.468 144.066 572.858 145.516 576.945 149.368C580.379 152.609 581.009 157.208 581.204 158.636C581.378 159.95 582.009 164.459 579.661 168.606C578.162 171.234 576.662 171.642 572.033 175.653C569.685 177.692 568.816 179.8 565.947 181.499C563.078 183.198 561.948 182.7 561.6 182.496C560.035 181.635 559.97 179.12 559.948 178.78C560.47 178.259 561.296 177.488 562.361 176.673C565.882 173.953 567.468 174.089 570.468 172.141C571.641 171.37 575.184 168.991 577.14 164.595C577.705 163.326 578.466 161.514 578.205 159.157C577.923 156.665 576.64 155.01 576.184 154.421C573.445 150.977 569.207 150.479 568.359 150.388C563.86 149.957 561.948 152.405 558.883 150.796C557.536 150.093 556.753 149.006 556.362 148.485C554.471 145.811 554.645 142.797 554.732 141.936Z" fill="#6C6D6D"/>
<path opacity="0.24" d="M557.449 149.391C557.557 148.077 562.535 147.397 565.947 147.374C569.359 147.351 573.206 147.329 576.292 150.184C578.075 151.815 578.77 153.651 578.901 154.013C580.857 159.27 577.379 164.414 576.966 164.98C577.423 164.255 578.901 161.717 578.314 158.545C577.727 155.26 575.336 153.469 574.162 152.608C573.467 152.087 571.141 150.41 567.881 150.297C564.165 150.184 562.535 152.223 559.579 151.113C559.448 151.045 557.384 150.252 557.449 149.391Z" fill="#6C6D6D"/>
<path d="M495.267 122.494C494.506 121.18 493.593 119.277 492.919 116.852C490.92 109.511 492.745 102.124 493.571 102.146C493.897 102.146 494.31 103.302 494.723 108.128C495.18 106.474 495.419 105.115 495.571 104.14C495.723 103.121 495.81 102.282 496.375 101.421C496.81 100.741 497.375 100.311 497.788 100.062C498.157 99.7217 498.527 99.3592 498.896 99.0193C499.288 99.3592 499.614 99.6991 499.896 100.062C502.852 103.823 501.265 109.578 500.831 111.006C501.331 110.666 501.961 110.145 502.526 109.375C503.547 108.015 503.591 106.905 503.83 106.927C504.286 106.973 504.852 110.938 503.504 114.903C503.091 116.127 502.591 117.079 502.2 117.736C502.113 120.002 502.07 127.887 507.46 135.138C507.96 135.795 515.588 145.788 525.825 145.289C532.498 144.972 534.78 140.599 539.214 142.389C542.648 143.771 545.147 147.941 545.234 152.268C545.343 156.778 542.821 160.97 538.844 162.918C535.997 163.168 531.824 163.258 526.912 162.442C521.326 161.513 509.698 159.565 503.069 150.161C500.157 146.015 498.809 141.279 498.266 138.832C498.179 138.424 498.114 138.129 498.005 137.585C497.331 134.3 496.419 129.428 495.267 122.494Z" fill="white" stroke="#191919" stroke-width="2" stroke-miterlimit="10"/>
<path d="M497.614 101.806C498.027 101.806 498.027 101.127 497.614 101.127C497.201 101.127 497.201 101.806 497.614 101.806Z" fill="#161616"/>
<path d="M497.679 100.152C497.049 102.735 496.701 105.341 496.679 107.992C496.679 108.31 497.157 108.31 497.179 107.992C497.201 105.387 497.527 102.803 498.157 100.288C498.222 99.971 497.744 99.835 497.679 100.152Z" fill="#161616"/>
<path d="M499.592 100.152C499.114 102.622 498.831 105.115 498.81 107.63C498.81 107.947 499.288 107.947 499.309 107.63C499.353 105.16 499.592 102.713 500.07 100.288C500.114 99.9483 499.657 99.8123 499.592 100.152Z" fill="#161616"/>
<path opacity="0.24" d="M492.962 104.276C493.397 104.299 493.158 108.831 494.114 114.609C495.244 121.475 497.635 126.324 499.004 129.904C501.439 136.294 506.177 148.688 517 154.195C528.042 159.837 539.93 155.441 543.625 153.9C543.734 154.602 543.886 156.438 542.995 158.432C542.169 160.29 540.887 161.332 540.3 161.717C539.278 162.148 537.757 162.692 535.844 162.986C532.867 163.44 530.519 163.009 528.498 162.601C521.652 161.196 518.218 160.516 515.023 159.021C511.697 157.48 507.437 155.486 503.873 151.068C500.395 146.785 499.33 142.389 497.461 134.594C496.288 129.723 495.723 125.599 495.418 122.676C494.179 120.523 492.593 117.101 492.158 112.683C491.723 108.378 492.549 104.276 492.962 104.276Z" fill="#6C6D6D"/>
<path opacity="0.4" d="M496.245 101.557C496.505 101.308 496.766 101.059 497.049 100.809C495.723 106.157 495.006 108.831 494.897 108.808C494.788 108.763 495.223 106.361 496.245 101.557Z" fill="#6C6D6D"/>
<path opacity="0.44" d="M516.197 159.587C518.935 160.358 522.826 161.106 527.499 160.834C535.019 160.403 540.67 157.571 543.669 155.758C543.582 156.483 543.278 158.432 541.778 160.222C540.061 162.284 537.909 162.782 537.236 162.896C535.149 162.964 532.889 162.918 530.476 162.714C524.847 162.216 520.022 160.947 516.197 159.587Z" fill="#6C6D6D"/>
<path d="M549.255 169.263C555.797 165.502 566.273 160.041 579.792 155.509C600.765 148.484 612.698 149.187 633.236 144.655C644.604 142.163 661.143 137.495 680.77 128.023C680.813 130.47 680.922 132.986 681.117 135.614C681.53 141.392 682.291 146.717 683.204 151.543C681.248 155.033 679.27 158.545 677.314 162.035C677.901 168.062 678.466 174.089 679.053 180.117C667.294 180.389 655.253 180.842 642.952 181.567C612.654 183.334 583.921 186.348 556.884 190.245C554.341 183.266 551.798 176.265 549.255 169.263Z" fill="#1D7E66"/>
<g opacity="0.28">
<g opacity="0.28">
<path opacity="0.28" d="M574.358 160.199C591.094 155.146 608.416 152.427 625.825 152.087C626.238 152.087 626.238 151.407 625.825 151.407C608.351 151.747 590.963 154.489 574.184 159.542C573.771 159.655 573.945 160.313 574.358 160.199Z" fill="#266051"/>
</g>
</g>
<g opacity="0.28">
<g opacity="0.28">
<path opacity="0.28" d="M620 155.894C635.323 151.861 651.928 155.667 666.664 148.892C667.055 148.711 666.707 148.122 666.338 148.303C651.667 155.056 635.062 151.226 619.826 155.237C619.414 155.35 619.587 156.007 620 155.894Z" fill="#266051"/>
</g>
</g>
<g opacity="0.28">
<g opacity="0.28">
<path opacity="0.28" d="M650.95 160.335C658.427 158.613 666.142 158.273 673.749 159.384C674.162 159.452 674.336 158.794 673.923 158.726C666.208 157.594 658.383 157.911 650.776 159.678C650.363 159.769 650.537 160.426 650.95 160.335Z" fill="#266051"/>
</g>
</g>
<path d="M538.065 142.288C539.13 142.991 540.912 144.35 542.281 146.684C544.216 149.97 545.715 155.861 542.651 159.917C540.999 162.092 538.63 162.976 537 163.316C538.13 167.077 539.195 171.201 540.043 175.643C542.064 186.066 542.499 195.469 542.26 203.287C546.867 204.125 553.149 204.76 560.56 204.012C567.211 203.332 572.731 201.746 576.861 200.228C575.818 181.036 571.492 166.783 567.971 157.742C566.972 155.181 559.43 136.125 552.823 137.031C550.91 137.281 549.888 139.093 545.411 140.747C542.434 141.835 539.804 142.175 538.065 142.288Z" fill="#F7A561" stroke="#191919" stroke-width="2" stroke-miterlimit="10"/>
<path opacity="0.36" d="M548 140.021C550.13 142.537 553.108 146.457 555.759 151.781C562.627 165.513 562.345 178.429 562.019 183.323C561.454 191.752 559.237 198.799 556.911 204.056C560.041 203.762 563.453 203.286 567.105 202.561C570.647 201.858 573.907 201.02 576.842 200.136C576.646 196.669 576.211 191.299 575.211 184.819C572.842 169.456 568.93 158.964 565.192 151.306C558.998 138.684 554.564 136.532 553.086 137.076C552.847 137.166 551.76 137.665 550.543 138.367C549.456 138.979 548.609 139.568 548 140.021Z" fill="#6C6D6D"/>
<path opacity="0.49" d="M562.495 147.296C563.386 154.615 564.364 160.597 565.103 164.721C567.711 179.336 569.819 185.137 567.754 193.204C566.624 197.645 564.668 200.998 563.212 203.128C564.951 203.015 566.928 202.788 569.058 202.335C572.079 201.701 574.666 200.772 576.752 199.843C576.318 185.726 573.557 169.094 565.342 152.598C564.429 150.763 563.473 148.995 562.495 147.296Z" fill="#6C6D6D"/>
<path d="M538.323 169.943C537.975 173.5 537.823 177.579 538.04 182.065C538.388 188.999 539.54 194.936 540.801 199.672C543.257 199.558 546.908 199.468 551.32 199.672C560.796 200.102 565.513 201.484 569.881 201.983C583.052 203.524 587.051 196.477 601.744 194.188C608.177 193.191 617.979 192.897 630.824 197.36C639.974 202.549 649.103 207.761 658.253 212.95C659.101 211.115 661.339 206.945 666.012 204C672.619 199.808 679.357 201.054 680.965 201.394C679.661 197.859 677.597 190.767 679.314 182.337C679.922 179.369 680.857 176.854 681.813 174.837C676.466 172.503 668.925 169.558 659.644 167.042C643.539 162.646 631.02 161.921 618.371 161.264C594.267 159.995 576.184 162.329 571.272 162.986C557.927 164.844 546.734 167.541 538.323 169.943Z" fill="#00BD8E"/>
<path opacity="0.25" d="M602.222 180.049C602.222 180.117 620.413 182.723 638.583 185.6C645.734 186.733 653.08 187.957 661.578 192.511C667.077 195.457 671.163 198.788 673.88 201.281C674.836 200.986 676.227 200.669 677.922 200.782C678.966 200.85 679.857 201.031 680.574 201.258C679.879 199.196 679.183 196.635 678.748 193.622C678.335 190.789 678.27 188.274 678.335 186.189C617.588 181.182 602.222 179.981 602.222 180.049Z" fill="#0BA17D"/>
<path opacity="0.28" d="M538.127 179.097C539.584 181.522 541.17 182.836 542.3 183.561C546.104 186.031 549.56 185.102 558.949 186.325C560.796 186.575 562.296 186.824 563.231 186.982C555.124 187.821 546.995 188.659 538.888 189.475C538.693 187.979 538.519 186.393 538.388 184.739C538.236 182.768 538.149 180.864 538.127 179.097Z" fill="#0BA17D"/>
<g opacity="0.28">
<g opacity="0.28">
<path opacity="0.28" d="M566.708 187.3C573.163 187.821 579.662 187.254 585.943 185.6C586.356 185.487 586.182 184.83 585.769 184.943C579.531 186.575 573.12 187.141 566.708 186.62C566.295 186.575 566.295 187.254 566.708 187.3Z" fill="#0BA17D"/>
</g>
</g>
<g opacity="0.28">
<g opacity="0.28">
<path opacity="0.28" d="M592.029 185.736C599.266 185.215 606.525 185.555 613.698 186.756C614.111 186.824 614.285 186.167 613.872 186.099C606.656 184.875 599.331 184.535 592.029 185.057C591.594 185.102 591.594 185.782 592.029 185.736Z" fill="#0BA17D"/>
</g>
</g>
<g opacity="0.28">
<g opacity="0.28">
<path opacity="0.28" d="M584.704 176.265C598.614 173.749 612.915 174.203 626.651 177.602C627.064 177.692 627.238 177.058 626.825 176.944C612.98 173.523 598.549 173.092 584.53 175.608C584.117 175.676 584.291 176.333 584.704 176.265Z" fill="#0BA17D"/>
</g>
</g>
<g opacity="0.28">
<g opacity="0.28">
<path opacity="0.28" d="M642.539 207.806C647.494 210.072 651.95 213.358 655.623 217.482C655.906 217.799 656.362 217.323 656.079 217.006C652.363 212.837 647.864 209.506 642.865 207.217C642.474 207.036 642.148 207.625 642.539 207.806Z" fill="#0BA17D"/>
</g>
</g>
<path d="M547.495 120.364C549.103 125.893 549.69 129.088 551.972 134.141C553.037 136.498 554.058 138.378 554.776 139.602C552.45 140.735 548.668 142.185 543.821 142.366C540.953 142.48 538.497 142.095 536.606 141.664C536.801 140.146 536.91 138.265 536.758 136.112C536.562 133.416 536.019 131.15 535.475 129.473C532.889 129.133 530.303 128.794 527.716 128.454C527.216 127.298 526.695 126.142 526.195 124.964C525.478 124.941 524.782 124.919 524.065 124.896C524.608 123.31 525.412 120.795 526.347 117.691C528.086 111.844 528.064 111.006 528.999 109.692C531.585 106.089 537.432 103.8 541.235 105.726C543.539 106.882 544.886 111.391 547.495 120.364Z" fill="white" stroke="#161616" stroke-width="2" stroke-miterlimit="10"/>
<path d="M524.152 125.259C525.478 125.281 526.804 125.191 528.108 124.987C528.521 124.919 528.347 124.262 527.934 124.33C526.673 124.534 525.413 124.602 524.152 124.579C523.739 124.579 523.739 125.259 524.152 125.259Z" fill="#161616"/>
<path d="M523.609 114.767C524.391 114.337 525.413 114.541 525.956 115.311C526.195 115.651 526.76 115.311 526.521 114.971C525.782 113.906 524.413 113.567 523.283 114.178C522.913 114.382 523.239 114.971 523.609 114.767Z" fill="#161616"/>
<path d="M524.5 118.076C524.434 117.826 524.434 117.577 524.5 117.328C524.543 117.215 524.587 117.079 524.652 116.988C524.695 116.92 524.739 116.875 524.782 116.829C524.739 116.829 524.717 116.852 524.717 116.92C524.717 117.396 524.521 117.804 524.174 118.121C524.369 118.212 524.543 118.28 524.739 118.37C524.739 117.94 524.826 117.532 525.021 117.147C525.217 116.762 524.652 116.422 524.456 116.807C524.217 117.305 524.087 117.826 524.087 118.393C524.087 118.71 524.434 118.823 524.652 118.642C525 118.325 525.26 117.894 525.347 117.419C525.413 117.011 525.456 116.399 525.021 116.218C524.608 116.059 524.217 116.444 524.043 116.784C523.804 117.26 523.761 117.781 523.891 118.302C523.956 118.688 524.587 118.506 524.5 118.076Z" fill="#161616"/>
<path d="M529.933 115.742C530.933 115.425 531.998 115.764 532.607 116.671C532.846 117.033 533.411 116.693 533.172 116.331C532.411 115.198 531.042 114.677 529.76 115.085C529.368 115.198 529.542 115.855 529.933 115.742Z" fill="#161616"/>
<path d="M530.064 118.869C530.042 118.552 530.086 118.234 530.259 117.962C530.303 117.894 530.346 117.826 530.412 117.759C530.39 117.668 530.39 117.668 530.39 117.759C530.368 117.894 530.368 118.053 530.346 118.212C530.325 118.348 530.281 118.506 530.216 118.642C530.194 118.71 530.173 118.756 530.129 118.801C530.194 118.959 530.238 118.959 530.281 118.801C530.39 118.688 530.455 118.438 530.52 118.302C530.607 118.144 530.672 117.985 530.759 117.804C530.933 117.464 530.52 117.124 530.238 117.396C530.064 117.577 529.955 117.759 529.89 118.008C529.781 118.438 530.39 118.597 530.52 118.189C530.564 118.053 530.607 117.985 530.716 117.872C530.542 117.736 530.368 117.6 530.194 117.464C529.999 117.849 529.781 118.234 529.629 118.642C529.521 118.914 529.542 119.231 529.803 119.39C530.455 119.843 530.89 118.891 530.998 118.37C531.107 117.872 531.129 116.784 530.325 117.011C529.673 117.215 529.412 118.234 529.455 118.846C529.434 119.299 530.086 119.299 530.064 118.869Z" fill="#161616"/>
<path d="M528.086 111.142C528.26 109.941 528.716 107.992 529.999 105.976C530.455 105.273 531.39 103.755 532.933 102.735C535.845 100.787 540.322 100.945 543.583 103.325C546.756 105.658 548.342 109.85 547.669 113.997C541.127 113.045 534.606 112.094 528.086 111.142Z" fill="#02D3D8"/>
<path d="M517.414 111.006C527.456 112.298 537.497 113.589 547.538 114.881C548.777 115.039 548.777 113 547.538 112.841C537.497 111.55 527.456 110.258 517.414 108.967C516.154 108.808 516.176 110.847 517.414 111.006Z" fill="#161616"/>
<path d="M541.126 113.725C539.344 114.382 538.323 115.628 537.127 117.124C534.606 120.251 535.345 121.407 533.585 123.355C530.759 126.46 527.89 124.624 525.369 127.66C523.239 130.244 523.5 133.733 523.587 134.504C523.674 135.274 524.043 138.378 526.543 140.508C528.694 142.344 531.607 142.774 531.802 142.366C531.868 142.208 531.629 141.845 530.02 140.758C530.498 141.097 531.216 141.505 532.172 141.687C533.259 141.89 534.302 141.687 534.324 141.528C534.324 141.415 533.737 141.415 533.28 140.916C533.02 140.622 532.889 140.282 532.846 139.987C533.715 140.576 534.824 141.075 535.888 140.758C538.757 139.874 539.279 133.371 539.431 131.218C539.975 124.239 538.018 120.432 540.388 117.985C540.583 117.781 541.561 116.784 542.604 116.988C543.952 117.237 544.973 119.367 544.517 120.772C544.148 121.973 542.8 122.313 542.887 122.54C543.017 122.834 545.278 122.381 547.169 120.84C547.864 120.274 548.429 119.82 548.712 118.982C549.233 117.532 548.625 115.878 547.821 114.903C546.191 112.864 543.061 113 541.126 113.725Z" fill="#161616" stroke="#161616" stroke-width="2" stroke-miterlimit="10"/>
<path opacity="0.22" d="M543.8 122.721C543.365 122.766 542.757 122.789 542.735 122.63C542.713 122.562 542.865 122.449 542.865 122.449C542.865 122.449 542.344 123.106 541.714 123.197C541.409 123.242 541.148 123.129 540.975 123.038C542.105 125.485 543.257 128.431 544.235 131.807C545.321 135.523 545.93 138.922 546.278 141.823C547.451 141.823 549.082 141.687 550.929 141.097C552.45 140.599 553.667 139.942 554.559 139.375C552.124 135.501 550.907 132.396 550.233 130.289C549.907 129.292 549.234 126.958 548.886 125.825C548.256 123.74 547.777 122.018 547.43 120.84C547.256 120.999 546.973 121.248 546.626 121.497C546.126 121.86 545.126 122.562 543.8 122.721Z" fill="#6D6C6C"/>
<path d="M536.584 101.512C539.192 102.033 541.148 104.163 541.452 106.678C541.8 109.669 539.649 111.708 539.453 111.89C542.235 112.23 544.995 112.592 547.777 112.932C547.821 112.275 547.842 111.369 547.668 110.326C547.147 106.973 545.213 104.911 544.8 104.48C544.169 103.8 541.865 101.602 538.475 101.398C537.692 101.376 537.04 101.444 536.584 101.512Z" fill="#02D3D8"/>
</svg>
