<svg width="24" height="24" viewBox="0 0 24 24" fill="none" xmlns="http://www.w3.org/2000/svg">
<path fill-rule="evenodd" clip-rule="evenodd" d="M21.8004 8.02024C21.8004 8.02024 21.6049 6.64857 21.0051 6.04434C20.2449 5.25169 19.3922 5.24793 19.0013 5.20148C16.2027 5 12.0044 5 12.0044 5H11.9956C11.9956 5 7.79756 5 4.99867 5.20148C4.60778 5.24793 3.75556 5.25169 2.99489 6.04434C2.39511 6.64857 2.2 8.02024 2.2 8.02024C2.2 8.02024 2 9.63099 2 11.2417V12.7521C2 14.3626 2.2 15.9733 2.2 15.9733C2.2 15.9733 2.39511 17.345 2.99489 17.9492C3.75556 18.7421 4.75489 18.7167 5.2 18.7998C6.80022 18.9527 12 19 12 19C12 19 16.2027 18.9936 19.0013 18.7923C19.3922 18.7459 20.2449 18.7421 21.0051 17.9492C21.6049 17.345 21.8004 15.9733 21.8004 15.9733C21.8004 15.9733 22 14.3626 22 12.7521V11.2417C22 9.63099 21.8004 8.02024 21.8004 8.02024ZM9.93533 14.5818L9.93444 8.98916L15.3384 11.7951L9.93533 14.5818Z" fill="white"/>
</svg>
